<?xml version="1.0"?>
<svg xmlns="http://www.w3.org/2000/svg" xmlns:xlink="http://www.w3.org/1999/xlink" xmlns:svgjs="http://svgjs.com/svgjs" version="1.1" width="512" height="512" x="0" y="0" viewBox="0 0 512 512" style="enable-background:new 0 0 512 512" xml:space="preserve" class=""><g><g xmlns="http://www.w3.org/2000/svg"><path d="m181.088 350.347 81.317-31.82c1.928-.754 3.677-1.899 5.141-3.362l229.81-229.81c19.495-19.495 19.495-51.215 0-70.711-19.495-19.495-51.216-19.495-70.711 0l-229.81 229.81c-1.463 1.463-2.608 3.213-3.362 5.141l-31.82 81.317c-2.172 5.55-.852 11.859 3.362 16.073s10.523 5.534 16.073 3.362zm266.77-314.489c7.798-7.798 20.486-7.798 28.284 0s7.798 20.486 0 28.284l-14.142 14.143-28.284-28.285zm-35.356 35.356 28.284 28.284-183.847 183.848-28.284-28.284zm-199.449 210.672 17.062 17.062-28.031 10.969z" fill="#e5e1e1" data-original="#000000" style="" class=""/><path d="m497 382h-367v-367c0-8.284-6.716-15-15-15h-100c-8.284 0-15 6.716-15 15v482c0 8.284 6.716 15 15 15h482c8.284 0 15-6.716 15-15v-100c0-8.284-6.716-15-15-15zm-467-352h70v30h-25c-8.284 0-15 6.716-15 15s6.716 15 15 15h25v30h-15c-8.284 0-15 6.716-15 15s6.716 15 15 15h15v30h-25c-8.284 0-15 6.716-15 15s6.716 15 15 15h25v30h-15c-8.284 0-15 6.716-15 15s6.716 15 15 15h15v30h-25c-8.284 0-15 6.716-15 15s6.716 15 15 15h25v30h-15c-8.284 0-15 6.716-15 15s6.716 15 15 15h15v.787l-70 70zm452 452h-430.787l70-70h.787v15c0 8.284 6.716 15 15 15s15-6.716 15-15v-15h30v25c0 8.284 6.716 15 15 15s15-6.716 15-15v-25h30v15c0 8.284 6.716 15 15 15s15-6.716 15-15v-15h30v25c0 8.284 6.716 15 15 15s15-6.716 15-15v-25h30v15c0 8.284 6.716 15 15 15s15-6.716 15-15v-15h30v25c0 8.284 6.716 15 15 15s15-6.716 15-15v-25h30z" fill="#e5e1e1" data-original="#000000" style="" class=""/></g></g></svg>
