<svg viewBox="0 0 23 16" fill="none" xmlns="http://www.w3.org/2000/svg">
	<path d="M1.40334 12.5305H4.72449H5.19885C5.6663 12.5305 6.19455 12.2728 6.40953 11.8474C6.67839 11.3137 6.94708 10.7778 7.2181 10.2442C7.64804 9.39301 8.07584 8.53967 8.50595 7.68852C8.60406 7.49307 8.70236 7.29742 8.80047 7.10197C7.94511 6.99162 7.09192 6.88107 6.2366 6.77305C6.34636 7.04446 6.45631 7.31588 6.56607 7.58729C6.8302 8.24049 7.09432 8.89388 7.35847 9.54469C7.67865 10.3383 8.00123 11.1318 8.32142 11.9254C8.59719 12.6085 8.87534 13.2919 9.15111 13.975C9.28673 14.3085 9.41998 14.6398 9.5554 14.9732C9.55777 14.9778 9.56014 14.9823 9.56014 14.987C9.60692 15.0973 9.65371 15.2079 9.70029 15.3159C9.78912 15.477 9.90836 15.6058 10.0625 15.7023C10.2986 15.8817 10.6048 16.0128 10.9133 15.999C11.1635 15.9875 11.4017 15.9254 11.6215 15.8104C11.9229 15.654 12.1801 15.3042 12.2666 14.9846C12.3858 14.543 12.5051 14.1014 12.6241 13.6596C12.907 12.6059 13.1896 11.5526 13.4725 10.5013C13.8138 9.22931 14.1573 7.95713 14.4987 6.68511C14.7955 5.58567 15.0899 4.48385 15.3868 3.38422C15.5317 2.8482 15.6813 2.31234 15.8191 1.77398C15.8215 1.76699 15.8238 1.76019 15.8238 1.75319H13.1198C13.2226 2.07745 13.3255 2.40191 13.4283 2.72615C13.6737 3.50369 13.9214 4.28336 14.1668 5.06085C14.4637 5.99944 14.7604 6.93549 15.0573 7.87407C15.3143 8.68832 15.5715 9.50256 15.8309 10.317C15.9571 10.7126 16.0763 11.1107 16.2072 11.5039C16.2095 11.5085 16.2095 11.5153 16.2119 11.52C16.3965 12.1019 16.934 12.5321 17.5651 12.5321H18.9254H21.0967H21.5969C21.9568 12.5321 22.333 12.378 22.5879 12.1272C22.8309 11.888 23.0133 11.4946 22.9992 11.1519C22.9829 10.7954 22.8636 10.4251 22.5879 10.1766C22.3141 9.92654 21.9775 9.77013 21.5965 9.77013H20.2362H18.0649H17.5647C18.0158 10.1082 18.4669 10.4465 18.9179 10.7822C18.815 10.4579 18.7122 10.1335 18.6093 9.80923C18.364 9.03169 18.1162 8.25201 17.8709 7.47452C17.574 6.53594 17.2773 5.59989 16.9804 4.6613C16.7234 3.84706 16.4661 3.03281 16.2067 2.21837C16.0806 1.82281 15.9614 1.42472 15.8305 1.0315C15.8281 1.02683 15.8281 1.02003 15.8257 1.01537C15.7345 0.725499 15.5687 0.483981 15.3233 0.297667C15.0872 0.11834 14.7811 -0.0128013 14.4725 0.000995719C14.2224 0.0124586 13.9841 0.0746313 13.7644 0.189648C13.463 0.346046 13.2058 0.695771 13.1193 1.01538C13.0001 1.45699 12.8808 1.89861 12.7618 2.34042C12.4789 3.39405 12.1962 4.44743 11.9133 5.49872C11.572 6.77069 11.2285 8.04287 10.8872 9.31489C10.5903 10.4143 10.296 11.5161 9.99911 12.6158C9.85422 13.1518 9.70458 13.6877 9.56679 14.226C9.56443 14.233 9.56206 14.2398 9.56206 14.2468H12.2661C12.1564 13.9754 12.0464 13.704 11.9366 13.4326C11.6725 12.7794 11.4084 12.126 11.1443 11.4752C10.8241 10.6815 10.5015 9.88806 10.1813 9.0944C9.90552 8.41132 9.62737 7.72798 9.3516 7.04489C9.21598 6.71131 9.08274 6.38006 8.94732 6.04667C8.94495 6.04201 8.94258 6.03754 8.94258 6.03288C8.85138 5.80984 8.75801 5.59573 8.58271 5.4234C8.48914 5.3521 8.3934 5.27846 8.29983 5.20716C8.13855 5.10593 7.96562 5.05076 7.7787 5.04376C7.65493 5.01151 7.53096 5.01151 7.40482 5.04376C7.27868 5.04376 7.15945 5.07602 7.05186 5.13799C6.78773 5.24835 6.51194 5.44166 6.3811 5.70161C6.11224 6.23529 5.84356 6.77115 5.57253 7.30483C5.14259 8.15598 4.71479 9.00932 4.28468 9.86047C4.18658 10.0559 4.08827 10.2516 3.99016 10.447C4.39444 10.2193 4.79655 9.99161 5.20084 9.76393H1.87969H1.40533C1.04546 9.76393 0.669228 9.918 0.414377 10.1688C0.169199 10.4144 -0.0153721 10.8076 0.00101152 11.1505C0.0173962 11.507 0.136629 11.8773 0.412402 12.1258C0.685809 12.3741 1.02237 12.5305 1.40335 12.5305L1.40334 12.5305Z" />
</svg>
