<svg viewBox="0 0 20 16" fill="none" xmlns="http://www.w3.org/2000/svg">
	<path d="M0.039993 15.9277H18V15.3854V15.295V15.277C17.9601 13.9935 17.6999 13.1079 16.24 12.2944C14.3199 11.2098 12.18 10.2698 12.18 10.2698C11.8799 10.1251 11.7 9.72749 11.6 9.2395C11.5801 9.09487 11.54 8.95024 11.52 8.80562C13.52 7.21487 13.1 3.79855 13.1 3.79855C12.9001 -0.0336741 9.3601 -0.0155811 9 0.0024731C8.66001 -0.0155681 5.10005 -0.0336095 4.89996 3.79855C4.89996 3.79855 4.47996 7.21502 6.47999 8.80562C6.46003 8.95025 6.44007 9.09488 6.39998 9.2395C6.30001 9.72749 6.12004 10.1253 5.81998 10.2698C5.81998 10.2698 3.68005 11.2097 1.76002 12.2944C0.320027 13.1079 0.0400772 13.9935 0 15.277V15.295V15.3854V16L0.000164965 15.9277L0.039993 15.9277Z" />
</svg>
