<svg viewBox="0 0 17 16" fill="none" xmlns="http://www.w3.org/2000/svg">
	<g clip-path="url(#clip0_5014_2580)">
		<path d="M8.70636 0.0349767L8.15321 0.184566L1.33829 2.02753L0.785138 2.17712C0.516646 2.25007 0.28671 2.43173 0.145776 2.68223C0.00484168 2.93274 -0.0355808 3.23165 0.0333766 3.51337L2.43196 13.2672C2.50152 13.5488 2.67474 13.7899 2.91362 13.9377C3.15251 14.0855 3.43754 14.1279 3.70619 14.0556L3.70761 14.0552L11.626 11.9138L11.6274 11.9134C11.8959 11.8405 12.1258 11.6588 12.2668 11.4083C12.4077 11.1578 12.4481 10.8589 12.3792 10.5772L9.98059 0.823333C9.91103 0.541772 9.7378 0.300644 9.49892 0.152849C9.26004 0.00505441 8.97501 -0.0373364 8.70636 0.0349767Z" fill="#F2F2F2" />
		<path d="M8.78127 0.340476L8.1261 0.517654L1.5152 2.30545L0.86004 2.48263C0.66884 2.53457 0.505096 2.66393 0.404733 2.84233C0.30437 3.02072 0.275584 3.23358 0.32469 3.4342L2.72327 13.1881C2.77281 13.3886 2.89616 13.5603 3.06628 13.6655C3.23639 13.7708 3.43937 13.801 3.63068 13.7495L3.63211 13.7491L11.5505 11.6077L11.5519 11.6073C11.7431 11.5554 11.9068 11.426 12.0072 11.2476C12.1076 11.0692 12.1364 10.8564 12.0872 10.6557L9.68867 0.901884C9.63913 0.701379 9.51578 0.529667 9.34567 0.424419C9.17556 0.319171 8.97258 0.288983 8.78127 0.340476V0.340476Z" fill="white" />
		<path d="M8.2869 3.4992L4.28119 4.58247C4.23645 4.59457 4.18896 4.58753 4.14916 4.56291C4.10937 4.53829 4.08053 4.4981 4.069 4.45119C4.05746 4.40427 4.06417 4.35447 4.08764 4.31274C4.11112 4.27101 4.14944 4.24076 4.19418 4.22867L8.19989 3.1454C8.24462 3.13335 8.29207 3.14041 8.33183 3.16503C8.37159 3.18966 8.4004 3.22983 8.41194 3.27672C8.42347 3.32361 8.41677 3.37338 8.39333 3.4151C8.36988 3.45682 8.3316 3.48707 8.2869 3.4992V3.4992Z" fill="#F2F2F2" />
		<path d="M9.12923 3.90793L4.42767 5.17938C4.38293 5.19148 4.33544 5.18444 4.29565 5.15982C4.25585 5.1352 4.22702 5.09502 4.21548 5.0481C4.20394 5.00118 4.21065 4.95138 4.23413 4.90965C4.25761 4.86792 4.29593 4.83768 4.34067 4.82558L9.04223 3.55413C9.08697 3.54203 9.13446 3.54906 9.17425 3.57368C9.21405 3.5983 9.24288 3.63849 9.25442 3.68541C9.26596 3.73233 9.25925 3.78213 9.23577 3.82386C9.2123 3.86559 9.17397 3.89583 9.12923 3.90793V3.90793Z" fill="#F2F2F2" />
		<path d="M8.94461 6.17502L4.9389 7.25829C4.91675 7.26428 4.89369 7.26564 4.87104 7.26228C4.84838 7.25893 4.82658 7.25093 4.80688 7.23873C4.78718 7.22654 4.76995 7.2104 4.7562 7.19123C4.74244 7.17206 4.73242 7.15024 4.72671 7.12701C4.721 7.10378 4.7197 7.07959 4.7229 7.05584C4.7261 7.03208 4.73373 7.00922 4.74536 6.98856C4.75698 6.96789 4.77238 6.94984 4.79066 6.93541C4.80894 6.92099 4.82975 6.91048 4.8519 6.90449L8.85761 5.82122C8.87976 5.81523 8.90282 5.81387 8.92547 5.81723C8.94813 5.82058 8.96993 5.82858 8.98963 5.84077C9.00934 5.85296 9.02656 5.8691 9.04031 5.88827C9.05407 5.90744 9.06409 5.92927 9.0698 5.9525C9.07551 5.97573 9.07681 5.99991 9.07361 6.02367C9.07041 6.04742 9.06278 6.07029 9.05115 6.09095C9.03953 6.11161 9.02414 6.12967 9.00585 6.1441C8.98757 6.15852 8.96676 6.16903 8.94461 6.17502V6.17502Z" fill="#F2F2F2" />
		<path d="M9.78743 6.58371L5.08588 7.85516C5.06372 7.86115 5.04066 7.86251 5.01801 7.85915C4.99536 7.8558 4.97356 7.8478 4.95385 7.83561C4.93415 7.82342 4.91693 7.80727 4.90317 7.7881C4.88942 7.76893 4.8794 7.74711 4.87368 7.72388C4.86797 7.70065 4.86668 7.67646 4.86988 7.65271C4.87308 7.62895 4.88071 7.60609 4.89233 7.58543C4.90396 7.56477 4.91935 7.54671 4.93763 7.53228C4.95591 7.51786 4.97672 7.50735 4.99887 7.50136L9.70043 6.22991C9.74517 6.21781 9.79266 6.22484 9.83245 6.24946C9.87225 6.27408 9.90109 6.31427 9.91262 6.36119C9.92416 6.40811 9.91745 6.45791 9.89398 6.49964C9.8705 6.54137 9.83217 6.57161 9.78743 6.58371Z" fill="#F2F2F2" />
		<path d="M9.6027 8.85031L5.59699 9.93358C5.55226 9.94564 5.5048 9.93859 5.46503 9.91396C5.42526 9.88934 5.39645 9.84917 5.38491 9.80227C5.37338 9.75537 5.38008 9.70559 5.40353 9.66387C5.42698 9.62215 5.46527 9.59191 5.50999 9.57978L9.51569 8.49651C9.56043 8.48441 9.60792 8.49145 9.64772 8.51607C9.68751 8.54069 9.71635 8.58088 9.72789 8.62779C9.73942 8.67471 9.73272 8.72451 9.70924 8.76624C9.68576 8.80797 9.64744 8.83821 9.6027 8.85031Z" fill="#F2F2F2" />
		<path d="M10.4453 9.25949L5.74374 10.5309C5.72158 10.537 5.69851 10.5383 5.67584 10.535C5.65317 10.5317 5.63135 10.5237 5.61163 10.5115C5.59191 10.4993 5.57468 10.4831 5.56091 10.464C5.54714 10.4448 5.53711 10.4229 5.5314 10.3997C5.52568 10.3765 5.52439 10.3523 5.5276 10.3285C5.5308 10.3047 5.53844 10.2819 5.55009 10.2612C5.56173 10.2405 5.57714 10.2225 5.59544 10.208C5.61374 10.1936 5.63457 10.1831 5.65674 10.1771L10.3583 8.90569C10.403 8.89359 10.4505 8.90063 10.4903 8.92525C10.5301 8.94987 10.559 8.99006 10.5705 9.03697C10.582 9.08389 10.5753 9.13369 10.5518 9.17542C10.5284 9.21715 10.49 9.24739 10.4453 9.25949V9.25949Z" fill="#F2F2F2" />
		<path d="M3.59736 5.69342L2.17978 6.07678C2.15833 6.08255 2.13557 6.07917 2.11649 6.06737C2.09742 6.05557 2.08358 6.03631 2.07803 6.01383L1.75263 4.69057C1.74712 4.66807 1.75035 4.6442 1.7616 4.6242C1.77285 4.6042 1.79122 4.58969 1.81265 4.58387L3.23024 4.20051C3.25169 4.19473 3.27445 4.19812 3.29352 4.20992C3.3126 4.22172 3.32643 4.24098 3.33198 4.26346L3.65739 5.58672C3.66289 5.60922 3.65967 5.63308 3.64841 5.65309C3.63716 5.67309 3.6188 5.68759 3.59736 5.69342V5.69342Z" fill="#E6E6E6" />
		<path d="M4.25507 8.36871L2.83749 8.75207C2.81604 8.75784 2.79328 8.75446 2.77421 8.74266C2.75513 8.73086 2.7413 8.7116 2.73575 8.68912L2.41034 7.36586C2.40483 7.34336 2.40806 7.3195 2.41932 7.29949C2.43057 7.27949 2.44893 7.26499 2.47037 7.25916L3.88795 6.8758C3.9094 6.87003 3.93216 6.87341 3.95124 6.88521C3.97031 6.89701 3.98414 6.91627 3.9897 6.93875L4.3151 8.26201C4.32061 8.28451 4.31738 8.30838 4.30613 8.32838C4.29487 8.34838 4.27651 8.36289 4.25507 8.36871V8.36871Z" fill="#E6E6E6" />
		<path d="M4.91328 11.0445L3.4957 11.4279C3.47424 11.4336 3.45148 11.4302 3.43241 11.4184C3.41333 11.4066 3.3995 11.3874 3.39395 11.3649L3.06854 10.0416C3.06304 10.0191 3.06627 9.99528 3.07752 9.97527C3.08877 9.95527 3.10713 9.94077 3.12857 9.93494L4.54615 9.55158C4.56761 9.54581 4.59037 9.54919 4.60944 9.56099C4.62852 9.5728 4.64235 9.59205 4.6479 9.61453L4.97331 10.9378C4.97881 10.9603 4.97558 10.9842 4.96433 11.0042C4.95308 11.0242 4.93472 11.0387 4.91328 11.0445V11.0445Z" fill="#E6E6E6" />
		<path d="M14.2309 2.50732H6.05053C5.77317 2.50765 5.50727 2.62334 5.31114 2.82901C5.11502 3.03467 5.00471 3.31352 5.00439 3.60438V13.6773C5.00471 13.9682 5.11502 14.2471 5.31114 14.4527C5.50727 14.6584 5.77317 14.7741 6.05053 14.7744H14.2309C14.5083 14.7741 14.7742 14.6584 14.9703 14.4527C15.1664 14.2471 15.2767 13.9682 15.277 13.6773V3.60438C15.2767 3.31352 15.1664 3.03467 14.9703 2.82901C14.7742 2.62334 14.5083 2.50765 14.2309 2.50732V2.50732Z" fill="#E6E6E6" />
		<path d="M14.231 2.82324H6.05064C5.85313 2.82347 5.66377 2.90586 5.52411 3.05232C5.38445 3.19878 5.30589 3.39735 5.30566 3.60448V13.6774C5.30589 13.8846 5.38445 14.0831 5.52411 14.2296C5.66377 14.3761 5.85313 14.4584 6.05064 14.4587H14.231C14.4285 14.4584 14.6179 14.3761 14.7576 14.2296C14.8972 14.0831 14.9758 13.8846 14.976 13.6774V3.60448C14.9758 3.39736 14.8972 3.19878 14.7576 3.05232C14.6179 2.90586 14.4285 2.82348 14.231 2.82324V2.82324Z" fill="white" />
		<path d="M15.0903 15.9999C16.145 15.9999 17 15.1033 17 13.9973C17 12.8912 16.145 11.9946 15.0903 11.9946C14.0357 11.9946 13.1807 12.8912 13.1807 13.9973C13.1807 15.1033 14.0357 15.9999 15.0903 15.9999Z" fill="#6C63FF" />
		<path d="M16.0035 13.7361H15.3392V13.0395C15.3392 12.9703 15.313 12.9038 15.2663 12.8548C15.2196 12.8058 15.1562 12.7783 15.0902 12.7783C15.0241 12.7783 14.9607 12.8058 14.914 12.8548C14.8673 12.9038 14.8411 12.9703 14.8411 13.0395V13.7361H14.1768C14.1108 13.7361 14.0474 13.7636 14.0007 13.8126C13.954 13.8616 13.9277 13.928 13.9277 13.9973C13.9277 14.0666 13.954 14.133 14.0007 14.182C14.0474 14.231 14.1108 14.2585 14.1768 14.2585H14.8411V14.9551C14.8411 15.0244 14.8673 15.0908 14.914 15.1398C14.9607 15.1888 15.0241 15.2163 15.0902 15.2163C15.1562 15.2163 15.2196 15.1888 15.2663 15.1398C15.313 15.0908 15.3392 15.0244 15.3392 14.9551V14.2585H16.0035C16.0695 14.2585 16.1329 14.231 16.1796 14.182C16.2263 14.133 16.2526 14.0666 16.2526 13.9973C16.2526 13.928 16.2263 13.8616 16.1796 13.8126C16.1329 13.7636 16.0695 13.7361 16.0035 13.7361V13.7361Z" fill="white" />
		<path d="M12.9996 8.35805H8.86288C8.83999 8.35808 8.81731 8.35337 8.79616 8.34421C8.775 8.33504 8.75577 8.32158 8.73957 8.30462C8.72337 8.28765 8.71052 8.2675 8.70176 8.24532C8.69299 8.22315 8.68848 8.19937 8.68848 8.17536C8.68848 8.15136 8.69299 8.12758 8.70176 8.10541C8.71052 8.08323 8.72337 8.06308 8.73957 8.04611C8.75577 8.02915 8.775 8.01569 8.79616 8.00652C8.81731 7.99735 8.83999 7.99265 8.86288 7.99268H12.9996C13.0458 7.99273 13.0901 8.012 13.1227 8.04626C13.1553 8.08051 13.1737 8.12695 13.1737 8.17536C13.1737 8.22378 13.1553 8.27022 13.1227 8.30447C13.0901 8.33873 13.0458 8.358 12.9996 8.35805V8.35805Z" fill="#E6E6E6" />
		<path d="M13.7183 8.97475H8.86288C8.83999 8.97478 8.81731 8.97007 8.79616 8.96091C8.775 8.95174 8.75577 8.93828 8.73957 8.92132C8.72337 8.90435 8.71052 8.8842 8.70176 8.86202C8.69299 8.83984 8.68848 8.81607 8.68848 8.79206C8.68848 8.76806 8.69299 8.74428 8.70176 8.7221C8.71052 8.69993 8.72337 8.67978 8.73957 8.66281C8.75577 8.64584 8.775 8.63239 8.79616 8.62322C8.81731 8.61405 8.83999 8.60935 8.86288 8.60938H13.7183C13.7645 8.60938 13.8088 8.62862 13.8414 8.66288C13.8741 8.69714 13.8925 8.74361 13.8925 8.79206C13.8925 8.84052 13.8741 8.88698 13.8414 8.92124C13.8088 8.95551 13.7645 8.97475 13.7183 8.97475Z" fill="#E6E6E6" />
		<path d="M12.9996 11.1212H8.86288C8.83999 11.1213 8.81731 11.1166 8.79616 11.1074C8.775 11.0982 8.75577 11.0848 8.73957 11.0678C8.72337 11.0508 8.71052 11.0307 8.70176 11.0085C8.69299 10.9863 8.68848 10.9626 8.68848 10.9385C8.68848 10.9145 8.69299 10.8908 8.70176 10.8686C8.71052 10.8464 8.72337 10.8263 8.73957 10.8093C8.75577 10.7923 8.775 10.7789 8.79616 10.7697C8.81731 10.7605 8.83999 10.7558 8.86288 10.7559H12.9996C13.0458 10.7559 13.0902 10.7751 13.1228 10.8094C13.1555 10.8436 13.1738 10.8901 13.1738 10.9385C13.1738 10.987 13.1555 11.0335 13.1228 11.0677C13.0902 11.102 13.0458 11.1212 12.9996 11.1212V11.1212Z" fill="#E6E6E6" />
		<path d="M13.7183 11.7379H8.86288C8.83999 11.738 8.81731 11.7333 8.79616 11.7241C8.775 11.7149 8.75577 11.7015 8.73957 11.6845C8.72337 11.6675 8.71052 11.6474 8.70176 11.6252C8.69299 11.603 8.68848 11.5793 8.68848 11.5552C8.68848 11.5312 8.69299 11.5075 8.70176 11.4853C8.71052 11.4631 8.72337 11.443 8.73957 11.426C8.75577 11.409 8.775 11.3956 8.79616 11.3864C8.81731 11.3772 8.83999 11.3725 8.86288 11.3726H13.7183C13.7411 11.3725 13.7638 11.3772 13.785 11.3864C13.8061 11.3956 13.8254 11.409 13.8416 11.426C13.8578 11.443 13.8706 11.4631 13.8794 11.4853C13.8881 11.5075 13.8927 11.5312 13.8927 11.5552C13.8927 11.5793 13.8881 11.603 13.8794 11.6252C13.8706 11.6474 13.8578 11.6675 13.8416 11.6845C13.8254 11.7015 13.8061 11.7149 13.785 11.7241C13.7638 11.7333 13.7411 11.738 13.7183 11.7379Z" fill="#E6E6E6" />
		<path d="M7.93616 9.25464H6.47221C6.45006 9.25462 6.42883 9.24538 6.41317 9.22896C6.39751 9.21253 6.3887 9.19027 6.38867 9.16704V7.80049C6.3887 7.77727 6.39751 7.755 6.41317 7.73858C6.42883 7.72215 6.45006 7.71292 6.47221 7.71289H7.93616C7.95831 7.71292 7.97955 7.72215 7.99521 7.73858C8.01087 7.755 8.01967 7.77727 8.0197 7.80049V9.16704C8.01967 9.19027 8.01087 9.21253 7.99521 9.22896C7.97955 9.24538 7.95831 9.25462 7.93616 9.25464V9.25464Z" fill="#E6E6E6" />
		<path d="M7.93616 12.0178H6.47221C6.45006 12.0178 6.42883 12.0086 6.41317 11.9921C6.39751 11.9757 6.3887 11.9535 6.38867 11.9302V10.5637C6.3887 10.5404 6.39751 10.5182 6.41317 10.5018C6.42883 10.4853 6.45006 10.4761 6.47221 10.4761H7.93616C7.95831 10.4761 7.97955 10.4853 7.99521 10.5018C8.01087 10.5182 8.01967 10.5404 8.0197 10.5637V11.9302C8.01967 11.9535 8.01087 11.9757 7.99521 11.9921C7.97955 12.0086 7.95831 12.0178 7.93616 12.0178V12.0178Z" fill="#E6E6E6" />
		<path d="M13.0043 5.28237H9.95448C9.90828 5.28237 9.86397 5.26312 9.8313 5.22886C9.79863 5.1946 9.78027 5.14813 9.78027 5.09968C9.78027 5.05123 9.79863 5.00476 9.8313 4.9705C9.86397 4.93624 9.90828 4.91699 9.95448 4.91699H13.0043C13.0505 4.91699 13.0949 4.93624 13.1275 4.9705C13.1602 5.00476 13.1786 5.05123 13.1786 5.09968C13.1786 5.14813 13.1602 5.1946 13.1275 5.22886C13.0949 5.26312 13.0505 5.28237 13.0043 5.28237Z" fill="#CCCCCC" />
		<path d="M13.723 5.89907H9.95448C9.93161 5.89907 9.90895 5.89434 9.88782 5.88516C9.86668 5.87598 9.84748 5.86253 9.8313 5.84556C9.81512 5.8286 9.80229 5.80846 9.79353 5.78629C9.78478 5.76413 9.78027 5.74037 9.78027 5.71638C9.78027 5.69239 9.78478 5.66863 9.79353 5.64647C9.80229 5.6243 9.81512 5.60416 9.8313 5.5872C9.84748 5.57024 9.86668 5.55678 9.88782 5.5476C9.90895 5.53842 9.93161 5.53369 9.95448 5.53369H13.723C13.7692 5.53369 13.8135 5.55294 13.8461 5.5872C13.8788 5.62146 13.8972 5.66793 13.8972 5.71638C13.8972 5.76483 13.8788 5.8113 13.8461 5.84556C13.8135 5.87982 13.7692 5.89907 13.723 5.89907V5.89907Z" fill="#CCCCCC" />
		<path d="M9.27952 6.64631H6.46781C6.44566 6.64628 6.42443 6.63704 6.40877 6.62062C6.39311 6.6042 6.3843 6.58193 6.38428 6.55871V4.25752C6.3843 4.2343 6.39311 4.21203 6.40877 4.19561C6.42443 4.17918 6.44566 4.16995 6.46781 4.16992H9.27952C9.30167 4.16995 9.3229 4.17918 9.33856 4.19561C9.35422 4.21203 9.36303 4.2343 9.36305 4.25752V6.55871C9.36303 6.58193 9.35422 6.6042 9.33856 6.62062C9.3229 6.63704 9.30167 6.64628 9.27952 6.64631V6.64631Z" fill="#6C63FF" />
	</g>
	<defs>
		<clipPath id="clip0_5014_2580">
			<rect width="17" height="16" fill="white" />
		</clipPath>
	</defs>
</svg>
