<svg viewBox="0 0 17 16" fill="none" xmlns="http://www.w3.org/2000/svg">
	<path d="M13.8709 0H4.41629C3.83782 0.000575933 3.28322 0.230646 2.87418 0.639659C2.46514 1.0487 2.23508 1.6033 2.23438 2.18177V11.6364C2.23509 12.2149 2.46516 12.7695 2.87418 13.1785C3.2832 13.5876 3.83782 13.8176 4.41629 13.8183H13.8709C14.4493 13.8176 15.004 13.5876 15.4131 13.1785C15.8221 12.7695 16.0522 12.2149 16.0527 11.6364V2.18177C16.0521 1.6033 15.8221 1.0487 15.4131 0.639659C15.004 0.230616 14.4493 0.00055286 13.8709 0ZM14.5983 11.6366H14.5981C14.598 11.8295 14.5214 12.0144 14.3851 12.1507C14.2487 12.2871 14.0637 12.3638 13.8709 12.364H4.41629C4.22336 12.3638 4.0385 12.2871 3.90217 12.1507C3.76568 12.0144 3.68909 11.8295 3.68894 11.6366V2.18196C3.68908 1.98917 3.76568 1.80417 3.90217 1.66783C4.03851 1.53149 4.22337 1.45475 4.41629 1.45475H13.8709C14.0637 1.45475 14.2487 1.53149 14.3851 1.66783C14.5214 1.80418 14.598 1.98918 14.5981 2.18196L14.5983 11.6366Z" />
	<path d="M13.1438 14.5454H1.89861C1.6825 14.5453 1.50744 14.3702 1.50729 14.1541V2.90893C1.50729 2.64906 1.36865 2.40892 1.14361 2.27904C0.91858 2.14917 0.641284 2.14917 0.416269 2.27904C0.191237 2.4089 0.0527344 2.64905 0.0527344 2.90893V14.1541C0.0533103 14.6435 0.247964 15.1127 0.593948 15.4587C0.940061 15.8048 1.40927 15.9995 1.89862 16H13.1438C13.4037 16 13.6437 15.8614 13.7737 15.6364C13.9036 15.4113 13.9036 15.1342 13.7737 14.9092C13.6437 14.6841 13.4037 14.5455 13.1438 14.5455L13.1438 14.5454Z" />
	<path d="M11.6894 6.18177H9.87115V4.36352C9.87115 4.10365 9.7325 3.86351 9.50747 3.73363C9.28243 3.60376 9.00528 3.60376 8.78027 3.73363C8.55526 3.86349 8.41659 4.10364 8.41659 4.36352V6.18177H6.59834C6.33861 6.18177 6.09848 6.32027 5.9686 6.5453C5.83859 6.77034 5.83859 7.04763 5.9686 7.27265C6.09846 7.49768 6.33861 7.63632 6.59834 7.63632H8.41659V9.45442C8.41659 9.7143 8.55524 9.95443 8.78027 10.0843C9.0053 10.2143 9.28245 10.2143 9.50747 10.0843C9.7325 9.95445 9.87115 9.71431 9.87115 9.45442V7.63632H11.6894C11.9493 7.63632 12.1893 7.49768 12.3193 7.27265C12.4491 7.04761 12.4491 6.77032 12.3193 6.5453C12.1893 6.32027 11.9493 6.18177 11.6894 6.18177Z" />
</svg>
