<svg viewBox="0 0 12 16" fill="none" xmlns="http://www.w3.org/2000/svg">
	<path d="M10.5237 3.72309H8.18369V1.43384L10.5237 3.72309ZM11.9996 14.7691C11.9996 15.0956 11.8733 15.4086 11.6481 15.6394C11.423 15.8702 11.1179 16 10.7997 16H1.19994C0.881783 16 0.576456 15.8702 0.351411 15.6394C0.126375 15.4086 0 15.0956 0 14.7691V1.23072C0 0.904402 0.126375 0.591242 0.351411 0.360425C0.576447 0.129617 0.881771 0 1.19994 0H6.98396V4.33857C6.98396 4.50181 7.04714 4.65823 7.15958 4.77372C7.27217 4.88904 7.42484 4.95401 7.58384 4.95401H12V5.5386V14.7692L11.9996 14.7691ZM8.09977 9.53821L6.59974 9.53837V7.99987C6.59974 7.78011 6.4854 7.57691 6.2998 7.46697C6.11404 7.35717 5.88535 7.35717 5.69975 7.46697C5.51415 7.57693 5.39981 7.78012 5.39981 7.99987V9.53837H3.89979C3.68552 9.53837 3.4874 9.65565 3.38021 9.84601C3.273 10.0365 3.273 10.2711 3.38021 10.4615C3.48742 10.6518 3.68553 10.7691 3.89979 10.7691H5.39981V12.3076C5.39981 12.5274 5.51415 12.7306 5.69975 12.8405C5.88535 12.9505 6.11404 12.9505 6.2998 12.8405C6.4854 12.7305 6.59974 12.5273 6.59974 12.3076V10.7691H8.09977C8.31404 10.7691 8.51215 10.6518 8.61934 10.4615C8.7264 10.2711 8.7264 10.0365 8.61934 9.84601C8.51213 9.65565 8.31402 9.53837 8.09977 9.53837V9.53821Z" />
</svg>
