<svg width="52" height="52" viewBox="0 0 52 52" fill="none" xmlns="http://www.w3.org/2000/svg">
<path d="M24.2586 34.632C24.2627 31.977 25.2164 29.4111 26.9473 27.3978C28.6782 25.3846 31.0722 24.057 33.6966 23.6548C34.0507 22.1848 34.2356 20.6792 34.2478 19.1672C34.2478 14.9705 32.5807 10.9458 29.6132 7.97825C26.6457 5.01075 22.6209 3.34363 18.4242 3.34363C14.2275 3.34363 10.2027 5.01075 7.23521 7.97825C4.26771 10.9458 2.60059 14.9705 2.60059 19.1672C2.60059 32.5572 18.4242 47.164 18.4242 47.164C20.9252 44.7666 23.2471 42.1892 25.3714 39.4524C24.6404 37.9506 24.2599 36.3023 24.2586 34.632ZM18.4242 26.3484C17.0039 26.3484 15.6155 25.9273 14.4345 25.1382C13.2536 24.3491 12.3331 23.2275 11.7896 21.9154C11.2461 20.6032 11.1039 19.1593 11.381 17.7662C11.6581 16.3732 12.342 15.0937 13.3463 14.0894C14.3506 13.085 15.6302 12.4011 17.0232 12.124C18.4162 11.8469 19.8601 11.9891 21.1723 12.5327C22.4845 13.0762 23.6061 13.9966 24.3951 15.1776C25.1842 16.3585 25.6054 17.7469 25.6054 19.1672C25.6026 21.071 24.8452 22.8959 23.499 24.2421C22.1529 25.5882 20.3279 26.3457 18.4242 26.3484Z" fill="#5173D8"/>
<path d="M49.1508 47.2056L41.9748 40.04C43.3732 38.3393 44.0643 36.1661 43.9051 33.9701C43.7459 31.7741 42.7486 29.7233 41.1195 28.2421C39.4904 26.761 37.3542 25.9628 35.153 26.0127C32.9518 26.0626 30.854 26.9569 29.2937 28.5104C27.7335 30.064 26.8302 32.1579 26.7707 34.3588C26.7113 36.5598 27.5002 38.6994 28.9743 40.3349C30.4485 41.9704 32.4949 42.9766 34.6902 43.1453C36.8855 43.314 39.0617 42.6322 40.7684 41.2412L47.9496 48.4068C48.1089 48.5661 48.3249 48.6555 48.5502 48.6555C48.7754 48.6555 48.9915 48.5661 49.1508 48.4068C49.3101 48.2475 49.3995 48.0314 49.3995 47.8062C49.3995 47.5809 49.3101 47.3649 49.1508 47.2056V47.2056ZM28.5588 34.632C28.5588 33.2817 28.9594 31.9619 29.71 30.8395C30.4606 29.7171 31.5273 28.8427 32.7752 28.3269C34.023 27.8112 35.3958 27.6773 36.7198 27.9422C38.0438 28.2072 39.2594 28.859 40.2127 29.8152C41.166 30.7714 41.8141 31.989 42.075 33.3138C42.3359 34.6386 42.1978 36.011 41.6783 37.2572C41.1587 38.5035 40.281 39.5676 39.1563 40.3147C38.0317 41.0619 36.7106 41.4585 35.3604 41.4544C33.555 41.4475 31.8258 40.7258 30.5512 39.4473C29.2765 38.1687 28.5601 36.4374 28.5588 34.632Z" fill="#5173D8"/>
</svg>
