<svg width="19" height="16" viewBox="0 0 19 16" fill="none" xmlns="http://www.w3.org/2000/svg">
	<path d="M8.41989 2.71578C8.41989 3.36653 8.90352 3.89408 9.50013 3.89408C10.0969 3.89408 10.5804 3.36655 10.5804 2.71578C10.5804 2.06504 10.097 1.53749 9.50013 1.53749C8.90353 1.53702 8.41989 2.06455 8.41989 2.71578ZM0.000590903 3.84777L9.5003 0L19 3.84777V5.0491H0.000590903V3.84777ZM0.000590903 14.1976H1.94054L2.21609 6.06372H3.8683L4.14342 14.1976H6.24596L6.52108 6.06372H8.17328L8.4484 14.1976H10.5509L10.8261 6.06372H12.4785L12.7536 14.1976H14.8561L15.1317 6.06372H16.7839L17.0595 14.1976H18.9994V16H0L0.000590903 14.1976Z" fill="#707070" fill-opacity="0.9" />
</svg>
