<svg viewBox="0 0 19 16" fill="none" xmlns="http://www.w3.org/2000/svg">
	<path d="M15.0861 10.9472H12.8701V10.3081H15.0861C16.5006 10.3081 17.6559 9.29787 17.6559 8.06092C17.6559 6.92701 16.6893 5.95804 15.3926 5.83428C15.204 5.8137 15.0626 5.66933 15.0626 5.50438C15.0626 4.37047 14.096 3.40151 12.7993 3.25715C12.6107 3.23658 12.4693 3.0922 12.4693 2.94783V2.90667C12.4693 1.66972 11.314 0.659446 9.89955 0.659446C8.48507 0.659446 7.32979 1.66972 7.32979 2.90667C7.32979 3.0922 7.1647 3.23657 6.95255 3.23657H6.5753C5.16082 3.23657 4.00554 4.24685 4.00554 5.4838C4.00554 5.64875 3.86417 5.8137 3.67555 5.83428C2.3789 5.97865 1.41224 6.92705 1.41224 8.06092C1.41224 9.29787 2.56752 10.3081 3.982 10.3081H6.19806V10.9472H3.982C2.14318 10.9472 0.657959 9.64836 0.657959 8.04037C0.657959 6.67961 1.74244 5.50456 3.25126 5.21598C3.41636 3.73158 4.83082 2.57712 6.55181 2.57712H6.57534C6.76396 1.13391 8.1549 0 9.87588 0C11.5969 0 13.0351 1.17505 13.1764 2.63885C14.5909 2.90685 15.6284 3.9583 15.7462 5.21598C17.2315 5.50455 18.3395 6.67978 18.3395 8.04037C18.4103 9.6484 16.925 10.9472 15.0862 10.9472H15.0861Z" fill="#8C8C8C" />
	<path d="M6.23594 5.67421H5.57465C5.57465 4.75691 6.32126 4.01025 7.2386 4.01025V4.67155C6.68398 4.67137 6.23594 5.11938 6.23594 5.67421Z" fill="#8C8C8C" />
	<path d="M11.2281 11.3283V7.46686L10.4174 6.67763H7.9V11.3495C7.53734 11.3495 7.23871 11.0509 7.23871 10.6882V6.67741C7.23871 6.31474 7.53732 6.01611 7.9 6.01611H10.5668C10.6521 6.01611 10.7374 6.0587 10.8015 6.12275L11.8042 7.12541C11.8682 7.18947 11.9108 7.27481 11.9108 7.36015V10.6882C11.8893 11.0294 11.5907 11.328 11.2281 11.328L11.2281 11.3283Z" fill="#8C8C8C" />
	<path d="M11.5696 7.65898H10.5669C10.3749 7.65898 10.2255 7.50958 10.2255 7.3176V6.31494H10.8868V6.97624H11.5481V7.65897L11.5696 7.65898Z" fill="#8C8C8C" />
	<path d="M6.55625 14.3361H5.89496V13.0134C5.89496 12.5866 6.23633 12.3521 6.55625 12.3521H9.22301V10.0054H9.8843V12.3308C9.8843 12.6508 9.64957 12.9921 9.22301 12.9921H6.55625V14.3361Z" fill="#8C8C8C" />
	<path d="M13.2337 14.3361H12.5511V13.0133H10.5458V12.3521H12.5511C12.8712 12.3521 13.2124 12.5868 13.2124 13.0133V14.3361H13.2337Z" fill="#8C8C8C" />
	<path d="M6.23588 16C5.68126 16 5.23322 15.5519 5.23322 14.9973C5.23322 14.4426 5.68122 13.9946 6.23588 13.9946C6.79053 13.9946 7.23854 14.4426 7.23854 14.9973C7.23872 15.5519 6.79071 16 6.23588 16ZM6.23588 14.6559C6.0439 14.6559 5.89451 14.8053 5.89451 14.9973C5.89451 15.1893 6.0439 15.3387 6.23588 15.3387C6.42786 15.3387 6.57725 15.1893 6.57725 14.9973C6.57725 14.8053 6.40656 14.6559 6.23588 14.6559Z" fill="#8C8C8C" />
	<path d="M9.56406 16C9.00944 16 8.5614 15.5519 8.5614 14.9973C8.5614 14.4426 9.00941 13.9946 9.56406 13.9946C10.1187 13.9946 10.5667 14.4426 10.5667 14.9973C10.5667 15.5519 10.1189 16 9.56406 16ZM9.56406 14.6559C9.37209 14.6559 9.22269 14.8053 9.22269 14.9973C9.22269 15.1893 9.37209 15.3387 9.56406 15.3387C9.75604 15.3387 9.90544 15.1893 9.90544 14.9973C9.90544 14.8053 9.75604 14.6559 9.56406 14.6559Z" fill="#8C8C8C" />
	<path d="M12.8922 16C12.3376 16 11.8895 15.5519 11.8895 14.9973C11.8895 14.4426 12.3375 13.9946 12.8922 13.9946C13.4468 13.9946 13.8949 14.4426 13.8949 14.9973C13.8949 15.5519 13.4468 16 12.8922 16ZM12.8922 14.6559C12.7002 14.6559 12.5508 14.8053 12.5508 14.9973C12.5508 15.1893 12.7002 15.3387 12.8922 15.3387C13.0842 15.3387 13.2336 15.1893 13.2336 14.9973C13.2336 14.8053 13.0842 14.6559 12.8922 14.6559Z" fill="#8C8C8C" />
	<path d="M9.22308 13.3335H9.88438V14.3362H9.22308V13.3335Z" fill="#8C8C8C" />
</svg>
