<?xml version="1.0" encoding="UTF-8"?>
<svg width="752pt" height="752pt" version="1.1" viewBox="0 0 752 752" xmlns="http://www.w3.org/2000/svg">
 <path d="m376 213.21c-89.758 0-162.79 73.035-162.79 162.79s73.035 162.79 162.79 162.79 162.79-73.035 162.79-162.79-73.031-162.79-162.79-162.79zm59.789 133.79c-5.7852 5.7852-15.141 5.7852-20.926 0l-24.062-24.066v141.87c0 8.1836-6.6172 14.801-14.801 14.801s-14.801-6.6172-14.801-14.801v-141.87l-24.062 24.062c-5.7852 5.7852-15.141 5.7852-20.926 0-5.7852-5.7852-5.7852-15.141 0-20.926l49.312-49.312c5.4922-5.7266 15.465-5.7266 20.973 0l49.312 49.312c5.7695 5.7891 5.7695 15.141-0.019532 20.93z"/>
</svg>
