<svg viewBox="0 0 20 22" fill="none" xmlns="http://www.w3.org/2000/svg">
	<path d="M10.6801 0.779236V2.27807C10.5892 2.27382 10.497 2.2724 10.4047 2.2724H9.59567C9.50341 2.2724 9.41115 2.27382 9.32031 2.27807V0.779236C9.32031 0.404527 9.62547 0.0993652 10.0002 0.0993652C10.1819 0.0993652 10.3522 0.170333 10.4813 0.298075C10.6091 0.427236 10.6801 0.597559 10.6801 0.779236Z" />
	<path d="M19.3435 19.2082H12.6881H7.3116H0.65625C0.713024 18.4574 1.03096 17.7605 1.56889 17.2225C1.79883 16.9926 2.06141 16.7995 2.35096 16.6505C2.98257 16.3241 3.37431 15.6754 3.37431 14.9572V8.97465C3.37431 5.54407 6.16618 2.7522 9.59676 2.7522H10.4058C13.8364 2.7522 16.6282 5.54407 16.6282 8.97465V14.9572C16.6282 15.6712 17.0257 16.3226 17.6658 16.6576C18.6338 17.1657 19.2626 18.1281 19.3435 19.2082Z" />
	<path d="M7.56152 19.6865H12.437C12.3178 20.927 11.2703 21.9007 9.99855 21.9007C8.72681 21.9007 7.68075 20.927 7.56152 19.6865Z" />
</svg>
