<svg viewBox="0 0 20 23" fill="none" xmlns="http://www.w3.org/2000/svg">
	<path d="M14.6252 17.2499C10.9264 17.2499 7.91687 14.2401 7.91687 10.5417C7.91687 6.84317 10.9267 3.83337 14.6252 3.83337L15.5834 3.83313V1.91632C15.5834 0.857021 14.7264 0 13.6678 0H2.16657C1.10793 0 0.25 0.857021 0.25 1.91657L0.250237 23L7.91711 19.1664L15.584 23V17.25L14.6252 17.2499Z" />
	<path d="M14.625 5.75C11.9782 5.75 9.83301 7.89495 9.83301 10.5415C9.83301 13.1882 11.978 15.3334 14.625 15.3334C17.2715 15.3334 19.4164 13.1885 19.4164 10.5415C19.4164 7.89495 17.2715 5.75 14.625 5.75ZM17.5001 11.2603H15.3437V13.4166H13.9061V11.2603H11.7498V9.82269H13.9061V7.66632H15.3437V9.82269H17.5001V11.2603Z" />
</svg>
