<svg width="13" height="16" viewBox="0 0 13 16"  xmlns="http://www.w3.org/2000/svg">
<path d="M8.79358 3.00024H1.79378C1.52851 3.00024 1.2742 3.10556 1.08667 3.29309C0.899129 3.48062 0.793823 3.73506 0.793823 4.0002V15.5001C0.793823 15.6245 0.840145 15.7445 0.923947 15.8365C1.00762 15.9286 1.12269 15.9861 1.24648 15.9979C1.37041 16.0096 1.49419 15.9748 1.59369 15.9001L5.29377 13.1251L8.99384 15.9001C9.09348 15.9748 9.21727 16.0096 9.34105 15.9979C9.46497 15.9861 9.58004 15.9286 9.66371 15.8365C9.74752 15.7445 9.79384 15.6245 9.79384 15.5001V4.0002C9.79384 3.73507 9.68852 3.48063 9.50099 3.29309C9.31346 3.10556 9.05916 3.00024 8.79388 3.00024H8.79358Z" />
<path d="M11.7936 6.08302e-05H4.79379C4.52852 6.08302e-05 4.27421 0.105374 4.08668 0.292905C3.89915 0.480436 3.7937 0.734873 3.7937 1.00001V2.0001H8.79381C9.32419 2.0001 9.83295 2.21073 10.208 2.58579C10.5831 2.96087 10.7938 3.46959 10.7938 3.99997V11.9998L11.9938 12.8999H11.9937C12.0933 12.9745 12.2171 13.0094 12.3409 12.9976C12.4648 12.9859 12.5799 12.9284 12.6636 12.8364C12.7474 12.7443 12.7937 12.6243 12.7937 12.4999V0.999953C12.7937 0.734822 12.6884 0.480382 12.5009 0.292844C12.3133 0.105313 12.0589 0 11.7937 0L11.7936 6.08302e-05Z" />
</svg>
