<svg width="16" height="16" viewBox="0 0 16 16" fill="none" xmlns="http://www.w3.org/2000/svg">
<path d="M15.7622 1.43881V14.0867L13.2429 12.9437V4.26086C13.2429 4.11005 13.2476 3.96089 13.2476 3.81009C13.2499 3.7888 13.2522 3.76751 13.2522 3.74443C13.2452 3.26337 12.9934 2.78604 12.5399 2.45415C12.107 2.13649 11.5344 1.9518 10.9366 1.94834C10.742 1.94654 10.5495 1.94475 10.3549 1.94475H3.18848V1.43713C3.18848 0.745002 3.93053 0.169922 4.826 0.169922H14.1432C15.0389 0.171571 15.7626 0.74481 15.7626 1.43874L15.7622 1.43881Z" fill="#8c8c8c66"/>
<path d="M15.5402 1.43875V1.7777V2.6953V4.05845V5.72156V7.54251V9.37248V11.087V12.5353V13.5718C15.5402 13.735 15.5288 13.9019 15.5402 14.0669V14.0882C15.6547 14.0368 15.7693 13.9852 15.8838 13.9356C15.144 13.6019 14.4043 13.2664 13.6646 12.9328C13.5615 12.8867 13.4583 12.8388 13.3554 12.7927C13.3943 12.8441 13.4311 12.8957 13.47 12.9453V12.2194V10.4322V8.1693V6.01642V4.56274V4.27521C13.47 4.08887 13.4837 3.90433 13.479 3.71786C13.47 3.4002 13.3599 3.08237 13.1653 2.80207C12.7644 2.22522 11.9926 1.85074 11.159 1.78327C10.8292 1.75659 10.4926 1.77263 10.1628 1.77263H8.07854H5.17215H3.29627H3.20013C3.27576 1.83124 3.35354 1.89151 3.42917 1.95012V1.44957C3.43149 1.18873 3.54369 0.931327 3.7681 0.732534C4.07046 0.466293 4.47805 0.354459 4.9247 0.354459H7.06849H10.5635H13.4768H14.1113C14.6793 0.354459 15.1993 0.603011 15.4283 1.0112C15.5034 1.14777 15.5378 1.29334 15.5402 1.43876C15.5425 1.66768 16.0006 1.66768 15.9982 1.43876C15.9891 0.730592 15.3065 0.112952 14.3949 0.0153593C14.1866 -0.00592806 13.9736 0.00111782 13.7651 0.00111782H11.0464H7.41163H4.99759C4.58535 0.00111782 4.18452 0.0490891 3.82954 0.226583C3.46315 0.409323 3.18827 0.686225 3.05535 1.00748C2.95689 1.24179 2.97062 1.48493 2.97062 1.72808V1.94995C2.97062 2.04574 3.07605 2.12744 3.19967 2.12744H4.89682H8.17423H10.302C10.5196 2.12744 10.7394 2.12565 10.957 2.12924C11.399 2.13629 11.825 2.25172 12.1823 2.4523C12.5305 2.64748 12.7892 2.93336 12.9198 3.251C13.055 3.5829 13.0159 3.92022 13.0136 4.26274V5.2247V7.43617V10.0346V12.1503V12.7643C13.0136 12.8886 12.9815 13.0269 13.1372 13.1032C13.4533 13.2612 13.7899 13.3978 14.1151 13.5452C14.5503 13.7422 14.9854 13.9392 15.4206 14.1345C15.4986 14.17 15.5764 14.2055 15.6543 14.2393C15.8054 14.3067 15.9979 14.2216 15.9979 14.0866V13.7477V12.8301V11.4669V9.80384V7.98289V6.15292V4.43839V2.99011V1.95363C15.9979 1.78857 16.0025 1.62352 15.9979 1.45849V1.4372C15.9983 1.20978 15.5402 1.20978 15.5402 1.4387L15.5402 1.43875Z" fill="#8c8c8c66"/>
<path d="M11.4149 4.02984C11.4103 4.05293 11.4103 4.07781 11.4103 4.1009V15.8186C11.0439 15.6553 10.6911 15.4937 10.3293 15.3304C9.20015 14.8211 8.07331 14.3117 6.94419 13.8023C6.68535 13.6852 6.4242 13.568 6.16554 13.4509C5.95256 13.3551 5.68463 13.3551 5.47163 13.4509C4.764 13.7703 4.0585 14.0898 3.35087 14.4093C2.31108 14.8795 1.26199 15.3482 0.231523 15.8186L0.231329 4.5676C0.231329 4.41499 0.224365 4.26403 0.224365 4.11141C0.224365 4.07063 0.224365 4.03151 0.229008 3.99253C0.245064 3.93212 0.26557 3.87185 0.293234 3.81503C0.325347 3.76526 0.361907 3.71565 0.403115 3.66947C0.405437 3.66767 0.407758 3.66407 0.41008 3.66242C0.43987 3.63754 0.467338 3.61101 0.497131 3.58792C0.526922 3.56483 0.556712 3.54534 0.586505 3.52406C0.570448 3.5329 0.556714 3.54175 0.540657 3.54894C0.483399 3.57907 0.682649 3.45495 0.597915 3.51701C0.595594 3.51881 0.590952 3.52241 0.588824 3.52406C0.593466 3.52046 0.597915 3.51866 0.602558 3.51521C0.664461 3.48328 0.728494 3.4548 0.795038 3.43006C0.882089 3.40518 0.971463 3.38569 1.06297 3.37145C1.38138 3.35016 1.71122 3.36605 2.025 3.36605H9.39052C9.75014 3.36605 10.1119 3.36785 10.4715 3.36965C10.5104 3.36965 10.5516 3.37145 10.5907 3.37505C10.6754 3.38749 10.7601 3.40518 10.8425 3.42826C10.9089 3.45315 10.9731 3.48328 11.035 3.51521C11.0373 3.51701 11.0397 3.51701 11.042 3.51881C11.0741 3.54189 11.1083 3.56318 11.1404 3.58807C11.1702 3.61115 11.1977 3.63604 11.2252 3.65913C11.2275 3.66272 11.2321 3.66617 11.2343 3.66977C11.2755 3.71774 11.3122 3.76736 11.3442 3.81893C11.3739 3.88099 11.3944 3.94321 11.4105 4.00707C11.4148 4.01381 11.4148 4.02086 11.4148 4.0297L11.4149 4.02984Z" fill="#8c8c8c66"/>
<path d="M11.1862 4.02964C11.1701 4.15032 11.1816 4.2764 11.1816 4.39708V5.23838V8.03196V11.4255V14.3664V15.3373C11.1816 15.4899 11.1678 15.6461 11.1816 15.7987V15.8182C11.2961 15.7667 11.4106 15.7152 11.5251 15.6655C10.0319 15.0017 8.54989 14.3219 7.06129 13.6493C6.88041 13.5676 6.69721 13.4842 6.51614 13.4025C6.33758 13.3226 6.16581 13.2339 5.95728 13.2108C5.53362 13.1628 5.19239 13.3706 4.84648 13.5284C4.1021 13.8657 3.35772 14.2029 2.61117 14.5384C1.77973 14.9128 0.946161 15.2873 0.11705 15.6654C0.231572 15.7168 0.346093 15.7684 0.460615 15.818V14.6271V11.7962V8.43639V5.65689C0.460615 5.18827 0.462936 4.7198 0.455972 4.25118C0.45365 4.1287 0.439916 4.00622 0.501819 3.89094C0.559077 3.78451 0.639165 3.72409 0.746917 3.64779C0.934757 3.51467 0.682691 3.25024 0.469704 3.36911C0.449005 3.38155 0.375883 3.41168 0.467382 3.38155C0.554433 3.4685 0.639167 3.55544 0.726218 3.64239C0.691784 3.68857 0.689656 3.66188 0.728539 3.65304C0.733182 3.65124 0.694106 3.67073 0.730861 3.65304C0.691977 3.66188 0.652902 3.66908 0.616339 3.67792H0.61866C0.55231 3.58918 0.485761 3.50043 0.421728 3.41168C0.469897 3.36027 0.444555 3.3868 0.426371 3.39924C0.238531 3.53416 0.488274 3.79679 0.703584 3.67792C1.01968 3.50582 1.3975 3.53776 1.76639 3.543C1.86718 3.5448 1.97029 3.5448 2.07107 3.5448H2.5338H4.52631H7.04112H8.96498H9.37045C9.57202 3.5448 9.7736 3.5448 9.97518 3.5466C10.1698 3.5466 10.3806 3.53056 10.5706 3.55365C10.66 3.56429 10.7447 3.58918 10.8225 3.62291C10.8546 3.63715 10.8888 3.65124 10.9163 3.66908C10.8797 3.64599 10.9209 3.67612 10.9254 3.67972C10.9414 3.69217 10.9598 3.70281 10.9735 3.71525C11.0807 3.79005 11.1747 3.91253 11.1861 4.02961C11.1952 4.12541 11.2846 4.20711 11.4152 4.20711C11.532 4.20711 11.6533 4.12541 11.6442 4.02961C11.6121 3.73324 11.3877 3.4634 11.0579 3.31618C10.6845 3.14933 10.2357 3.19191 9.82114 3.19011H9.18893H7.45291H4.90382H2.71204H2.12802H2.02956C1.68135 3.19011 1.30821 3.15278 0.964617 3.2078C0.788192 3.23613 0.621053 3.29115 0.472291 3.37105C0.563987 3.46339 0.657808 3.55739 0.749505 3.64973C0.774653 3.63204 0.795352 3.6124 0.815855 3.58932C0.916644 3.48108 0.781421 3.31603 0.618923 3.32308C0.513494 3.32667 0.385235 3.39234 0.332622 3.46504C0.243248 3.58752 0.396848 3.7881 0.591458 3.72589C0.637305 3.71165 0.664777 3.6992 0.703657 3.67792C0.61196 3.58557 0.518139 3.49157 0.426443 3.39923C0.167607 3.58197 0.00511244 3.80745 0.000467201 4.08434C-0.00185418 4.24759 0.00511021 4.41084 0.00743135 4.57426V4.69134V5.36939V7.98728V11.3507V14.3307C0.00743135 14.8189 -0.00862494 15.3104 0.00743135 15.8003V15.8216C0.00743135 15.9565 0.202041 16.0435 0.350996 15.9742C1.79394 15.3175 3.2413 14.6679 4.68657 14.0147C4.86299 13.9348 5.03923 13.8549 5.21567 13.7752C5.3714 13.7041 5.54086 13.5977 5.71961 13.5675C5.88443 13.5392 6.01056 13.5888 6.14791 13.6509C6.32433 13.7308 6.49824 13.8089 6.67468 13.8886C7.40301 14.2169 8.12902 14.5454 8.85735 14.8755C9.67042 15.2429 10.4788 15.6138 11.2942 15.976C11.4453 16.0435 11.6378 15.9583 11.6378 15.8234V14.652V11.8406V8.44525V5.52019C11.6378 5.05337 11.6355 4.58655 11.6378 4.11989C11.6378 4.09155 11.6378 4.06127 11.6424 4.03294C11.6562 3.93715 11.5279 3.85545 11.4134 3.85545C11.2799 3.85215 11.1998 3.93385 11.1861 4.02964L11.1862 4.02964Z" fill="#8c8c8c66"/>
</svg>
