<svg viewBox="0 0 20 23" fill="none" xmlns="http://www.w3.org/2000/svg">
	<path d="M14.6505 17.2499C10.9518 17.2499 7.94226 14.2401 7.94226 10.5417C7.94226 6.84317 10.9521 3.83337 14.6505 3.83337L15.6088 3.83313V1.91632C15.6088 0.857021 14.7518 0 13.6932 0H2.19196C1.13332 0 0.275391 0.857021 0.275391 1.91657L0.275628 23L7.9425 19.1664L15.6094 23V17.25L14.6505 17.2499Z" />
	<path d="M14.6504 5.75C12.0036 5.75 9.8584 7.89495 9.8584 10.5415C9.8584 13.1882 12.0033 15.3334 14.6504 15.3334C17.2969 15.3334 19.4418 13.1885 19.4418 10.5415C19.4418 7.89495 17.2969 5.75 14.6504 5.75ZM14.3115 12.6598L11.7705 10.1177L12.7869 9.10129L14.3115 10.6259L16.5136 8.42378L17.5299 9.44016L14.3115 12.6598Z" />
</svg>
