<svg height='300px' width='300px'  fill="#e6e6e7" xmlns="http://www.w3.org/2000/svg" xmlns:xlink="http://www.w3.org/1999/xlink" version="1.1" x="0px" y="0px" viewBox="0 0 66 66" enable-background="new 0 0 66 66" xml:space="preserve"><g><path d="M57,33C57,19.8,46.3,9,33,9S9,19.8,9,33c0,13.3,10.7,24,24,24S57,46.3,57,33z M19,21h6v-6h4v6h6v4h-6v6h-4v-6h-6V21z    M33,54c-5.8,0-11-2.3-14.8-6.2l29.7-29.7C51.6,22,54,27.2,54,33C54,44.6,44.6,54,33,54z"></path><rect x="31" y="39" width="16" height="4"></rect><rect x="31" y="1" width="4" height="6"></rect><rect x="31" y="59" width="4" height="6"></rect><rect x="9.5" y="10.5" transform="matrix(0.7071 0.7071 -0.7071 0.7071 12.4935 -5.1752)" width="6" height="4"></rect><rect x="50.5" y="51.5" transform="matrix(0.7071 0.7071 -0.7071 0.7071 53.5066 -22.163)" width="6" height="4"></rect><rect x="1" y="31" width="6" height="4"></rect><rect x="59" y="31" width="6" height="4"></rect><rect x="10.5" y="50.5" transform="matrix(0.7071 0.7071 -0.7071 0.7071 41.4954 6.838)" width="4" height="6"></rect><rect x="51.5" y="9.5" transform="matrix(0.7071 0.7071 -0.7071 0.7071 24.5055 -34.1749)" width="4" height="6"></rect></g></svg>