<svg viewBox="0 0 18 16" fill="none" xmlns="http://www.w3.org/2000/svg">
	<path d="M17.7292 12.897L10.9322 1.09412C10.5346 0.412505 9.8151 0 8.98208 0C8.14906 0 7.42958 0.412505 7.03198 1.09412L0.272559 12.897C-0.106159 13.5607 -0.0871045 14.332 0.310353 14.9777C0.707966 15.6235 1.42743 16 2.22268 16H15.7603C16.5555 16 17.275 15.6233 17.6726 14.9777C18.0893 14.332 18.1082 13.5428 17.7295 12.897H17.7292ZM8.16757 5.21993C8.3759 5.00466 8.67871 4.8792 8.98168 4.8792C9.58762 4.8792 10.0799 5.34553 10.0799 5.91961V6.06313L9.5119 10.3681C9.34151 10.3142 9.17113 10.2963 8.98168 10.2963C8.8113 10.2963 8.62202 10.3142 8.47054 10.3681L7.90254 6.06313C7.86459 5.74015 7.97828 5.45314 8.16756 5.21993H8.16757ZM8.98168 13.2197C8.37574 13.2197 7.88347 12.7534 7.88347 12.1793C7.88347 11.6052 8.3757 11.1389 8.98168 11.1389C9.58766 11.1389 10.0799 11.6052 10.0799 12.1793C10.0988 12.7533 9.60653 13.2197 8.98168 13.2197Z" />
</svg>
