<svg height='300px' width='300px'  fill="#dc0000" xmlns="http://www.w3.org/2000/svg" xmlns:xlink="http://www.w3.org/1999/xlink" version="1.1" x="0px" y="0px" viewBox="0 0 100 100" style="enable-background:new 0 0 100 100;" xml:space="preserve"><g><g><g><path d="M50,85.1c-13.2,0-24-12.6-24-28.1s10.7-28.2,24-28.2S74,41.4,74,57S63.2,85.1,50,85.1z M50,34.7c-9.9,0-18,10-18,22.2     s8.1,22.2,18,22.2s18-10,18-22.2S60,34.7,50,34.7z"></path><path d="M81.1,59.9H71c-1.6,0-3-1.3-3-3c0-1.6,1.3-3,3-3h10.1c1.6,0,3,1.3,3,3C84.1,58.6,82.7,59.9,81.1,59.9z"></path><path d="M29.1,59.9H19c-1.6,0-3-1.3-3-3c0-1.6,1.3-3,3-3h10.1c1.6,0,3,1.3,3,3C32,58.6,30.7,59.9,29.1,59.9z"></path><path d="M41.4,36.1c-1.4,0-2.7-1-2.9-2.4l-0.7-3.9c-1.3-6.8,3.2-13.3,10-14.5s13.3,3.2,14.5,10c0.3,1.5,0.3,3,0,4.5l-0.7,3.9     c-0.2,1.6-1.7,2.8-3.3,2.6c-1.6-0.2-2.8-1.7-2.6-3.3c0-0.1,0-0.2,0.1-0.3l0.7-4c0.6-3.5-1.7-6.9-5.2-7.6s-6.9,1.7-7.6,5.2     c-0.1,0.8-0.1,1.6,0,2.4l0.7,4c0.3,1.6-0.8,3.2-2.4,3.5C41.8,36.1,41.6,36.1,41.4,36.1z"></path><path d="M74.5,44.5h-7c-1.6,0-3-1.3-3-3s1.3-3,3-3H73l4.8-5.9c1-1.3,2.9-1.5,4.2-0.5c1.3,1,1.5,2.9,0.5,4.2l0,0l-5.6,7     C76.3,44.1,75.4,44.5,74.5,44.5z"></path><path d="M32.6,44.5h-7.1c-0.9,0-1.8-0.4-2.3-1.1l-5.6-7c-1-1.3-0.8-3.2,0.5-4.2c1.3-1,3.2-0.8,4.2,0.5l0,0l4.7,5.9h5.6     c1.6,0,3,1.3,3,3S34.3,44.5,32.6,44.5z"></path><path d="M80.1,82.3c-0.9,0-1.8-0.4-2.4-1.1L73,75.3h-5.6c-1.6,0-3-1.3-3-3s1.3-3,3-3h7c0.9,0,1.8,0.4,2.4,1.1l5.6,7     c1,1.3,0.8,3.2-0.5,4.2C81.4,82.1,80.8,82.3,80.1,82.3z"></path><path d="M20,82.3c-0.7,0-1.3-0.2-1.8-0.7c-1.3-1-1.5-2.9-0.5-4.2l5.6-7c0.6-0.7,1.5-1.1,2.4-1.1h7c1.6,0,3,1.3,3,3s-1.3,3-3,3H27     l-4.7,5.9C21.8,81.9,20.9,82.3,20,82.3z"></path><path d="M57.2,52.5H42.9c-1.6,0-3-1.3-3-3s1.3-3,3-3h14.3c1.6,0,3,1.3,3,3S58.8,52.5,57.2,52.5z"></path><path d="M57.2,67.4H42.9c-1.6,0-3-1.3-3-3s1.3-3,3-3h14.3c1.6,0,3,1.3,3,3S58.8,67.4,57.2,67.4z"></path></g></g></g></svg>