<svg height='300px' width='300px'  fill="#ffffff" xmlns="http://www.w3.org/2000/svg" xmlns:xlink="http://www.w3.org/1999/xlink" version="1.1" x="0px" y="0px" viewBox="0 0 64 64" enable-background="new 0 0 64 64" xml:space="preserve"><g><path d="M48.21,46.874l2.95,2.7c-1.061,1.16-2.23,2.23-3.49,3.18l-2.41-3.19C46.32,48.753,47.31,47.854,48.21,46.874z"></path><path d="M45.82,9.983c12.16,7.63,15.84,23.67,8.199,35.84l-3.38-2.13c6.45-10.29,3.341-23.87-6.949-30.33   c-10.29-6.45-23.87-3.34-30.33,6.95c-6.45,10.29-3.341,23.87,6.949,30.33c6.511,4.08,14.681,4.47,21.561,1.02l1.79,3.58   c-8.12,4.07-17.78,3.61-25.48-1.22c-12.16-7.63-15.84-23.67-8.199-35.84C17.61,6.023,33.65,2.343,45.82,9.983z"></path><path d="M21.41,37.624l3.939-0.69l0.07,0.36l0.04,0.17l0.04,0.18l0.05,0.17l0.04,0.16l0.05,0.17l0.061,0.16l0.04,0.14l0.05,0.14   l0.06,0.14l0.061,0.13l0.05,0.13l0.06,0.12l0.061,0.12l0.07,0.12l0.06,0.1l0.06,0.11l0.061,0.1l0.07,0.1l0.06,0.09l0.07,0.09   l0.069,0.09l0.07,0.08l0.07,0.08l0.069,0.08l0.07,0.08l0.08,0.07l0.1,0.09l0.051,0.05l0.06,0.04l0.08,0.06l0.08,0.06l0.08,0.06   l0.08,0.06l0.1,0.06l0.09,0.05l0.11,0.06l0.11,0.06l0.109,0.05l0.12,0.05l0.13,0.06l0.13,0.05l0.13,0.04l0.131,0.05l0.17,0.05   l0.16,0.04l0.159,0.05l0.17,0.04l0.19,0.04l0.18,0.03l0.19,0.04l0.189,0.03l0.21,0.03l0.221,0.02l0.439,0.05l0.34,0.02l0.341,0.02   l0.51,0.01h0.32l0.329-0.01l0.301-0.01l0.3-0.02l0.25-0.02l0.25-0.03l0.25-0.04l0.25-0.05l0.229-0.04l0.221-0.05l0.229-0.06   l0.22-0.07l0.171-0.05l0.18-0.06l0.17-0.06l0.17-0.07l0.13-0.06l0.13-0.06l0.13-0.06l0.131-0.07l0.159-0.08l0.08-0.05l0.08-0.05   l0.11-0.06l0.1-0.07l0.11-0.07l0.1-0.08l0.05-0.04l0.061-0.05l0.06-0.05l0.051-0.05l0.05-0.04l0.06-0.05l0.05-0.06l0.051-0.05   l0.06-0.06l0.05-0.06l0.061-0.07l0.05-0.07l0.04-0.05l0.04-0.06l0.08-0.12l0.08-0.12l0.04-0.06l0.029-0.07l0.04-0.06l0.03-0.07   l0.04-0.07l0.03-0.07l0.029-0.05l0.021-0.06l0.02-0.06l0.03-0.06l0.021-0.05l0.02-0.06l0.021-0.06l0.02-0.06l0.01-0.06l0.021-0.06   l0.01-0.06l0.01-0.05l0.021-0.09l0.01-0.09l0.01-0.05l0.01-0.06v-0.06l0.011-0.06v-0.09l0.01-0.09v-0.08v-0.09l-0.01-0.15   l-0.011-0.14l-0.01-0.11l-0.01-0.1l-0.021-0.1l-0.01-0.06l-0.01-0.05l-0.021-0.08l-0.01-0.05l-0.01-0.04l-0.01-0.04l-0.021-0.04   l-0.01-0.04l-0.02-0.04l-0.011-0.03l-0.01-0.03l-0.01-0.03l-0.021-0.03l-0.01-0.02l-0.01-0.03l-0.021-0.02l-0.01-0.03l-0.02-0.02   l-0.021-0.03l-0.02-0.03l-0.011-0.02l-0.029-0.03l-0.021-0.03l-0.029-0.03l-0.051-0.06l-0.02-0.03l-0.03-0.03l-0.03-0.03   l-0.029-0.03L38,35.983l-0.02-0.03l-0.03-0.03l-0.04-0.03l-0.03-0.02l-0.04-0.03l-0.03-0.03l-0.04-0.02l-0.029-0.03l-0.08-0.05   l-0.07-0.04l-0.06-0.04l-0.07-0.04l-0.07-0.03l-0.109-0.05l-0.13-0.06l-0.261-0.11l-0.489-0.18l-0.601-0.21l-1.52-0.49l-3.011-0.86   l-4.239-1.22l-0.12-0.04l-0.19-0.09l-0.2-0.08l-0.199-0.09l-0.19-0.09l-0.2-0.11l-0.189-0.1l-0.19-0.11l-0.189-0.12l-0.21-0.14   l-0.21-0.15l-0.21-0.15l-0.19-0.16l-0.19-0.15l-0.17-0.16l-0.17-0.17l-0.17-0.18l-0.1-0.11l-0.11-0.12l-0.1-0.12l-0.09-0.12   l-0.141-0.18l-0.13-0.19l-0.09-0.15l-0.09-0.14l-0.09-0.15l-0.091-0.15l-0.05-0.11l-0.05-0.11l-0.06-0.1l-0.051-0.11l-0.04-0.11   l-0.05-0.11l-0.04-0.12l-0.05-0.11l-0.04-0.11l-0.03-0.12l-0.04-0.11l-0.029-0.12l-0.03-0.11l-0.03-0.12l-0.029-0.12l-0.03-0.12   l-0.021-0.11l-0.02-0.12l-0.021-0.11l-0.01-0.12l-0.03-0.23l-0.02-0.23l-0.01-0.21v-0.21v-0.21l0.01-0.21l0.02-0.18l0.021-0.18   l0.02-0.18l0.03-0.19l0.03-0.18l0.04-0.18l0.04-0.18l0.05-0.17l0.06-0.18l0.051-0.18l0.069-0.17l0.061-0.17l0.069-0.15l0.061-0.14   l0.07-0.15l0.069-0.14l0.08-0.14l0.08-0.13l0.08-0.14l0.08-0.13l0.1-0.15l0.101-0.14l0.1-0.14l0.1-0.14l0.11-0.13l0.11-0.13   l0.12-0.13l0.12-0.13l0.1-0.11l0.12-0.11l0.109-0.11l0.11-0.11l0.12-0.11l0.13-0.1l0.14-0.12l0.141-0.11l0.149-0.11l0.15-0.11   l0.16-0.11l0.18-0.11l0.141-0.09l0.149-0.09l0.15-0.08l0.16-0.08l0.17-0.08l0.18-0.08l0.18-0.08l0.181-0.08l0.21-0.08l0.21-0.07   l0.22-0.07l0.21-0.06l0.24-0.07l0.24-0.06l0.25-0.06l0.239-0.05l0.23-0.04l0.22-0.04l0.46-0.06l0.37-0.04v-4.15   c1.33-0.15,2.67-0.15,4,0v4.22c4.09,0.54,7.29,3.8,7.74,7.91l-3.96,0.55l-0.03-0.22l-0.05-0.22l-0.05-0.21l-0.021-0.11l-0.03-0.11   l-0.06-0.2l-0.04-0.1l-0.03-0.1l-0.04-0.1l-0.04-0.1l-0.04-0.1l-0.04-0.1l-0.05-0.1l-0.05-0.11l-0.05-0.09l-0.05-0.09l-0.051-0.09   l-0.05-0.08l-0.05-0.09l-0.06-0.08l-0.061-0.09l-0.06-0.08l-0.061-0.08l-0.06-0.08l-0.07-0.08l-0.06-0.07l-0.07-0.08l-0.06-0.07   l-0.07-0.07l-0.07-0.07l-0.069-0.06l-0.07-0.07l-0.08-0.06l-0.07-0.07l-0.08-0.06l-0.08-0.06l-0.09-0.06l-0.08-0.06l-0.13-0.08   l-0.14-0.08l-0.13-0.08l-0.141-0.07l-0.1-0.05l-0.1-0.04l-0.11-0.05l-0.1-0.04l-0.101-0.04l-0.109-0.04l-0.101-0.03l-0.11-0.03   l-0.109-0.04l-0.11-0.03l-0.12-0.03l-0.109-0.03l-0.23-0.04l-0.24-0.04l-0.25-0.04l-0.239-0.03l-0.221-0.02l-0.21-0.01l-0.279-0.01   H31.88h-0.32l-0.31,0.01l-0.28,0.01l-0.279,0.02l-0.28,0.03l-0.29,0.03l-0.311,0.04l-0.159,0.03l-0.16,0.03l-0.16,0.03l-0.15,0.04   l-0.16,0.04l-0.159,0.04l-0.12,0.04l-0.13,0.04l-0.12,0.04l-0.12,0.05l-0.101,0.04l-0.1,0.04l-0.09,0.04l-0.1,0.05l-0.07,0.03   l-0.07,0.04l-0.07,0.05l-0.069,0.04l-0.09,0.05l-0.08,0.05l-0.07,0.06l-0.07,0.05l-0.08,0.06l-0.069,0.06l-0.061,0.05l-0.069,0.06   l-0.061,0.06L27,23.573l-0.06,0.06l-0.061,0.06l-0.05,0.06l-0.061,0.06l-0.05,0.06l-0.05,0.06l-0.05,0.07l-0.05,0.06l-0.04,0.06   l-0.05,0.07l-0.04,0.07l-0.04,0.06l-0.03,0.07l-0.04,0.07l-0.021,0.05l-0.029,0.05l-0.021,0.05l-0.02,0.06l-0.03,0.07l-0.03,0.07   l-0.02,0.07l-0.021,0.07l-0.02,0.07l-0.021,0.07l-0.02,0.08l-0.01,0.07l-0.011,0.08l-0.01,0.07l-0.01,0.08v0.07l-0.01,0.09v0.09   v0.09l0.01,0.09v0.09l0.01,0.09l0.021,0.09l0.01,0.09l0.01,0.05l0.01,0.04l0.021,0.05l0.01,0.04l0.01,0.05l0.021,0.04l0.01,0.05   l0.021,0.04l0.01,0.05l0.02,0.04l0.021,0.05l0.02,0.04l0.021,0.04l0.02,0.04l0.021,0.05l0.02,0.04l0.03,0.06l0.04,0.06l0.04,0.06   l0.04,0.06l0.05,0.08l0.07,0.09l0.04,0.05l0.04,0.05l0.04,0.05l0.05,0.05l0.04,0.04l0.029,0.04l0.08,0.07l0.08,0.07l0.08,0.07   l0.101,0.08l0.1,0.08l0.1,0.07l0.11,0.07l0.1,0.06l0.11,0.06l0.11,0.06l0.1,0.06l0.12,0.06l0.12,0.05l0.12,0.05l0.12,0.05h0.01   l3.899,1.12l3.131,0.9l1.649,0.52l0.67,0.24l0.601,0.22l0.35,0.15l0.24,0.1l0.229,0.11l0.16,0.08l0.16,0.09l0.15,0.09l0.159,0.1   l0.091,0.06l0.1,0.07l0.1,0.06l0.091,0.07l0.1,0.07l0.09,0.07l0.09,0.08l0.09,0.07l0.08,0.08l0.091,0.08l0.079,0.07l0.08,0.08   l0.08,0.09l0.08,0.08l0.08,0.08l0.07,0.09l0.08,0.09l0.069,0.08l0.07,0.09l0.061,0.09l0.069,0.09l0.07,0.1l0.06,0.09l0.061,0.1   l0.06,0.1l0.061,0.11l0.06,0.1l0.05,0.11l0.05,0.1l0.051,0.11l0.05,0.1l0.04,0.11l0.05,0.12l0.04,0.12l0.04,0.13l0.04,0.12   l0.04,0.12l0.03,0.13l0.029,0.12l0.03,0.13l0.04,0.22l0.04,0.23l0.02,0.22l0.03,0.23l0.021,0.27l0.01,0.27v0.18v0.18l-0.01,0.18   l-0.011,0.17l-0.01,0.14l-0.01,0.14l-0.021,0.13l-0.02,0.14l-0.04,0.24l-0.05,0.23l-0.05,0.24l-0.07,0.23l-0.03,0.13l-0.05,0.13   l-0.04,0.13l-0.05,0.12l-0.04,0.13l-0.061,0.13l-0.05,0.12l-0.05,0.13l-0.07,0.14l-0.069,0.14l-0.07,0.13l-0.08,0.14l-0.07,0.13   l-0.069,0.12l-0.16,0.24l-0.08,0.12l-0.08,0.12l-0.08,0.11l-0.09,0.12l-0.11,0.14l-0.12,0.15l-0.13,0.14l-0.12,0.14l-0.109,0.11   l-0.11,0.1l-0.1,0.11l-0.12,0.1l-0.11,0.1l-0.109,0.1l-0.12,0.09l-0.12,0.1l-0.19,0.14l-0.189,0.13l-0.2,0.13l-0.2,0.13l-0.27,0.16   l-0.28,0.15l-0.21,0.11l-0.2,0.1l-0.22,0.09l-0.21,0.09l-0.26,0.11l-0.261,0.1l-0.27,0.09l-0.271,0.08l-0.319,0.1l-0.33,0.08   l-0.34,0.08l-0.33,0.07l-0.28,0.04l-0.271,0.05l-0.279,0.04L34,45.753v4.14c-1.33,0.15-2.67,0.15-4,0v-4.19l-0.54-0.07l-0.26-0.04   l-0.26-0.05l-0.261-0.05l-0.26-0.05l-0.25-0.06l-0.25-0.07l-0.25-0.07l-0.24-0.07l-0.229-0.08l-0.21-0.08l-0.221-0.08l-0.22-0.09   l-0.21-0.1l-0.21-0.1l-0.21-0.1l-0.21-0.12l-0.19-0.11l-0.189-0.12l-0.18-0.12l-0.181-0.12l-0.17-0.13l-0.17-0.13l-0.1-0.09   l-0.11-0.09l-0.21-0.19l-0.15-0.15l-0.149-0.15l-0.141-0.16l-0.14-0.16l-0.14-0.16l-0.13-0.17l-0.13-0.18l-0.131-0.18l-0.119-0.18   l-0.12-0.18l-0.11-0.19l-0.11-0.19l-0.109-0.2l-0.101-0.21l-0.1-0.2l-0.09-0.21l-0.09-0.22l-0.091-0.21l-0.079-0.22l-0.07-0.22   l-0.08-0.24l-0.08-0.24l-0.06-0.25l-0.07-0.24l-0.061-0.25l-0.05-0.24L21.41,37.624z"></path></g></svg>