<svg height='300px' width='300px'  fill="#e6e6e7" xmlns:dc="http://purl.org/dc/elements/1.1/" xmlns:cc="http://creativecommons.org/ns#" xmlns:rdf="http://www.w3.org/1999/02/22-rdf-syntax-ns#" xmlns:svg="http://www.w3.org/2000/svg" xmlns="http://www.w3.org/2000/svg" xmlns:sodipodi="http://sodipodi.sourceforge.net/DTD/sodipodi-0.dtd" xmlns:inkscape="http://www.inkscape.org/namespaces/inkscape" version="1.1" x="0px" y="0px" viewBox="0 0 100 100"><g transform="translate(0,-952.36218)"><path style="color:#000000;enable-background:accumulate;" d="m 38,968.36215 -5,10 -17,0 c -3.878,0 -7,3.12199 -7,6.99996 l 0,44.00009 c 0,3.878 3.122,7 7,7 l 68,0 c 3.878,0 7,-3.122 7,-7 l 0,-44.00009 c 0,-3.87797 -3.122,-6.99996 -7,-6.99996 l -17,0 -5,-10 -24,0 z m 12,17.99996 c 11.5625,0 21,9.4376 21,20.99999 0,11.5625 -9.4375,21.0001 -21,21.0001 -11.5624,0 -21,-9.4376 -21,-21.0001 0,-11.56239 9.4377,-20.99999 21,-20.99999 z m 0,6 c -8.3197,0 -15,6.6803 -15,14.99999 0,8.3198 6.6804,15.0001 15,15.0001 8.3199,0 15,-6.6803 15,-15.0001 0,-8.31969 -6.6801,-14.99999 -15,-14.99999 z" fill="#e6e6e7" stroke="none" marker="none" visibility="visible" display="inline" overflow="visible"></path></g></svg>