<svg width="275" height="367" viewBox="0 0 275 367" fill="none" xmlns="http://www.w3.org/2000/svg">
<path opacity="0.06" d="M31.3351 178.461C31.9254 173.069 32.6969 167.656 33.8959 162.401C32.3379 161.962 30.7475 161.51 29.1399 161.057C27.1629 166.086 25.9122 171.44 25.0378 176.916C27.1317 177.455 29.2316 177.964 31.3351 178.461ZM30.9127 182.566C28.7563 182.063 26.601 181.539 24.4543 180.992C23.8162 185.981 23.4139 191.029 23.0106 195.992C25.7646 196.752 27.9746 197.453 29.4862 198.077C29.5579 198.107 29.6355 198.137 29.71 198.169C29.7459 193.793 30.3075 189.315 30.6449 185.466C30.7325 184.502 30.8219 183.534 30.9127 182.566ZM6.47775 175.451C5.1463 180.705 3.80759 185.96 2.45621 191.21C8.8774 192.551 14.6333 193.839 19.3122 195.02C19.7334 190.046 20.1609 185.011 20.8143 180.032C15.9788 178.717 11.1844 177.236 6.47775 175.451ZM22.1194 159.081C20.3521 164.301 18.6581 169.547 16.1064 174.4C17.8676 174.94 19.6369 175.463 21.4153 175.953C22.3029 170.473 23.5487 165.104 25.468 160.024C24.3623 159.711 23.2422 159.398 22.1194 159.081ZM0.470682 153.098C-2.11642 165.194 -6.17633 176.898 -9.17475 188.856C-6.47123 189.388 -3.82783 189.914 -1.27362 190.437C0.301717 184.335 1.86143 178.229 3.40392 172.121C3.67258 171.064 4.89861 170.447 5.81116 170.814C8.01681 171.694 10.2419 172.486 12.4807 173.238C12.5293 173.042 12.5936 172.847 12.6998 172.65C15.1878 168.057 16.7923 163.043 18.4571 158.057C12.4608 156.385 6.36718 154.702 0.470682 153.098ZM-12.757 149.563C-13.9353 162.114 -16.1228 174.681 -19.128 186.938C-17.0218 187.336 -14.9359 187.736 -12.8816 188.135C-9.86519 176.088 -5.80876 164.294 -3.18064 152.11C-6.47629 151.224 -9.68013 150.37 -12.757 149.563ZM-27.0222 145.936C-26.9077 151.674 -27.4784 157.534 -28.428 163.371C-25.1361 163.916 -21.8554 164.507 -18.5908 165.227C-17.6989 159.698 -16.9829 154.147 -16.4754 148.589C-20.2924 147.602 -23.8439 146.707 -27.0222 145.936ZM-30.8637 145.024C-33.8833 144.325 -36.4295 143.787 -38.349 143.45C-38.7471 143.383 -39.1522 143.313 -39.5647 143.248C-40.6622 149.178 -41.176 155.28 -41.5601 161.304C-38.5459 161.792 -35.5296 162.245 -32.513 162.717C-31.5738 156.937 -30.7485 150.929 -30.8637 145.024ZM-29.1368 167.396C-30.2318 173.155 -31.6118 178.86 -32.9937 184.37C-29.6035 184.985 -26.2183 185.61 -22.8648 186.237C-21.4832 180.632 -20.2853 174.963 -19.2741 169.259C-22.5411 168.529 -25.836 167.937 -29.1368 167.396ZM-43.6853 165.11C-44.6954 164.94 -45.5316 164.14 -45.4612 162.947C-45.0512 156.186 -44.4912 149.344 -43.2895 142.667C-46.5506 142.189 -50.0929 141.743 -53.7411 141.334C-54.8101 154.243 -56.8662 167.06 -57.8991 179.968C-51.168 181.126 -44.0103 182.382 -36.7789 183.685C-35.4446 178.075 -34.2139 172.438 -33.2009 166.753C-36.6977 166.215 -40.1971 165.698 -43.6853 165.11ZM-59.4447 159C-58.7154 152.983 -58.003 146.962 -57.5086 140.922C-59.9212 140.669 -62.3516 140.427 -64.7587 140.204C-65.2774 145.961 -65.8163 151.717 -66.3049 157.475C-64.0204 158.006 -61.7358 158.508 -59.4447 159ZM-66.6445 161.593C-67.0887 167.151 -67.4697 172.713 -67.7188 178.287C-65.7529 178.619 -63.7273 178.964 -61.649 179.321C-61.2064 173.893 -60.5805 168.482 -59.9316 163.073C-62.1727 162.59 -64.4093 162.103 -66.6445 161.593ZM-78.9453 139.007C-80.9717 138.853 -82.8693 138.712 -84.6151 138.589C-84.7313 140.363 -84.8389 142.136 -84.9123 143.917C-85.0012 146.125 -85.8332 151.359 -84.5996 153.307C-84.5231 153.43 -84.4609 153.553 -84.4119 153.679C-82.5165 154.086 -80.6094 154.415 -78.68 154.527C-78.2994 149.327 -78.2797 144.143 -78.9453 139.007ZM-88.7841 146.696C-88.7455 143.902 -88.5776 141.114 -88.394 138.328C-92.6167 138.045 -95.2455 137.896 -95.2455 137.896L-95.9877 151.012C-93.5131 151.416 -91.0617 152.051 -88.607 152.679C-88.914 150.699 -88.8105 148.563 -88.7841 146.696ZM-96.2114 154.965L-97.2541 173.391C-97.2541 173.391 -91.0895 174.379 -81.4609 175.978C-80.6023 170.222 -79.6565 164.427 -79.0465 158.637C-84.8127 158.241 -90.4891 155.854 -96.2114 154.965ZM-68.53 139.861C-70.7773 139.665 -72.9775 139.478 -75.0895 139.308C-73.6934 151.67 -75.9624 164.202 -77.7582 176.593C-75.7722 176.926 -73.6762 177.275 -71.4835 177.646C-70.9089 165.024 -69.6615 152.448 -68.53 139.861ZM37.5473 163.44C35.9731 170.337 35.1921 177.521 34.5313 184.54C34.1276 188.848 33.2493 194.443 33.3924 199.55C36.2357 200.54 39.4038 201.491 42.7389 202.391C42.5995 189.812 40.3265 177.142 42.1385 164.745C40.6502 164.321 39.1123 163.883 37.5473 163.44ZM46.4973 203.372C52.4474 204.867 58.6989 206.205 64.3885 207.315C62.7496 201.842 60.5198 196.525 59.1759 190.954C57.4071 183.626 56.6842 176.066 55.5443 168.593C52.6774 167.767 49.3867 166.82 45.7866 165.79C43.9982 178.127 46.3922 190.823 46.4973 203.372ZM64.1765 194.671C65.5769 199.193 67.243 203.576 68.4778 208.097C77.8245 209.841 84.8093 210.869 84.8093 210.869L76.6691 192.768C72.4531 193.003 68.253 193.312 64.1765 194.671ZM74.8831 188.799L67.334 172.012C67.334 172.012 64.4168 171.158 59.5447 169.751C60.543 176.798 61.2974 183.904 63.0614 190.757C66.9313 189.41 70.8959 189.037 74.8831 188.799ZM226.322 219.942C220.844 216.918 212.942 213.656 204.043 210.427C203.167 212.874 202.242 215.297 201.048 217.59C211.046 220.305 220.982 223.187 230.827 226.587C231.621 225.474 232.388 224.32 233.118 223.135C230.566 222.082 228.276 221.019 226.322 219.942ZM182.132 203.086C180.794 205.88 179.374 208.626 177.785 211.268C181.476 212.321 185.17 213.376 188.88 214.349C191.694 215.087 194.501 215.832 197.309 216.582C197.355 216.411 197.417 216.24 197.514 216.068C198.735 213.884 199.633 211.531 200.476 209.151C194.574 207.076 188.333 205.03 182.132 203.086ZM178.443 201.94C170.485 199.488 162.728 197.232 155.993 195.335C153.394 198.427 150.871 201.591 148.367 204.776C157.054 205.662 165.498 207.819 173.91 210.173C175.579 207.521 177.059 204.76 178.443 201.94ZM212.254 236.979C203.314 234.258 193.963 228.981 184.454 229.8C184.253 229.819 184.075 229.793 183.91 229.759C183.153 231.923 182.414 234.101 181.693 236.281L244.756 257.246C245.894 254.294 246.952 251.308 247.989 248.309C236.119 244.363 224.208 240.62 212.254 236.979ZM212.447 232.756C224.762 236.591 237.077 240.36 249.326 244.433C250.973 239.645 252.639 234.868 254.575 230.218C248.11 228.427 242.015 226.526 236.76 224.564C235.621 226.497 234.371 228.352 233.056 230.109C232.512 230.833 231.732 231.234 230.867 230.933C217.142 226.12 203.24 222.233 189.19 218.662C188.885 218.583 188.577 218.5 188.269 218.422C188.254 218.465 188.246 218.508 188.226 218.557C187.212 220.892 186.287 223.26 185.397 225.648C194.68 225.133 203.745 230.046 212.447 232.756ZM287.008 258.658C285.545 262.361 284.266 266.157 283.108 269.993L308.859 278.553L314.103 265.128C305.034 263.16 295.986 261.052 287.008 258.658ZM276.076 255.579C276.04 255.632 276.017 255.685 275.978 255.733C273.791 258.548 272.472 262.327 271.375 266.094L279.492 268.793C280.625 265.028 281.878 261.299 283.294 257.649C280.882 256.984 278.477 256.29 276.076 255.579ZM263.387 251.528C263.356 251.567 263.334 251.608 263.298 251.647C260.933 254.18 259.42 257.959 258.209 261.719L267.771 264.898C268.864 261.16 270.14 257.378 272.164 254.392C269.225 253.48 266.301 252.522 263.387 251.528ZM259.492 250.161C257.08 249.301 254.673 248.416 252.281 247.484C251.023 251.158 249.758 254.833 248.372 258.449L254.64 260.529C255.856 256.827 257.334 253.1 259.492 250.161ZM310.882 242.626C308.446 247.822 307.4 253.599 305.37 258.989C308.781 259.775 312.191 260.54 315.607 261.28L322.14 244.572C322.14 244.572 317.789 243.874 310.882 242.626ZM296.755 239.955C296.705 240.231 296.597 240.515 296.398 240.792C293.31 245.18 290.771 249.909 288.604 254.838C292.929 255.987 297.268 257.076 301.623 258.111C303.692 252.797 304.83 247.151 307.034 241.919C303.931 241.346 300.464 240.687 296.755 239.955ZM256.051 239.457C255.726 239.32 255.481 239.118 255.296 238.883C254.724 240.453 254.163 242.028 253.615 243.611C263.863 247.597 274.305 250.916 284.854 253.822C285.574 252.148 286.342 250.497 287.149 248.874C276.404 248.205 265.923 243.671 256.051 239.457ZM257.279 235.547C267.296 239.819 277.959 244.53 288.877 244.836C289.014 244.84 289.142 244.858 289.26 244.887C290.365 242.931 291.548 241.018 292.819 239.168C282.079 236.997 269.757 234.284 258.285 231.228C257.696 232.607 257.14 234 256.6 235.404C256.812 235.408 257.04 235.443 257.279 235.547ZM184.564 217.435C171.588 213.885 158.789 209.582 145.327 208.653C142.142 212.764 138.988 216.91 135.809 221.03L178.077 235.081C180.044 229.114 182.079 223.181 184.564 217.435ZM151.892 194.188C142.795 191.66 136.204 189.954 134.635 189.55C125.167 196.033 115.818 202.713 106.609 209.622C107.521 211.023 108.052 211.802 108.052 211.802L131.929 219.738C138.561 211.198 145.027 202.502 151.892 194.188ZM132.743 186.011C132.31 185.032 131.791 183.862 131.201 182.531C128.593 184.04 125.869 185.343 123.182 186.521C118.545 188.551 113.165 190.849 108.084 190.434C103.079 190.026 99.5574 184.941 96.9752 180.788C96.5882 180.169 96.2252 179.534 95.8624 178.894C94.0434 180.014 92.2105 181.098 90.3354 182.088C95.5579 191.962 101.003 200.851 104.458 206.282C113.754 199.307 123.189 192.56 132.743 186.011ZM108.317 186.319C112.783 187.017 118.419 184.252 122.443 182.422C124.807 181.347 127.241 180.189 129.568 178.844C127.677 174.591 125.344 169.338 122.792 163.61C118.199 166.053 113.538 168.377 108.924 170.892C105.565 172.72 102.331 174.81 99.0923 176.87C101.29 180.913 104.31 185.691 108.317 186.319ZM106.092 150.962C104.152 152.202 102.22 153.442 100.282 154.682C101.286 159.15 104.222 162.913 106.729 166.485C106.914 166.749 107.031 167.024 107.089 167.299C107.133 167.276 107.175 167.249 107.215 167.226C109.223 166.131 111.247 165.081 113.272 164.037C110.99 159.605 108.299 155.437 106.092 150.962ZM87.4637 162.895C85.842 163.936 84.2178 164.973 82.596 166.017C84.3774 170.194 86.3937 174.421 88.4884 178.535C90.3609 177.566 92.1915 176.497 94.0029 175.384C91.8864 171.172 89.9781 166.819 87.4637 162.895ZM97.2304 173.352C99.4269 171.95 101.616 170.525 103.844 169.181C101.194 165.413 98.2261 161.457 96.8937 156.853C94.8373 158.171 92.7808 159.49 90.7214 160.811C93.1762 164.796 95.0659 169.173 97.2304 173.352ZM116.717 162.263C118.203 161.501 119.687 160.734 121.164 159.957C119.069 155.264 116.87 150.342 114.675 145.459C112.913 146.596 111.142 147.723 109.373 148.856C111.62 153.452 114.385 157.717 116.717 162.263ZM78.0251 153.536C78.8512 156.346 79.8752 159.274 81.0501 162.257C91.6956 155.405 102.373 148.62 113.019 141.767C112.165 139.877 111.323 138.005 110.49 136.16C100.583 143.351 88.2204 146.647 78.0251 153.536ZM99.6259 137.409C96.4286 130.508 93.0414 123.326 91.5621 115.693C88.6425 117.351 85.7367 119.044 82.8377 120.743C84.3134 123.554 85.8434 126.32 87.537 128.944C88.0838 129.793 88.2548 131.124 87.3722 131.856C83.568 135.021 79.3363 137.314 75.0045 139.417C75.5242 141.329 75.9006 143.076 76.0842 144.591C76.2742 146.173 76.5859 147.841 76.9838 149.564C84.2454 145.039 92.5276 142.052 100.111 138.084C99.9242 137.915 99.7594 137.696 99.6259 137.409ZM95.2464 114.699C96.6497 122.02 99.9419 128.898 103.013 135.516C103.148 135.814 103.211 136.099 103.223 136.371C105.186 135.227 107.086 133.988 108.882 132.602C104.999 124.031 101.509 116.419 99.1608 111.497C97.7278 112.26 96.3009 113.041 94.8765 113.829C95.0464 114.059 95.18 114.346 95.2464 114.699ZM97.3946 107.866C97.1678 107.419 96.9692 107.035 96.7984 106.718C94.1048 101.709 90.6714 96.0036 86.1532 86.9951C82.5058 89.1697 78.8375 91.307 75.0653 93.2175C74.527 93.4911 73.9811 93.7455 73.4375 94.011C73.1133 94.3187 72.707 94.5246 72.2748 94.5785C70.8903 95.2462 69.5026 95.895 68.1133 96.5469C73.5677 102.45 77.2458 109.839 80.9879 117.164C86.4178 113.98 91.8582 110.818 97.3946 107.866ZM83.5334 129.829C77.203 119.349 72.9077 107.013 64.3997 98.3635C64.3833 98.3484 64.3743 98.3291 64.3593 98.3141C62.3392 99.2704 60.3267 100.246 58.3477 101.289C64.9603 114.01 70.7274 126.275 73.8148 135.522C77.1856 133.885 80.5007 132.11 83.5334 129.829ZM72.5424 89.9507C76.5707 87.9435 80.4755 85.6737 84.361 83.3652C83.2145 80.9977 82.0056 78.437 80.7222 75.6134C76.7705 77.948 72.8239 80.2937 68.8616 82.6104C69.9382 85.1432 70.9605 87.7702 72.5424 89.9507ZM65.5064 84.5586C61.4088 86.9256 57.2936 89.2477 53.1259 91.454C54.2602 93.5528 55.3882 95.6606 56.4966 97.7579C60.5799 95.5923 64.7844 93.6781 68.9732 91.6846C67.562 89.4918 66.5526 86.9925 65.5064 84.5586ZM47.8377 70.3981C46.4426 71.7628 45.0994 73.1775 43.7346 74.5658C46.187 78.8741 48.7027 83.3631 51.192 87.9102C60.6416 82.9227 69.8307 77.3718 79.0688 71.9225C76.5138 66.1444 73.6977 59.4314 70.5912 51.5122C68.8739 47.1436 66.7374 42.6996 64.3377 38.2752C58.2876 41.3703 52.1518 44.2756 46.3555 47.9259C47.6682 50.3592 48.9146 52.8186 50.0422 55.2885C51.3739 58.201 52.3995 61.8125 51.8462 65.1246C51.4203 67.6618 49.5024 68.7728 47.8377 70.3981ZM45.1076 29.7399C42.7079 31.1167 40.2617 32.4 37.7463 33.532C40.015 37.0398 42.2759 40.6852 44.4071 44.4095C46.993 42.7689 49.6509 41.2828 52.3352 39.8641C49.4641 36.9491 47.2612 33.3212 45.1076 29.7399ZM55.3652 37.3254C55.5953 37.5344 55.7617 37.7758 55.877 38.0284C58.0376 36.9312 60.206 35.8485 62.3668 34.7481C60.1413 30.8837 57.7456 27.0489 55.2492 23.3149C53.0024 24.8415 50.7329 26.337 48.4343 27.7603C50.4503 31.152 52.5383 34.7484 55.3652 37.3254ZM53.0089 20.0187C47.799 12.4931 42.3254 5.45257 37.3753 -0.55671C31.0413 3.02551 24.7553 6.70135 18.6749 10.7399C25.1436 16.2301 30.6316 22.9391 35.4897 30.1173C41.6415 27.4119 47.381 23.8243 53.0089 20.0187ZM44.8147 67.8241C47.1761 65.4435 48.5852 65.1031 48.0087 61.3179C47.4595 57.6864 45.2738 54.5186 43.517 51.4849C35.3856 37.4284 27.7676 23.1564 15.2507 13.0682C13.0494 14.6052 10.8783 16.194 8.74901 17.8573C15.0085 27.2732 21.1089 36.4731 22.0205 37.9762C22.8244 39.2945 31.5151 53.2917 41.7135 71.0359C42.7475 69.969 43.7641 68.8791 44.8147 67.8241ZM16.0001 2.2433C15.0371 0.858011 13.9299 -0.598141 13.1919 -2.19171C8.97019 0.357935 4.78041 3.00501 0.550344 5.54948C2.36786 8.27473 4.43352 11.3745 6.54563 14.5444C10.48 11.4738 14.5503 8.64593 18.705 5.95769C17.7426 4.7668 16.8605 3.48014 16.0001 2.2433ZM16.7122 -3.82488C16.9284 -3.42078 17.1685 -3.031 17.413 -2.6441C18.0331 -1.66538 18.6909 -0.715885 19.3593 0.223245C20.2187 1.42868 21.092 2.69133 22.062 3.82465C26.2391 1.22389 30.486 -1.26164 34.7627 -3.68904C32.6032 -6.25025 30.5831 -8.57629 28.7742 -10.6145C24.6078 -8.7373 20.5523 -6.5278 16.5393 -4.18108C16.6103 -4.03599 16.6781 -3.88481 16.7122 -3.82488ZM25.9467 -13.7668C22.4474 -17.6202 20.2566 -19.8572 20.2566 -19.8572L-5.86466 -4.0711C-5.86466 -4.0711 -4.19726 -1.56909 -1.67459 2.21023C7.49557 -3.26018 16.4619 -9.27665 25.9467 -13.7668ZM277.579 83.5433C280.806 84.4438 283.785 85.2739 286.999 86.169C287.083 84.694 287.143 83.5249 287.215 82.3565C287.594 76.2397 287.143 69.8925 288.57 64.067C290.407 56.5687 288.21 51.3892 283.111 46.3026C277.393 58.2634 279.01 70.901 277.579 83.5433ZM230.621 80.3844C233.965 91.2341 237.235 101.844 240.649 112.911C244.506 111.733 248.674 110.464 252.967 109.15C252 97.1029 251.071 85.4886 250.118 73.5907C243.555 75.8793 236.88 78.204 230.621 80.3844ZM218.182 25.4643C217.568 25.8528 217.266 27.6023 217.436 28.5884C219.086 38.0397 220.839 47.4717 222.635 56.8873C222.906 58.3181 223.539 59.6596 224.128 61.4125C227.913 58.9698 231.38 56.9339 234.609 54.5177C235.491 53.856 236.297 51.8921 236.063 50.8083C233.827 40.4304 231.362 30.1179 228.868 19.3634C225.321 21.3446 221.671 23.251 218.182 25.4643ZM203.674 11.4859C199.84 13.4901 195.878 15.2926 192.3 17.7564C190.599 18.9266 188.766 21.3309 188.559 23.3569C188.041 28.3357 187.857 33.5262 188.583 38.4375C189.628 45.4735 190.253 45.5276 196.493 43.0969C197.278 42.7902 198.082 42.5536 198.747 42.331C206.597 68.0744 214.304 93.352 222.031 118.679C227.008 117.108 231.567 115.669 235.955 114.282C234.92 102.557 230.981 92.4838 226.476 82.5512C224.522 78.2429 225.461 76.9762 229.653 75.635C235.638 73.7227 241.6 71.7121 247.506 69.521C248.621 69.1092 250.2 67.6969 250.236 66.7005C250.446 60.886 250.26 55.057 250.205 48.8545C240.45 56.0756 231.205 62.9165 221.807 69.8725C221.248 68.7044 220.87 68.2019 220.757 67.6296C217.997 54.1717 215.315 40.6885 212.495 27.2445C211.75 23.6786 213.586 22.1179 216.043 20.8336C224.232 16.5539 232.436 12.3031 240.628 8.02979C242.328 7.14471 244 6.2001 246.202 5.0049C243.055 2.46304 240.467 0.593943 238.123 -1.5827C235.562 -3.95976 233.299 -4.16461 230.132 -2.38604C221.433 2.49502 212.5 6.87536 203.674 11.4859ZM261.462 35.8999C266.452 37.9221 267.098 37.4133 271.093 29.9414C268.047 26.5886 265.14 23.3879 261.765 19.6732C260.751 24.428 259.696 28.2619 259.246 32.1708C259.109 33.345 260.393 35.4663 261.462 35.8999ZM268.58 61.2398C270.714 61.6176 272.596 61.9514 274.025 62.2062C276.139 55.5951 278.033 49.843 279.774 44.0431C280.065 43.072 280.035 41.6079 279.549 40.8139C278.007 38.3096 276.182 36.0134 274.153 33.2057C268.842 42.3899 269.198 51.677 268.58 61.2398ZM192.223 13.0809C205.386 6.32856 217.662 0.0275912 230.6 -6.60744C225.722 -11.111 221.31 -13.8279 215.465 -11.0221C213.66 -10.154 211.651 -9.82253 209.771 -9.11847C200.348 -5.58413 195.673 2.40568 192.223 13.0809ZM258.874 77.7667C259.502 80.8666 261.32 82.8191 263.973 81.7795L266.269 41.2051C263.48 40.7792 260.994 40.4003 258.034 39.9506C257.575 48.0552 256.796 55.6729 256.838 63.2745C256.866 68.1212 257.906 73.0001 258.874 77.7667ZM231.55 146.315C241.337 144.223 250.428 142.281 259.858 140.266C257.629 130.66 255.55 121.691 253.452 112.651C243.384 115.906 233.465 119.113 223.591 122.302C226.446 130.914 228.998 138.619 231.55 146.315ZM44.8608 -3.56746C46.5714 -2.99885 48.7904 -1.3873 49.9073 -2.03573C57.7352 -6.61654 65.3356 -11.6569 73.01 -16.5537C73.0383 -17.1555 73.0651 -17.7559 73.0962 -18.3577C71.0958 -18.8439 68.5415 -20.4353 67.1894 -19.6261C59.6353 -15.0988 52.3696 -9.99244 45.0029 -5.08615C44.9583 -4.57767 44.9095 -4.071 44.8608 -3.56746ZM135.933 1.26806C134.265 0.598435 132.605 -0.103675 130.944 -0.78391C130.508 1.6633 130.054 4.07352 129.54 6.46931C126.614 20.1085 124.021 33.8575 120.423 47.3004C119.596 50.4012 119.534 53.3006 119.848 56.1116C125.713 38.0288 128.93 18.948 135.933 1.26806ZM139.5 2.61422C131.713 22.3047 128.619 43.7248 121.311 63.5695C121.845 65.7644 122.393 67.9632 122.744 70.2152C134.909 49.8021 141.045 27.435 145.003 4.15607C143.139 3.78254 141.311 3.24181 139.5 2.61422ZM145.665 0.0851893C145.99 -1.94667 146.305 -3.98856 146.601 -6.03775C141.329 -6.84395 136.928 -7.51622 132.274 -8.22786C132.067 -7.10631 131.872 -5.99974 131.677 -4.89629C136.285 -3.02571 140.848 -0.873945 145.665 0.0851893ZM128.983 -24.6909C124.018 -23.2131 119.121 -21.7535 114.234 -20.2964C114.349 -20.0908 114.434 -19.8477 114.474 -19.5555C115.796 -10.057 118.815 -0.942086 120.347 8.51821C120.493 9.41206 120.116 10.3688 119.347 10.7925C115.388 12.9635 111.585 15.7406 107.568 17.8865C108.63 19.9091 109.658 21.9501 110.608 24.0306C113.356 30.0548 115.424 36.4511 117.852 42.8491C122.991 25.0747 129.536 -13.5352 128.983 -24.6909ZM101.319 6.44292C102.745 9.09583 104.222 11.7203 105.669 14.3603C109.337 12.4612 112.818 9.93705 116.358 7.85824C115.769 4.5677 115.023 1.31213 114.252 -1.93388C109.627 0.276343 105.428 3.26929 101.319 6.44292ZM113.293 -5.96952C112.304 -10.1684 111.361 -14.3756 110.767 -18.6649C110.736 -18.8767 110.743 -19.0754 110.763 -19.2654C104.129 -17.2897 97.4864 -15.3128 90.692 -13.2912C93.9046 -7.32379 96.6982 -2.14663 99.4112 2.90059C103.803 -0.498392 108.304 -3.70313 113.293 -5.96952ZM120.394 -27.3197C130.194 -29.8765 130.192 -29.8986 128.761 -41.151C128.726 -41.4211 128.526 -41.6628 128.312 -42.1091L108.724 -43.2176C110.334 -37.228 111.822 -31.6843 113.404 -25.7935C115.724 -26.2955 118.078 -26.7156 120.394 -27.3197ZM90.5836 -17.738C96.0123 -19.5249 101.415 -21.4199 106.735 -23.5689C107.602 -23.9211 108.7 -25.9155 108.491 -26.7988C107.354 -31.5311 105.977 -36.2127 104.347 -40.7692C103.973 -41.8045 102.204 -42.9862 101.181 -42.8748C91.806 -41.8598 82.4492 -40.5726 73.2115 -39.3805C78.2958 -31.978 82.9129 -25.1489 87.6918 -18.455C88.1718 -17.7757 89.7338 -17.4569 90.5836 -17.738ZM152.275 34.5441C153.163 26.8401 154.038 19.2434 155.034 10.6284C153.171 10.3647 151.64 10.148 150.063 9.92392C149.016 14.6737 148.108 18.8639 147.166 23.0491C146.051 28.0113 147.697 31.8868 152.275 34.5441ZM176.013 -32.0974C176.074 -32.9545 175.134 -34.4874 174.388 -34.7146C169.135 -36.3222 163.816 -37.6688 157.963 -39.2446C156.837 -31.3831 155.808 -24.2042 154.876 -17.7112C161.484 -15.5785 167.353 -13.6821 174.141 -11.4891C174.855 -18.9976 175.548 -25.5372 176.013 -32.0974ZM134.893 -12.6175C138.691 -11.7364 142.556 -11.1964 146.97 -10.4434L148.69 -40.8477L133.673 -41.6976C133.514 -32.67 133.309 -23.9398 133.28 -15.2089C133.277 -14.3078 134.187 -12.7798 134.893 -12.6175ZM154.306 -13.4626C153.44 -8.21044 152.772 -3.51754 151.876 1.0997C152.594 1.86767 152.524 3.34025 151.754 4.15094C152.112 5.45186 153.191 6.06621 154.897 6.22391C159.677 6.66526 164.459 7.14903 169.251 7.37631C170.026 7.41393 171.426 6.35357 171.576 5.58772C172.4 1.421 172.919 -2.81162 173.532 -6.93551C167.015 -9.14604 160.902 -11.2209 154.306 -13.4626ZM147.699 72.4487C149.055 72.7528 151.381 71.7589 152.2 70.5325C155.769 65.1573 158.95 59.4749 162.333 53.8009C156.087 47.2558 150.246 41.1319 144.674 35.2974C140.365 45.863 135.976 56.623 131.389 67.8672C136.82 69.4442 142.206 71.2193 147.699 72.4487ZM215.406 -17.4521C211.663 -19.1624 207.919 -20.876 204.156 -22.5937C195.144 -18.7398 186.287 -14.4681 177.555 -9.87415C176.8 -3.52938 176.04 2.85115 175.253 9.47471C187.011 -3.52366 200.047 -11.9699 215.433 -15.9881C215.425 -16.473 215.416 -16.9625 215.406 -17.4521ZM199.22 -24.8527C193.039 -27.6807 186.787 -30.5425 180.367 -33.4781C179.607 -27.0991 178.871 -20.9084 178.132 -14.7258C185.075 -18.3253 192.101 -21.7163 199.22 -24.8527ZM232.9 19.9568C234.666 29.9585 236.734 39.888 238.882 50.6966C243.137 47.4341 246.63 44.8886 249.961 42.1099C250.873 41.3542 251.702 39.9764 251.883 38.7671C253.008 31.2849 253.984 23.777 254.912 16.2664C255.417 12.1584 251.767 8.38741 248.653 9.76456C244.069 11.7952 239.479 13.8412 235.045 16.2205C233.981 16.7905 232.71 18.8707 232.9 19.9568ZM126.15 359.214C121.867 352.867 117.938 347.046 113.873 341.026C110.279 343.07 106.411 345.265 101.838 347.865C107.871 354.601 113.575 360.971 119.537 367.622C122.314 364.092 124.48 361.334 126.15 359.214ZM148.539 358.194C150.382 352.722 149.394 346.724 144.556 342.56C137.267 351.798 130.074 360.912 122.76 370.185C127.093 374.7 131.436 379.224 137.002 385.033C141.247 375.36 145.562 367.037 148.539 358.194ZM185.481 383.162C186.567 383.878 188.96 383.789 189.919 382.95C192.675 380.543 195.004 377.564 197.43 374.886C190.135 364.966 183.212 355.557 176.278 346.132C170.643 349.935 165.143 353.644 159.421 357.504C167.41 367.328 175.413 376.508 185.481 383.162ZM157.369 354.169C163.183 350.016 168.648 346.113 173.883 342.375C167.566 331.968 161.756 322.244 155.737 312.677C154.905 311.347 153.113 310.555 151.613 309.942C147.026 308.069 142.411 306.255 137.716 304.741C135.883 304.148 133.814 304.415 131.853 304.286C132.113 306.28 131.872 308.578 132.711 310.211C138.957 322.341 145.359 334.381 151.857 346.349C153.328 349.06 155.386 351.391 157.369 354.169ZM76.7692 313.802C74.61 309.301 72.889 305.711 71.2119 302.208C59.4644 308.556 48.2574 314.617 36.538 320.953C38.3593 324.424 40.2289 327.986 41.9879 331.338C54.0325 325.264 65.3622 319.554 76.7692 313.802ZM142.172 338.083C140.125 334.42 138.099 330.804 136.034 327.107C130.061 331.176 124.361 335.059 117.939 339.436C121.362 345.055 124.709 350.545 128.527 356.809C133.564 349.891 137.833 344.04 142.172 338.083ZM202.638 362.818C194.404 352.213 185.179 342.478 178.878 330.164C174.863 322.324 170.413 314.755 166.117 306.985C163.805 307.961 161.597 308.889 159.206 309.895C171.903 331.486 185.59 351.914 200.795 371.001C206.352 367.187 206.166 367.361 202.638 362.818ZM67.4661 340.429C66.448 339.663 65.2259 339.066 64.4208 338.072C58.6656 330.943 52.4814 329.894 45.5336 337.094C50.3219 345.25 55.3435 353.813 60.532 362.659C62.9654 354.857 65.2038 347.676 67.4661 340.429ZM134.435 323.626C133.04 321.028 132.228 319.521 131.078 317.385C118.642 323.094 106.554 328.638 93.9057 334.442C95.7507 337.572 97.3222 340.241 99.242 343.502C110.948 336.891 122.552 330.336 134.435 323.626ZM31.8816 322.683C23.9646 326.139 16.5423 329.381 9.16123 332.608C10.8607 336.656 12.3876 340.291 14.3089 344.873C22.2659 341.295 29.9968 337.817 37.8001 334.307C35.6524 330.086 33.7934 326.439 31.8816 322.683ZM293.604 89.8721C299.187 93.6224 304.878 97.175 310.535 100.796C310.861 100.658 311.186 100.518 311.512 100.381C307.107 86.8006 300.789 74.2512 293.085 62.2644C292.045 70.4521 291.491 78.498 291.251 86.5538C291.219 87.6602 292.553 89.1684 293.604 89.8721ZM302.399 175.062C296.197 176.299 289.016 182.345 281.434 193.529C279.808 195.923 280.454 200.128 279.97 204.218C282.283 204.349 283.807 204.446 285.333 204.522C295.622 205.029 295.672 205.042 298.173 194.386C299.651 188.078 300.948 181.725 302.399 175.062ZM286.786 144.577L284.774 180.13C285.201 180.182 285.629 180.239 286.058 180.296C293.784 173.926 301.513 167.561 309.365 161.086C302.161 155.394 296.17 147.804 286.786 144.577ZM317.381 157.859C317.55 157.21 317.724 156.562 317.896 155.913C305.095 141.227 292.289 126.541 278.91 111.194C276.436 118.013 274.332 123.81 272.189 129.714C272.762 130.22 273.131 130.702 273.606 130.945C287.27 137.918 300.413 145.738 311.658 156.921C312.838 158.094 315.438 157.586 317.381 157.859ZM211.588 348.397C210.746 347.365 209.971 346.248 209.032 345.329C199.201 335.719 191.26 324.463 184.589 312.095C182.703 308.604 180.859 305.087 178.822 301.704C178.427 301.048 177.111 300.5 176.421 300.71C174.056 301.428 171.784 302.504 169.405 303.473C180.286 325.855 193.344 345.47 209.395 362.658C216.459 357.8 216.892 354.908 211.588 348.397ZM292.727 218.746C293.677 215.952 294.064 212.938 294.716 209.815L279.745 208.967C279.271 212.585 278.838 215.89 278.291 220.071C282.458 220.56 286.062 221.202 289.682 221.273C290.712 221.296 292.345 219.882 292.727 218.746ZM278.983 224.768C278.162 224.764 276.984 225.729 276.596 226.58C276.183 227.497 276.144 229.591 276.57 229.817C280.17 231.761 283.915 233.399 287.757 235.19C289.038 231.485 289.869 229.074 291.15 225.366C286.523 225.104 282.753 224.775 278.983 224.768ZM244.035 327.743C245.714 325.813 247.446 323.818 249.175 321.825C242.691 313.088 236.382 304.513 229.944 296.06C229.48 295.452 227.817 295.223 227.12 295.637C219.547 300.111 212.08 304.802 204.536 309.33C199.676 312.246 198.153 316.4 200.966 321.453C204.335 327.487 208.215 333.185 212.193 339.534C216.467 335.845 219.826 333.029 223.104 330.106C234.578 319.88 230.995 319.563 244.035 327.743ZM255.991 311.09C257.159 309.311 256.916 308.483 255.369 306.731C251.845 302.735 249.125 297.913 245.825 293.662C244.443 291.88 242.595 289.873 240.654 289.415C237.935 288.777 234.88 289.351 233.066 293.244C239.07 301.429 245.081 309.615 251.502 318.367C253.312 315.422 254.596 313.214 255.991 311.09ZM275.273 314.537C278.722 305.429 281.817 297.259 285.136 288.501C279.193 287.008 274.15 285.738 268.764 284.383C266.872 290.439 265.164 295.824 263.534 301.237C263.292 302.045 263.074 303.429 263.456 303.794C267.125 307.291 270.923 310.626 275.273 314.537ZM264.798 283.257C258.698 281.277 253.034 279.439 247.365 277.6C247.054 277.983 246.74 278.367 246.428 278.755C248.905 286.893 254.319 292.923 260.058 299.896C261.761 293.914 263.212 288.828 264.798 283.257ZM94.4588 383.486C93.9963 373.69 93.5236 363.592 92.9907 352.265C82.7612 358.868 73.8992 364.594 64.5739 370.617C68.6572 377.361 72.8023 384.207 77.224 391.511C82.6737 388.971 88.2165 386.39 94.4588 383.486ZM-29.6989 359.228C-27.09 361.663 -24.8139 365.091 -21.7829 366.25C-18.8057 367.392 -14.8882 366.858 -11.7421 365.781C-10.4263 365.333 -10.0344 361.589 -9.20246 359.283L-29.2819 358.147C-29.4219 358.509 -29.5588 358.866 -29.6989 359.228ZM43.6016 -9.33809C50.7575 -14.0572 57.7752 -19.0303 64.8543 -23.8949C64.9702 -24.3648 65.0905 -24.8361 65.2067 -25.3108C62.7601 -26.2094 59.6744 -28.6162 57.9733 -27.75C50.331 -23.8515 43.0785 -19.0297 34.9074 -14.0592C38.3328 -12.3104 38.5793 -6.02806 43.6016 -9.33809ZM136.662 401.866C133.091 407.084 129.807 412.533 125.904 418.684C134.816 417.322 143.046 415.949 151.304 414.856C154.876 414.386 157.161 412.561 158.325 409.012C152.85 406.053 147.605 403.444 142.572 400.416C139.948 398.838 138.05 399.834 136.662 401.866ZM98.815 387.952C98.8573 389.799 98.8916 391 98.9145 392.199C99.0754 400.911 99.235 409.62 99.3932 418.328L114.666 419.192C115.801 418.713 117.497 418.595 117.982 417.701C121.673 410.94 125.124 404.028 128.76 396.953C118.425 393.846 108.786 390.947 98.815 387.952ZM128.957 391.59C131.702 392.432 132.466 391.286 132.906 389.132C120.772 376.211 108.799 363.469 97.421 351.349C97.7204 360.464 98.1319 370.168 98.3013 379.875C98.353 382.83 100.044 383.382 101.998 383.931C110.989 386.462 120.022 388.845 128.957 391.59ZM8.85259 381.482C7.48113 381.691 6.09456 381.76 3.42526 382.023C4.89506 384.606 5.55127 387.237 7.09483 388.212C13.645 392.338 20.4593 395.973 27.1755 399.788C27.3946 399.554 27.6111 399.317 27.8303 399.083C26.4288 396.184 25.0702 393.264 23.6209 390.395C17.6528 378.578 20.975 379.632 8.85259 381.482ZM-3.63633 348.12C-4.09002 349.672 -4.80153 351.2 -4.95445 352.782C-5.52903 358.711 -5.36676 364.776 -6.52918 370.556C-7.97681 377.761 -6.94628 380.574 -0.141919 382.728C-0.798394 371.296 -1.45035 359.91 -2.10356 348.521C-2.61448 348.387 -3.1254 348.254 -3.63633 348.12ZM70.0741 396.403C68.6595 392.183 63.6779 385.153 61.955 381.06C55.7113 366.225 47.3155 354.55 40.9818 339.547C38.1706 340.917 36.2601 341.845 34.862 342.527C42.4283 365.398 49.8924 387.963 57.4688 410.86C59.1528 409.888 60.31 409.367 61.3162 408.613C67.2418 404.154 72.5938 403.925 70.0741 396.403ZM16.6727 349.882C16.5853 350.358 16.4066 350.716 16.5003 350.943C23.013 366.879 29.4946 382.832 36.1478 398.703C37.1352 401.057 38.5363 403.81 40.4694 404.951C43.8574 406.953 47.8037 407.846 51.9113 409.348C44.2358 387.643 36.815 366.654 29.3788 345.632C24.6208 347.223 20.6116 348.562 16.6727 349.882ZM62.1235 412.035C70.3168 415.148 87.0918 417.259 87.0918 417.259L76.4296 401.247L62.1235 412.035ZM79.004 395.255C82.8519 403.104 86.4558 410.453 90.0599 417.8L95.9993 418.136C95.4209 408.148 94.8428 398.156 94.2151 387.283C88.7218 390.16 83.9897 392.643 79.004 395.255ZM279.087 315.828C286.678 320.955 286.833 320.92 291.581 313.046C292.509 311.502 293.464 309.972 294.319 308.38C296.772 303.826 299.178 299.244 301.795 294.311C297.047 292.772 293.055 291.479 288.93 290.145C285.571 298.908 282.33 307.37 279.087 315.828ZM326.606 180.741C326.465 172.996 325.662 172.217 317.921 172.872C320.857 179.678 323.75 186.392 326.645 193.105L327.115 184.794C326.938 183.445 326.633 182.097 326.606 180.741ZM321.81 195.516C319.418 188.542 316.921 181.609 314.451 174.661C313.946 174.705 313.439 174.753 312.934 174.797C311.18 195.556 303.615 214.427 295.874 233.493C299.598 234.594 302.374 235.414 305.351 236.294C310.881 223.244 316.225 210.666 321.516 198.069C321.831 197.312 322.055 196.235 321.81 195.516ZM259.792 312.941C255.58 318.872 251.551 324.955 247.277 331.275C253.565 336.201 260.133 341.349 267.09 346.798C272.456 340.002 277.6 333.48 282.973 326.672C275.943 321.639 269.425 316.888 262.789 312.336C262.133 311.887 260.277 312.266 259.792 312.941ZM174.442 382.211C172.066 379.731 169.955 376.953 167.731 374.301C167.724 374.297 167.719 374.294 167.715 374.286C166.922 376.846 166.451 379.595 165.265 381.917C161.937 388.433 158.317 394.779 154.792 401.219C161.513 404.853 161.475 404.822 165.438 399.205C168.402 395.009 171.439 390.867 174.533 386.784C175.805 385.108 176.034 383.879 174.442 382.211ZM171.658 408.011C172.043 408.442 172.425 408.872 172.809 409.303C178.84 407.035 184.87 404.771 191.42 402.312C188.003 398.405 185.146 395.143 181.614 391.106C178.053 397.154 174.856 402.583 171.658 408.011ZM220.428 367.411C208.535 372.326 203.971 384.697 195.771 391.929C197.313 394.358 198.571 396.332 200.006 398.592C207.589 394.136 214.71 390.059 221.696 385.725C222.742 385.076 223.922 383.047 223.735 381.933C222.93 377.172 221.638 372.517 220.428 367.411ZM232.289 328.256C227.36 332.159 222.722 336.497 217.965 340.664C216.169 342.234 216.442 343.161 218.187 344.827C222.572 349.012 226.78 353.451 230.771 358.082C234.427 362.324 237.707 366.948 241.995 372.494C249.06 365.048 255.976 357.756 263.236 350.105C254.345 342.924 245.598 335.754 236.697 328.809C235.612 327.958 233.194 327.536 232.289 328.256ZM228.989 380.749C230.577 379.605 231.693 378.8 232.553 378.179C230.57 375.487 228.746 373.006 226.282 369.658C227.301 373.844 228.056 376.923 228.989 380.749ZM154.55 371.326C153.426 373.021 152.605 374.951 151.618 376.754C148.384 382.669 145.141 388.577 141.815 394.644C145.009 396.425 147.856 398.016 150.708 399.605C154.764 392.153 158.436 385.011 162.525 378.165C163.579 376.397 165.945 375.549 167.709 374.282C166.523 373.085 165.256 371.971 164.163 370.68C160.822 366.731 157.498 366.875 154.55 371.326ZM-52.0612 72.2249C-55.9726 70.5379 -59.5719 68.8075 -63.2986 67.4963C-64.3155 67.1425 -66.2279 67.6205 -66.8477 68.4679C-68.3833 70.5849 -69.4132 73.1318 -70.6511 75.5117C-65.1948 77.029 -60.1624 78.4283 -54.8236 79.9107C-53.7897 77.038 -52.9759 74.772 -52.0612 72.2249ZM-43.3113 94.5159C-35.3578 72.0886 -28.5827 49.0804 -14.7836 29.6141C-10.5734 23.6796 -10.9602 22.9304 -17.3872 19.0446C-19.1996 21.751 -20.831 24.6698 -22.8843 27.1807C-35.8258 42.9712 -42.6301 62.3474 -49.8776 81.4101C-51.4241 85.4764 -53.1013 86.253 -56.5413 85.0677C-60.8401 83.583 -65.1731 82.1684 -69.5763 81.1308C-70.9378 80.8077 -73.4228 81.3003 -73.9419 82.3023C-76.7008 87.6355 -78.9958 93.2458 -81.6553 99.2147C-69.9766 101.796 -58.9821 104.224 -47.6662 106.725C-46.263 102.798 -44.7786 98.6588 -43.3113 94.5159ZM-65.9932 126.159C-65.6749 124.352 -65.3071 122.561 -64.7354 119.56C-72.6329 118.472 -80.0504 117.457 -87.6392 116.412C-89.0446 121.929 -90.2979 126.846 -91.6917 132.312C-85.8641 133.123 -80.8815 134.077 -75.8589 134.452C-67.5507 135.078 -67.542 134.923 -65.9932 126.159ZM-80.849 259.308L-79.7869 240.54C-84.4032 239.628 -88.7802 238.761 -93.8208 237.763C-92.6623 242.792 -91.7286 247.189 -90.6336 251.535C-88.7128 259.178 -88.3895 259.396 -80.849 259.308ZM-76.5948 105.743C-83.4279 103.333 -83.428 103.333 -85.6867 111.459C-78.5002 113.86 -76.376 112.464 -76.5948 105.743ZM32.8379 -18.5668C40.31 -22.384 47.4697 -26.9415 54.7358 -31.2406C54.509 -31.8146 54.2824 -32.3917 54.0557 -32.9657C44.5029 -31.1441 35.8184 -26.4675 26.9621 -22.3697L26.7619 -21.0205C28.8198 -20.125 31.4613 -17.8594 32.8379 -18.5668ZM10.6727 84.2175C11.2277 84.9213 12.7825 85.5454 13.4 85.1963C17.2404 83.0216 20.947 80.5651 25.1915 77.8913C21.5859 71.0302 18.3329 64.8348 14.482 57.4989C9.87682 62.9048 5.90272 67.5689 1.8778 72.2912C5.21916 76.874 7.85252 80.6313 10.6727 84.2175ZM-31.1254 129.493C-32.9929 142.055 -33.3585 139.277 -23.0842 141.401C-18.6343 108.885 -12.0528 77.7164 12.0759 54.1275C9.02094 49.9309 5.8445 45.5644 2.54625 41.0343C-3.44169 45.6533 -6.97484 51.866 -9.44874 58.5508C-18.0143 81.7147 -27.4335 104.617 -31.1254 129.493ZM-20.7914 16.2076C-24.1329 13.5105 -24.1544 13.4842 -26.6979 15.9517C-39.91 28.7863 -51.4752 43.1891 -61.4246 59.1207C-62.0122 60.0608 -62.4106 61.1449 -62.8748 62.1203C-58.6131 64.1578 -54.6865 66.0337 -50.3715 68.0977C-42.152 49.4192 -34.442 30.8106 -20.7914 16.2076ZM-31.713 109.969C-29.3688 102.675 -27.4849 95.7266 -24.9279 89.0747C-18.1443 71.4403 -14.9487 51.874 -1.21182 37.5032C-3.28705 34.1145 -5.33191 30.7744 -7.47614 27.2814C-18.2431 40.4048 -42.3026 94.457 -43.6003 108.276C-39.6096 108.842 -35.6078 109.415 -31.713 109.969ZM-70.6238 222.799C-69.6964 243.087 -69.6964 243.087 -65.8683 244.006C-63.0991 227.802 -63.8107 224.393 -70.6238 222.799ZM-62.0299 266.656L-73.9819 265.979L-74.5346 275.746C-70.9296 276.689 -67.6112 277.554 -64.1837 278.45C-63.3928 274.12 -62.7473 270.578 -62.0299 266.656ZM-55.917 327.988L-54.9896 327.507L-54.2869 315.089C-57.6238 314.704 -60.8277 314.334 -65.1394 313.841C-61.5955 319.274 -58.7569 323.629 -55.917 327.988ZM-82.4506 277.557L-81.7812 277.258L-81.0764 264.803C-82.9536 264.404 -84.6713 264.039 -87.3982 263.461C-85.509 268.84 -83.9799 273.201 -82.4506 277.557ZM-38.9868 301.498L-73.4876 299.545C-70.6356 303.459 -68.735 308.763 -66.0493 309.255C-57.381 310.846 -48.4236 310.662 -39.5338 311.165L-38.9868 301.498ZM-38.643 331.385C-29.1469 332.498 -19.6505 333.608 -9.38712 334.804C-10.5916 329.416 -11.7096 324.561 -12.7573 319.685C-13.3389 316.983 -14.7882 316.252 -17.3415 316.245C-27.0819 316.216 -36.8208 315.856 -46.5612 315.648C-47.6299 315.624 -48.703 315.778 -49.7047 315.84C-51.5133 329.119 -51.5133 329.119 -39.8936 331.138C-39.4741 331.208 -39.0623 331.337 -38.643 331.385ZM-80.4535 219.538C-85.7241 218.072 -91.0648 216.905 -96.4097 215.632C-97.719 228.029 -95.7921 231.112 -85.4751 233.346C-83.5499 233.762 -81.5916 234 -79.1741 234.394C-78.9245 229.983 -78.5686 226.163 -78.5877 222.351C-78.5927 221.371 -79.6298 219.77 -80.4535 219.538ZM-82.1268 194.03C-87.3058 193.593 -92.5025 193.368 -98.3658 193.036C-98.1184 198.31 -97.9892 203.179 -97.5712 208.008C-97.4924 208.906 -96.3621 210.16 -95.5091 210.407C-89.9295 212.011 -84.2948 213.38 -77.0946 215.235C-78.2343 207.861 -79.1053 201.822 -80.1703 195.828C-80.3013 195.088 -81.4044 194.093 -82.1268 194.03ZM-9.58906 354.713L-8.86215 341.867C-22.3148 340.22 -35.3297 338.627 -48.346 337.033C-44.75 342.587 -40.7687 347.264 -36.6984 351.845C-36.0673 352.553 -35.0573 353.207 -34.1793 353.268C-26.0572 353.821 -17.9318 354.24 -9.58906 354.713ZM-63.8199 216.793L-62.8001 198.771C-76.298 192.452 -74.0496 205.126 -70.1925 214.771C-68.0263 215.458 -66.3286 215.999 -63.8199 216.793ZM-50.4606 253.302C-55.3567 252.728 -60.0902 250.705 -64.9794 249.983C-67.0378 249.682 -70.0285 250.356 -71.3285 251.872C-73.0045 253.824 -73.4172 257.069 -74.8524 261.102L-43.5646 262.873C-42.3572 254.466 -42.8103 254.202 -50.4606 253.302ZM308.651 237.194C312.733 238.511 316.359 239.679 320.372 240.97C320.847 238.912 321.36 237.023 321.71 235.104C322.983 228.191 324.203 221.266 325.443 214.344L325.861 206.956C325.246 205.659 324.628 204.358 323.927 202.878C318.781 214.434 313.771 225.69 308.651 237.194ZM161.436 144.579C158.538 145.859 156.328 146.889 154.08 147.815C147.523 150.528 147.296 151.585 150.606 158.565C152.846 163.281 154.807 168.19 156.492 173.174C158.432 178.911 159.855 184.857 161.688 190.639C162.053 191.785 163.109 193.1 164.122 193.475C168.071 194.944 172.131 196.068 177.617 197.775C176.621 192.874 176.138 189.064 175.048 185.485C173.753 181.233 171.756 177.244 170.374 173.015C167.329 163.702 164.48 154.313 161.436 144.579ZM137.132 172.864C141.515 172.208 145.819 170.901 150.823 169.665C148.179 163.454 145.845 157.969 143.245 151.862C138.142 153.716 133.392 155.441 128.402 157.255C130.33 161.728 131.934 165.823 133.867 169.726C134.54 171.084 136.159 173.008 137.132 172.864ZM118.218 246.328C120.171 244.004 121.897 241.954 124.001 239.454C119.391 238.571 115.586 237.838 111.003 236.96C113.704 240.467 115.87 243.278 118.218 246.328ZM166.363 251.04C163.87 250.449 161.642 250.095 159.518 249.375C155.499 248.014 151.557 246.402 147.558 244.97C143.862 243.65 141.802 245.513 141.346 249.395C140.849 253.652 140.636 257.949 140.45 262.234C140.119 269.778 140.394 270.095 147.196 271.533C151.228 272.387 152.194 271.53 152.434 266.933C152.625 263.329 152.839 259.726 153.052 255.945C163.243 259.884 164.676 257.363 166.363 251.04ZM174.962 155.109C174.137 155.399 172.925 156.901 173.058 157.542C173.834 161.276 174.955 164.919 176.11 169.127C187.828 164.782 199.066 160.616 210.773 156.273C209.743 152.207 208.751 148.277 207.657 143.943C196.272 147.803 185.596 151.383 174.962 155.109ZM-25.7444 240.457C-19.5165 240.455 -14.5848 240.452 -8.82944 240.452C-12.3122 236.433 -14.8433 233.515 -17.4717 230.485C-19.9805 233.51 -22.3856 236.41 -25.7444 240.457ZM214.545 171.042C213.418 167.461 212.546 163.781 211.607 160.33C200.252 164.797 189.244 169.129 177.81 173.628C180.732 181.932 183.671 190.284 186.614 198.631C186.759 199.045 186.866 199.739 187.114 199.811C192.317 201.252 197.225 204.823 202.945 202.762C207.911 200.973 212.716 198.611 217.73 197.023C221.61 195.796 222.244 193.805 220.84 189.97C218.558 183.739 216.546 177.389 214.545 171.042ZM165.441 136.436C173.578 133.376 181.589 130.366 189.58 127.359C187.037 117.524 183.498 108.038 181.063 98.1657C172.153 101.306 163.275 104.44 155.044 109.757C158.595 118.867 162.018 127.652 165.441 136.436ZM224.752 206.377C230.009 203.675 236.014 202.731 242.087 200.885C241.339 198.069 240.376 194.458 239.515 191.221C228.638 195.885 218.057 200.421 206.913 205.202C213.079 207.823 218.455 209.614 224.752 206.377ZM0.901397 264.701C0.147184 261.511 -0.36157 258.819 -1.15987 256.23C-1.48601 255.172 -2.28586 253.73 -3.11044 253.514C-8.10012 252.2 -13.1574 251.19 -18.4124 250.035C-18.4557 255.152 -18.4876 259.254 -18.5248 263.602L0.901397 264.701ZM19.4705 282.218C19.931 283.091 21.1845 284.254 21.8317 284.092C26.9856 282.81 32.0783 281.234 37.2239 279.741C35.1821 274.997 33.4039 270.865 31.4969 266.437C25.4086 267.359 19.3391 268.277 13.0546 269.229C15.3004 273.828 17.2981 278.078 19.4705 282.218ZM54.8838 289.299C64.73 285.422 74.7025 281.934 84.6444 278.353C93.0688 275.32 101.528 272.394 109.938 269.432C108.034 261.457 107.816 261.318 101.441 263.925C99.4532 264.738 97.4643 265.577 95.5369 266.55C81.4459 273.664 66.8961 279.112 51.5197 281.707C49.2104 282.099 46.9824 283.09 44.6921 283.807C47.5364 292.465 47.4565 292.222 54.8838 289.299ZM55.1303 256.335C53.0199 244.56 51.1014 233.284 48.8717 222.089C48.5824 220.635 46.8791 219.073 45.4888 218.469C43.7625 217.721 41.6835 217.911 39.1858 217.636C41.0674 231.572 42.8762 244.962 44.7557 258.886C47.9617 258.097 51.3503 257.265 55.1303 256.335ZM123.471 288.049C124.901 281.604 125.755 275.77 127.519 270.275C129.941 262.725 133.159 255.471 135.793 247.991C136.362 246.381 136.574 243.838 135.783 242.636C134.383 240.49 128.454 241.08 126.556 243.116C121.713 248.314 116.911 253.557 111.906 258.984C115.114 268.578 116.084 279.51 123.471 288.049ZM43.1422 277.804C48.939 276.561 54.6823 275.019 61.0494 273.422C59.8482 269.502 58.9456 265.956 57.6286 262.607C57.2223 261.566 55.5256 260.218 54.7229 260.43C48.4481 262.076 42.25 264.07 35.6264 266.077C37.2447 269.625 38.611 272.969 40.2985 276.108C40.7831 277.012 42.2935 277.987 43.1422 277.804ZM142.925 188.722C147.302 190.147 151.893 190.819 157.142 191.949C155.583 186.486 154.332 181.846 152.878 177.284C152.646 176.563 151.395 175.649 150.76 175.77C146.413 176.609 142.105 177.701 137.876 178.689C138.477 180.879 138.707 182.748 139.488 184.277C140.354 185.975 141.475 188.25 142.925 188.722ZM27.9693 215.415C27.7069 215.369 27.4173 215.471 26.0951 215.624C25.2404 231.34 25.8129 246.776 28.6729 262.282C30.7164 261.955 32.2572 261.757 33.7789 261.464C40.8564 260.09 40.9676 260.06 39.9864 252.431C38.7888 243.154 37.2626 233.931 36.0854 224.651C35.0894 216.799 35.2176 216.773 27.9693 215.415ZM145.049 142.886C145.72 143.914 147.585 144.962 148.557 144.65C152.177 143.494 155.652 141.78 159.22 140.261C157.42 135.979 155.8 132.109 154.033 127.898C149.407 130.163 145.095 132.27 140.752 134.394C142.32 137.585 143.45 140.417 145.049 142.886ZM114.369 121.272C116.324 126.72 118.036 131.897 120.035 136.943C122.092 142.132 124.43 147.189 126.774 152.603C131.769 150.815 136.258 149.21 141.027 147.506C135.648 136.737 130.592 126.607 125.504 116.408C121.651 118.093 118.256 119.574 114.369 121.272ZM105.873 240.187C107.178 244.744 108.483 249.302 109.9 254.252C111.897 252.56 113.549 251.159 115.71 249.327C112.585 245.691 109.843 242.502 107.104 239.316C106.694 239.608 106.282 239.895 105.873 240.187ZM296.946 123.704C306.169 134.68 314.861 145.018 323.554 155.357C324.761 137.321 318.175 119.145 309.001 112.571C304.907 116.349 300.966 119.988 296.946 123.704ZM-36.4341 230.353L-46.3576 229.791L-47.2308 245.222C-38.4178 246.674 -35.1603 242.1 -36.4341 230.353ZM-43.6818 202.716L-44.7955 222.397C-41.6406 222.995 -38.7909 223.54 -35.9893 224.07C-33.1867 208.929 -35.8876 201.428 -43.6818 202.716ZM-72.2774 294.982L-19.9726 297.942C-20.6704 295.281 -21.3116 292.817 -21.9465 290.394C-25.69 290.398 -29.3027 290.484 -32.9085 290.396C-44.0419 290.117 -55.1689 289.776 -66.2981 289.447C-69.4988 289.352 -71.7445 290.502 -72.2774 294.982ZM-56.1944 267.022C-57.009 267.012 -58.3534 268.039 -58.5769 268.859C-59.3866 271.842 -59.8214 274.944 -60.5241 278.657C-57.2694 278.841 -54.8848 278.951 -52.5003 279.114C-44.3452 279.67 -42.9032 278.163 -43.0815 267.673C-47.5264 267.422 -51.8591 267.071 -56.1944 267.022ZM96.0322 233.999C89.1084 231.208 82.1394 228.551 74.3566 225.539C76.069 240.176 77.6607 253.814 79.2985 267.835C88.4497 263.997 96.7322 260.52 105.435 256.87C102.782 249.862 100.193 242.959 97.5373 236.086C97.227 235.283 96.6927 234.264 96.0322 233.999ZM-71.6983 106.183C-72.619 108.811 -73.2689 110.674 -74.1622 113.226C-61.7936 115.703 -49.8184 118.262 -37.7785 120.439C-32.9039 121.318 -32.3851 120.371 -33.0337 114.856C-45.986 111.952 -58.8541 109.062 -71.6983 106.183ZM-32.7217 279.688C-21.9254 280.147 -11.1306 280.836 -0.366668 281.815C2.90463 282.113 4.06202 280.52 4.5719 277.695C5.26513 273.843 3.31105 268.543 1.0738 268.399C-11.4225 267.593 -23.9274 266.937 -36.8442 266.206C-37.0077 269.095 -37.0937 271.812 -37.3299 274.508C-37.6562 278.264 -36.2089 279.541 -32.7217 279.688ZM-56.7032 199.022C-57.0348 200.886 -57.5396 202.833 -57.6994 204.817C-58.0488 209.108 -58.2193 213.419 -58.5303 218.915C-55.783 219.488 -53.2064 220.024 -50.032 220.685C-49.7507 215.715 -49.5616 212.092 -49.3368 208.476C-48.7239 198.638 -49.1626 198.042 -56.7032 199.022ZM251.949 219.229C252.078 219.873 252.552 220.779 253.046 220.937C259.162 222.919 265.31 224.783 271.86 226.804L272.827 209.717C264.828 207.747 257.259 205.891 249.06 203.876C250.029 209.091 250.944 214.17 251.949 219.229ZM-60.7755 244.439L-52.7586 244.892L-51.8084 228.1C-54.3493 227.469 -56.6902 226.891 -59.7396 226.133L-60.7755 244.439ZM-34.9041 125.46C-43.3875 123.91 -51.8224 122.368 -60.6849 120.749C-61.6592 125.799 -62.4887 130.099 -63.429 134.982C-53.871 136.173 -44.9696 137.285 -35.6393 138.451L-34.9041 125.46ZM260.54 98.8966C260.577 104.479 261.139 110.069 260.934 115.633C260.713 121.643 264.527 123.929 268.443 127.06C270.752 120.872 272.954 115.098 275.016 109.265C275.25 108.606 274.933 107.343 274.449 106.835C270.575 102.725 266.598 98.7331 262.131 94.1697C261.315 96.4983 260.531 97.7048 260.54 98.8966ZM280.425 140.248C274.427 136.945 268.524 133.451 261.5 129.413C267.069 148.389 267.872 168.643 279.837 184.714C280.789 182.875 281.487 181.108 281.392 179.405C280.727 167.872 281.09 156.414 283.276 145.048C283.803 142.328 282.356 141.312 280.425 140.248ZM275.054 199.722C275.305 196.689 276.511 193.141 272.91 191.316C267.802 188.729 262.779 185.851 257.476 183.836C251.653 181.621 248.85 184.092 248.461 190.842C248.417 191.609 248.459 192.397 248.315 193.141C247.713 196.237 248.729 198.086 251.588 198.928C258.865 201.085 266.113 203.359 273.468 205.614C274.147 203.186 274.909 201.479 275.054 199.722ZM267.205 91.7106C276.472 101.803 285.279 111.394 293.994 120.88C298.353 116.539 302.303 112.608 306.73 108.197C294.493 101.009 283.001 91.269 267.205 91.7106ZM273.983 83.1455L274.943 66.191L268.911 65.8497C266.589 77.2079 268.192 82.5528 273.983 83.1455ZM167.073 46.611C166.745 48.0581 167.025 50.5161 167.911 51.2465C170.075 53.0273 171.749 57.0439 175.292 55.0813C179.39 52.8083 183.205 49.9159 185.924 48.1042C184.808 39.1644 183.839 31.3802 182.802 23.086C180.034 24.7492 176.759 26.5076 173.708 28.6501C172.534 29.474 171.518 31.0373 171.044 32.4948C169.534 37.1353 168.157 41.8414 167.073 46.611ZM194.419 50.2934C189.013 53.4109 184.104 56.2383 178.079 59.711C185.226 63.0326 191.062 65.7407 197.188 68.5875C196.227 62.2475 195.391 56.7281 194.419 50.2934ZM192.312 -0.126336C183.826 6.51608 175.804 12.5468 172.545 23.7533C184.804 21.2478 188.936 11.4591 192.312 -0.126336ZM154.261 102.903C160.694 89.3449 163.752 74.0986 171.175 61.0759C169.204 60.0631 167.237 59.0504 165.267 58.0267C159.357 66.5579 152.802 75.9759 146.344 85.4715C145.904 86.1159 145.879 87.5001 146.198 88.2831C148.449 93.8528 150.844 99.3585 152.758 103.864C153.214 103.668 153.667 103.476 154.123 103.283C154.157 103.158 154.201 103.03 154.261 102.903ZM159.21 101.12C173.322 95.1115 187.199 89.2021 201.563 83.0882C200.211 80.0914 199.682 76.2776 197.811 75.2093C190.193 70.8579 182.414 66.847 174.604 62.8359C167.733 74.6609 164.548 88.4563 159.21 101.12ZM162.595 10.8102C160.091 10.5212 159.056 11.6053 158.756 14.3095C158.099 20.2695 157.294 26.2196 156.397 32.1472C155.244 39.7673 156.319 42.2107 163.668 46.4372C166.179 34.7275 168.633 23.2827 171.197 11.3268C167.644 11.1257 165.105 11.0981 162.595 10.8102ZM-34.6764 253.402C-35.0591 256.117 -35.7161 258.793 -36.3666 262.068C-32.5962 262.606 -29.2563 263.27 -25.8925 263.461C-24.7253 263.527 -22.4717 262.441 -22.4586 261.852C-22.3729 257.92 -22.246 253.795 -23.3165 250.162C-23.619 249.143 -27.8968 249.426 -30.3637 249.345C-32.826 249.259 -34.2775 250.603 -34.6764 253.402ZM210.758 293.781C218.887 287.52 226.869 281.031 235.576 274.051C220.136 268.496 205.27 263.145 190.404 257.795C190.072 258.316 189.737 258.836 189.405 259.356C195.31 270.633 201.164 281.943 207.225 293.121C207.641 293.887 210.032 294.341 210.758 293.781ZM124.321 78.482C122.681 81.4301 123.657 84.7566 126.078 85.2118C131.007 86.146 136.163 85.7355 141.23 85.8091C141.502 85.8135 141.826 85.2017 142.061 84.8278C143.562 82.444 145.048 80.0467 146.58 77.5847C140.477 75.5026 134.647 73.5127 128.482 71.4051C127.199 73.5756 125.705 75.9912 124.321 78.482ZM107.089 98.5032C105.025 100.713 104.895 102.245 106.373 104.607C108.75 108.392 110.966 112.297 113.467 116.516C116.396 115.22 119.753 113.732 123.501 112.072C121.776 107.647 120.455 103.62 118.686 99.8477C115.714 93.5083 111.895 93.358 107.089 98.5032ZM83.0088 56.6619C83.5548 58.0095 84.099 59.3616 84.6445 60.717C92.59 57.342 100.341 54.0484 109.099 50.326C108.239 48.3336 107.38 46.3554 106.524 44.379C98.8392 48.7923 90.9476 52.8194 83.0088 56.6619ZM82.919 31.2714C82.8747 31.189 82.8488 31.1122 82.8159 31.0304C80.0644 32.7714 77.3786 34.4722 74.7255 36.1528C77.0032 41.793 79.2467 47.3482 81.4918 52.9034C85.4307 50.9977 89.3582 49.0411 93.2534 47.0185C90.0539 41.5832 85.9899 36.8154 82.919 31.2714ZM86.3056 29.3783C89.3853 34.9447 93.4701 39.7278 96.6778 45.1965C99.4416 43.7211 102.197 42.2233 104.915 40.6577C102.225 34.4487 99.5548 28.2831 96.8874 22.124C93.1109 24.517 89.5171 26.7887 86.0378 28.9948C86.1338 29.1052 86.2231 29.2326 86.3056 29.3783ZM111.98 65.7045C108.782 66.4029 105.529 68.0575 102.637 69.4676C103.175 73.1142 103.687 76.7641 104.303 80.3963C105.928 80.0432 107.541 79.6971 109.156 79.3574C113.69 78.3992 114.666 76.8791 113.544 71.8514C113.085 69.7877 112.516 67.7507 111.98 65.7045ZM102 65.3279C104.842 64.0341 107.912 62.5619 111.032 61.7902C110.821 60.808 110.634 59.8287 110.493 58.8363C110.075 55.8878 109.142 55.6218 106.948 56.5102C104.917 57.3295 102.886 58.1441 100.84 58.9626C100.887 59.0843 100.926 59.2135 100.955 59.3531C101.341 61.3359 101.681 63.3301 102 65.3279ZM88.8093 76.6072C89.5794 78.8546 90.342 81.0829 91.0946 83.2823C94.3946 82.5646 97.526 81.8734 100.58 81.2061C100.019 77.8857 99.542 74.5514 99.0537 71.2164C95.6013 72.9239 92.1902 74.7388 88.8093 76.6072ZM98.4156 67.0186C98.0701 64.8014 97.6999 62.5876 97.2713 60.3892C93.265 61.9823 89.1824 63.6009 84.9343 65.2932C85.7982 67.8172 86.6464 70.2885 87.4859 72.7358C91.0896 70.7469 94.7236 68.8098 98.4156 67.0186ZM250.875 179.793C252.181 180.912 254.134 181.145 255.807 181.765C255.857 181.605 255.906 181.444 255.958 181.284C256.664 181.263 257.367 181.231 258.073 181.224C260.828 181.184 263.76 181.314 263.878 177.062C264 172.491 261.811 170.225 257.556 170.614C255.758 170.779 253.897 171.279 252.258 172.093C250.852 172.796 248.887 174.028 248.701 175.279C248.492 176.672 249.705 178.782 250.875 179.793ZM243.978 208.305C243.559 207.021 241.821 205.128 241.018 205.315C235.287 206.644 229.646 208.435 223.973 210.083C224.058 210.47 224.142 210.862 224.227 211.254C231.291 213.63 238.355 216.005 246.281 218.676C245.415 214.581 244.963 211.339 243.978 208.305ZM211.469 109.548C204.594 112.409 197.415 114.457 191.059 118.602C191.801 121.058 192.513 123.522 193.167 126.014C200.321 123.321 207.47 120.634 214.689 117.921C213.591 115.064 212.524 112.29 211.469 109.548ZM210.019 105.779C207.836 100.109 205.694 94.5436 203.482 88.788C197.392 92.1787 191.047 94.6097 184.673 96.8871C186.135 102.89 188.012 108.749 189.841 114.629C196.158 110.636 203.238 108.62 210.019 105.779ZM256.937 147.528C251.106 148.623 245.243 149.51 239.406 150.556C237.84 150.836 236.313 151.38 234.642 151.835C236.906 156.239 239.2 160.021 240.839 164.119C242.085 167.242 244.066 167.52 246.559 167.161C251.718 166.429 256.87 165.631 263.379 164.658C262.592 160.01 261.336 155.404 261.168 150.741C261.024 146.817 259.481 147.049 256.937 147.528ZM167.329 140.922C168.691 144.567 169.832 147.613 171.331 151.621C181.976 147.733 192.431 143.888 202.903 140.095C208.882 137.932 210.948 138.953 212.59 145.38C214.816 154.096 216.541 162.976 218.917 171.636C220.945 179.037 223.588 186.224 226.079 193.873C230.326 191.73 234.033 189.858 238.362 187.675C231.195 165.558 224.072 143.591 217.055 121.937C199.831 128.515 183.753 134.654 167.329 140.922ZM138.152 130.376C142.977 128.145 147.506 126.049 152.531 123.728C151.297 120.611 150.105 117.891 149.146 115.075C148.192 112.272 147.631 109.295 146.601 106.53C145.632 103.923 144.605 101.202 143.023 99.0351C137.26 91.149 131.289 89.9647 121.892 94.615C127.256 106.411 132.614 118.193 138.152 130.376ZM16.2868 376.095C15.7756 374.846 15.4522 374.046 15.1242 373.25C11.8734 365.362 8.68329 357.444 5.3123 349.618C4.81318 348.461 3.46086 347.747 1.76961 346.124C2.52206 357.516 3.18167 367.544 3.90114 378.449C8.45238 377.584 12.2232 376.868 16.2868 376.095ZM-18.8946 301.924C-24.2277 301.921 -29.2149 301.913 -34.3089 301.906L-34.9147 312.613C-28.3898 312.656 -22.2842 312.702 -15.6242 312.75C-16.8613 308.651 -17.8892 305.257 -18.8946 301.924ZM-30.3357 238.924C-26.788 234.822 -23.2726 230.754 -19.7002 226.624C-22.5262 222.324 -25.0062 218.555 -27.5814 214.635C-31.5224 220.064 -33.291 235.333 -30.3357 238.924ZM-1.44623 343.141L4.51771 342.331C5.51337 342.197 6.11663 341.055 5.71355 340.059L-11.7754 296.683C-12.0873 295.908 -11.7967 294.998 -11.1084 294.594L-7.31815 292.364C-6.52707 291.9 -6.28099 290.783 -6.79784 289.991C-7.11588 289.503 -7.66315 289.247 -8.21381 289.332L-15.999 290.538C-16.9146 290.682 -17.5001 291.688 -17.2258 292.644L-3.04241 342.027C-2.82806 342.77 -2.1602 343.236 -1.44623 343.141ZM31.2781 114.644C33.4537 118.447 35.345 121.754 37.2941 125.157C40.2817 123.596 42.7926 122.288 45.626 120.805C44.1389 116.9 42.7143 113.161 41.1063 108.947C37.601 110.978 34.5646 112.739 31.2781 114.644ZM1.51491 100.49C7.14734 106.149 11.9485 110.844 16.5947 115.709C18.5374 117.749 20.0801 117.516 22.0883 115.804C27.284 111.364 32.6068 107.098 38.3469 102.378C35.1302 96.508 31.5923 90.0551 27.9695 83.4454C18.9845 89.2335 10.4463 94.735 1.51491 100.49ZM78.1618 -10.8778C77.4568 -11.9335 74.7564 -12.6223 73.72 -11.9976C66.5258 -7.67089 59.5256 -2.9539 52.1178 1.86386C53.0192 4.25982 53.2902 7.64055 54.8657 8.66235C59.8616 11.9013 61.9148 17.3595 64.9427 22.1377C67.2196 25.7291 69.8096 29.0812 72.3344 32.6443C80.0759 27.9364 87.4759 23.4348 94.8072 18.9748C92.8456 14.7491 91.363 10.9158 89.3829 7.42427C85.8429 1.18444 82.1259 -4.95413 78.1618 -10.8778ZM-17.6081 143.103C-13.6214 144.172 -9.74401 145.213 -6.99869 145.948C-3.18102 134.479 0.44521 123.694 3.9404 112.858C4.22686 111.97 3.95142 110.373 3.36185 109.746C-0.535716 105.6 -4.59024 101.632 -8.92665 97.2752C-13.7339 112.437 -17.6399 127.147 -17.6081 143.103ZM-7.79337 93.3595C-5.33935 94.9922 -3.34202 96.3216 -2.3008 97.0107C1.23081 94.0066 4.44753 91.2731 9.21531 87.2182C5.95356 83.7482 2.9528 80.5531 -0.728606 76.6346C-3.35445 82.8484 -5.56638 88.0856 -7.79337 93.3595ZM-8.38916 235.089C-8.05055 234.857 -7.71203 234.627 -7.37207 234.397C-7.00114 227.843 -6.65319 221.287 -6.24934 214.736C-6.07412 211.919 -7.25144 210.81 -9.76766 211.091C-13.9106 211.562 -18.0583 211.989 -23.0867 212.53C-17.9488 220.412 -13.1675 227.751 -8.38916 235.089ZM110.331 304.787C101.893 308.192 93.9438 311.398 85.8283 314.672C88.093 320.898 89.9775 326.079 91.9456 331.488C99.5864 327.032 106.768 322.842 114.43 318.376C113.148 314.123 111.845 309.812 110.331 304.787ZM1.98749 210.004C0.760012 210.188 -1.07071 212.176 -1.19611 213.501C-1.67554 218.512 -1.95167 223.62 -1.58661 228.622C-1.08154 235.503 -0.800545 235.475 6.40501 233.899C6.32693 227.109 6.06653 220.538 6.24911 213.977C6.35075 210.298 4.19393 209.674 1.98749 210.004ZM20.5133 263.333C21.7349 263.126 22.945 262.84 24.1501 262.593C23.1255 254.485 22.1332 246.644 21.092 238.422C14.0733 238.705 7.06497 238.984 -1.22963 239.316C0.546391 244.887 1.56075 250.046 3.74124 254.527C9.0136 265.353 9.23387 265.227 20.5133 263.333ZM10.3422 307.386C14.2521 305.816 17.6065 304.468 21.0595 303.082C13.7585 290.565 11.1967 289.004 3.69008 292.514C5.84204 297.321 7.98483 302.112 10.3422 307.386ZM-6.78217 295.11C-10.2596 298.046 -7.14959 300.915 -6.23743 303.605C-3.11013 312.836 -2.66112 312.969 5.61649 309.044C5.8295 308.945 5.93893 308.589 6.23646 308.142C3.96735 303.063 1.65331 297.888 -0.94454 292.078C-3.06593 293.144 -5.18627 293.759 -6.78217 295.11ZM10.4271 234.318C14.0421 234.14 17.4826 233.968 21.1106 233.791C21.177 227.095 21.2382 220.619 21.3025 214.061C17.7076 213.322 14.4471 212.656 10.7326 211.892C10.6251 219.67 10.5307 226.786 10.4271 234.318ZM33.5147 133.889C43.7663 144.913 53.1696 155.023 62.5728 165.134C62.9269 164.857 63.2853 164.581 63.6438 164.304C57.9399 151.33 52.2374 138.358 46.1593 124.541C42.0376 127.589 38.0259 130.55 33.5147 133.889ZM22.9025 121.879C25.8633 125.245 28.6065 128.36 31.474 131.62C32.794 130.107 33.7535 129.006 34.9209 127.669C32.5188 124.152 30.3944 121.047 28.1558 117.771C26.3083 119.215 24.7425 120.44 22.9025 121.879ZM24.0383 322.267C30.2523 319.685 30.2694 319.562 27.0455 313.412C26.2331 311.861 25.412 310.31 24.6525 308.869C16.6177 311.837 9.03442 314.64 1.12448 317.566C3.3162 321.62 5.36817 325.419 7.32264 329.033C13.192 326.662 18.6311 324.513 24.0383 322.267ZM-2.04729 147.633C15.1999 152.802 31.8223 157.788 48.442 162.771C48.6146 162.317 48.7857 161.864 48.9613 161.407C34.1229 149.915 15.7573 145.599 0.404905 133.874C-0.473072 138.801 -1.23342 143.075 -2.04729 147.633ZM4.12049 122.962C1.72393 128.992 1.54352 129.788 6.87198 132.801C17.3207 138.716 28.092 143.968 38.7325 149.495C38.9705 149.158 39.2129 148.82 39.4509 148.483C29.0652 137.18 18.6822 125.88 7.79178 114.028C6.2921 117.674 5.17811 120.307 4.12049 122.962ZM153.762 300.568C153.627 297.832 153.651 295.069 153.325 292.362C152.312 283.945 149.031 277.991 140.091 278.141C137.415 278.188 136.203 276.582 136.376 273.415C136.543 270.286 136.113 267.128 135.945 263.984C135.52 263.903 135.1 263.825 134.675 263.743C132.532 272.791 130.386 281.839 128.238 290.895C134.588 293.965 140.303 296.977 146.21 299.465C148.51 300.433 151.235 300.233 153.762 300.568ZM203.352 297.03C199.908 290.626 196.439 284.178 192.887 277.567C188.38 280.569 183.923 283.541 179.458 286.516C183.866 301.161 194.774 306.07 203.352 297.03ZM162.468 282.051C167.973 282.346 169.115 280.521 167.003 274.927C165.937 272.09 164.956 269.216 163.992 266.339C162.609 262.221 160.01 260.262 157.024 261.617C153.701 263.122 154.365 266.17 155.078 269.095C155.618 271.318 156.57 273.584 156.477 275.797C156.282 280.656 158.765 281.908 162.468 282.051ZM157.328 305.077C163.271 301.222 168.7 297.707 174.146 294.18C169.749 287.823 169.74 287.982 161.252 287.422C158.04 287.207 156.784 288.609 156.813 291.727C156.845 295.665 157.102 299.603 157.328 305.077ZM191.157 273.803C190.051 271.259 189.119 269.038 188.122 266.853C187.123 264.659 186.014 262.525 185.031 260.324C183.116 256.04 178.233 253.302 174.028 254.505C171.182 255.314 168.44 256.545 164.948 257.846C168.823 266.101 172.497 273.93 176.467 282.392C181.718 279.319 186.385 276.591 191.157 273.803ZM129.321 313.237C127.242 308.621 125.327 304.372 123.187 299.634C120.045 301.098 117.349 302.355 114.602 303.635C115.887 308.442 117.091 312.949 118.334 317.601C122.082 316.113 125.606 314.713 129.321 313.237ZM68.7625 299.833C67.5456 295.961 66.4778 292.561 65.3218 288.887C62.1528 290.192 59.1122 291.441 56.0731 292.691C45.4579 297.048 47.2905 298.057 41.7404 287.939C41.1804 286.917 39.5449 285.735 38.652 285.937C33.6964 287.075 28.8144 288.619 23.2247 290.221C27.2054 299.312 30.981 307.929 35.0587 317.239C46.5405 311.31 57.822 305.485 68.7625 299.833ZM121.287 295.14C117.995 287.275 114.874 279.817 111.862 272.62C97.1447 277.638 83.0066 282.455 67.8375 287.622C72.2333 295.969 76.2258 303.552 80.0366 310.783C93.9369 305.513 107.41 300.402 121.287 295.14ZM94.0516 345.506C89.9635 337.473 86.0049 329.697 81.8184 321.469C75.2018 334.883 68.1346 347.883 65.3713 363.348C74.924 357.404 84.4737 351.463 94.0516 345.506ZM69.6873 224.138C64.732 222.572 59.6806 221.357 53.2956 219.657C57.3221 238.17 61.0314 255.236 64.832 272.701C68.9797 271.485 72.4361 270.472 75.7856 269.489C74.3379 254.961 72.9912 241.091 71.5069 227.233C71.3854 226.098 70.5264 224.404 69.6873 224.138ZM60.3311 328.848C66.0497 325.958 71.0954 323.407 77.2367 320.303C74.4348 326.216 72.1059 331.129 69.5181 336.594C66.4911 334.042 63.7801 331.758 60.3311 328.848Z" fill="white" fill-opacity="0.9"/>
</svg>
