<svg viewBox="0 0 12 6" fill="none" xmlns="http://www.w3.org/2000/svg">
	<path d="M5.48549 5.80979C5.55303 5.87009 5.63323 5.91793 5.72152 5.95056C5.8098 5.9832 5.90443 6 6 6C6.09557 6 6.1902 5.9832 6.27848 5.95056C6.36677 5.91793 6.44697 5.87009 6.51451 5.80979L11.7869 1.10777C11.9233 0.986073 12 0.821018 12 0.648915C12 0.476812 11.9233 0.311758 11.7869 0.190063C11.6504 0.0683676 11.4653 4.05489e-09 11.2724 0C11.0794 -4.05489e-09 10.8943 0.0683676 10.7579 0.190063L6 4.43323L1.24214 0.190063C1.17457 0.129805 1.09436 0.0820068 1.00608 0.0493957C0.9178 0.0167847 0.823182 1.26983e-09 0.727628 0C0.632075 -1.26983e-09 0.537457 0.0167847 0.449177 0.0493957C0.360897 0.0820068 0.280684 0.129805 0.213117 0.190063C0.145551 0.25032 0.0919541 0.321856 0.0553874 0.400586C0.0188207 0.479316 -1.42386e-09 0.563698 0 0.648915C1.42386e-09 0.734132 0.0188207 0.818514 0.0553874 0.897244C0.0919541 0.975974 0.145551 1.04751 0.213117 1.10777L5.48549 5.80979Z" />
</svg>
