<svg viewBox="0 0 16 16" fill="none" xmlns="http://www.w3.org/2000/svg">
	<path d="M7.91707 3.73828C6.74211 3.73828 5.78646 4.69393 5.78646 5.8689V6.57918C5.3943 6.57918 5.07617 6.8973 5.07617 7.28947V10.8405C5.07617 11.2326 5.39429 11.5507 5.78646 11.5507H10.0477C10.4399 11.5507 10.758 11.2326 10.758 10.8405V7.28947C10.758 6.89731 10.4399 6.57918 10.0477 6.57918V5.8689C10.0477 4.69413 9.09208 3.73828 7.91712 3.73828H7.91707ZM7.20698 6.57918V5.8689C7.20698 5.4773 7.52566 5.15861 7.91726 5.15861C8.30887 5.15861 8.62755 5.47729 8.62755 5.8689V6.57918H7.20698Z" />
	<path d="M13.4006 2.43492C10.7122 -0.213837 6.5742 -0.513433 3.5581 1.51655L3.5491 0.352241C3.54779 0.156163 3.38751 -0.00149141 3.19143 1.06446e-05L2.48134 0.00507272C2.28526 0.00657237 2.12742 0.166661 2.12892 0.362739L2.14879 3.02071C2.15066 3.30845 2.32593 3.566 2.59175 3.67398C2.8585 3.78177 3.16291 3.71916 3.3648 3.51408C5.83979 1.00402 9.89419 0.97383 12.404 3.44679C14.32 5.33448 14.843 8.17274 13.7545 10.6067C13.677 10.78 13.7404 10.982 13.9095 11.0685L14.5433 11.3924C14.7229 11.484 14.9501 11.4102 15.0335 11.2267C16.3877 8.2429 15.7533 4.75247 13.4008 2.4346L13.4006 2.43492Z" />
	<path d="M13.2442 12.3261C12.977 12.2183 12.673 12.2809 12.4711 12.486C9.99722 14.997 5.9422 15.0265 3.43189 12.5533C1.51588 10.6656 0.992901 7.82735 2.08144 5.39334C2.15886 5.22013 2.09549 5.01806 1.92641 4.93164L1.29262 4.60771C1.11303 4.51604 0.885832 4.5899 0.802408 4.77342C-0.551985 7.7568 0.0825731 11.2476 2.43514 13.565C5.12363 16.2138 9.26157 16.513 12.2777 14.4834L12.2865 15.6477C12.288 15.8438 12.4481 16.0016 12.6442 16.0001L13.3544 15.9949C13.5505 15.9934 13.7084 15.8333 13.7069 15.6372L13.687 12.9792C13.6851 12.6918 13.51 12.4343 13.244 12.3263L13.2442 12.3261Z" />
</svg>
