<svg height='300px' width='350px'  fill="#e6e6e7" xmlns="http://www.w3.org/2000/svg">
<path d="M5.75551 16C5.47073 16 5.20384 15.8844 5.00801 15.6721L0.345106 10.4649C-0.0998395 10.0214 -0.117577 9.26914 0.309582 8.78698C0.718864 8.30482 1.41304 8.2856 1.85798 8.74848L5.27497 11.3906C5.47079 11.5834 5.77335 11.5449 5.93348 11.3134L14.0312 0.474966C14.3872 -0.0456784 15.0812 -0.161495 15.5617 0.243512C16.0422 0.62927 16.149 1.38135 15.7753 1.90204L6.6276 15.5178C6.43178 15.7877 6.14714 15.9613 5.84459 15.9807C5.80892 15.9999 5.79115 15.9999 5.75563 15.9999L5.75551 16Z" fill="#e6e6e7" />
</svg>
