<svg width="7" height="12" viewBox="0 0 7 12" fill="none" xmlns="http://www.w3.org/2000/svg">
<path d="M0.73563 5.78506C0.677971 5.84764 0.632229 5.92195 0.60102 6.00374C0.569811 6.08554 0.553748 6.17322 0.553748 6.26176C0.553748 6.35031 0.569811 6.43799 0.60102 6.51978C0.632229 6.60158 0.677971 6.67589 0.73563 6.73847L5.23176 11.6234C5.34812 11.7499 5.50595 11.8209 5.67052 11.8209C5.83508 11.8209 5.99291 11.7499 6.10927 11.6234C6.22564 11.497 6.29102 11.3255 6.29102 11.1467C6.29102 10.9679 6.22564 10.7965 6.10928 10.67L2.05191 6.26176L6.10928 1.8535C6.16689 1.7909 6.2126 1.71658 6.24378 1.63479C6.27497 1.553 6.29102 1.46533 6.29102 1.3768C6.29102 1.28827 6.27497 1.2006 6.24378 1.11881C6.2126 1.03702 6.16689 0.962696 6.10928 0.900095C6.05166 0.837493 5.98325 0.787834 5.90797 0.753954C5.83269 0.720074 5.752 0.702637 5.67052 0.702637C5.58903 0.702637 5.50834 0.720074 5.43306 0.753954C5.35778 0.787834 5.28937 0.837493 5.23176 0.900095L0.73563 5.78506Z" fill="#8C8C8C"/>
</svg>
