<svg width="27" height="27" viewBox="0 0 27 27" fill="none" xmlns="http://www.w3.org/2000/svg">
<path d="M26.9705 3.76575C26.7307 2.05062 25.7718 1.17787 24.9924 0.605989C24.1233 -0.0259574 23.0143 -0.176342 22.0256 0.214811C20.9767 0.60599 20.2275 1.38837 19.4483 2.1707C18.5493 3.13375 17.5902 4.03649 16.6612 4.96929C15.7322 4.36738 15.2228 4.4277 14.4736 5.14974C14.0239 5.60124 13.5745 6.02243 13.155 6.47371C12.7054 6.95524 12.6456 7.73762 13.0952 8.21915C13.3051 8.45992 13.6047 8.61033 13.9043 8.82106C13.5745 9.09186 13.4247 9.21224 13.3048 9.33263C9.91798 12.7332 6.50141 16.1634 3.08484 19.5642C2.30572 20.3465 1.67632 21.1892 1.37674 22.3027C1.22694 22.9047 0.867275 23.4763 0.537502 23.9879C0.477681 24.0782 0.417615 24.1383 0.357795 24.2286C-0.151672 24.9207 -0.121759 25.8537 0.477682 26.4556C0.507593 26.4856 0.537503 26.5157 0.537503 26.5157C1.13695 27.1176 2.03601 27.1476 2.72515 26.6661H2.75506C3.26452 26.3049 3.74408 25.8234 4.31336 25.7333C5.5721 25.4625 6.56113 24.8306 7.43023 23.9278C10.9068 20.5573 14.2931 17.1269 17.7097 13.7261C17.8595 13.5757 18.0093 13.4553 18.2491 13.2145C18.3989 13.4253 18.4888 13.6057 18.6386 13.7561C19.2979 14.4482 20.0172 14.4181 20.7064 13.7561C21.0661 13.395 21.4257 13.0338 21.7854 12.6727C22.6545 11.8 22.8943 11.3788 22.1152 10.3256C22.8345 9.60327 23.5536 8.91123 24.273 8.18895C25.262 7.16579 26.4307 6.2931 26.8804 4.84879C27 4.48764 27.0299 4.12676 26.9701 3.76558L26.9705 3.76575ZM16.991 12.6731C13.4845 16.1937 9.9781 19.7148 6.47167 23.2052C5.8124 23.8672 5.06315 24.2887 4.1641 24.5292C3.47491 24.7096 2.8755 25.1912 2.2461 25.5223C2.18628 25.5523 2.12622 25.6126 2.0664 25.6427C1.88669 25.7931 1.61675 25.7631 1.46695 25.6126C1.31715 25.4322 1.28724 25.1914 1.43704 25.0107C1.64691 24.7399 1.85653 24.4691 2.03649 24.1983C2.27627 23.8072 2.48613 23.3556 2.57586 22.9044C2.75557 22.0317 3.14515 21.3094 3.74461 20.7078L14.5632 9.84459C15.4323 10.6873 16.2713 11.5597 17.1706 12.4627C17.1704 12.4622 17.0806 12.5826 16.9907 12.673L16.991 12.6731Z" fill="black"/>
</svg>
