<svg viewBox="0 0 25 24" fill="none" xmlns="http://www.w3.org/2000/svg">
	<path d="M11.9567 19.7439L11.6186 20.0822H7.53658V16.0001L18.0796 5.45652L18.896 4.64013L19.0821 4.45431V2.76347C19.0821 1.48811 18.0483 0.454346 16.7729 0.454346H6.38203L0.609375 6.22724V21.2364C0.609375 22.5117 1.64314 23.5455 2.9185 23.5455H16.7732C18.0486 23.5455 19.0824 22.5117 19.0824 21.2364V12.6184L11.9567 19.7439ZM2.34103 7.38181L7.5366 2.18624V7.38181H2.34103ZM11.1404 18.9277H8.69125V16.4785L18.8961 6.27367L21.3453 8.72287L11.1404 18.9277ZM23.7945 6.27362L22.1617 7.90641L19.7126 5.45722L21.3453 3.82442C21.5709 3.59906 21.8662 3.48616 22.1617 3.48616C22.4573 3.48616 22.7528 3.59884 22.9781 3.82442L23.7945 4.64082C24.2453 5.09176 24.2453 5.82267 23.7945 6.27362Z" />
</svg>
