<svg viewBox="0 0 17 16" fill="none" xmlns="http://www.w3.org/2000/svg">
	<path d="M11.0626 2.55593H12.1314C12.1983 2.55593 12.2317 2.47517 12.1845 2.42791L11.1156 1.35903C11.0683 1.31177 10.9875 1.34528 10.9875 1.41203V2.48092C10.9875 2.52242 11.0212 2.55593 11.0626 2.55593V2.55593Z" />
	<path d="M11.5226 15.7418C9.44424 15.0139 8.05702 12.7993 8.64285 10.3792C9.11819 8.41589 10.9311 7.02308 12.9511 6.99529C13.0892 6.99333 13.2234 6.99838 13.3566 7.0103C13.43 7.01689 13.4929 6.96136 13.4929 6.88788V3.75496C13.4929 3.6174 13.3805 3.50495 13.2429 3.50495H10.488C10.2131 3.50495 9.988 3.27989 9.988 3.00491V0.250011C9.988 0.111892 9.8761 0 9.73799 0H1.49296C0.943024 0 0.49292 0.44996 0.49292 1.00004V15C0.49292 15.55 0.937963 16 1.49296 16L11.4782 15.9821C11.6166 15.9818 11.6531 15.7874 11.5226 15.7417L11.5226 15.7418Z" />
	<path d="M13.0074 7.99414C11.0785 7.99414 9.50732 9.56137 9.50732 11.4942C9.50732 13.423 11.0784 14.9942 13.0074 14.9942C14.9362 14.9942 16.5074 13.423 16.5074 11.4942C16.5074 9.56123 14.9364 7.99414 13.0074 7.99414V7.99414ZM15.0774 11.974H13.5274V13.494C13.5274 13.7689 13.3025 13.994 13.0274 13.994C12.7524 13.994 12.5274 13.7689 12.5274 13.494V11.974H11.0374C10.7624 11.974 10.5373 11.7491 10.5373 11.4739C10.5373 11.199 10.7624 10.9739 11.0374 10.9739H12.5274V9.4539C12.5274 9.17893 12.7524 8.95386 13.0274 8.95386C13.3024 8.95386 13.5274 9.17892 13.5274 9.4539V10.9739H15.0774C15.3575 10.9739 15.5775 11.1989 15.5775 11.4739C15.5775 11.749 15.3575 11.974 15.0774 11.974Z" />
</svg>
