<svg height="300px" width="300px" fill="#e6e6e7" xmlns="http://www.w3.org/2000/svg" xmlns:xlink="http://www.w3.org/1999/xlink" version="1.1" x="0px" y="0px" viewBox="0 0 1080 1080" enable-background="new 0 0 1080 1080" xml:space="preserve">
	<path d="M646.773,540l280.722-280.722c29.484-29.484,29.484-77.289,0-106.773s-77.289-29.484-106.773,0L540,433.228L259.278,152.506  c-29.484-29.484-77.289-29.484-106.773,0s-29.484,77.289,0,106.773L433.227,540L152.506,820.722  c-29.484,29.484-29.484,77.288,0,106.772s77.288,29.484,106.772,0L540,646.773l280.722,280.721  c29.484,29.484,77.288,29.484,106.772,0s29.484-77.288,0-106.772L646.773,540z">
	</path>
</svg>
