<svg viewBox="0 0 16 16" fill="none" xmlns="http://www.w3.org/2000/svg">
	<path d="M13.8964 7.1783H13.4034C13.3576 7.1783 13.3183 7.14833 13.3051 7.10459C13.2601 6.95718 13.2033 6.81258 13.1345 6.67469C13.1145 6.6346 13.1215 6.587 13.1533 6.55549L13.5021 6.2088C13.6666 6.04528 13.667 5.77914 13.503 5.61503L12.923 5.03503C12.7593 4.87126 12.4939 4.87138 12.3302 5.03503L11.9971 5.36817C11.965 5.40027 11.9165 5.40708 11.8763 5.38616C11.7342 5.31269 11.5873 5.24921 11.4355 5.19759C11.3934 5.18325 11.3649 5.14481 11.3649 5.10026L11.3648 4.62967C11.3648 4.3982 11.1771 4.21045 10.9456 4.21045H10.124C9.89257 4.21045 9.70478 4.39819 9.70478 4.62967V5.08578C9.70478 5.13128 9.6752 5.17042 9.63168 5.18394C9.47593 5.23249 9.32354 5.29327 9.17994 5.36615C9.13985 5.38649 9.09231 5.37967 9.06057 5.34793L8.73522 5.02255C8.57158 4.85891 8.30616 4.85891 8.14242 5.02255L7.56159 5.60341C7.39796 5.76716 7.39796 6.0325 7.56159 6.19624L7.8825 6.51717C7.91436 6.54903 7.9213 6.59687 7.90072 6.63696C7.82713 6.78061 7.76378 6.9332 7.71452 7.08898C7.70089 7.13214 7.66209 7.16151 7.61672 7.16151H7.15602C6.92456 7.16151 6.73682 7.34926 6.73682 7.58074V8.40235C6.73682 8.63383 6.92455 8.82158 7.15602 8.82158H7.62129C7.66632 8.82158 7.70499 8.85073 7.71886 8.89351C7.76777 9.04518 7.83065 9.19361 7.90377 9.33328C7.92481 9.37363 7.91811 9.42178 7.88602 9.45388L7.54888 9.79102C7.38525 9.95477 7.38525 10.2201 7.54888 10.3839L8.12888 10.9639C8.29297 11.128 8.55898 11.1275 8.72255 10.9629L9.06459 10.6188C9.09633 10.5869 9.14455 10.5798 9.18471 10.6002C9.3225 10.6698 9.46543 10.7297 9.61521 10.7778C9.65828 10.7917 9.68786 10.8306 9.68786 10.8757V11.3702C9.68786 11.6016 9.87558 11.7894 10.107 11.7894H10.9287C11.1601 11.7894 11.3478 11.6017 11.3478 11.3702L11.348 10.8677C11.348 10.8224 11.3775 10.7836 11.4206 10.7699C11.5642 10.7245 11.7049 10.6658 11.8392 10.5991C11.8793 10.5793 11.9267 10.5866 11.9583 10.6181L12.3175 10.9773C12.4812 11.141 12.7466 11.141 12.9103 10.9773L13.4903 10.3973C13.6543 10.2331 13.654 9.96713 13.4894 9.80361L13.1331 9.44939C13.101 9.41744 13.094 9.36914 13.1147 9.32879C13.1839 9.19427 13.2434 9.05335 13.2912 8.90941C13.3053 8.867 13.344 8.83822 13.3888 8.83822H13.8966C14.1281 8.83822 14.3158 8.65061 14.3158 8.41898V7.59738C14.3157 7.36605 14.1281 7.1783 13.8964 7.1783ZM10.5098 9.65996C9.58205 9.65996 8.83314 8.90536 8.83314 7.98319C8.83314 7.05545 9.58205 6.30649 10.5098 6.30649C11.432 6.30649 12.1864 7.05545 12.1864 7.98319C12.1864 8.90536 11.432 9.65996 10.5098 9.65996Z" />
	<path d="M0.842229 3.91176V12.6315C0.842229 13.0946 1.217 13.4737 1.68437 13.4737H10.9473C11.4104 13.4737 11.7894 13.0989 11.7894 12.6315V12.3158C11.5621 12.522 11.2588 12.6484 10.9305 12.6484H10.1052C9.56634 12.6484 9.10734 12.3115 8.92635 11.8358C8.76631 11.9073 8.5937 11.9453 8.41682 11.9453C8.07993 11.9453 7.7642 11.8105 7.52427 11.5747L6.93907 10.9895C6.56016 10.6106 6.47598 10.0464 6.68225 9.58315C6.21062 9.3979 5.87802 8.93893 5.87802 8.40424L5.87779 7.57898C5.87779 7.04421 6.21468 6.58108 6.69042 6.40007C6.48827 5.93696 6.57671 5.37689 6.95149 4.99797L7.53669 4.41689C7.77674 4.17683 8.0925 4.04634 8.4294 4.04634C8.61039 4.04634 8.78727 4.08424 8.94731 4.1558C9.13257 3.68418 9.5873 3.35157 10.1219 3.35157H10.9472C11.2714 3.35157 11.5662 3.47367 11.7893 3.67584V0.842139C11.7893 0.378916 11.4062 0 10.9472 0L4.72828 0.00425092C4.66936 0.00850109 4.62307 0.05479 4.62307 0.109462V2.96419C4.62307 3.4273 4.24829 3.80634 3.78093 3.80634H0.947252C0.88833 3.80634 0.842041 3.85687 0.842041 3.91166L0.842229 3.91176Z" />
	<path d="M0.970084 3.36841H4.08381C4.15375 3.36841 4.21046 3.31173 4.21046 3.24181V0.128526C4.21046 0.0148563 4.07443 -0.0434003 3.99511 0.038016C3.36211 0.688647 1.51406 2.5237 0.879382 3.15316C0.799071 3.23287 0.857066 3.36842 0.970074 3.36842L0.970084 3.36841Z" />
</svg>
