<svg viewBox="0 0 17 16" fill="none" xmlns="http://www.w3.org/2000/svg">
	<path d="M7.34428 7.35967H1.60621C1.15844 7.35967 0.79541 6.99664 0.79541 6.54887V0.810797C0.79541 0.363034 1.15844 0 1.60621 0H7.34428C7.79191 0 8.15495 0.363034 8.15495 0.810797V6.54887C8.15495 6.9965 7.79191 7.35954 7.34415 7.35954L7.34428 7.35967Z" />
	<path d="M15.9841 7.35967H10.2463C9.79858 7.35967 9.43555 6.99664 9.43555 6.54887V0.810797C9.43555 0.363034 9.79858 0 10.2463 0H15.9844C16.432 0 16.7951 0.363034 16.7951 0.810797V6.54887C16.7951 6.9965 16.432 7.35954 15.9841 7.35954L15.9841 7.35967Z" />
	<path d="M7.34428 16.0001H1.60621C1.15844 16.0001 0.79541 15.6371 0.79541 15.1892V9.45142C0.79541 9.00366 1.15844 8.64062 1.60621 8.64062H7.34428C7.79191 8.64062 8.15495 9.00366 8.15495 9.45142V15.1895C8.15495 15.6371 7.79191 16.0002 7.34415 16.0002L7.34428 16.0001Z" />
	<path d="M15.9841 16.0001H10.2463C9.79858 16.0001 9.43555 15.6371 9.43555 15.1892V9.45142C9.43555 9.00366 9.79858 8.64062 10.2463 8.64062H15.9844C16.4322 8.64062 16.7952 9.00366 16.7952 9.45142V15.1895C16.7951 15.6371 16.432 16.0002 15.9842 16.0002L15.9841 16.0001Z" />
</svg>
