<svg viewBox="0 0 17 16" fill="none" xmlns="http://www.w3.org/2000/svg">
	<path d="M16.0964 10.6667C15.8607 10.667 15.6348 10.7608 15.4682 10.9275C15.3016 11.0941 15.2078 11.3199 15.2074 11.5556V13.689C15.2071 13.8303 15.1508 13.9657 15.0508 14.0657C14.9509 14.1656 14.8155 14.2219 14.6741 14.2222H3.29639C3.15505 14.2219 3.01963 14.1656 2.91969 14.0657C2.81974 13.9657 2.76343 13.8303 2.76301 13.689V11.5556C2.76301 11.238 2.59366 10.9446 2.31859 10.7859C2.04367 10.6271 1.70484 10.6271 1.42977 10.7859C1.15469 10.9447 0.985352 11.238 0.985352 11.5556V13.689C0.986055 14.3016 1.22973 14.8891 1.66304 15.3223C2.09631 15.7555 2.68376 15.9993 3.2964 16H14.6741C15.2868 15.9993 15.8742 15.7555 16.3075 15.3223C16.7407 14.8891 16.9845 14.3016 16.9852 13.689V11.5556C16.9848 11.3199 16.891 11.0941 16.7245 10.9275C16.5578 10.7608 16.332 10.667 16.0963 10.6667H16.0964Z" />
	<path d="M8.98497 3.29933e-06C8.74932 0.000284824 8.52351 0.0940396 8.35684 0.260713C8.19031 0.427386 8.09655 0.653197 8.09613 0.888846V8.94646L5.28719 6.60615C5.10616 6.45553 4.87262 6.38289 4.63794 6.40429C4.40326 6.42568 4.18675 6.53914 4.03572 6.72003C3.88509 6.90121 3.81246 7.13461 3.83371 7.36929C3.85511 7.60395 3.96857 7.82048 4.14946 7.97151L8.41593 11.5271C8.4607 11.5589 8.50842 11.5865 8.55811 11.6096C8.59063 11.6314 8.6247 11.6508 8.65989 11.6679C8.86696 11.7552 9.10052 11.7552 9.30774 11.6679C9.34208 11.6508 9.37531 11.6316 9.40726 11.6103C9.45709 11.5872 9.50467 11.5595 9.54944 11.5278L13.8159 7.97221C14.0041 7.81582 14.1194 7.58859 14.1348 7.34437C14.15 7.10013 14.064 6.86038 13.8967 6.6816C13.7295 6.50296 13.4961 6.40104 13.2514 6.39992C13.0435 6.40034 12.8423 6.47326 12.6824 6.60615L9.87364 8.94646V0.888842C9.87322 0.65319 9.77946 0.427382 9.61279 0.260709C9.44626 0.0940358 9.22031 0.000281092 8.98466 0L8.98497 3.29933e-06Z" />
</svg>
