<svg viewBox="0 0 10 14" fill="none" xmlns="http://www.w3.org/2000/svg">
	<path fill-rule="evenodd" clip-rule="evenodd" d="M4.13781 9.34986L1.01657 6.27482C0.298883 5.55707 1.3718 4.47666 2.0895 5.19441L3.43009 6.53524C3.65469 6.75989 3.83447 6.68412 3.83393 6.36831L3.82429 0.77363C3.82357 0.352271 4.16325 0.0104041 4.58294 0.00968165C5.00282 0.00895884 5.34349 0.349655 5.34422 0.771013L5.35385 6.36569C5.35439 6.68041 5.53547 6.75562 5.7583 6.53124L7.09442 5.18579C7.80964 4.46558 8.88627 5.54229 8.17105 6.2625L5.08601 9.3464C4.82549 9.60682 4.40059 9.60875 4.13781 9.34986ZM8.41631 11.4913C8.83754 11.4906 9.1796 11.8315 9.18033 12.2527C9.18105 12.6739 8.84017 13.016 8.41894 13.0167L0.791943 13.0298C0.370715 13.0305 0.028655 12.6897 0.0279298 12.2684C0.0272047 11.8472 0.368089 11.5051 0.789317 11.5044L8.41631 11.4913Z" />
</svg>
