<svg width="15" height="16" viewBox="0 0 15 16" fill="none" xmlns="http://www.w3.org/2000/svg">
<path d="M0.523256 15.6533H14.4767C14.6636 15.6533 14.8364 15.5536 14.9299 15.3917C15.0234 15.2298 15.0234 15.0304 14.9299 14.8684C14.8364 14.7065 14.6636 14.6068 14.4767 14.6068H0.523256C0.336389 14.6068 0.163608 14.7065 0.0701254 14.8684C-0.0233751 15.0304 -0.0233751 15.2298 0.0701254 15.3917C0.163626 15.5536 0.336403 15.6533 0.523256 15.6533V15.6533Z" fill="black"/>
<path d="M7.49979 0.653564C7.36112 0.653564 7.22798 0.708809 7.12978 0.806867C7.03172 0.905063 6.97662 1.03807 6.97662 1.17687V11.2019L2.95657 7.75681C2.8139 7.64232 2.62193 7.61069 2.44998 7.67311C2.27817 7.73568 2.15138 7.88346 2.11575 8.06285C2.08012 8.24226 2.14075 8.4272 2.27568 8.55081L7.15949 12.7367H7.15935C7.18546 12.756 7.21349 12.7727 7.24305 12.7863C7.26404 12.8005 7.286 12.8133 7.30865 12.8245C7.43102 12.8758 7.56872 12.8758 7.69093 12.8245C7.71372 12.8133 7.73568 12.8005 7.75653 12.7863C7.78609 12.7727 7.81426 12.756 7.84037 12.7367L12.7242 8.55081H12.724C12.859 8.4272 12.9196 8.24226 12.884 8.06285C12.8482 7.88344 12.7215 7.73566 12.5497 7.67311C12.3778 7.61069 12.1858 7.64232 12.0432 7.75681L8.0231 11.2019V1.17687C8.0231 1.03807 7.968 0.90507 7.8698 0.806867C7.77174 0.708809 7.6386 0.653564 7.49979 0.653564H7.49979Z" fill="black"/>
</svg>
