<svg viewBox="0 0 22 22" fill="none" xmlns="http://www.w3.org/2000/svg">
	<path d="M7.61276 11.5376L6.608 14.8721C6.54728 15.1796 6.81594 15.4524 7.12759 15.3917L10.4621 14.387C10.6743 14.3436 10.8692 14.2397 11.025 14.0881L21.678 3.43511C22.1067 3.00643 22.1067 2.30908 21.678 1.88041L20.1193 0.321508C19.6906 -0.107169 18.9933 -0.107169 18.5646 0.321508L7.9116 10.9745C7.75999 11.1305 7.65173 11.3253 7.61277 11.5376L7.61276 11.5376Z" />
	<path d="M20.8989 11.0011C20.2927 11.0011 19.799 11.4947 19.799 12.1009V19.8006L2.19961 19.8008V2.20185H9.89934C10.5056 2.20185 10.9992 1.70824 10.9992 1.10199C10.9992 0.495558 10.5056 0.00195312 9.89934 0.00195312H1.09985C0.493605 0.00195312 0 0.495558 0 1.10181V20.9008C0 21.507 0.493605 22.0006 1.09985 22.0006H20.8988C21.5051 22.0006 21.9987 21.507 21.9987 20.9008V12.1013C21.9987 11.495 21.5051 11.0012 20.8988 11.0012L20.8989 11.0011Z" />
</svg>
