<svg width="35" height="35" viewBox="0 0 35 30" fill="none" xmlns="http://www.w3.org/2000/svg">
	<path d="M10.2433 3.20032L4.37253 10.2113L5.77633 11.3884L11.6495 4.37455L10.2433 3.20032ZM32.7431 23.9607L32.5232 24.8869C32.4788 25.0735 32.3768 25.2415 32.2317 25.367C32.0866 25.4926 31.9056 25.5693 31.7145 25.5864L30.0447 25.7345L30.1927 27.4037C30.2095 27.5948 30.1658 27.7864 30.0677 27.9513C29.9697 28.1162 29.8222 28.246 29.6462 28.3226L28.7729 28.702L34.7019 29.638L32.7431 23.9607ZM28.3149 26.9044L28.1449 24.9874C28.1235 24.7458 28.199 24.5056 28.3547 24.3196C28.5105 24.1336 28.7338 24.017 28.9755 23.9956L30.8958 23.8253L31.559 21.0366L13.0519 5.54558L7.17631 12.5623L25.6884 28.0502L28.3149 26.9044ZM5.4489 0.375965L0.747464 5.99049C0.592031 6.17671 0.516783 6.41694 0.538208 6.65852C0.559634 6.9001 0.675986 7.12333 0.861768 7.27929L2.96664 9.04059L8.84304 2.02291L6.73816 0.261621C6.64602 0.184469 6.53957 0.126223 6.4249 0.0902134C6.31023 0.0542035 6.18958 0.0411348 6.06985 0.0517536C5.95012 0.0623725 5.83365 0.0964707 5.72711 0.1521C5.62056 0.20773 5.52603 0.283801 5.4489 0.375965V0.375965Z" />
</svg>
