<svg viewBox="0 0 20 16" fill="none" xmlns="http://www.w3.org/2000/svg">
	<path d="M14.6999 6.92695V12.5856C14.6999 13.2882 14.134 13.8539 13.4316 13.8539H4.22134C3.51881 13.8539 2.9531 13.288 2.9531 12.5856V3.39511C2.9531 2.69258 3.51897 2.12687 4.22134 2.12687H11.0506L12.7871 0.390294C12.9433 0.234176 12.8261 0 12.631 0H4.2213C2.34821 0 0.826172 1.52204 0.826172 3.39512V12.5852C0.826172 14.4781 2.34821 16 4.2213 16H13.4114C15.3043 16 16.8262 14.4781 16.8262 12.6049V5.4827C16.8262 5.22906 16.5139 5.11205 16.3383 5.28764L14.6999 6.92695Z" />
	<path d="M16.7862 0.566214C16.2009 -0.0191418 15.2252 -0.0191418 14.6399 0.566214L13.8203 1.38576L15.9667 3.53214L16.7862 2.71259C17.3716 2.12723 17.3716 1.15157 16.7862 0.566214V0.566214Z" />
	<path d="M12.7344 2.44221L13.369 1.80762L15.5213 3.95993L14.8867 4.59452L12.7344 2.44221Z" />
	<path d="M9.66564 9.83443L14.4072 5.09291L12.2608 2.94653L5.70432 9.48323L4.94336 12.3125L7.85082 11.6296L9.48987 9.99054L9.66564 9.83443ZM5.80213 10.966L6.2119 9.89285L7.49979 11.2002L6.36801 11.5124L5.80213 10.966Z" />
</svg>
