<svg viewBox="0 0 36 26" fill="none" xmlns="http://www.w3.org/2000/svg">
	<path d="M22.3945 19.8677C22.2597 20.087 22.0144 20.2216 21.7496 20.2216C21.6151 20.2216 21.4829 20.1868 21.3671 20.1204C20.3483 19.5294 19.1816 19.2171 17.9921 19.2171C16.8028 19.2171 15.6359 19.5294 14.6171 20.1204C14.2667 20.2731 13.8531 20.1456 13.6598 19.8253C13.4665 19.5054 13.5561 19.0962 13.867 18.8783C15.1133 18.1583 16.5389 17.778 17.9922 17.778C19.4454 17.778 20.8713 18.1583 22.1173 18.8783C22.2907 18.9735 22.4178 19.1316 22.4698 19.3175C22.522 19.503 22.495 19.7012 22.3946 19.8676L22.3945 19.8677ZM14.0319 12.4868L13.8068 12.2775L14.0319 12.0682V12.0679C14.3259 11.7848 14.3259 11.3255 14.0319 11.0425C13.738 10.7591 13.261 10.7591 12.9668 11.0425L12.7494 11.2592L12.5321 11.0425C12.2378 10.7591 11.7609 10.7591 11.4669 11.0425C11.1729 11.3256 11.1729 11.7848 11.4669 12.0679L11.692 12.2772L11.4669 12.4865V12.4868C11.325 12.6223 11.2451 12.807 11.2451 12.9995C11.2451 13.1922 11.325 13.3766 11.4669 13.5125C11.6077 13.6491 11.7995 13.7261 11.9993 13.7261C12.1995 13.7261 12.391 13.6491 12.532 13.5125L12.7494 13.2957L12.9668 13.5125C13.1078 13.6491 13.2993 13.7261 13.4995 13.7261C13.6993 13.7261 13.8911 13.6491 14.0319 13.5125C14.1738 13.3766 14.2537 13.1922 14.2537 12.9995C14.2537 12.807 14.1738 12.6223 14.0319 12.4868H14.0319ZM24.5321 11.0422V11.0425C24.3914 10.9056 24.1995 10.8286 23.9994 10.8286C23.7996 10.8286 23.6077 10.9056 23.467 11.0425L23.2496 11.2593L23.0323 11.0425H23.032C22.738 10.7592 22.2611 10.7592 21.9671 11.0425C21.6729 11.3256 21.6729 11.7849 21.9671 12.0679L22.1922 12.2772L21.9671 12.4865V12.4868C21.8249 12.6224 21.7453 12.8071 21.7453 12.9995C21.7453 13.1922 21.8249 13.3767 21.9671 13.5125C22.1079 13.6492 22.2994 13.7261 22.4995 13.7261C22.6994 13.7261 22.8912 13.6492 23.032 13.5125L23.2493 13.2958L23.4667 13.5125H23.467C23.6077 13.6492 23.7995 13.7261 23.9994 13.7261C24.1995 13.7261 24.3913 13.6492 24.5321 13.5125C24.674 13.3767 24.7539 13.1922 24.7539 12.9995C24.7539 12.8071 24.674 12.6224 24.5321 12.4868L24.307 12.2775L24.5321 12.0682V12.0679C24.674 11.9324 24.7539 11.7477 24.7539 11.5552C24.7539 11.3625 24.674 11.1781 24.5321 11.0425L24.5321 11.0422ZM36 2.16661V23.8334C36 24.4079 35.7627 24.9592 35.3408 25.3655C34.9188 25.7718 34.3466 26 33.7498 26H2.24994C1.65339 26 1.08088 25.7718 0.658914 25.3655C0.23696 24.9592 0 24.4079 0 23.8334V2.16661C0 1.59186 0.23696 1.04085 0.658914 0.634507C1.08087 0.228182 1.65336 0 2.24994 0H33.7498C34.3466 0 34.9188 0.228182 35.3408 0.634507C35.7627 1.04083 36 1.59183 36 2.16661V2.16661ZM1.4998 2.16661V5.77776H34.4994V2.16661C34.4994 1.97502 34.4204 1.79145 34.2797 1.65591C34.1392 1.52037 33.9483 1.44432 33.7494 1.44432H2.24954C1.83531 1.44432 1.49976 1.76772 1.49976 2.16661H1.4998ZM34.4994 23.8334V7.22187H1.4998V23.8334C1.4998 24.025 1.57879 24.2086 1.71924 24.3441C1.85999 24.4793 2.05063 24.5557 2.24958 24.5557H33.7494C33.9483 24.5557 34.1393 24.4793 34.2797 24.3441C34.4205 24.2086 34.4995 24.025 34.4995 23.8334H34.4994ZM3.74914 4.33336H5.24895C5.66318 4.33336 5.99902 4.00995 5.99902 3.61107C5.99902 3.21218 5.66318 2.88906 5.24895 2.88906H3.74914C3.33491 2.88906 2.99907 3.21218 2.99907 3.61107C2.99907 4.00995 3.33491 4.33336 3.74914 4.33336ZM8.24925 4.33336H9.74937H9.74907C10.1633 4.33336 10.4991 4.00995 10.4991 3.61107C10.4991 3.21218 10.1633 2.88906 9.74907 2.88906H8.24896C7.83473 2.88906 7.49918 3.21218 7.49918 3.61107C7.49918 4.00995 7.83473 4.33336 8.24896 4.33336H8.24925ZM12.7494 4.33336H14.2495H14.2492C14.6631 4.33336 14.999 4.00995 14.999 3.61107C14.999 3.21218 14.6631 2.88906 14.2492 2.88906H12.7491C12.3348 2.88906 11.999 3.21218 11.999 3.61107C11.999 4.00995 12.3348 4.33336 12.7491 4.33336H12.7494Z" />
</svg>
