<svg height='300px' width='300px'  fill="#ffffff" xmlns="http://www.w3.org/2000/svg" xmlns:xlink="http://www.w3.org/1999/xlink" viewBox="0 0 100 100" version="1.1" x="0px" y="0px"><title>Upload s5.5</title><desc>Created with Sketch.</desc><g stroke="none" stroke-width="1" fill="none" fill-rule="evenodd"><g fill="#ffffff"><path d="M52.4193357,35.2693719 L68.7609222,51.4246428 C72.5183877,55.1953393 66.8816913,60.8518838 63.1242259,57.0811874 L56.1055704,50.0370495 C54.929659,48.8568687 53.9861417,49.2526181 53.9861417,50.9089129 L53.9861417,80.250322 C53.9861417,82.4601441 52.2015698,84.25 50.0004982,84.25 C47.7984302,84.25 46.0148547,82.4601441 46.0148547,80.250322 L46.0148547,50.9089129 C46.0148547,49.2583784 45.0658507,48.8622715 43.8951949,50.0370495 L36.8757741,57.0811874 C33.1183087,60.8518838 27.4816123,55.1953393 31.2390778,51.4246428 L47.4464441,35.2789807 C48.8150957,33.9155397 51.0435292,33.9092513 52.4193357,35.2693719 Z M30,24 C27.790861,24 26,22.209139 26,20 C26,17.790861 27.790861,16 30,16 L70,16 C72.209139,16 74,17.790861 74,20 C74,22.209139 72.209139,24 70,24 L30,24 Z"></path></g></g></svg>