<svg viewBox="0 0 17 10" fill="none" xmlns="http://www.w3.org/2000/svg">
	<path d="M16.5463 3.85659C13.8634 1.23177 11.0671 -0.0714701 8.25203 0.00302187C4.53005 0.0774942 1.73388 2.47891 0.410945 3.89378C-0.136982 4.47085 -0.136982 5.49475 0.410945 6.09053C1.73356 7.50536 4.52977 9.90695 8.25203 10H8.44091C11.1995 10 13.9389 8.6968 16.5465 6.12783C16.83 5.84852 17 5.43901 17 4.99229C17 4.54546 16.83 4.13577 16.5465 3.85659H16.5463ZM8.49739 8.88313C6.32463 8.88313 4.54864 7.13322 4.54864 4.99237C4.54864 2.85152 6.32463 1.10161 8.49739 1.10161C10.6701 1.10161 12.4461 2.85152 12.4461 4.99237C12.4463 7.13322 10.6703 8.88313 8.49739 8.88313ZM8.49739 2.40449C7.0426 2.40449 5.87114 3.55874 5.87114 4.99217C5.87114 6.4256 7.0426 7.57986 8.49739 7.57986C9.95218 7.57986 11.1236 6.4256 11.1236 4.99217C11.1236 3.55874 9.95234 2.40449 8.49739 2.40449V2.40449ZM8.49739 6.66763C7.57153 6.66763 6.797 5.92307 6.797 4.99221C6.797 4.78737 6.96702 4.61985 7.17492 4.61985C7.38281 4.61985 7.55284 4.78737 7.55284 4.99221C7.55284 5.49479 7.96847 5.92307 8.49756 5.92307C8.70546 5.92307 8.87548 6.0906 8.87548 6.29544C8.87533 6.50012 8.7053 6.66765 8.49741 6.66765L8.49739 6.66763Z" />
</svg>
