<svg viewBox="0 0 17 16" fill="none" xmlns="http://www.w3.org/2000/svg">
	<path d="M1.45488 16H15.918C16.2775 16 16.5223 15.6354 16.3775 15.3059L13.8105 9.3131C13.7305 9.12836 13.5509 9.00847 13.3512 9.00847H11.3035L9.91511 11.3208C9.66539 11.7354 9.221 11.9851 8.72645 11.9851C8.23696 11.9851 7.79254 11.7404 7.54281 11.3258L6.14939 9.00858L4.0219 9.0083C3.82218 9.0083 3.64235 9.12819 3.56253 9.31293L0.995542 15.3057C0.850581 15.6354 1.09526 16 1.45491 16L1.45488 16Z" />
	<path d="M9.20634 0.0288416C9.14135 0.0188977 9.07147 0.0138558 9.00662 0.00881391C8.69205 -0.0112142 8.3873 0.00391192 8.09275 0.0438284C6.17355 0.349713 4.72168 2.0091 4.72168 3.99431C4.72168 5.77906 5.64817 6.40709 7.07393 8.61385L8.51218 10.6915C8.61204 10.8314 8.82185 10.8314 8.92171 10.6915L10.4998 8.40908C11.7901 6.40806 12.7122 5.75708 12.7122 3.98926V3.97427C12.7122 1.90548 11.1147 0.253974 9.20633 0.0288061L9.20634 0.0288416ZM8.70688 6.49132C7.3273 6.49132 6.20977 5.37379 6.20977 3.99421C6.20977 2.61451 7.3273 1.4971 8.70688 1.4971C10.0803 1.4971 11.204 2.61448 11.204 3.99421C11.204 5.37379 10.0803 6.49132 8.70688 6.49132Z" />
</svg>
