<svg viewBox="0 0 18 16" fill="none" xmlns="http://www.w3.org/2000/svg">
	<path d="M17.999 5.24545C17.839 2.46326 15.6793 0.200235 12.9996 0.0134726C11.5196 -0.0903077 10.0999 0.407871 8.99995 1.42528C7.92 0.407866 6.48009 -0.090299 5.00028 0.0134726C2.32025 0.200481 0.180321 2.46344 0.000427484 5.24545V5.53607C-0.0195322 7.0933 0.660417 8.60889 1.84032 9.66773L8.74003 15.8962C8.82004 15.9586 8.90004 16 9 16C9.09996 16 9.17997 15.9586 9.25997 15.8962L16.1597 9.66773C17.3396 8.58815 18.0195 7.09326 17.9996 5.53607C17.9994 5.43229 17.9994 5.32851 17.9994 5.24545H17.999ZM5.39976 2.89926C5.23975 2.89926 5.09971 2.91998 4.95982 2.9407C3.87987 3.12754 3.01993 4.02029 2.84 5.14148C2.81987 5.28704 2.79991 5.45299 2.79991 5.59839C2.79991 5.82684 2.61995 6.01368 2.3999 6.01368C2.17984 6.01368 1.99988 5.82684 1.99988 5.59839C1.99988 3.64676 3.51976 2.06884 5.39961 2.06884C5.61966 2.06884 5.79963 2.25568 5.79963 2.48413C5.79963 2.71241 5.61966 2.89925 5.39977 2.89925L5.39976 2.89926Z" />
</svg>
