<svg viewBox="0 0 17 16" fill="none" xmlns="http://www.w3.org/2000/svg">
	<path fill-rule="evenodd" clip-rule="evenodd" d="M8.83866 0.212544L11.1822 5.16021L16.6716 5.83202C16.8188 5.85005 16.9352 5.94469 16.9808 6.08411C17.0267 6.22353 16.989 6.36746 16.8805 6.46748L12.8392 10.197L13.8884 15.56C13.9165 15.704 13.8613 15.8422 13.7412 15.9283C13.621 16.0144 13.4709 16.0235 13.341 15.9527L8.49987 13.3103L3.65874 15.9527C3.52874 16.0235 3.37856 16.0144 3.25842 15.9283C3.13828 15.8422 3.08307 15.704 3.11119 15.56L4.16038 10.197L0.11944 6.46748C0.0110765 6.36746 -0.0267623 6.22354 0.0191726 6.08411C0.0651114 5.94469 0.181131 5.85005 0.328362 5.83202L5.81779 5.16021L8.16147 0.212544C8.22448 0.079667 8.35154 0 8.49981 0C8.64822 0 8.77528 0.079667 8.8383 0.212544H8.83866Z" />
</svg>
