<?xml version="1.0" encoding="UTF-8"?>
<svg width="752pt" height="752pt" version="1.1" viewBox="0 0 752 752" xmlns="http://www.w3.org/2000/svg">
 <path d="m297.39 500.08c27.469 26.992 51.621 50.199 63.461 63.461 2.8398 2.8398 6.6289 4.7344 10.418 4.7344s8.0508-1.8945 10.418-4.7344c11.84-13.262 35.52-36.465 63.461-63.461 72.457-71.039 128.81-126.92 139.71-152.96 5.6836-14.207 8.5234-29.363 8.5234-44.516 0-65.355-53.043-118.39-118.39-118.39-49.254 0-84.77 35.992-104.19 59.672-18.945-24.156-54.461-60.148-103.71-60.148-65.355 0-118.39 53.043-118.39 118.39 0 15.629 2.8398 30.309 8.5234 44.516 11.367 26.051 67.723 82.406 140.18 153.44zm-30.309-287.94c32.203 0 61.566 20.363 92.348 63.461 2.8398 3.7891 7.1055 6.1562 11.367 6.1562s8.9961-2.3672 11.367-6.1562c31.727-43.094 61.09-63.461 93.293-63.461 49.727 0 89.98 40.254 89.98 89.98 0 11.84-2.3672 23.207-6.6289 34.098-9.4727 22.73-83.824 95.664-133.08 143.5-21.312 20.836-40.727 39.781-53.988 53.516-13.262-13.734-32.676-32.676-53.988-53.516-49.727-48.305-124.55-121.23-133.55-143.97-4.2617-10.891-6.6289-22.258-6.6289-34.098 0-49.25 40.254-89.508 89.508-89.508z"/>
</svg>
