<svg viewBox="0 0 18 16" fill="none" xmlns="http://www.w3.org/2000/svg">
	<path d="M16.3868 11.5651V10.0102C16.3868 8.83176 15.4102 7.87338 14.2097 7.87338H9.70024V5.83662C9.70024 5.81994 9.69628 5.80423 9.69529 5.78772H10.9055C11.4809 5.78772 11.9492 5.32853 11.9492 4.76376V1.02396C11.9492 0.459357 11.4809 0 10.9055 0L7.09538 0.000161917C6.52031 0.000161917 6.05247 0.459519 6.05247 1.02412V4.76392C6.05247 5.32869 6.52031 5.78788 7.09538 5.78788H8.3054C8.30425 5.8044 8.30045 5.8201 8.30045 5.83678V7.87387L3.79096 7.87355C2.59049 7.87355 1.61388 8.8321 1.61388 10.0104V11.5661C0.679169 11.8575 0 12.7163 0 13.7288C0 14.9814 1.03797 16 2.31383 16C3.58918 16 4.62685 14.9814 4.62685 13.7288C4.62685 12.717 3.94802 11.8582 3.01382 11.5659V10.0102C3.01382 9.58969 3.36239 9.24743 3.79079 9.24743H8.29986V11.5646C7.36549 11.8565 6.68632 12.7157 6.68632 13.728C6.68632 14.9802 7.72412 15.9983 8.99998 15.9983C10.2758 15.9983 11.3136 14.9799 11.3136 13.728C11.3136 12.7158 10.6345 11.8567 9.70009 11.5646L9.69993 9.2476H14.2094C14.638 9.2476 14.9864 9.58989 14.9864 10.0104V11.5653C14.052 11.857 13.3732 12.7162 13.3732 13.7286C13.3732 14.9812 14.411 16 15.6863 16C16.9622 16 18 14.9812 18 13.7286C18 12.716 17.3208 11.8569 16.3865 11.5651L16.3868 11.5651Z" />
</svg>
