<svg viewBox="0 0 16 16" fill="none" xmlns="http://www.w3.org/2000/svg">
	<path d="M15.3623 18.8449V1.38124L11.4695 0.480225L8.98547 1.39557V5.90317L6.0811 5.02526L2.31864 6.52389L2.31888 18.845H0V19.7112H20V18.845L15.3623 18.8449ZM12.7537 18.5562V16.5041L13.6232 16.8418V18.5563L12.7537 18.5562ZM13.913 2.06267L14.4928 2.19272V2.79341L13.913 2.67218V2.06267ZM13.913 2.98655L14.4928 3.10779V3.66228L13.913 3.54104V2.98655ZM13.913 3.85593L14.4928 3.97716V4.54022L13.913 4.41613V3.85593ZM13.913 4.72792L14.4928 4.85202V5.40055L13.913 5.27931V4.72792ZM13.913 5.59418L14.4928 5.71256V6.29873L13.913 6.17178V5.59418ZM13.913 6.47782L14.4928 6.6043V7.15354L13.913 7.02945V6.47782ZM13.913 7.34122L14.4928 7.46532V8.02838L13.913 7.90428V7.34122ZM13.913 8.19273L14.4928 8.3173V8.86011L13.913 8.73888V8.19273ZM13.913 9.05064L14.4928 9.17188V9.74947L13.913 9.62276V9.05064ZM13.913 9.92855L14.4928 10.0669V10.6038L13.913 10.4797V9.92855ZM13.913 10.7891L14.4928 10.9139V11.4536L13.913 11.3324V10.7891ZM13.913 11.6465L14.4928 11.7644V12.342L13.913 12.2179V11.6465ZM13.913 12.5242L14.4928 12.6488V13.2147L13.913 13.088V12.5242ZM13.913 13.3936L14.4928 13.5129V14.0693L13.913 13.9452V13.3936ZM13.913 14.2541L14.4928 14.3789V14.9299L13.913 14.8058V14.2541ZM13.913 15.1175L14.4928 15.2388V15.7849L13.913 15.6637V15.1175ZM13.0434 1.86901L13.6232 1.99906V2.61118L13.0434 2.49281V1.86901ZM13.0434 2.80485L13.6232 2.92608V3.48057L13.0434 3.3622V2.80485ZM13.0434 3.67398L13.6232 3.79521V4.35542L13.0434 4.23418V3.67398ZM13.0434 4.54597L13.6232 4.66721V5.21884L13.0434 5.0976V4.54597ZM13.0434 5.41224L13.6232 5.53347V6.1082L13.0434 5.98126V5.41224ZM13.0434 6.28734L13.6232 6.41429V6.96878L13.0434 6.84468V6.28734ZM13.0434 7.1536L13.6232 7.2777V7.84076L13.0434 7.71667V7.1536ZM13.0434 8.00536L13.6232 8.12993V8.67822L13.0434 8.55699V8.00536ZM13.0434 8.86875L13.6232 8.98999V9.55876L13.0434 9.43467V8.86875ZM13.0434 9.74124L13.6232 9.86533V10.417L13.0434 10.2957V9.74124ZM13.0434 10.6044L13.6232 10.7256V11.2713L13.0434 11.1534V10.6044ZM13.0434 11.4644L13.6232 11.5857V12.1549L13.0434 12.0308V11.4644ZM13.0434 12.3369L13.6232 12.4615V13.0243L13.0434 12.9002V12.3369ZM13.0434 13.2063L13.6232 13.3304V13.882L13.0434 13.7608V13.2063ZM13.0434 14.0694L13.6232 14.1907V14.7454L13.0434 14.6239V14.0694ZM13.0434 14.9328L13.6232 15.0569V15.6026L13.0434 15.4847V14.9328ZM12.1739 1.67579L12.7537 1.80583V2.43247L12.1739 2.31123V1.67579ZM12.1739 2.62589L12.7537 2.74426V3.30161L12.1739 3.18037V2.62589ZM12.1739 3.49502L12.7537 3.61339V4.1736L12.1739 4.0495V3.49502ZM12.1739 4.36128L12.7537 4.48538V5.03701L12.1739 4.91863V4.36128ZM12.1739 5.23041L12.7537 5.35165V5.91756L12.1739 5.79061V5.23041ZM12.1739 6.09978L12.7537 6.22388V6.78122L12.1739 6.65713V6.09978ZM12.1739 6.96891L12.7537 7.09301V7.65321L12.1739 7.52912V6.96891ZM12.1739 7.83518L12.7537 7.96213V8.5159L12.1739 8.3918V7.83518ZM12.1739 8.68693L12.7537 8.80816V9.37099L12.1739 9.24428V8.68693ZM12.1739 9.55081L12.7537 9.67752V10.232L12.1739 10.1079V9.55081ZM12.1739 10.4171L12.7537 10.5416V11.0928L12.1739 10.9716V10.4171ZM12.1739 11.286L12.7537 11.4039V11.9672L12.1739 11.8426V11.286ZM12.1739 12.1496L12.7537 12.2742V12.8368L12.1739 12.7103V12.1496ZM12.1739 13.0159L12.7537 13.1426V13.6971L12.1739 13.573V13.0159ZM12.1739 13.8821L12.7537 14.0067V14.564L12.1739 14.4399V13.8821ZM12.1739 14.7484L12.7537 14.873V15.4241L12.1739 15.3029V14.7484ZM10.1451 9.05369V9.62532L9.27552 9.44025V8.86886L10.1451 9.05369ZM9.27552 8.57447V8.00307L10.1451 8.1879V8.75953L9.27552 8.57447ZM10.1451 9.91993V10.4916L9.27552 10.3065V9.7351L10.1451 9.91993ZM10.1451 10.7862V11.3578L9.27552 11.1728V10.6014L10.1451 10.7862ZM10.1451 11.6525V12.2241L9.27552 12.039V11.4676L10.1451 11.6525ZM10.1451 12.519V13.0906L9.27552 12.9055V12.3341L10.1451 12.519ZM10.1451 13.3852V13.9569L9.27552 13.7718V13.2004L10.1451 13.3852ZM10.1451 14.2515V14.8231L9.27552 14.6381V14.0667L10.1451 14.2515ZM10.1451 15.1178V15.9783C10.1451 15.9783 9.27099 15.7894 9.27099 15.7634L9.27554 14.9329L10.1451 15.1178ZM10.1451 7.8929L9.27552 7.70807V7.11619L10.1451 7.31555V7.8929ZM7.82618 6.78133L8.98547 7.05V7.05571V7.64759L7.82618 7.39917V6.78133ZM7.82618 7.69668L8.98547 7.94224V8.51388L7.82618 8.26522V7.69668ZM7.82618 8.56008L8.98547 8.8085V9.3799L7.82618 9.13195V8.56008ZM7.82618 9.42634L8.98547 9.67476V10.2462L7.82618 9.99821V9.42634ZM7.82618 10.2926L8.98547 10.541V11.1124L7.82618 10.8645V10.2926ZM7.82618 11.1589L8.98547 11.4073V11.9787L7.82618 11.7307V11.1589ZM7.82618 12.0251L8.98547 12.2736V12.8449L7.82618 12.597V12.0251ZM7.82618 12.8916L8.98547 13.1401V13.7115L7.82618 13.4635V12.8916ZM7.82618 13.7579L8.98547 14.0063V14.5777L7.82618 14.3298V13.7579ZM7.82618 15.4297V14.6239L8.98547 14.8723V15.7184L7.81443 15.474C7.82328 15.4602 7.82615 15.4466 7.82615 15.4297L7.82618 15.4297ZM6.66665 6.51524L7.54482 6.71745C7.53909 6.73198 7.53622 6.74913 7.53622 6.76652V7.33816L6.66668 7.15333L6.66665 6.51524ZM6.66665 7.44796L7.53619 7.63279V8.20442L6.66665 8.01936V7.44796ZM6.66665 8.31447L7.53619 8.4993V9.07093L6.66665 8.88586V8.31447ZM6.66665 9.18074L7.53619 9.36556V9.9372L6.66665 9.75213V9.18074ZM6.66665 10.047L7.53619 10.2318V10.8035L6.66665 10.6184V10.047ZM6.66665 10.9133L7.53619 11.0981V11.6697L6.66665 11.4847V10.9133ZM6.66665 11.7795L7.53619 11.9644V12.536L6.66665 12.3509V11.7795ZM6.66665 12.6455L7.53619 12.8306V13.4022L6.66665 13.2172V12.6455ZM6.66665 13.5118L7.53619 13.6969V14.2685L6.66665 14.0834V13.5118ZM6.66665 14.3781L7.53619 14.5631V15.4237L6.66665 15.2386V14.3781ZM7.82618 16.4141L8.98547 16.7518L9.27524 16.8357L9.27548 18.8449H7.82614L7.82618 16.4141Z" />
</svg>
