<svg viewBox="0 0 18 16" fill="none" xmlns="http://www.w3.org/2000/svg">
	<path d="M4.99977 0.000216784C2.24269 0.000216784 0 2.26678 0 5.12996C0 7.62869 1.05942 9.20084 2.61868 10.6123C4.17794 12.0239 6.23638 13.3878 8.57498 15.8191V15.819C8.68766 15.9349 8.84058 16 8.99992 16C9.15944 16 9.31236 15.9349 9.42502 15.819C11.7636 13.3876 13.8221 12.0239 15.3813 10.6121C16.9406 9.20049 18 7.62848 18 5.12979C18 4.57939 17.9345 4.0251 17.7687 3.50108C17.7306 3.33323 17.6259 3.18941 17.4795 3.10448C17.3332 3.01971 17.159 3.00161 16.9991 3.05491C16.8395 3.10804 16.7086 3.22749 16.6387 3.38417C16.5688 3.54084 16.5659 3.72053 16.6313 3.87942C16.7477 4.24777 16.8 4.67854 16.8 5.12979C16.8 7.30093 16.0367 8.37704 14.5875 9.68908C13.2259 10.9217 11.2469 12.2927 8.99987 14.5433C6.75286 12.2928 4.77378 10.9219 3.41224 9.68908C1.96303 8.37712 1.1997 7.30102 1.1997 5.12979C1.1997 2.9162 2.87345 1.23113 4.99967 1.23113C6.51341 1.23113 7.83694 2.14056 8.45588 3.4627H8.45605C8.5547 3.67944 8.76668 3.81784 8.99978 3.81784C9.23304 3.81784 9.44502 3.67944 9.5435 3.4627C10.1626 2.14061 11.486 1.23113 12.9997 1.23113C14.1132 1.23113 15.0646 1.69945 15.7622 2.46863H15.7624C15.8681 2.5984 16.0214 2.67758 16.1859 2.68774C16.3505 2.69806 16.5118 2.63833 16.6322 2.52277C16.7525 2.40721 16.8213 2.24596 16.8223 2.07693C16.8233 1.90774 16.7563 1.74565 16.6374 1.62871C15.731 0.629447 14.4494 0 12.9998 0C11.365 0 9.92291 0.830773 8.9999 2.09045C8.07694 0.830773 6.63461 0 4.99997 0L4.99977 0.000216784Z" />
</svg>
