<svg viewBox="0 0 15 17" fill="none" xmlns="http://www.w3.org/2000/svg">
	<path d="M3.36249 0.00244141H0.606101C0.27476 0.00244141 0.00683594 0.275634 0.00683594 0.613487V3.42404C0.00683594 3.7619 0.27476 4.03509 0.606101 4.03509H3.36249C3.69382 4.03509 3.96175 3.7619 3.96175 3.42404V0.613487C3.96145 0.275634 3.69382 0.00244141 3.36249 0.00244141Z" fill-opacity="0.8" />
	<path d="M0 9.05881C0 9.39667 0.267926 9.66983 0.599267 9.66983H3.35565C3.68699 9.66983 3.95491 9.39667 3.95491 9.05881V6.24826C3.95491 5.9104 3.68699 5.63721 3.35565 5.63721H0.599267C0.267926 5.63721 0 5.9104 0 6.24826V9.05881Z" fill-opacity="0.8" />
	<path d="M0 14.6862C0 15.024 0.267926 15.2973 0.599267 15.2973H3.35565C3.68699 15.2973 3.95491 15.024 3.95491 14.6862V11.8757C3.95491 11.5378 3.68699 11.2646 3.35565 11.2646H0.599267C0.267926 11.2646 0 11.5378 0 11.8757V14.6862Z" fill-opacity="0.8" />
	<path d="M4.74414 0.476562H14.8596V1.69836H4.74414V0.476562Z" fill-opacity="0.8" />
	<path d="M4.74414 2.35254H9.34031V3.57434H4.74414V2.35254Z" fill-opacity="0.8" />
	<path d="M4.74414 6.10449H14.8596V7.32631H4.74414V6.10449Z" fill-opacity="0.8" />
	<path d="M4.74414 7.97314H9.34031V9.19498H4.74414V7.97314Z" fill-opacity="0.8" />
	<path d="M4.74414 11.7256H14.8596V12.9474H4.74414V11.7256Z" fill-opacity="0.8" />
	<path d="M4.74414 13.6016H9.34031V14.8233H4.74414V13.6016Z" fill-opacity="0.8" />
</svg>
