<svg viewBox="0 0 305 211" xmlns="http://www.w3.org/2000/svg">
	<path d="M304.043 16.1332C304.043 20.4086 300.546 23.9053 296.27 23.9053H8.73358C4.45814 23.9053 0.961426 20.4087 0.961426 16.1332V8.36102C0.961426 4.08559 4.45806 0.588867 8.73358 0.588867H296.27C300.546 0.588867 304.043 4.0855 304.043 8.36102V16.1332Z" />
	<path d="M265.185 78.3011C265.185 82.5766 261.688 86.0733 257.412 86.0733H47.5915C43.3161 86.0733 39.8193 82.5767 39.8193 78.3011V70.529C39.8193 66.2535 43.316 62.7568 47.5915 62.7568H257.412C261.688 62.7568 265.185 66.2535 265.185 70.529V78.3011Z" />
	<path d="M234.097 140.468C234.097 144.744 230.6 148.241 226.324 148.241L78.6711 148.237C74.3957 148.237 70.8989 144.741 70.8989 140.465V132.693C70.8989 128.418 74.3956 124.921 78.6711 124.921H226.324C230.6 124.921 234.097 128.418 234.097 132.693V140.468Z" />
	<path d="M203.017 202.644C203.017 206.92 199.52 210.416 195.245 210.416L109.759 210.413C105.484 210.413 101.987 206.916 101.987 202.641V194.869C101.987 190.593 105.483 187.097 109.759 187.097H195.245C199.52 187.097 203.017 190.593 203.017 194.869V202.644Z" />
</svg>
