<svg  viewBox="0 0 30 18" xmlns="http://www.w3.org/2000/svg">
<path d="M29.8905 3.23006C29.8857 3.94353 29.1271 4.51727 28.1954 4.51104L2.22462 4.33754C1.29293 4.33131 0.542017 3.74771 0.546785 3.03402L0.554843 1.82789C0.55961 1.11443 1.31826 0.540687 2.24994 0.546912L28.2207 0.720418C29.1524 0.726642 29.9033 1.31025 29.8985 2.02393L29.8905 3.23006Z"/>
<path d="M24.788 9.90528C24.7833 10.6192 24.0246 11.1925 23.0929 11.1863L7.24098 11.0804C6.30929 11.0741 5.55837 10.4907 5.56314 9.77685L5.5712 8.57093C5.57597 7.85703 6.33461 7.28373 7.2663 7.28995L23.1183 7.39586C24.05 7.40208 24.8009 7.98547 24.7961 8.69937L24.788 9.90528Z"/>
<path d="M19.682 16.58C19.6772 17.2934 18.9186 17.8672 17.9869 17.861L12.2532 17.8226C11.3215 17.8164 10.5706 17.2328 10.5753 16.5191L10.5834 15.313C10.5882 14.5995 11.3468 14.0258 12.2785 14.032L18.0122 14.0703C18.9439 14.0765 19.6948 14.6602 19.6901 15.3738L19.682 16.58Z" />
</svg>
