<svg viewBox="0 0 18 16" fill="none" xmlns="http://www.w3.org/2000/svg">
	<path d="M12.2983 14.7786H1.73422V2.35556H3.35816V2.87898C3.35816 3.21043 3.64371 3.48962 3.98268 3.48962C4.32165 3.48962 4.60719 3.21042 4.60719 2.87898V2.35556H6.40952V2.87898C6.40952 3.21043 6.69507 3.48962 7.03403 3.48962C7.37301 3.48962 7.65855 3.21042 7.65855 2.87898V2.35556H9.46088V2.87898C9.46088 3.21043 9.74643 3.48962 10.0854 3.48962C10.4244 3.48962 10.7099 3.21042 10.7099 2.87898V2.35556H12.3338V8.20072L13.583 6.97928L13.5832 2.0589C13.5832 1.5529 13.1728 1.13406 12.6373 1.13406H10.6922V0.610636C10.6922 0.279193 10.4067 0 10.0677 0C9.72876 0 9.44321 0.2792 9.44321 0.610636V1.13406H7.64087V0.610636C7.64087 0.279193 7.35532 0 7.01636 0C6.67738 0 6.39184 0.2792 6.39184 0.610636V1.13406H4.58937V0.610636C4.58937 0.279193 4.30383 0 3.96485 0C3.62588 0 3.34034 0.2792 3.34034 0.610636V1.13406H1.43085C0.913345 1.13406 0.484997 1.53532 0.484997 2.0589V15.0752C0.484997 15.5812 0.895378 16 1.43085 16H12.6193C13.1368 16 13.5651 15.5812 13.5651 15.0752V12.4753L12.3159 13.6967L12.3161 14.7784L12.2983 14.7786Z" />
	<path d="M10.496 9.00371C10.496 8.67227 10.2104 8.39307 9.87144 8.39307H4.17909C3.84011 8.39307 3.55457 8.67227 3.55457 9.00371C3.55457 9.33515 3.84012 9.61435 4.17909 9.61435H9.87144C10.2104 9.61435 10.496 9.33515 10.496 9.00371Z" />
	<path d="M4.17889 6.56028H9.87128C10.2103 6.56028 10.4958 6.28108 10.4958 5.94964C10.4958 5.61821 10.2103 5.33901 9.87128 5.33901L4.17889 5.33887C3.83992 5.33887 3.55438 5.61807 3.55438 5.9495C3.55438 6.28109 3.82196 6.56028 4.17889 6.56028Z" />
	<path d="M3.55457 12.0571C3.55457 12.4061 3.82231 12.6677 4.17909 12.6677H8.85444L9.10424 11.5859C9.12207 11.5335 9.12207 11.4812 9.13991 11.4463L4.17925 11.4464C3.82232 11.4464 3.55474 11.7256 3.55474 12.0571H3.55457Z" />
	<path d="M10.0676 13.5054L11.4416 13.2088C11.4952 13.1914 11.5486 13.1564 11.6022 13.1216L12.0126 12.7028L10.4958 11.2197L10.0855 11.621C10.0319 11.6734 10.0141 11.7082 9.99622 11.778L9.67508 13.139C9.62149 13.3658 9.83569 13.5578 10.0676 13.5054Z" />
	<path d="M11.0315 10.7137L12.5305 12.1968L16.0994 8.70719L14.6004 7.22412L11.0315 10.7137Z" />
	<path d="M17.3305 7.06672L16.2776 6.01987C16.1349 5.89767 15.9387 5.89767 15.8137 6.01987L15.1 6.71771L16.6168 8.20082L17.3305 7.50294C17.4733 7.38075 17.4733 7.18877 17.3305 7.06672Z" />
</svg>
