<svg viewBox="0 0 16 16" fill="none" xmlns="http://www.w3.org/2000/svg">
	<path d="M5.99414 6.33407C5.99414 6.85631 6.65944 7.3239 7.50341 7.46404V5.20435C6.65944 5.33904 5.99414 5.80912 5.99414 6.33407Z" />
	<path d="M8.49512 8.53613V10.7961C9.34455 10.6614 10.0044 10.1886 10.0044 9.66609C10.0044 9.14386 9.34182 8.67377 8.49512 8.53613V8.53613Z" />
	<path d="M7.99449 0C3.58777 0 0 3.58784 0 8C0 12.4153 3.58748 16 7.99449 16C12.4123 16 16 12.4124 16 8C16 3.58766 12.4125 0 7.99449 0V0ZM8.49493 11.8023V12.8579C8.49493 13.13 8.27498 13.3554 7.99449 13.3554C7.7251 13.3554 7.49971 13.13 7.49971 12.8579V11.8023C6.65847 11.7035 5.91062 11.357 5.45442 10.8264C5.27846 10.6203 5.29501 10.3042 5.50385 10.1255C5.71269 9.9468 6.02901 9.96606 6.20769 10.1749C6.48818 10.491 6.95281 10.7137 7.50247 10.799V8.46763C6.07029 8.30278 5.00068 7.42568 5.00068 6.33426C5.00068 5.24285 6.07006 4.36575 7.50247 4.19816V3.07934C7.50247 2.80451 7.72786 2.58183 7.99725 2.58183C8.27502 2.58183 8.49497 2.80451 8.49497 3.07934V4.19816C9.3444 4.29703 10.0784 4.64624 10.5349 5.17411C10.7163 5.38296 10.697 5.69634 10.4909 5.87525C10.3999 5.95485 10.2818 5.99611 10.1691 5.99611C10.0233 5.99611 9.88862 5.93829 9.78703 5.82559C9.5122 5.50948 9.03646 5.28681 8.49225 5.20154L8.49202 7.53287C9.93256 7.69795 11.0019 8.57755 11.0019 9.66624C11.0019 10.7549 9.93256 11.6375 8.49493 11.8023L8.49493 11.8023Z" />
</svg>
