<svg viewBox="0 0 17 16" fill="none" xmlns="http://www.w3.org/2000/svg">
	<g clip-path="url(#clip0_4876_2645)">
		<path d="M15.7298 13.278L13.3273 10.9046C13.2524 10.8307 13.1511 10.7892 13.0453 10.7892C12.9396 10.7892 12.8381 10.8307 12.7634 10.9046L12.6358 11.0309L11.4109 9.81976C11.4047 9.81496 11.398 9.8108 11.3911 9.80728C12.6222 8.10136 12.8988 5.89648 12.1266 3.94502C11.3544 1.99358 9.63768 0.559166 7.56195 0.130954C5.48644 -0.297101 3.33245 0.339063 1.83469 1.82226C0.337094 3.30563 -0.301654 5.43578 0.136157 7.48608C0.57397 9.53624 2.02925 11.2295 4.00574 11.9883C5.98212 12.7472 8.21252 12.4688 9.93624 11.2483C9.93947 11.2543 9.94336 11.26 9.94757 11.2654L11.1723 12.4759L11.0467 12.6002H11.0469C10.972 12.674 10.93 12.7742 10.93 12.8787C10.93 12.9833 10.972 13.0834 11.0469 13.1574L13.4499 15.5327C13.7522 15.8319 14.1625 16 14.5906 16C15.0184 16 15.4289 15.8319 15.7313 15.5327C16.0338 15.2337 16.2036 14.828 16.2035 14.4051C16.2032 13.9823 16.0329 13.5769 15.7299 13.2782L15.7298 13.278ZM2.52414 9.91048C1.55373 8.95608 0.9926 7.66868 0.95745 6.31608C0.922276 4.96345 1.41566 3.64943 2.3352 2.64689C3.25473 1.64418 4.5296 1.03031 5.89539 0.932344C7.26099 0.83452 8.61234 1.26027 9.66844 2.12114C10.7248 2.98217 11.405 4.21208 11.5676 5.55562C11.7303 6.89916 11.3629 8.25304 10.5421 9.33584C10.3904 9.53952 10.2235 9.73144 10.043 9.91048C9.86152 10.091 9.66585 10.2572 9.45789 10.4073C8.43449 11.1614 7.17074 11.5263 5.89742 11.4351C4.62427 11.3439 3.42674 10.8027 2.52418 9.91048H2.52414ZM10.821 10.679C11.0043 10.4981 11.1757 10.3055 11.3338 10.1026L12.3631 11.1198L11.2636 12.2063L10.2344 11.1891H10.2345C10.4407 11.0315 10.6366 10.8612 10.821 10.679Z" />
		<path d="M6.25511 2.7002C5.52747 2.7002 4.82975 2.98598 4.31531 3.49432C3.80092 4.00283 3.51205 4.69253 3.51221 5.41157C3.51221 6.90848 6.25511 9.9414 6.25511 9.9414C6.25511 9.9414 8.99798 6.90864 8.99798 5.41157H8.99814C8.99814 4.69249 8.7093 4.00283 8.19493 3.49432C7.6805 2.98599 6.98275 2.7002 6.25511 2.7002ZM6.2534 6.65668C5.9155 6.65621 5.59161 6.52317 5.35283 6.28676C5.11423 6.05035 4.98022 5.72995 4.98053 5.39604C4.98085 5.06212 5.11531 4.74189 5.35454 4.50595C5.59361 4.26985 5.91782 4.13742 6.2557 4.13757C6.5936 4.13772 6.91764 4.27046 7.15655 4.50672C7.39546 4.74297 7.52962 5.06321 7.52962 5.39712C7.52978 5.73151 7.39531 6.05222 7.15593 6.28863C6.91655 6.52488 6.59172 6.65732 6.25337 6.6567L6.2534 6.65668Z" />
	</g>
</svg>
