<svg viewBox="0 0 26 26" fill="none" xmlns="http://www.w3.org/2000/svg">
	<path d="M14.0097 2.87939C9.62204 2.87939 5.83853 5.51295 4.21792 9.27777L3.50973 8.03706C3.42408 7.87573 3.29521 7.74137 3.13751 7.64901C2.97981 7.55666 2.79951 7.50996 2.61676 7.51411C2.44568 7.51793 2.27854 7.56619 2.13179 7.65414C1.98505 7.74209 1.86376 7.86669 1.77987 8.01569C1.69598 8.16469 1.65237 8.33295 1.65334 8.5039C1.65431 8.67486 1.69982 8.84262 1.7854 8.99066L3.59184 12.2206C3.71742 12.4432 3.92468 12.6082 4.16983 12.6809C4.41498 12.7536 4.67883 12.7283 4.90562 12.6103L8.1182 10.9696C8.23892 10.9144 8.34722 10.8353 8.43658 10.7372C8.52595 10.639 8.59453 10.5238 8.63822 10.3986C8.68191 10.2733 8.6998 10.1405 8.69081 10.0081C8.68183 9.87572 8.64615 9.74652 8.58594 9.62828C8.52572 9.51003 8.4422 9.40517 8.34039 9.31998C8.23858 9.2348 8.12059 9.17104 7.9935 9.13255C7.86641 9.09407 7.73284 9.08164 7.60082 9.09602C7.4688 9.1104 7.34106 9.1513 7.22526 9.21624L6.16809 9.7597C7.54917 6.86631 10.5276 4.84812 14.0097 4.84812C18.8153 4.84812 22.6827 8.66328 22.6827 13.3793C22.6827 18.0569 18.8828 21.8488 14.1329 21.9105C14.0027 21.9106 13.8738 21.9364 13.7536 21.9866C13.6335 22.0367 13.5245 22.1101 13.4329 22.2026C13.3413 22.2951 13.269 22.4048 13.2202 22.5254C13.1713 22.6459 13.1468 22.775 13.1482 22.9051C13.1495 23.0352 13.1766 23.1637 13.228 23.2832C13.2794 23.4028 13.3539 23.5109 13.4474 23.6015C13.5408 23.6921 13.6513 23.7632 13.7725 23.8109C13.8936 23.8586 14.023 23.8818 14.1532 23.8792C19.9458 23.804 24.6533 19.1269 24.6533 13.3793C24.6533 7.58472 19.8661 2.87939 14.0097 2.87939ZM14.1329 7.12447C14.0026 7.12581 13.8739 7.15294 13.7542 7.2043C13.6345 7.25565 13.5261 7.3302 13.4355 7.42365C13.3448 7.5171 13.2735 7.62758 13.2259 7.74871C13.1782 7.86984 13.1551 7.99922 13.1578 8.12934V13.3793C13.1577 13.5269 13.1909 13.6727 13.2548 13.8059C13.3188 13.939 13.4119 14.056 13.5273 14.1483L16.8117 16.7733C16.9128 16.8541 17.0288 16.9142 17.1532 16.9502C17.2775 16.9862 17.4078 16.9974 17.5364 16.9831C17.6651 16.9689 17.7897 16.9294 17.9031 16.867C18.0165 16.8046 18.1165 16.7205 18.1974 16.6195C18.2783 16.5185 18.3385 16.4026 18.3745 16.2784C18.4105 16.1542 18.4217 16.0241 18.4074 15.8955C18.3931 15.767 18.3536 15.6425 18.2911 15.5292C18.2287 15.4159 18.1445 15.316 18.0434 15.2352L15.1284 12.9076V8.12934C15.1312 7.99749 15.1074 7.86644 15.0585 7.74396C15.0095 7.62148 14.9365 7.51007 14.8436 7.41634C14.7507 7.32261 14.64 7.24849 14.5179 7.19835C14.3958 7.14821 14.2649 7.12308 14.1329 7.12447Z" />
</svg>
