<svg viewBox="0 0 12 12" fill="none" xmlns="http://www.w3.org/2000/svg">
	<path d="M6 0C4.81331 0 3.65328 0.351894 2.66658 1.01118C1.67989 1.67047 0.910851 2.60754 0.456726 3.7039C0.0025997 4.80026 -0.11622 6.00666 0.115291 7.17054C0.346802 8.33443 0.918247 9.40353 1.75736 10.2426C2.59648 11.0818 3.66557 11.6532 4.82946 11.8847C5.99335 12.1162 7.19975 11.9974 8.2961 11.5433C9.39246 11.0892 10.3295 10.3201 10.9888 9.33342C11.6481 8.34673 12 7.18669 12 6C12 4.4087 11.3679 2.88258 10.2426 1.75736C9.11743 0.632141 7.5913 0 6 0V0ZM6.0744 9.0636C6.10023 9.07747 6.12909 9.08472 6.1584 9.08472C6.18772 9.08472 6.21658 9.07747 6.2424 9.0636C6.34606 8.98832 6.44034 8.9009 6.5232 8.8032C6.6432 8.6604 6.7488 8.5056 6.8676 8.3448L7.0344 8.4456C6.7944 8.8464 6.5472 9.2184 6.18 9.4968C5.98711 9.65039 5.75524 9.74721 5.5104 9.7764C4.938 9.8412 4.572 9.4512 4.7088 8.8896C4.8288 8.3964 4.9812 7.9104 5.1204 7.4208C5.2596 6.9312 5.4 6.4224 5.5416 5.9256C5.55301 5.87656 5.56143 5.82687 5.5668 5.7768C5.57767 5.73492 5.57916 5.69117 5.57117 5.64865C5.56317 5.60613 5.5459 5.5659 5.52057 5.53083C5.49524 5.49575 5.46248 5.4667 5.42463 5.44575C5.38678 5.42479 5.34477 5.41245 5.3016 5.4096C5.21463 5.40191 5.12731 5.39871 5.04 5.4C5.04149 5.37123 5.04592 5.34268 5.0532 5.3148L5.07 5.1948L7.1388 4.8636L6.9948 5.3652L6.9624 5.4852C6.6624 6.5332 6.3612 7.5848 6.0588 8.64C6.02795 8.72263 6.00817 8.80898 6 8.8968C5.99994 8.92828 6.00654 8.95941 6.01936 8.98816C6.03218 9.01691 6.05094 9.04262 6.0744 9.0636ZM6.5712 3.72C6.47298 3.71937 6.37585 3.69937 6.28537 3.66112C6.1949 3.62288 6.11286 3.56716 6.04396 3.49715C5.97507 3.42714 5.92067 3.34422 5.88388 3.25314C5.8471 3.16206 5.82865 3.06462 5.8296 2.9664C5.8296 2.86854 5.84888 2.77164 5.88633 2.68122C5.92378 2.59081 5.97867 2.50866 6.04787 2.43946C6.11707 2.37027 6.19922 2.31537 6.28963 2.27793C6.38004 2.24048 6.47694 2.2212 6.5748 2.2212C6.67266 2.2212 6.76957 2.24048 6.85998 2.27793C6.95039 2.31537 7.03254 2.37027 7.10174 2.43946C7.17094 2.50866 7.22583 2.59081 7.26328 2.68122C7.30073 2.77164 7.32 2.86854 7.32 2.9664C7.31969 3.16534 7.24085 3.35612 7.10063 3.49724C6.96041 3.63836 6.77014 3.71842 6.5712 3.72Z" />
</svg>
