<svg viewBox="0 0 20 20" fill="none" xmlns="http://www.w3.org/2000/svg">
	<path d="M11.1025 5.1984C11.1025 5.80747 10.6089 6.30111 9.9998 6.30111C9.39087 6.30111 8.89709 5.80747 8.89709 5.1984C8.89709 4.58948 9.39087 4.0957 9.9998 4.0957C10.6089 4.0957 11.1025 4.58948 11.1025 5.1984Z" />
	<path d="M11.1025 13.3485V8.72837C11.1025 7.58644 9.0839 7.22959 7.61369 9.12868C7.1285 9.76309 6.80754 10.5076 6.67944 11.2958C7.74386 9.92512 8.89714 9.02714 8.89714 10.3432V14.9635C8.89714 16.1055 10.9158 16.4623 12.386 14.5632L12.3862 14.563C12.8714 13.9288 13.1923 13.1843 13.3204 12.3959C12.2558 13.7668 11.1025 14.6646 11.1025 13.3485L11.1025 13.3485Z" />
	<path d="M9.99977 0C7.34765 0 4.80393 1.05357 2.92887 2.92887C1.05381 4.80416 0 7.34774 0 9.99976C0 12.652 1.05357 15.1956 2.92887 17.0711C4.80416 18.9464 7.34774 20 9.99977 20C12.652 20 15.1956 18.9464 17.0711 17.0711C18.9464 15.1956 20 12.6523 20 9.99976C20 8.24455 19.5379 6.52011 18.6603 5.00007C17.7825 3.47984 16.5202 2.21746 15.0001 1.33985C13.4798 0.462243 11.7554 0.000141051 9.99991 0.000141051L9.99977 0ZM9.99977 18.4442C7.76025 18.4442 5.61242 17.5547 4.02875 15.971C2.44509 14.3873 1.55537 12.2395 1.55537 10C1.55537 7.76048 2.44509 5.61266 4.02875 4.02899C5.61242 2.44532 7.76025 1.55561 9.99977 1.55561C12.2394 1.55561 14.3873 2.44532 15.9708 4.02899C17.5543 5.61266 18.444 7.76048 18.444 10C18.4416 12.239 17.551 14.3853 15.9678 15.9682C14.3849 17.5513 12.2385 18.442 9.99963 18.4443L9.99977 18.4442Z" />
</svg>
