<svg viewBox="0 0 16 16" fill="none" xmlns="http://www.w3.org/2000/svg">
	<path d="M11.2419 0L11.8521 0.159489L11.8583 0.696961C11.9815 0.773682 12.0986 0.85645 12.2035 0.950907L12.752 0.815064L13.0663 1.34071L12.6779 1.73063C12.7088 1.86648 12.7273 1.99641 12.7335 2.13815L13.2204 2.42758L13.054 3.00641L12.487 3.01232C12.4131 3.13043 12.3205 3.24853 12.222 3.34312L12.3637 3.86877L11.8152 4.17001L11.4023 3.79797C11.2668 3.83344 11.125 3.84527 10.9771 3.84527L10.6813 4.31192L10.0649 4.15835L10.0588 3.61496C9.92934 3.54415 9.81844 3.45547 9.71973 3.36101L9.16506 3.49686L8.85072 2.97712L9.24511 2.58143C9.20809 2.45109 9.18959 2.30933 9.18959 2.16757L8.69648 1.88998L8.8629 1.30523L9.42991 1.29932C9.51011 1.18121 9.59633 1.06902 9.69504 0.974564L9.55946 0.443004L10.108 0.14176L10.5147 0.519715C10.6564 0.490154 10.7982 0.466643 10.9461 0.466643L11.2419 0ZM10.9584 1.1577C10.3853 1.1577 9.91686 1.61252 9.91686 2.15587C9.91686 2.69922 10.3853 3.15405 10.9584 3.15405C11.5316 3.15405 12 2.69922 12 2.15587C12 1.61252 11.5316 1.1577 10.9584 1.1577ZM7.30369 1.7247C7.6734 1.7247 8.02478 1.76017 8.35761 1.81916C8.32676 1.955 8.39462 2.10266 8.51786 2.17937L8.86922 2.38025C8.87539 2.40981 8.87539 2.43937 8.88156 2.46879L8.59806 2.74048C8.49333 2.84676 8.46865 3.01807 8.54254 3.14208L8.86305 3.66182C8.93694 3.78583 9.10336 3.85087 9.2451 3.8154L9.64565 3.72094C9.67033 3.74459 9.69501 3.76232 9.71954 3.78006V4.16393C9.71954 4.30568 9.83661 4.44153 9.97836 4.477L10.5947 4.63649C10.7364 4.67196 10.9029 4.60693 10.9829 4.48291L11.1864 4.1521C11.2172 4.1521 11.2542 4.14619 11.2849 4.14028L11.5807 4.41196C11.6855 4.51233 11.8642 4.53007 11.9936 4.45926L12.006 4.44744C12.1107 4.65423 12.2033 4.86087 12.2771 5.07358L12.1724 5.1327C12.043 5.2035 11.969 5.363 12.006 5.49883L12.1045 5.87678C12.086 5.90043 12.0614 5.92408 12.0429 5.94759L11.6423 5.9535C11.4944 5.9535 11.3465 6.05978 11.3095 6.20154L11.143 6.78037C11.0998 6.92212 11.1677 7.08161 11.3033 7.15832L11.6546 7.3592C11.6546 7.38876 11.6608 7.41832 11.667 7.44774L11.3835 7.71943C11.2787 7.82571 11.2541 7.99702 11.328 8.12104L11.6423 8.64077C11.7162 8.76478 11.8826 8.82982 12.0305 8.79435L12.1044 8.77661C11.6483 9.86926 10.8779 10.6194 10.1076 11.3753C10.1446 13.2123 10.4773 14.4999 11.1307 16H4.51152C4.68411 14.9782 4.73332 14.1749 4.44983 13.2004C3.82732 13.1767 2.43452 13.5076 1.56553 13.3421C1.39294 12.8461 1.22034 12.1844 1.22034 11.6825V11.3517L0.868988 11.1863C0.825803 10.5248 0.85048 10.4243 0.868988 9.85728C0.696395 9.85728 0.172586 9.85728 0 9.69188C0.173023 9.03083 0.850918 8.07387 1.39325 7.371C0.850918 3.42566 3.30384 1.72455 7.30391 1.72455L7.30369 1.7247ZM8.16651 3.82735C8.0371 3.81553 7.90769 3.88056 7.846 3.98684L7.52563 4.49475C7.43324 4.50066 7.34687 4.5184 7.25447 4.53022L6.81072 4.11679C6.69982 4.01641 6.52106 3.99868 6.39165 4.06949L5.63972 4.48292C5.51031 4.55373 5.43628 4.71322 5.4733 4.85496L5.62738 5.42788C5.57186 5.49292 5.51031 5.55781 5.46096 5.62876L4.8508 5.63467C4.69671 5.64058 4.55496 5.74095 4.51795 5.8827L4.2838 6.69183C4.24062 6.82768 4.30848 6.98717 4.44406 7.06388L4.98022 7.37104C4.98639 7.45367 4.99873 7.53644 5.01723 7.61907L4.57965 8.05025C4.47492 8.15062 4.45641 8.32193 4.5303 8.44003L4.96171 9.16655C5.03559 9.28466 5.20202 9.3556 5.34992 9.32013L5.96009 9.16655C6.02795 9.21976 6.09567 9.27283 6.16353 9.32013L6.1697 9.92261C6.1697 10.0644 6.2806 10.2002 6.42235 10.2357L7.27899 10.4542C7.42691 10.4896 7.58717 10.4246 7.66721 10.3006L7.98155 9.78675C8.06778 9.78084 8.16032 9.77493 8.24654 9.7631L8.70263 10.1706C8.80736 10.2651 8.98613 10.2887 9.11553 10.2179L9.86746 9.80449C9.99687 9.72777 10.0647 9.57419 10.0277 9.43245L9.87363 8.85953C9.93532 8.7945 9.98453 8.7296 10.0339 8.65866L10.6626 8.65274C10.8105 8.64683 10.9522 8.54055 10.9892 8.40471L11.211 7.59558C11.2542 7.45974 11.1864 7.30616 11.0631 7.22945L10.5208 6.92229C10.5146 6.83966 10.5085 6.75098 10.49 6.66834L10.9214 6.24308C11.0199 6.14271 11.0446 5.9714 10.9707 5.84739L10.5331 5.12678C10.4593 5.00276 10.2928 4.93773 10.1511 4.9732L9.55327 5.11495C9.47939 5.06175 9.41153 5.00867 9.3375 4.96137L9.32516 4.3648C9.32516 4.22305 9.21426 4.09312 9.07251 4.05174C8.752 3.9691 8.45 3.89225 8.1665 3.82735L8.16651 3.82735ZM8.30209 4.54205L8.63494 4.63059L8.64727 5.13258C8.65344 5.23886 8.71514 5.34515 8.8137 5.40427C8.96778 5.49281 9.1157 5.59924 9.23277 5.71143C9.31282 5.78815 9.44237 5.82362 9.55945 5.79997L10.0587 5.67596L10.2375 5.97129L9.8738 6.32559C9.79991 6.40822 9.7629 6.52646 9.78757 6.63275C9.83076 6.79815 9.85543 6.95764 9.85543 7.12306C9.85543 7.24116 9.9233 7.35336 10.0219 7.41248L10.4779 7.67234L10.3856 7.99132L9.86174 8.00314C9.73849 8.00314 9.62142 8.06818 9.55973 8.16854C9.47967 8.30439 9.3748 8.44023 9.25156 8.55241C9.16533 8.63505 9.12832 8.7592 9.15917 8.87139L9.29475 9.35579L8.99274 9.52119L8.60452 9.16689C8.5183 9.09608 8.39492 9.06061 8.27784 9.09017C8.12376 9.13155 7.95117 9.14929 7.76622 9.14929C7.64915 9.14929 7.53208 9.21433 7.47039 9.31469L7.2054 9.74587L6.86638 9.66323L6.86021 9.16715C6.86021 9.04905 6.79235 8.93685 6.68762 8.87773C6.53354 8.7951 6.39796 8.69459 6.28089 8.57649C6.19467 8.49385 6.06512 8.46429 5.94804 8.48794L5.43642 8.61196L5.26383 8.32845L5.63353 7.96823C5.71359 7.8856 5.74443 7.76145 5.71359 7.64925C5.6704 7.49567 5.64573 7.33027 5.64573 7.16486C5.64573 7.04675 5.57787 6.93456 5.47313 6.87544L5.02322 6.62149L5.11561 6.2966L5.63942 6.29068C5.7565 6.29068 5.8674 6.23156 5.92909 6.1371C6.03382 5.98352 6.13253 5.85359 6.2496 5.74141C6.33583 5.65877 6.36667 5.53462 6.33583 5.42243L6.21259 4.93803L6.51459 4.77263L6.8843 5.11526C6.97052 5.1979 7.10007 5.22746 7.21097 5.20381C7.39591 5.16242 7.56233 5.133 7.73479 5.133C7.85186 5.133 7.96893 5.06796 8.03063 4.97351L8.30209 4.54205ZM14.0214 4.97913L14.6316 5.13862L14.6439 5.6761C14.7671 5.75282 14.8842 5.83559 14.9891 5.93004L15.5376 5.80011L15.8519 6.31985L15.4575 6.70963C15.4946 6.84547 15.5131 6.98131 15.5131 7.11715L16 7.40657L15.8397 7.9854L15.2666 7.99131C15.1987 8.10942 15.1063 8.22752 15.0016 8.32212L15.1434 8.84776L14.601 9.14901L14.1881 8.77697C14.0464 8.81244 13.9046 8.82427 13.7567 8.82427L13.4671 9.29092L12.8507 9.13734L12.8446 8.59395C12.7152 8.52315 12.6042 8.43447 12.4994 8.34001L11.9509 8.47585L11.6304 7.95612L12.0309 7.56042C11.9939 7.43049 11.9754 7.28874 11.9754 7.14699L11.4823 6.86939L11.6487 6.28465L12.2157 6.27874C12.2958 6.16063 12.376 6.04844 12.4807 5.95384L12.3451 5.42228L12.8875 5.12104L13.2942 5.499C13.4359 5.46943 13.5838 5.44579 13.7318 5.44579L14.0214 4.97913ZM7.74749 5.48113C6.79227 5.48113 6.00952 6.22539 6.00952 7.14078C6.00952 8.05621 6.79227 8.80043 7.74749 8.80043C8.70272 8.80043 9.48547 8.05617 9.48547 7.14078C9.48547 6.22535 8.70272 5.48113 7.74749 5.48113ZM13.7441 6.1426C13.171 6.1426 12.6964 6.59152 12.6964 7.13487C12.6964 7.68413 13.171 8.13305 13.7441 8.13305C14.3111 8.13305 14.7857 7.68413 14.7857 7.13487C14.7857 6.59148 14.3111 6.1426 13.7441 6.1426Z" />
</svg>
