<svg viewBox="0 0 18 16" fill="none" xmlns="http://www.w3.org/2000/svg">
	<path d="M16.4579 4.2669L9.67726 0.201649C9.45781 0.0696796 9.20656 0 8.95046 0C8.69436 0 8.44309 0.0696796 8.22367 0.201649L1.44915 4.2669C1.02383 4.52224 0.763672 4.98195 0.763672 5.47798C0.763672 5.974 1.02384 6.43357 1.44915 6.6889L8.22984 10.7549H8.22969C8.44914 10.8873 8.70039 10.9572 8.95664 10.9572C9.21274 10.9572 9.46402 10.8873 9.68344 10.7549L16.4641 6.68813H16.464C16.8896 6.43294 17.1501 5.97307 17.1501 5.47674C17.1501 4.98052 16.8896 4.52068 16.464 4.26535L16.4579 4.2669Z" />
	<path d="M16.458 9.31073L15.3761 8.66312L10.2715 11.7335V11.7334C9.87335 11.9727 9.41771 12.0991 8.95331 12.0991C8.48891 12.0991 8.03331 11.9727 7.63528 11.7334L2.52293 8.66309L1.44864 9.31069H1.4488C1.0232 9.56588 0.762695 10.0257 0.762695 10.5219C0.762695 11.0183 1.02316 11.4781 1.4488 11.7333L8.22948 15.8017L8.22933 15.8018C8.44863 15.9314 8.69852 15.9998 8.95312 15.9998C9.20785 15.9998 9.45775 15.9314 9.6769 15.8018L16.4576 11.7335V11.7333C16.8828 11.4778 17.1429 11.0181 17.1429 10.5219C17.1429 10.0259 16.8828 9.56617 16.4576 9.31069L16.458 9.31073Z" />
</svg>
