<svg height='300px' width='300px'  fill="#e6e6e7" xmlns="http://www.w3.org/2000/svg" xmlns:xlink="http://www.w3.org/1999/xlink" xmlns:serif="http://www.serif.com/" viewBox="0 0 101 101" version="1.1" xml:space="preserve" style="" x="0px" y="0px" fill-rule="evenodd" clip-rule="evenodd" stroke-linejoin="round" stroke-miterlimit="2"><path d="M90.472,62.226l6.992,3.857c1.244,0.686 2.016,1.994 2.016,3.415c0,1.42 -0.772,2.729 -2.016,3.415l-45.08,24.87c-1.173,0.647 -2.595,0.647 -3.768,-0l-45.08,-24.87c-1.244,-0.686 -2.016,-1.995 -2.016,-3.415c0,-1.421 0.772,-2.729 2.016,-3.415l6.992,-3.857l36.204,19.974c2.345,1.293 5.191,1.293 7.536,-0l36.204,-19.974Zm0.001,-18.998l6.991,3.857c1.244,0.686 2.016,1.995 2.016,3.415c-0,1.421 -0.772,2.729 -2.016,3.415l-45.08,24.87c-1.173,0.647 -2.595,0.647 -3.768,-0l-45.08,-24.87c-1.244,-0.686 -2.016,-1.994 -2.016,-3.415c-0,-1.42 0.772,-2.729 2.016,-3.415l6.991,-3.857l36.205,19.974c2.345,1.293 5.191,1.293 7.536,-0l36.205,-19.974Zm-38.089,-40.011c-1.173,-0.647 -2.595,-0.647 -3.768,0l-45.08,24.87c-1.244,0.686 -2.016,1.995 -2.016,3.415c0,1.42 0.772,2.729 2.016,3.415l45.08,24.87c1.173,0.647 2.595,0.647 3.768,-0l45.08,-24.87c1.244,-0.686 2.016,-1.995 2.016,-3.415c0,-1.42 -0.772,-2.729 -2.016,-3.415l-45.08,-24.87Z"></path></svg>