<svg width="100%" height="100" viewBox="0 0 18 32" fill="none" xmlns="http://www.w3.org/2000/svg">
	<path d="M17.998 9.43143C17.998 4.23298 13.9777 0.0180703 9.01481 0.00129073V0C9.01018 0 9.00494 0.000645371 8.9997 0.000645371C8.99508 0.000645371 8.98983 0 8.98521 0V0.00129073C4.02203 0.0180703 0.00197461 4.23298 0.00197461 9.43143C0.00197461 9.43143 -0.0926767 11.779 1.02865 14.211C1.86417 16.0252 2.92445 17.2378 4.01309 18.8874C5.69153 21.4301 6.48882 22.7654 7.32558 25.2268C7.92 26.9735 8.49037 29.0348 8.99939 32C9.50903 29.0348 10.0797 26.9735 10.6741 25.2268C11.5118 22.7651 12.3091 21.4298 13.9866 18.8874C15.0753 17.2381 16.1349 16.0252 16.9714 14.211C18.0924 11.779 17.998 9.43143 17.998 9.43143ZM8.99353 12.8438C7.15261 12.8438 5.66101 11.2823 5.66101 9.35528C5.66101 7.42917 7.15231 5.86834 8.99353 5.86834C10.8351 5.86834 12.3264 7.42917 12.3264 9.35528C12.3264 11.282 10.8351 12.8438 8.99353 12.8438Z" fill="#6495ED" />
</svg>
