<svg viewBox="0 0 12 16" fill="none" xmlns="http://www.w3.org/2000/svg">
	<path fill-rule="evenodd" clip-rule="evenodd" d="M7.58667 4.97808C7.29483 4.97808 7.05859 4.7398 7.05859 4.44609V0.000458228H0.646839C0.289645 0.000458228 0 0.291817 0 0.652532V15.3479C0 15.7081 0.290677 16 0.649335 16H11.3504C11.709 16 11.9999 15.7061 11.9999 15.3462V4.97815L7.58667 4.97808ZM8.98387 7.18813C9.12069 7.05044 9.34208 7.0503 9.47834 7.1874L9.98298 7.69578C10.1192 7.83317 10.12 8.05517 9.98226 8.19391L9.73467 8.44333L8.73629 7.43757L8.98387 7.18813ZM5.17117 11.029L6.1694 12.0346L4.97774 12.4807C4.75868 12.5627 4.64762 12.4487 4.7284 12.2295L5.17117 11.029ZM8.4392 7.73667L9.43757 8.74243L6.46664 11.7353L5.46827 10.7296L8.4392 7.73667ZM1.76475 12.7998H4.23529V13.5108H1.76475V12.7998ZM12 4.26666H8.11874C7.92326 4.26666 7.7649 4.10727 7.7649 3.91034V0L12 4.26666Z" />
</svg>
