<svg viewBox="0 0 18 16" fill="none" xmlns="http://www.w3.org/2000/svg">
	<path fill-rule="evenodd" clip-rule="evenodd" d="M7.94732 15.3854C6.85483 15.335 5.81776 15.092 4.87455 14.6935C4.72093 13.8246 4.59715 12.9308 4.50356 12.0217H7.58595C7.60914 12.1108 7.64239 12.1984 7.68541 12.2827C7.75138 12.4118 7.83868 12.5318 7.94721 12.637V15.3854H7.94732ZM10.1997 5.08414C9.33928 4.36613 7.98241 5.73743 8.84266 6.45555L10.4158 7.76863C9.75619 7.91964 9.21976 8.74926 9.76526 9.28103C9.31163 9.38297 8.85866 9.87964 8.88009 10.2921C8.88826 10.4488 8.94693 10.6034 9.05483 10.7331C8.59698 10.8283 8.13505 11.3304 8.15664 11.747C8.16704 11.9485 8.26095 12.1464 8.43553 12.2921C9.85306 13.4752 10.6736 14.2577 12.5753 15.0295C13.2897 15.3196 13.8405 15.4182 14.4194 16L18 12.3814C17.1454 11.8981 16.6971 11.1219 16.3192 10.2942C16.0279 9.65597 15.7305 8.96647 15.6378 8.07453C15.6115 7.82237 15.6549 7.23194 15.6404 7.08628C15.9461 5.99983 15.149 5.79903 14.5004 6.39086C14.0157 6.83322 13.7802 7.24415 13.6928 8.00269L10.1997 5.08414ZM3.92951 14.2243C2.9423 13.6563 2.0931 12.9048 1.43847 12.0217H3.6433C3.71882 12.7671 3.81417 13.5031 3.92951 14.2243ZM0.92695 11.2347C0.389877 10.2839 0.0620045 9.21723 0 8.08627H3.42902C3.43845 9.14151 3.48581 10.1955 3.57114 11.2347H0.92695ZM0.000125134 7.29915C0.0621296 6.16819 0.390002 5.10167 0.927072 4.15078H3.57126C3.48593 5.18993 3.43856 6.2438 3.42914 7.29915H0.000125134ZM1.43847 3.36376C2.09298 2.48062 2.9423 1.72937 3.92951 1.16127C3.81433 1.88256 3.71894 2.61831 3.6433 3.36376H1.43847ZM4.87455 0.692024C5.81764 0.293395 6.85483 0.0505689 7.94732 0V3.36376H4.50356C4.59715 2.45465 4.72081 1.56092 4.87455 0.692024ZM8.80422 0C9.89671 0.0505689 10.9339 0.293507 11.8769 0.692024C12.0307 1.56092 12.1544 2.45476 12.2481 3.36376H8.80422V0ZM12.822 1.16127C13.8092 1.72926 14.6585 2.48073 15.313 3.36376H13.1082C13.0326 2.61831 12.9372 1.88245 12.822 1.16127ZM15.8244 4.15089C16.3617 5.10167 16.6895 6.16819 16.7515 7.29926H16.2508C16.2521 7.24254 16.2528 7.19016 16.252 7.14404C16.3542 6.73071 16.3297 6.39402 16.2202 6.1396C16.1191 5.90453 15.9502 5.73287 15.7354 5.62446C15.5276 5.51968 15.2906 5.48358 15.0432 5.51487C14.7204 5.55567 14.3739 5.71703 14.0705 5.99405C13.7584 6.27879 13.5115 6.57765 13.3413 6.95165L13.3177 6.93186C13.3016 5.99951 13.2559 5.06945 13.1805 4.151H15.8244V4.15089ZM16.7515 8.08627C16.728 8.51578 16.6661 8.93605 16.5689 9.34425C16.5401 9.26849 16.5124 9.19209 16.4865 9.11497C16.3807 8.80073 16.2954 8.46225 16.2513 8.08627H16.7515ZM11.1088 14.9768C10.3807 15.2072 9.60753 15.3483 8.80433 15.3854V13.3589C9.5527 13.9835 10.2078 14.4963 11.1088 14.9768ZM4.28615 7.29915H7.94732V4.15089H4.43027C4.34368 5.18903 4.29569 6.24301 4.28615 7.29915ZM12.4416 6.19973L10.6102 4.66955C10.075 4.22277 9.43975 4.23868 8.91505 4.4995C8.87751 4.51832 8.84043 4.53822 8.80422 4.55952V4.15078H12.3214C12.3778 4.82832 12.4179 5.5125 12.4416 6.19973ZM7.94732 8.08627H4.28615C4.29569 9.14241 4.34368 10.1965 4.43027 11.2347H7.65146C7.72162 11.0696 7.8237 10.9123 7.94721 10.7728V10.7727V8.08627H7.94732Z" />
</svg>
