<svg viewBox="0 0 17 16" fill="none" xmlns="http://www.w3.org/2000/svg">
	<path fill-rule="evenodd" clip-rule="evenodd" d="M4.60368 14.6937C5.49452 15.0922 6.47394 15.3352 7.50577 15.3856L7.50558 12.6371C7.40308 12.5319 7.32054 12.4119 7.25828 12.2828C7.21756 12.1985 7.18619 12.111 7.16433 12.0218H4.25324C4.34164 12.931 4.45856 13.8247 4.60368 14.6937ZM1.35851 12.0218C1.97669 12.905 2.77883 13.6564 3.71117 14.2244C3.60233 13.5033 3.51219 12.7674 3.44089 12.0218H1.35851ZM0 8.08646C0.0586055 9.21749 0.368181 10.2841 0.875473 11.2349H3.37278C3.2923 10.1957 3.24747 9.14168 3.23859 8.08646H0ZM0.875635 4.15092C0.368347 5.10182 0.0587798 6.16829 0.000162141 7.29932H3.23873C3.24761 6.24394 3.29228 5.19013 3.37292 4.15092H0.875635ZM3.71117 1.16136C2.77883 1.72956 1.97669 2.4808 1.35851 3.36394H3.44089C3.51235 2.61838 3.60233 1.88271 3.71117 1.16136ZM7.50585 0C6.47398 0.0506826 5.49444 0.293525 4.60376 0.692083C4.45848 1.56102 4.34175 2.45477 4.25334 3.36394L7.50585 3.36379V0ZM11.2172 0.692241C10.3265 0.293659 9.34691 0.0506904 8.31509 0.00015768L8.31511 3.36394H11.5678C11.4792 2.45493 11.3625 1.56118 11.2172 0.692241ZM14.4624 3.36394C13.8442 2.4808 13.0421 1.7294 12.1097 1.16136C12.2186 1.88255 12.3086 2.61842 12.38 3.36394H14.4624ZM15.8209 7.29948C15.7623 6.16845 15.4526 5.10182 14.9453 4.15108L12.4482 4.15121C12.5195 5.06961 12.5626 5.99973 12.5778 6.93201L12.6001 6.95188C12.7607 6.57782 12.9939 6.27892 13.2888 5.9942C13.5754 5.7172 13.9027 5.55589 14.2075 5.51506C14.441 5.48379 14.6649 5.51984 14.8612 5.6246C15.0641 5.73307 15.2236 5.90468 15.319 6.13979C15.4225 6.39415 15.4456 6.73083 15.3491 7.14417C15.3499 7.1904 15.3493 7.24278 15.348 7.29948H15.8209ZM15.6484 9.34445C15.7403 8.93631 15.7987 8.51602 15.8209 8.08646L15.3485 8.08648C15.3901 8.46239 15.4706 8.80089 15.5706 9.11519C15.5951 9.19223 15.6211 9.26865 15.6484 9.34445ZM8.31533 15.3855C9.07388 15.3484 9.80408 15.2073 10.4916 14.9769C9.64091 14.4964 9.02209 13.9836 8.31533 13.359V15.3855ZM7.50573 7.2992H4.04788C4.05691 6.24307 4.10224 5.18907 4.18399 4.15096H7.50573V7.2992ZM10.0206 4.66954L11.7501 6.19976C11.7278 5.51245 11.6899 4.82841 11.6365 4.1508H8.31477V4.55954C8.34898 4.53812 8.384 4.51825 8.41949 4.49945C8.91506 4.2386 9.51502 4.22275 10.0206 4.66954ZM4.04755 8.08634H7.5054L7.50525 10.7728C7.38865 10.9124 7.29216 11.0697 7.22594 11.2347H4.18364C4.10189 10.1966 4.05658 9.14247 4.04755 8.08634Z" />
	<path d="M9.63296 5.08419C8.8204 4.36624 7.53886 5.73743 8.35127 6.45558L9.83701 7.76871C9.21409 7.9197 8.7074 8.74935 9.22265 9.28107C8.79428 9.38306 8.36636 9.87963 8.38663 10.2921C8.3944 10.4488 8.44969 10.6034 8.55172 10.733C8.11937 10.8283 7.68306 11.3304 7.7035 11.747C7.71332 11.9485 7.80204 12.1465 7.96696 12.292C9.30568 13.4751 10.0807 14.2578 11.8766 15.0295C12.5515 15.3197 13.0716 15.4183 13.6182 16L17 12.3814C16.1928 11.8981 15.7695 11.1219 15.4125 10.2942C15.1375 9.65588 14.8565 8.96644 14.769 8.07454C14.7441 7.82233 14.7852 7.23195 14.7716 7.08633C15.0602 5.99983 14.3074 5.79907 13.6949 6.39086C13.237 6.8332 13.0146 7.2441 12.932 8.00272L9.63296 5.08419Z" />
</svg>
