<svg viewBox="0 0 16 16" fill="none" xmlns="http://www.w3.org/2000/svg">
	<path d="M14.7005 9.22476C14.5566 9.22476 14.4388 9.11089 14.4388 8.97154C14.4388 8.02717 12.8508 7.97905 12.351 8.87535C12.0528 9.40447 11.6263 9.60954 11.077 9.73359C11.1032 9.89561 11.1162 10.0627 11.1162 10.2324C11.1162 10.7413 10.9906 11.2249 10.7655 11.6527H15.7153V9.22476H14.7005ZM13.675 10.2324H13.1519V9.66533H13.675V10.2324ZM14.1826 6.29036C14.0753 6.29036 13.9785 6.22959 13.9392 6.13344C13.9183 6.08529 13.4134 4.95119 11.9823 5.1309C11.8933 5.14111 11.807 5.11065 11.7495 5.04734C11.692 4.98403 11.671 4.8954 11.6946 4.81437C11.7129 4.75107 12.1054 3.24719 10.7712 2.72064C10.6744 2.68269 10.609 2.58893 10.609 2.48767L10.6089 1.50537H3.98485V1.56103C3.98485 1.93065 4.16791 2.2877 4.47409 2.51049C5.98624 3.61175 5.67234 4.2676 6.69003 5.40423C7.29688 6.09039 7.23164 6.82458 6.792 7.26515C7.12686 7.15128 7.49054 7.08797 7.8672 7.08797C9.29567 7.08797 10.5122 7.98672 10.9464 9.22986C11.1687 9.17676 11.3755 9.12351 11.4357 9.09066C11.6266 8.9792 11.7863 8.82228 11.8909 8.63234C12.5764 7.40704 14.6562 7.41966 14.9362 8.71846H15.7158V6.29048L14.1826 6.29036ZM5.52837 4.61697L5.44728 4.44984C4.64411 2.80676 3.46168 2.92571 3.46168 1.56117L3.46153 1.50537H2.83623V9.22956C2.83623 9.36876 2.71856 9.48278 2.57456 9.48278H1.13849C0.521079 9.48278 0.0187988 9.96882 0.0187988 10.5663C0.0187988 11.1664 0.521043 11.6524 1.13849 11.6524H4.96843C4.74352 11.2246 4.61779 10.741 4.61779 10.2321C4.61779 9.54594 4.84535 8.91303 5.22995 8.39653C5.30065 7.7357 5.47846 7.3079 6.09063 7.1079C6.19789 7.06995 6.29462 7.03952 6.3444 6.98639C7.12408 6.19656 6.07496 5.74847 5.52822 4.61679L5.52837 4.61697ZM2.6401 10.5186H2.11691V9.94898H2.6401V10.5186ZM3.98488 4.17392H3.46168V3.60686H3.98488V4.17392ZM4.55252 10.8804H4.02935V10.3134H4.55252V10.8804ZM4.78008 6.51312H4.25691V5.94349H4.78008V6.51312Z" fill="#5173D8" />
	<path d="M11.1323 1.50541V2.3234C12.1932 2.83282 12.3546 3.89344 12.2665 4.60607C13.2127 4.60607 13.9706 5.10473 14.3469 5.78494H15.7155V1.50537L11.1323 1.50541ZM14.0359 2.9277H13.5128V2.35994H14.0359V2.9277Z" fill="#FF9755" />
	<path d="M1.13839 8.97537H2.31266L2.31251 0.0634766H1.59047C0.723252 0.0634766 0.0175781 0.746381 0.0175781 1.58591V9.40363C0.30456 9.14431 0.705381 8.9755 1.13843 8.9755L1.13839 8.97537Z" fill="#466FD8" />
	<path d="M7.86621 12.87C7.64185 12.87 7.42014 12.8437 7.20707 12.7922C5.99049 12.4991 5.14038 11.4464 5.14038 10.2321C5.14038 8.77766 6.36311 7.59424 7.86621 7.59424C9.36915 7.59424 10.592 8.77751 10.592 10.2321C10.592 11.4479 9.74132 12.5006 8.52287 12.7924C8.31228 12.8437 8.09102 12.87 7.86624 12.87H7.86621ZM7.86621 8.39025C6.81661 8.39025 5.96299 9.21649 5.96299 10.2321C5.96299 11.08 6.55641 11.8151 7.4061 12.0198C7.70376 12.0919 8.03116 12.0917 8.32384 12.0199C9.17528 11.8161 9.76942 11.0811 9.76942 10.2322C9.76942 9.21649 8.91566 8.39025 7.86621 8.39025Z" fill="#466FD8" />
	<path d="M8.84034 14.7694C8.86917 15.3213 8.40876 15.7619 7.86715 15.7619C7.32813 15.7619 6.88867 15.3366 6.88867 14.8176L6.89133 14.7847L6.97239 13.2555C7.00635 13.2655 7.04309 13.2757 7.07968 13.2834C7.33607 13.3441 7.60034 13.377 7.86715 13.377C8.13395 13.377 8.39826 13.3441 8.64937 13.2834C8.68595 13.2733 8.72269 13.2657 8.75928 13.2529L8.84034 14.7694Z" fill="#466FD8" />
</svg>
