<svg viewBox="0 0 13 21" fill="none" xmlns="http://www.w3.org/2000/svg">
	<path d="M12.6292 6.22528C12.6292 2.84218 9.89076 0.0991623 6.51039 0.0882423V0.0874023C6.50724 0.0874023 6.50367 0.0878223 6.5001 0.0878223C6.49695 0.0878223 6.49338 0.0874023 6.49023 0.0874023V0.0882423C3.10965 0.0991623 0.371462 2.84218 0.371462 6.22528C0.371462 6.22528 0.306992 7.75303 1.07076 9.3358C1.63986 10.5164 2.36205 11.3056 3.10356 12.3791C4.2468 14.0339 4.78986 14.9029 5.3598 16.5048C5.76468 17.6415 6.15318 18.983 6.49989 20.9127C6.84702 18.983 7.23573 17.6415 7.64061 16.5048C8.21118 14.9027 8.75424 14.0337 9.89685 12.3791C10.6384 11.3058 11.3601 10.5164 11.9299 9.3358C12.6934 7.75303 12.6292 6.22528 12.6292 6.22528ZM6.4959 8.44603C5.24199 8.44603 4.22601 7.42984 4.22601 6.17572C4.22601 4.92223 5.24178 3.90646 6.4959 3.90646C7.75023 3.90646 8.766 4.92223 8.766 6.17572C8.766 7.42963 7.75023 8.44603 6.4959 8.44603Z" fill="#707070" />
</svg>
