<svg height="300px" width="300px" fill="#435ec8" xmlns="http://www.w3.org/2000/svg" version="1.1" viewBox="0 0 1024 1024" x="0px" y="0px">
	<title>
		levels-1
	</title>
	<path d="M95.2 222.5h565.4c8.2 30.6 25.6 58.3 49.8 79.1 28.3 24.3 64.4 37.6 101.7 37.6 86.5 0 156.9-70.4 156.9-156.9 0-86.7-70.3-157.3-156.7-157.3-37.3 0-73.4 13.3-101.7 37.6-24.3 20.8-41.7 48.5-49.9 79.1h-565.5c-22.3 0-40.4 18.1-40.4 40.4 0 22.2 18.1 40.4 40.4 40.4zM736 181.9c0-42.1 34.2-76.3 76.3-76.3s76.3 34.2 76.3 76.3c0 42.1-34.2 76.3-76.3 76.3s-76.3-34.3-76.3-76.3z">
	</path>
	<path d="M812.3 684.8c-37.3 0-73.4 13.3-101.7 37.6-24.3 20.8-41.7 48.5-49.9 79.1h-565.5c-22.3 0-40.4 18.1-40.4 40.4s18.1 40.4 40.4 40.4h565.4c8.2 30.6 25.6 58.3 49.8 79.1 28.3 24.3 64.4 37.6 101.7 37.6 86.5 0 156.9-70.4 156.9-156.9 0-86.7-70.3-157.3-156.7-157.3zM888.6 841.8c0 42.1-34.2 76.3-76.3 76.3s-76.3-34.3-76.3-76.3c0-42.1 34.2-76.3 76.3-76.3s76.3 34.2 76.3 76.3z">
	</path>
	<path d="M313.6 391.2c-28.3-24.3-64.4-37.6-101.7-37.6-86.5-0.1-156.9 70.3-156.9 156.9 0 86.5 70.4 156.9 156.9 156.9 37.3 0 73.4-13.3 101.7-37.6 24.3-20.8 41.7-48.5 49.9-79.1h565.4c22.3 0 40.4-18.1 40.4-40.4 0-22.1-18-40-40.2-40h-565.7c-8.2-30.6-25.6-58.3-49.8-79.1zM288.2 510.7c0 42.1-34.2 76.3-76.3 76.3s-76.3-34.2-76.3-76.3c0-42.1 34.2-76.3 76.3-76.3s76.3 34.2 76.3 76.3z">
	</path>
</svg>
