<svg viewBox="0 0 17 11" fill="none" xmlns="http://www.w3.org/2000/svg">
	<path d="M8.94303 5.8198C8.932 5.82715 8.92059 5.83398 8.90891 5.84027L8.89985 5.845V5.84487C8.88752 5.8513 8.87466 5.85707 8.86167 5.86206C8.84802 5.86718 8.83411 5.87151 8.82007 5.87505H8.81666C8.80262 5.87846 8.78831 5.88109 8.77401 5.88279C8.77217 5.88279 8.77033 5.89093 8.76837 5.89119H8.7685C8.75367 5.89605 8.73858 5.90011 8.72335 5.90339C8.70918 5.90064 8.69501 5.89723 8.6811 5.89303C8.67926 5.89303 8.67742 5.8887 8.67585 5.8887C8.66168 5.88633 8.64777 5.88305 8.63386 5.87912C8.63386 5.87912 8.63136 5.87754 8.62979 5.87728H8.62992C8.61575 5.87361 8.60184 5.86914 8.58819 5.8639C8.57546 5.85891 8.56286 5.8534 8.55066 5.8471L8.5416 5.84237C8.53071 5.83647 8.51956 5.8303 8.5105 5.82308H8.50867L8.50617 5.82151L0.965002 0.797869C0.836139 1.02712 0.768424 1.28575 0.768555 1.54886V9.45016C0.769736 9.86011 0.93285 10.253 1.22234 10.5431C1.51196 10.8334 1.90447 10.9974 2.31441 10.9994H15.1322C15.5421 10.9974 15.9348 10.8334 16.2243 10.5431C16.5139 10.253 16.677 9.86011 16.6782 9.45016V1.54886C16.6782 1.2498 16.5908 0.957172 16.4268 0.707031L8.94538 5.81835L8.94303 5.8198Z" />
	<path d="M15.8326 0.170986C15.6159 0.0590514 15.3759 0.000524066 15.1321 0H2.31431C2.03086 0.000393688 1.75306 0.0792617 1.51172 0.227807L8.72065 5.03006L15.8326 0.170986Z" />
</svg>
