<svg height='300px' width='300px'  fill="#e6e6e7" xmlns="http://www.w3.org/2000/svg" xmlns:xlink="http://www.w3.org/1999/xlink" version="1.1" x="0px" y="0px" viewBox="0 0 1024 1024" style="enable-background:new 0 0 1024 1024;" xml:space="preserve"><path d="M860,462c-6.2,0-12.4,0-18.6,0c-16.9,0-33.8,0-50.7,0c-24.9,0-49.7,0-74.6,0c-30.5,0-60.9,0-91.4,0  c-33.4,0-66.8,0-100.2,0c-33.7,0-67.4,0-101.1,0c-31.4,0-62.9,0-94.3,0c-26.4,0-52.9,0-79.3,0c-19.1,0-38.3,0-57.4,0  c-9.1,0-18.1-0.1-27.2,0c-0.4,0-0.8,0-1.2,0c-12.8,0-26.3,5.6-35.4,14.6c-8.7,8.7-15.2,22.9-14.6,35.4c0.6,12.9,4.8,26.3,14.6,35.4  c9.8,9,21.8,14.6,35.4,14.6c6.2,0,12.4,0,18.6,0c16.9,0,33.8,0,50.7,0c24.9,0,49.7,0,74.6,0c30.5,0,60.9,0,91.4,0  c33.4,0,66.8,0,100.2,0c33.7,0,67.4,0,101.1,0c31.4,0,62.9,0,94.3,0c26.4,0,52.9,0,79.3,0c19.1,0,38.3,0,57.4,0  c9.1,0,18.1,0.1,27.2,0c0.4,0,0.8,0,1.2,0c12.8,0,26.3-5.6,35.4-14.6c8.7-8.7,15.2-22.9,14.6-35.4c-0.6-12.9-4.8-26.3-14.6-35.4  C885.6,467.7,873.5,462,860,462L860,462z"></path></svg>