<svg viewBox="0 0 19 16" fill="none" xmlns="http://www.w3.org/2000/svg">
	<path d="M1.49998 16C0.948468 16 0.5 15.5519 0.5 15V0.999983C0.5 0.447928 0.948435 0 1.49998 0H7.99997C8.27646 0 8.50003 0.223565 8.50003 0.500059V1.50004C8.50003 1.77653 8.27647 2.0001 7.99997 2.0001L2.50003 1.99997V14.0002H14.5003L14.5002 8.49996C14.5002 8.22347 14.7237 7.9999 15.0002 7.9999H16.0002C16.2767 7.9999 16.5003 8.22347 16.5003 8.49996V15C16.5003 15.552 16.0518 15.9999 15.5003 15.9999L1.49998 16Z" />
	<path d="M15.998 0.000976562H10.9981C10.796 0.000976562 10.6131 0.121996 10.536 0.309533C10.4586 0.496012 10.5016 0.711006 10.6445 0.854594L12.4375 2.64759L7.43761 7.64751C7.24215 7.84296 7.24215 8.15905 7.43761 8.3545L8.1446 9.0615C8.34111 9.25695 8.65706 9.25695 8.85265 9.0615L13.8522 4.06158L15.6447 5.85458C15.7401 5.95 15.8681 6.00107 15.9981 6.00107C16.0627 6.00107 16.1276 5.98853 16.1896 5.96201C16.3766 5.88559 16.4982 5.70202 16.4982 5.501V0.501086C16.4982 0.223545 16.2746 0.00102708 15.9981 0.00102708L15.998 0.000976562Z" />
</svg>
