<svg width="33" height="32" viewBox="0 0 33 32" fill="none" xmlns="http://www.w3.org/2000/svg">
<path d="M32.0033 15.5653L32.0065 27.6855C32.0068 28.5892 31.6479 29.4566 31.0087 30.0958C30.3699 30.7353 29.5027 31.0946 28.599 31.0949L4.35962 31.1013C3.45552 31.1016 2.58848 30.7427 1.94893 30.1035C1.30977 29.4647 0.950461 28.5974 0.950221 27.6937L0.943777 3.45439C0.943537 2.55029 1.30239 1.68326 1.94121 1.04371C2.58043 0.404544 3.44727 0.0452327 4.35137 0.0449923L16.4705 0.0417706C17.0983 0.0416037 17.6071 0.550106 17.6073 1.17753C17.6075 1.80532 17.099 2.31414 16.4711 2.3143L4.35197 2.31753C3.72458 2.31769 3.21604 2.82647 3.21621 3.45389L3.22265 27.6932C3.22282 28.3206 3.73159 28.8292 4.35902 28.829L28.5984 28.8225C29.2258 28.8224 29.7343 28.3136 29.7341 27.6862L29.7309 15.566C29.7307 14.9386 30.2392 14.4298 30.8671 14.4296C31.4945 14.4295 32.0033 14.938 32.0034 15.5654L32.0033 15.5653Z" fill="black"/>
<path d="M31.9997 1.17369L32.0016 8.54407C32.0018 9.17146 31.4933 9.68027 30.8659 9.68043C30.2381 9.6806 29.7293 9.1721 29.7291 8.54467L29.7279 3.91659L17.2783 16.3728C16.831 16.7903 16.1332 16.7781 15.7004 16.3456C15.2677 15.9131 15.2551 15.2153 15.672 14.7673L28.1216 2.31114L23.4935 2.31237C22.8657 2.31253 22.3569 1.80403 22.3567 1.1762C22.3566 0.548803 22.8651 0.0399979 23.4929 0.039831L30.8633 0.0378717C31.006 0.0390333 31.1472 0.066987 31.2796 0.120934C31.5615 0.23642 31.7855 0.459889 31.9011 0.741765C31.9619 0.878101 31.9956 1.02484 31.9996 1.1736L31.9997 1.17369Z" fill="black"/>
</svg>
