<?xml version="1.0" encoding="UTF-8"?>
<svg version="1.1" viewBox="0 0 752 752" xmlns="http://www.w3.org/2000/svg">
	<g fill="#8c8c8c">
		<path d="m584.95 251.62-84.566-84.566h-0.003907c-1.5859-1.5859-3.7422-2.4727-5.9844-2.4688h-200.45c-7.3906 0.003907-14.48 2.9414-19.711 8.168-5.2266 5.2266-8.1719 12.312-8.1797 19.703v124.77c-37.137 2.8477-70.301 24.32-88.094 57.039-17.797 32.723-17.797 72.23 0 104.95 17.793 32.719 50.957 54.191 88.094 57.039v23.289c0.007812 7.3945 2.9531 14.48 8.1797 19.707 5.2305 5.2266 12.32 8.1641 19.711 8.168h265.54c7.3984 0.003906 14.496-2.9297 19.734-8.1562 5.2344-5.2266 8.1836-12.32 8.1914-19.719v-301.94c0.003906-2.2422-0.88281-4.3984-2.4688-5.9883zm-82.102-58.164 55.699 55.695h-55.699zm-321.36 233.29c0-24.672 9.8008-48.332 27.246-65.777 17.445-17.445 41.105-27.246 65.777-27.246s48.332 9.8008 65.777 27.246c17.445 17.445 27.246 41.105 27.246 65.777 0 24.672-9.8008 48.332-27.246 65.777-17.445 17.445-41.105 27.246-65.777 27.246-24.664-0.027344-48.309-9.8359-65.75-27.273-17.438-17.441-27.246-41.086-27.273-65.75zm378.04 143.77h-265.58c-6.0547 0-10.969-4.9023-10.977-10.961v-23.289c37.137-2.8477 70.301-24.32 88.094-57.039 17.797-32.723 17.797-72.23 0-104.95-17.793-32.719-50.957-54.191-88.094-57.039v-124.77c0.007813-6.0547 4.9219-10.957 10.977-10.957h191.99v76.109c0 2.2422 0.89062 4.3945 2.4766 5.9805 1.5859 1.5859 3.7344 2.4766 5.9805 2.4766h76.109v293.48c-0.007812 6.0586-4.9219 10.961-10.977 10.961z" />
		<path d="m452.11 257.61c0-2.2422-0.89062-4.3945-2.4766-5.9805-1.5859-1.5859-3.7383-2.4766-5.9805-2.4766h-118.39c-4.6719 0-8.457 3.7891-8.457 8.457 0 4.6719 3.7852 8.457 8.457 8.457h118.39c2.2422 0 4.3945-0.89062 5.9805-2.4766 1.5859-1.5859 2.4766-3.7383 2.4766-5.9805z" />
		<path d="m528.22 299.89h-118.39c-4.6719 0-8.457 3.7852-8.457 8.457 0 4.668 3.7852 8.457 8.457 8.457h118.39c4.6719 0 8.457-3.7891 8.457-8.457 0-4.6719-3.7852-8.457-8.457-8.457z" />
		<path d="m409.83 367.54h16.914c4.6719 0 8.457-3.7852 8.457-8.457 0-4.668-3.7852-8.4531-8.457-8.4531h-16.914c-4.6719 0-8.457 3.7852-8.457 8.4531 0 4.6719 3.7852 8.457 8.457 8.457z" />
		<path d="m528.22 350.63h-67.652c-4.6719 0-8.457 3.7852-8.457 8.4531 0 4.6719 3.7852 8.457 8.457 8.457h67.656-0.003906c4.6719 0 8.457-3.7852 8.457-8.457 0-4.668-3.7852-8.4531-8.457-8.4531z" />
		<path d="m528.22 401.37h-118.39c-4.6719 0-8.457 3.7852-8.457 8.457s3.7852 8.457 8.457 8.457h118.39c4.6719 0 8.457-3.7852 8.457-8.457s-3.7852-8.457-8.457-8.457z" />
		<path d="m528.22 452.11h-118.39c-4.6719 0-8.457 3.7852-8.457 8.457 0 4.668 3.7852 8.457 8.457 8.457h118.39c4.6719 0 8.457-3.7891 8.457-8.457 0-4.6719-3.7852-8.457-8.457-8.457z" />
		<path d="m477.48 502.85h-67.656c-4.6719 0-8.457 3.7891-8.457 8.457 0 4.6719 3.7852 8.457 8.457 8.457h67.656c4.668 0 8.457-3.7852 8.457-8.457 0-4.668-3.7891-8.457-8.457-8.457z" />
		<path d="m528.22 502.85h-16.914c-4.668 0-8.457 3.7891-8.457 8.457 0 4.6719 3.7891 8.457 8.457 8.457h16.914c4.6719 0 8.457-3.7852 8.457-8.457 0-4.668-3.7852-8.457-8.457-8.457z" />
		<path d="m302.36 466.56c3.3086 3.3047 8.668 3.3047 11.977 0 3.3047-3.3086 3.3047-8.668 0-11.977l-27.859-27.84 27.855-27.84h0.003907c3.3047-3.3086 3.3047-8.668 0-11.977-3.3086-3.3047-8.668-3.3047-11.977 0l-27.84 27.859-27.84-27.859c-3.3047-3.3047-8.668-3.3047-11.973 0-3.3086 3.3086-3.3086 8.668 0 11.977l27.855 27.84-27.855 27.84c-3.3086 3.3086-3.3086 8.668 0 11.977 3.3047 3.3047 8.668 3.3047 11.973 0l27.84-27.859z" />
	</g>
</svg>
