<svg viewBox="0 0 16 16" fill="none" xmlns="http://www.w3.org/2000/svg">
	<path d="M3.10716 4.91627C3.06367 5.01511 3.01573 5.12186 2.97372 5.22615C2.93171 5.33043 2.88822 5.43767 2.85017 5.54443C2.77208 5.75254 2.70948 5.96613 2.66285 6.18346L2.64852 6.26254L2.64358 6.29219C2.64358 6.30059 2.64358 6.31146 2.64061 6.32135C2.63874 6.36947 2.63973 6.41766 2.64358 6.46566C2.65297 6.56994 2.66977 6.68164 2.693 6.79333C2.73452 7.01722 2.7874 7.24802 2.84127 7.47536L2.58773 7.57421C2.46954 7.35876 2.36889 7.13416 2.28675 6.90256C2.24347 6.78202 2.20847 6.65867 2.18197 6.53337C2.16713 6.46404 2.15787 6.39364 2.1543 6.32283V6.26303C2.1543 6.24178 2.1543 6.21806 2.15776 6.20422L2.16764 6.10537C2.18241 5.97807 2.20502 5.8518 2.23535 5.72729C2.26303 5.60373 2.29861 5.48364 2.33419 5.36502C2.36978 5.24641 2.41426 5.12977 2.46121 5.01511C2.48444 4.95778 2.51063 4.90095 2.53337 4.84411C2.5561 4.78727 2.58279 4.73291 2.61442 4.67212L3.10716 4.91627Z" fill="#E4897B" />
	<path d="M2.82886 7.40845L3.02161 7.59675L2.60103 7.79444C2.60103 7.79444 2.49922 7.61602 2.56989 7.4549L2.82886 7.40845Z" fill="#E4897B" />
	<path d="M3.17929 7.87691L2.82394 8.02221L2.60352 7.79239L3.02361 7.59668L3.17929 7.87691V7.87691Z" fill="#E4897B" />
	<path opacity="0.4" d="M10.3743 7.67446C9.67499 7.59595 9.01468 7.31187 8.47683 6.85813C7.93897 6.4044 7.54772 5.80139 7.35253 5.12532C7.15734 4.44926 7.16697 3.7305 7.38022 3.05991C7.59346 2.38932 8.00073 1.79701 8.55056 1.35786C9.10038 0.918707 9.76806 0.652427 10.4692 0.592684C11.1703 0.532941 11.8734 0.682417 12.4896 1.02222C13.1058 1.36201 13.6075 1.87688 13.9311 2.50172C14.2547 3.12656 14.3858 3.83333 14.3078 4.53267C14.256 4.99731 14.1131 5.44719 13.8874 5.85659C13.6616 6.26599 13.3574 6.62689 12.9921 6.91866C12.6268 7.21043 12.2076 7.42736 11.7584 7.55704C11.3092 7.68673 10.8389 7.72663 10.3743 7.67446V7.67446Z" fill="#FAFAFA" />
	<path opacity="0.4" d="M12.9635 1.33451L7.55174 5.65849C7.529 5.60906 7.50676 5.55964 7.48601 5.51022C7.35033 5.1875 7.26355 4.84636 7.22852 4.49805L11.9029 0.763184C12.2867 0.891197 12.6455 1.08447 12.9635 1.33451V1.33451Z" fill="#FAFAFA" />
	<path opacity="0.4" d="M14.2126 3.22906L9.12459 7.29407C8.64122 7.04209 8.22234 6.68223 7.90039 6.24236L13.456 1.80322C13.8141 2.21427 14.073 2.7021 14.2126 3.22906Z" fill="#FAFAFA" />
	<path d="M6.7657 2.77808L6.71875 2.76226C6.80007 2.52232 6.90227 2.28997 7.02418 2.06788L7.06718 2.0916C6.94687 2.3112 6.846 2.54091 6.7657 2.77808V2.77808ZM7.36569 1.62456L7.32566 1.5954C7.73182 1.04621 8.26339 0.602076 8.87604 0.300034L8.89828 0.344514C8.29258 0.643438 7.76712 1.08282 7.36569 1.62604V1.62456ZM12.7819 0.412223C12.6204 0.325597 12.4533 0.249814 12.2818 0.185373L12.2995 0.138916C12.4728 0.204868 12.6415 0.282134 12.8046 0.370214L12.7819 0.412223Z" fill="#6495ED" />
	<path opacity="0.3" d="M6.7657 2.77808L6.71875 2.76226C6.80007 2.52232 6.90227 2.28997 7.02418 2.06788L7.06718 2.0916C6.94687 2.3112 6.846 2.54091 6.7657 2.77808V2.77808ZM7.36569 1.62456L7.32566 1.5954C7.73182 1.04621 8.26339 0.602076 8.87604 0.300034L8.89828 0.344514C8.29258 0.643438 7.76712 1.08282 7.36569 1.62604V1.62456ZM12.7819 0.412223C12.6204 0.325597 12.4533 0.249814 12.2818 0.185373L12.2995 0.138916C12.4728 0.204868 12.6415 0.282134 12.8046 0.370214L12.7819 0.412223Z" fill="black" />
	<path d="M14.4492 2.3205C13.9916 1.37136 13.1862 0.634717 12.2002 0.263292C11.2141 -0.108132 10.1229 -0.0858546 9.15279 0.325507C8.1827 0.736869 7.4081 1.50576 6.98958 2.4728C6.57107 3.43983 6.54073 4.53083 6.90486 5.51962C6.57472 5.63527 6.24853 5.75932 5.92432 5.88733C5.45678 6.07283 4.99352 6.26656 4.53455 6.46854C4.07591 6.67166 3.61925 6.87874 3.16703 7.09521C2.94018 7.20147 2.7163 7.31366 2.49044 7.42239C2.37294 7.47288 2.26649 7.54592 2.1771 7.63738C2.12873 7.68803 2.08613 7.74389 2.05008 7.80393C2.0061 7.87495 1.9728 7.95205 1.95124 8.03276C1.91405 8.1782 1.93013 8.33214 1.99658 8.46675C2.06302 8.60136 2.17544 8.70775 2.3135 8.76669C2.39017 8.79884 2.47106 8.81981 2.5537 8.82896C2.62349 8.83686 2.69395 8.83686 2.76374 8.82896C2.89057 8.81356 3.01315 8.77343 3.12453 8.71084C3.34841 8.59766 3.57378 8.48844 3.79618 8.37229C4.24098 8.14544 4.68579 7.90871 5.12515 7.66852C5.56452 7.42832 6.00438 7.17676 6.43337 6.91878C6.7299 6.73937 7.0294 6.55601 7.32297 6.36425C7.8867 7.25419 8.7712 7.89313 9.79319 8.14869C10.8152 8.40424 11.8963 8.25682 12.8126 7.73697C13.7288 7.21711 14.41 6.36468 14.7148 5.35631C15.0197 4.34793 14.925 3.26092 14.4502 2.3205H14.4492ZM12.2025 7.04184C11.6281 7.32534 10.9826 7.43217 10.3475 7.34881C9.71245 7.26546 9.11636 6.99567 8.63462 6.57355C8.15287 6.15144 7.80711 5.59595 7.64106 4.97734C7.475 4.35873 7.4961 3.70477 7.70169 3.09814C7.90729 2.49152 8.28814 1.95949 8.79609 1.5693C9.30405 1.17912 9.91629 0.948323 10.5554 0.906085C11.1945 0.863847 11.8318 1.01207 12.3867 1.33201C12.9416 1.65195 13.3891 2.12924 13.6728 2.70353C13.8611 3.08492 13.9725 3.49968 14.0006 3.92412C14.0286 4.34857 13.9728 4.77438 13.8363 5.17725C13.6997 5.58011 13.4852 5.95213 13.2048 6.27206C12.9245 6.59199 12.5839 6.85356 12.2025 7.04184Z" fill="#6495ED" />
	<path opacity="0.3" d="M14.4492 2.3205C13.9916 1.37136 13.1862 0.634717 12.2002 0.263292C11.2141 -0.108132 10.1229 -0.0858546 9.15279 0.325507C8.1827 0.736869 7.4081 1.50576 6.98958 2.4728C6.57107 3.43983 6.54073 4.53083 6.90486 5.51962C6.57472 5.63527 6.24853 5.75932 5.92432 5.88733C5.45678 6.07283 4.99352 6.26656 4.53455 6.46854C4.07591 6.67166 3.61925 6.87874 3.16703 7.09521C2.94018 7.20147 2.7163 7.31366 2.49044 7.42239C2.37294 7.47288 2.26649 7.54592 2.1771 7.63738C2.12873 7.68803 2.08613 7.74389 2.05008 7.80393C2.0061 7.87495 1.9728 7.95205 1.95124 8.03276C1.91405 8.1782 1.93013 8.33214 1.99658 8.46675C2.06302 8.60136 2.17544 8.70775 2.3135 8.76669C2.39017 8.79884 2.47106 8.81981 2.5537 8.82896C2.62349 8.83686 2.69395 8.83686 2.76374 8.82896C2.89057 8.81356 3.01315 8.77343 3.12453 8.71084C3.34841 8.59766 3.57378 8.48844 3.79618 8.37229C4.24098 8.14544 4.68579 7.90871 5.12515 7.66852C5.56452 7.42832 6.00438 7.17676 6.43337 6.91878C6.7299 6.73937 7.0294 6.55601 7.32297 6.36425C7.8867 7.25419 8.7712 7.89313 9.79319 8.14869C10.8152 8.40424 11.8963 8.25682 12.8126 7.73697C13.7288 7.21711 14.41 6.36468 14.7148 5.35631C15.0197 4.34793 14.925 3.26092 14.4502 2.3205H14.4492ZM12.2025 7.04184C11.6281 7.32534 10.9826 7.43217 10.3475 7.34881C9.71245 7.26546 9.11636 6.99567 8.63462 6.57355C8.15287 6.15144 7.80711 5.59595 7.64106 4.97734C7.475 4.35873 7.4961 3.70477 7.70169 3.09814C7.90729 2.49152 8.28814 1.95949 8.79609 1.5693C9.30405 1.17912 9.91629 0.948323 10.5554 0.906085C11.1945 0.863847 11.8318 1.01207 12.3867 1.33201C12.9416 1.65195 13.3891 2.12924 13.6728 2.70353C13.8611 3.08492 13.9725 3.49968 14.0006 3.92412C14.0286 4.34857 13.9728 4.77438 13.8363 5.17725C13.6997 5.58011 13.4852 5.95213 13.2048 6.27206C12.9245 6.59199 12.5839 6.85356 12.2025 7.04184Z" fill="black" />
	<path d="M4.47266 3.15127C4.47266 3.18043 4.48798 3.20415 4.50725 3.20415C4.52653 3.20415 4.54185 3.18043 4.54185 3.15127C4.54185 3.12211 4.52653 3.09839 4.50725 3.09839C4.48798 3.09839 4.47266 3.12409 4.47266 3.15127Z" fill="#263238" />
	<path d="M4.48633 3.20435C4.52131 3.29385 4.56837 3.37816 4.62619 3.45492C4.6062 3.46922 4.58332 3.47898 4.55916 3.4835C4.535 3.48803 4.51014 3.48721 4.48633 3.48111V3.20435Z" fill="#DE5753" />
	<path d="M4.37095 2.98868C4.36819 2.98868 4.36547 2.98806 4.36299 2.98686C4.36051 2.98566 4.35833 2.98392 4.35661 2.98176C4.35404 2.97799 4.35301 2.97337 4.35375 2.96886C4.35448 2.96436 4.35693 2.9603 4.36057 2.95755C4.38233 2.94104 4.40777 2.93004 4.4347 2.92547C4.46164 2.92091 4.48927 2.92293 4.51526 2.93135C4.51759 2.93199 4.51977 2.93311 4.52164 2.93463C4.52352 2.93616 4.52505 2.93807 4.52614 2.94023C4.52724 2.94238 4.52787 2.94475 4.52799 2.94716C4.52811 2.94958 4.52773 2.95199 4.52686 2.95425C4.52599 2.95651 4.52466 2.95856 4.52295 2.96027C4.52124 2.96198 4.51919 2.96331 4.51693 2.96418C4.51467 2.96505 4.51226 2.96544 4.50984 2.96532C4.50743 2.9652 4.50506 2.96457 4.5029 2.96348C4.48226 2.95715 4.4604 2.95586 4.43916 2.95973C4.41792 2.9636 4.39791 2.97251 4.38083 2.98572C4.3779 2.98766 4.37446 2.98869 4.37095 2.98868V2.98868Z" fill="#263238" />
	<path d="M3.47462 3.37134C3.52404 3.63674 3.57841 4.12355 3.39258 4.30098C3.39258 4.30098 3.46523 4.57033 3.95896 4.57033C4.50261 4.57033 4.21793 4.30098 4.21793 4.30098C3.9214 4.22981 3.9298 4.01037 3.9812 3.80379L3.47462 3.37134Z" fill="#E4897B" />
	<path d="M3.17284 4.44063C3.23166 4.3492 3.13281 4.12729 3.13281 4.12729C3.13281 4.12729 4.0066 3.90736 4.36393 4.24492C4.43806 4.3146 4.35602 4.4174 4.35602 4.4174L3.17284 4.44063Z" fill="#6495ED" />
	<path opacity="0.1" d="M3.17284 4.44063C3.23166 4.3492 3.13281 4.12729 3.13281 4.12729C3.13281 4.12729 4.0066 3.90736 4.36393 4.24492C4.43806 4.3146 4.35602 4.4174 4.35602 4.4174L3.17284 4.44063Z" fill="black" />
	<path d="M1.72481 14.5244C1.67885 14.5244 1.60521 14.4478 1.58347 14.4191C1.58253 14.4177 1.58203 14.4161 1.58203 14.4144C1.58203 14.4127 1.58253 14.4111 1.58347 14.4097C1.58426 14.4083 1.58542 14.4072 1.58681 14.4064C1.5882 14.4056 1.58978 14.4052 1.59137 14.4053C1.59681 14.4053 1.71789 14.4161 1.75101 14.4591C1.75461 14.4637 1.75718 14.469 1.75855 14.4746C1.75991 14.4802 1.76004 14.4861 1.75892 14.4918C1.75849 14.4991 1.75578 14.5062 1.75118 14.5119C1.74658 14.5177 1.7403 14.5219 1.73322 14.5239L1.72481 14.5244ZM1.61015 14.4255C1.64623 14.4671 1.70406 14.514 1.72877 14.5081C1.72877 14.5081 1.73865 14.5056 1.74162 14.4898C1.74227 14.4865 1.74216 14.4831 1.7413 14.4798C1.74045 14.4766 1.73887 14.4736 1.73668 14.471C1.70006 14.4433 1.65601 14.4271 1.61015 14.4245V14.4255Z" fill="#6495ED" />
	<path d="M1.61474 14.4245C1.60587 14.4254 1.59693 14.4254 1.58805 14.4245C1.58649 14.4244 1.585 14.4238 1.58377 14.4228C1.58254 14.4218 1.58162 14.4205 1.58114 14.419C1.58044 14.4177 1.58008 14.4161 1.58008 14.4146C1.58008 14.413 1.58044 14.4115 1.58114 14.4101C1.58459 14.4072 1.65725 14.3316 1.71211 14.3316C1.71867 14.3314 1.72519 14.3327 1.73124 14.3352C1.73729 14.3378 1.74273 14.3416 1.7472 14.3464C1.75212 14.3505 1.75548 14.3562 1.75674 14.3625C1.758 14.3688 1.75707 14.3753 1.75411 14.381C1.73978 14.4087 1.66417 14.4245 1.61474 14.4245ZM1.60832 14.4072C1.65774 14.4072 1.7294 14.3919 1.74126 14.3701C1.74126 14.3701 1.74472 14.3637 1.73682 14.3558C1.73394 14.3526 1.73041 14.3502 1.72649 14.3486C1.72256 14.3469 1.71833 14.3462 1.71408 14.3464C1.67357 14.3557 1.63674 14.3768 1.60832 14.4072V14.4072Z" fill="#6495ED" />
	<path d="M4.98738 15.6464C4.94992 15.6461 4.91255 15.6426 4.87568 15.636C4.87385 15.6356 4.8722 15.6347 4.87102 15.6332C4.86985 15.6318 4.86922 15.63 4.86926 15.6281C4.86898 15.6264 4.86921 15.6246 4.86991 15.6231C4.87061 15.6215 4.87176 15.6201 4.87321 15.6192C4.87865 15.6162 5.00517 15.5436 5.06596 15.5604C5.07159 15.5617 5.07691 15.5641 5.08159 15.5675C5.08626 15.5709 5.09019 15.5752 5.09314 15.5801C5.09701 15.5856 5.09909 15.5922 5.09909 15.5989C5.09909 15.6057 5.09701 15.6122 5.09314 15.6177C5.07881 15.64 5.03383 15.6464 4.98738 15.6464V15.6464ZM4.90385 15.6231C4.97107 15.633 5.06299 15.6325 5.0798 15.6088C5.08227 15.6058 5.08424 15.6004 5.0798 15.59C5.07602 15.5839 5.06999 15.5794 5.06299 15.5777C5.02444 15.5678 4.94784 15.6004 4.90385 15.6231Z" fill="#6495ED" />
	<path d="M4.87774 15.6362C4.87612 15.6366 4.87441 15.6366 4.87279 15.6362C4.87142 15.6353 4.87036 15.634 4.86974 15.6325C4.86912 15.631 4.86898 15.6294 4.86933 15.6278C4.87268 15.5763 4.89243 15.5273 4.92568 15.4879C4.9324 15.4821 4.94029 15.4778 4.94882 15.4753C4.95735 15.4729 4.96631 15.4723 4.9751 15.4736C4.99882 15.4736 5.00574 15.4879 5.00722 15.4973C5.01365 15.5383 4.92716 15.6169 4.88317 15.6367L4.87774 15.6362ZM4.9662 15.4879C4.95533 15.4878 4.94479 15.4917 4.93655 15.4988C4.9086 15.53 4.8913 15.5693 4.88713 15.611C4.93161 15.5838 4.99091 15.5225 4.98597 15.4978C4.98597 15.4978 4.98597 15.4894 4.96917 15.4879H4.9662Z" fill="#6495ED" />
	<path d="M4.47852 15.6275H4.84177L4.87785 14.7869H4.51459L4.47852 15.6275Z" fill="#E4897B" />
	<path d="M1.24414 14.1845L1.5476 14.3832L2.21776 13.8173L1.91382 13.6182L1.24414 14.1845Z" fill="#E4897B" />
	<path d="M1.59589 14.3644L1.28057 14.106C1.275 14.1014 1.26802 14.0989 1.2608 14.0989C1.25359 14.0989 1.24661 14.1014 1.24104 14.106L0.981073 14.3101C0.974792 14.3151 0.96972 14.3214 0.966234 14.3287C0.962748 14.3359 0.960938 14.3438 0.960938 14.3518C0.960938 14.3599 0.962748 14.3678 0.966234 14.375C0.96972 14.3822 0.974792 14.3886 0.981073 14.3936C1.09277 14.4821 1.15158 14.5196 1.29046 14.6333C1.37596 14.703 1.58699 14.9165 1.7061 15.0129C1.82521 15.1092 1.93443 15.0054 1.8949 14.9555C1.71747 14.7307 1.64778 14.5384 1.62752 14.4193C1.62402 14.3978 1.61277 14.3783 1.59589 14.3644V14.3644Z" fill="#263238" />
	<path d="M4.83742 15.5854H4.44204C4.43483 15.5855 4.42784 15.5879 4.42219 15.5924C4.41654 15.5969 4.41257 15.6031 4.4109 15.6102L4.33924 15.9329C4.33744 15.9407 4.33744 15.9488 4.33925 15.9567C4.34105 15.9645 4.34461 15.9718 4.34966 15.978C4.35471 15.9843 4.36111 15.9893 4.36838 15.9927C4.37565 15.9961 4.3836 15.9978 4.39163 15.9976C4.53446 15.9952 4.74105 15.9868 4.92094 15.9868C5.13099 15.9868 5.31286 15.9981 5.55899 15.9981C5.70726 15.9981 5.74976 15.8474 5.68699 15.834C5.40331 15.7718 5.17102 15.7653 4.92588 15.6136C4.89958 15.5962 4.86895 15.5864 4.83742 15.5854V15.5854Z" fill="#263238" />
	<path d="M2.67587 4.40911C2.36104 4.55738 2.18164 5.55077 2.18164 5.55077L2.95115 5.85769C3.06379 5.58265 3.15484 5.29926 3.22347 5.01009C3.32923 4.55244 2.9981 4.2559 2.67587 4.40911V4.40911Z" fill="#263238" />
	<path d="M3.08485 4.96902C2.89457 5.16177 2.80759 5.53936 2.76953 5.78499L2.95388 5.85863C3.06331 5.5914 3.15252 5.31633 3.22076 5.03574C3.20445 4.93097 3.16392 4.88896 3.08485 4.96902Z" fill="#203048" />
	<path d="M4.77788 4.40212C4.77788 4.40212 5.16436 4.83902 4.79962 7.54045H2.85781C2.84447 7.24392 3.03178 5.78842 2.74414 4.38383C2.95874 4.34222 3.17584 4.31482 3.39405 4.30179C3.66892 4.28547 3.94453 4.28547 4.2194 4.30179C4.40787 4.32076 4.59459 4.3543 4.77788 4.40212V4.40212Z" fill="#263238" />
	<path d="M4.95366 5.45087L4.62648 4.88696C4.56332 5.15007 4.53753 5.42077 4.54987 5.69107C4.55877 5.8848 4.7362 6.60242 4.89583 6.7072C4.93819 6.2898 4.9575 5.87039 4.95366 5.45087V5.45087Z" fill="#203048" />
	<path d="M4.99868 4.78784C5.0481 5.02804 5.09752 5.27416 5.15041 5.51534C5.20329 5.75652 5.25815 5.99869 5.3219 6.23246C5.33821 6.29029 5.35353 6.34959 5.37132 6.40495L5.38467 6.44745L5.39109 6.4687V6.46623C5.38763 6.46178 5.38368 6.46129 5.38665 6.46623C5.40696 6.48842 5.43293 6.50465 5.46177 6.51318C5.50849 6.53057 5.5566 6.54396 5.60559 6.55322C5.83925 6.59025 6.07584 6.60564 6.31233 6.59918L6.35928 6.86804C6.29305 6.88929 6.23128 6.90461 6.16604 6.91993C6.1008 6.93525 6.03655 6.9481 5.97082 6.95799C5.83482 6.98063 5.69693 6.9899 5.55913 6.98566C5.48253 6.9836 5.40635 6.97366 5.33179 6.95601C5.23698 6.93527 5.14789 6.89393 5.07084 6.83492C5.02051 6.79429 4.97898 6.74384 4.94876 6.68666C4.94085 6.67183 4.93394 6.65503 4.92751 6.64069L4.91861 6.61746L4.90033 6.56804C4.87512 6.50528 4.85437 6.4435 4.83163 6.38172C4.74811 6.13461 4.67842 5.88502 4.61714 5.63593C4.55585 5.38684 4.50297 5.13825 4.45898 4.88273L4.99868 4.78784Z" fill="#E4897B" />
	<path d="M4.29163 4.66705C4.18932 4.99867 4.60398 5.98762 4.60398 5.98762L5.42983 5.78004C5.42983 5.78004 5.3982 5.26605 5.2099 4.85831C4.92621 4.24349 4.41419 4.26919 4.29163 4.66705V4.66705Z" fill="#263238" />
	<path d="M6.30851 6.59925L6.7197 6.58887L6.52201 7.01687C6.52201 7.01687 6.35447 7.03911 6.21707 6.81325L6.07227 6.64027L6.23882 6.60715C6.26175 6.60233 6.28508 6.59968 6.30851 6.59925V6.59925Z" fill="#E4897B" />
	<path d="M6.97669 6.66844L6.74144 7.02329L6.51953 7.01687L6.71722 6.58887L6.97669 6.66844V6.66844Z" fill="#E4897B" />
	<path d="M4.87618 14.7869L4.8574 15.2203H4.49414L4.51292 14.7869H4.87618Z" fill="#CE6F64" />
	<path d="M1.91187 13.6182L2.21582 13.8173L1.86986 14.1089L1.56641 13.9103L1.91187 13.6182V13.6182Z" fill="#CE6F64" />
	<path d="M3.49723 3.08847C3.51897 3.44777 3.51354 3.6598 3.69492 3.84414C3.96773 4.12239 4.41204 3.95781 4.49803 3.59703C4.57563 3.27381 4.52719 2.74004 4.1753 2.59672C4.09766 2.56538 4.01333 2.55428 3.93022 2.56446C3.84711 2.57464 3.76795 2.60577 3.70017 2.65493C3.63239 2.70408 3.5782 2.76966 3.54271 2.84549C3.50721 2.92132 3.49156 3.00493 3.49723 3.08847V3.08847Z" fill="#E4897B" />
	<path d="M3.07383 3.0252C3.16329 3.35287 3.37383 3.73046 3.64614 3.75468C3.98419 3.78433 4.13691 3.43491 4.18139 3.07413C4.38402 2.93525 4.27776 2.78254 4.48089 2.76326C4.74184 2.73855 4.65832 2.26113 4.31483 2.18452C4.31483 2.18452 4.42999 2.39951 4.18831 2.29078C3.95847 2.18155 3.70313 2.13729 3.44994 2.16278C3.44994 2.16278 3.75833 2.31698 3.45686 2.38567C3.15538 2.45437 3.06543 2.6402 3.20431 2.75239C3.20431 2.75288 3.01502 2.80972 3.07383 3.0252V3.0252Z" fill="#263238" />
	<path d="M3.97889 3.14846C3.98553 3.23777 4.02149 3.32238 4.08119 3.38914C4.16027 3.47662 4.24281 3.42226 4.25664 3.316C4.26949 3.22061 4.2433 3.05999 4.14643 3.01155C4.04956 2.96312 3.97247 3.04071 3.97889 3.14846V3.14846Z" fill="#E4897B" />
	<path d="M4.10925 7.54053C4.10925 7.54053 4.46312 10.1031 4.18438 11.1301C3.74254 12.7561 2.05328 14.1286 2.05328 14.1286L1.48047 13.7529C1.48047 13.7529 2.91916 12.594 3.0951 11.2324C3.25326 10.0102 2.85639 8.53195 2.85639 7.54004L4.10925 7.54053Z" fill="#6495ED" />
	<path opacity="0.1" d="M4.10925 7.54053C4.10925 7.54053 4.46312 10.1031 4.18438 11.1301C3.74254 12.7561 2.05328 14.1286 2.05328 14.1286L1.48047 13.7529C1.48047 13.7529 2.91916 12.594 3.0951 11.2324C3.25326 10.0102 2.85639 8.53195 2.85639 7.54004L4.10925 7.54053Z" fill="black" />
	<path d="M4.25715 9.00552C4.16294 8.89759 4.05923 8.79835 3.94727 8.70898C4.00756 9.54077 4.05698 10.7729 4.00212 11.6481C4.07589 11.4803 4.13733 11.3074 4.18598 11.1307C4.32189 10.6291 4.30756 9.76267 4.25715 9.00552Z" fill="#6495ED" />
	<path opacity="0.3" d="M4.25715 9.00552C4.16294 8.89759 4.05923 8.79835 3.94727 8.70898C4.00756 9.54077 4.05698 10.7729 4.00212 11.6481C4.07589 11.4803 4.13733 11.3074 4.18598 11.1307C4.32189 10.6291 4.30756 9.76267 4.25715 9.00552Z" fill="black" />
	<path d="M2.28314 14.0007C2.28561 14.0007 2.06124 14.149 2.06124 14.149L1.43555 13.7388L1.63324 13.5752L2.28314 14.0007Z" fill="#6495ED" />
	<path opacity="0.3" d="M2.28314 14.0007C2.28561 14.0007 2.06124 14.149 2.06124 14.149L1.43555 13.7388L1.63324 13.5752L2.28314 14.0007Z" fill="black" />
	<path d="M4.79807 7.54053C4.79807 7.54053 5.34468 9.85845 5.38323 10.966C5.42672 12.2075 4.99329 15.1363 4.99329 15.1363H4.37798C4.37798 15.1363 4.30236 12.1848 4.27518 11.054C4.24503 9.82088 3.52148 7.54053 3.52148 7.54053H4.79807Z" fill="#6495ED" />
	<path opacity="0.1" d="M4.79807 7.54053C4.79807 7.54053 5.34468 9.85845 5.38323 10.966C5.42672 12.2075 4.99329 15.1363 4.99329 15.1363H4.37798C4.37798 15.1363 4.30236 12.1848 4.27518 11.054C4.24503 9.82088 3.52148 7.54053 3.52148 7.54053H4.79807Z" fill="black" />
	<path d="M5.11171 14.8914C5.11468 14.8914 5.07711 15.1464 5.07711 15.1464H4.32886L4.30859 14.9185L5.11171 14.8914Z" fill="#6495ED" />
	<path opacity="0.3" d="M5.11171 14.8914C5.11468 14.8914 5.07711 15.1464 5.07711 15.1464H4.32886L4.30859 14.9185L5.11171 14.8914Z" fill="black" />
	<path d="M14.2551 5.31323C14.2971 5.35277 14.3302 5.38638 14.3648 5.42394C14.3994 5.4615 14.432 5.49807 14.4636 5.53613C14.5279 5.61175 14.5882 5.69132 14.6465 5.77138C14.763 5.93199 14.8666 6.10154 14.9564 6.27846L14.9747 6.31453C14.9836 6.332 14.991 6.35018 14.9969 6.3689C15.0088 6.40506 15.0161 6.44259 15.0186 6.48059C15.0219 6.5476 15.0126 6.61463 14.9915 6.67828C14.9554 6.78402 14.9017 6.88292 14.8328 6.97087C14.7086 7.13036 14.5622 7.27117 14.3979 7.38898L14.2748 7.24763C14.3327 7.17992 14.393 7.10727 14.4468 7.03462C14.5016 6.96423 14.5512 6.88989 14.5951 6.81222C14.6361 6.74445 14.6664 6.67077 14.685 6.59377C14.6914 6.56623 14.6926 6.53773 14.6885 6.50975C14.6867 6.50034 14.6837 6.4912 14.6796 6.48257C14.6778 6.47878 14.6756 6.47514 14.6732 6.4717L14.6574 6.44501C14.5621 6.28959 14.4586 6.13931 14.3475 5.99477C14.2926 5.92212 14.2338 5.85243 14.1745 5.78374C14.1453 5.74914 14.1152 5.71553 14.0851 5.68192C14.0549 5.64832 14.0223 5.61471 13.9961 5.58852L14.2551 5.31323Z" fill="#E4897B" />
	<path d="M14.3262 7.20605L13.957 7.14575L14.1503 7.46898C14.1503 7.46898 14.388 7.46057 14.4557 7.32071L14.3262 7.20605Z" fill="#E4897B" />
	<path d="M13.6836 7.29501L13.8595 7.55744L14.1496 7.46898L13.9564 7.14575L13.6836 7.29501V7.29501Z" fill="#E4897B" />
	<path d="M14.3088 15.642C14.2837 15.6442 14.2587 15.6374 14.2381 15.6228C14.2319 15.6169 14.2274 15.6096 14.2249 15.6014C14.2223 15.5933 14.222 15.5846 14.2238 15.5763C14.2242 15.571 14.226 15.5659 14.229 15.5615C14.232 15.5572 14.2362 15.5537 14.2411 15.5516C14.2841 15.5323 14.3968 15.6045 14.4096 15.6129C14.4111 15.6138 14.4122 15.6151 14.4128 15.6167C14.4135 15.6184 14.4136 15.6201 14.4131 15.6218C14.4129 15.6235 14.4122 15.6251 14.411 15.6263C14.4099 15.6275 14.4083 15.6284 14.4067 15.6287C14.3746 15.6368 14.3418 15.6413 14.3088 15.642V15.642ZM14.2594 15.5654C14.2558 15.5649 14.2521 15.5649 14.2485 15.5654C14.2463 15.5665 14.2445 15.5681 14.2432 15.5701C14.2419 15.5721 14.2411 15.5744 14.2411 15.5768C14.2398 15.5823 14.2399 15.5881 14.2415 15.5935C14.243 15.599 14.246 15.6039 14.25 15.6079C14.2688 15.6247 14.3172 15.6272 14.3819 15.6144C14.3449 15.5899 14.3031 15.5732 14.2594 15.5654Z" fill="#6495ED" />
	<path d="M14.4062 15.6284H14.4018C14.3667 15.6082 14.299 15.5296 14.3074 15.4866C14.309 15.4798 14.3127 15.4737 14.3181 15.4693C14.3234 15.4648 14.3301 15.4622 14.337 15.4619C14.3437 15.4609 14.3505 15.4615 14.3569 15.4635C14.3633 15.4656 14.3692 15.4691 14.3741 15.4737C14.4146 15.5093 14.4151 15.6161 14.4151 15.622C14.415 15.6235 14.4146 15.625 14.4138 15.6263C14.413 15.6275 14.4119 15.6286 14.4106 15.6294L14.4062 15.6284ZM14.3429 15.4802H14.339C14.3281 15.4802 14.3256 15.4861 14.3247 15.4905C14.3197 15.5158 14.3617 15.576 14.3968 15.6042C14.3977 15.5628 14.3858 15.522 14.3627 15.4876C14.3598 15.4848 14.3562 15.4827 14.3524 15.4814C14.3486 15.4802 14.3445 15.4797 14.3405 15.4802H14.3429Z" fill="#6495ED" />
	<path d="M12.6237 15.6421C12.5921 15.6451 12.5605 15.6371 12.5342 15.6194C12.5283 15.6141 12.5237 15.6075 12.5209 15.6001C12.518 15.5927 12.517 15.5848 12.5179 15.5769C12.5182 15.5721 12.5197 15.5674 12.5223 15.5634C12.5249 15.5593 12.5285 15.556 12.5327 15.5537C12.5787 15.528 12.726 15.6031 12.7428 15.6125C12.7443 15.6135 12.7455 15.6149 12.7463 15.6165C12.7471 15.6182 12.7474 15.62 12.7472 15.6219C12.7469 15.6236 12.7461 15.6252 12.7449 15.6264C12.7436 15.6277 12.742 15.6285 12.7403 15.6288C12.7019 15.6369 12.6629 15.6414 12.6237 15.6421V15.6421ZM12.5579 15.5655C12.5523 15.5652 12.5466 15.5664 12.5416 15.569C12.5398 15.5698 12.5383 15.5712 12.5373 15.5728C12.5362 15.5745 12.5357 15.5764 12.5357 15.5784C12.5349 15.5835 12.5354 15.5888 12.5372 15.5937C12.5389 15.5986 12.5418 15.603 12.5456 15.6066C12.5683 15.6268 12.6291 15.6303 12.7111 15.6164C12.6633 15.591 12.6115 15.5737 12.5579 15.5655Z" fill="#6495ED" />
	<path d="M12.7383 15.6284H12.7343C12.6903 15.6086 12.6028 15.5295 12.6098 15.4865C12.6098 15.4766 12.6187 15.4643 12.6429 15.4618C12.6517 15.4608 12.6607 15.4617 12.6692 15.4644C12.6777 15.467 12.6855 15.4713 12.6923 15.4771C12.7388 15.5157 12.7477 15.6155 12.7477 15.62C12.7478 15.6215 12.7476 15.623 12.747 15.6244C12.7464 15.6258 12.7454 15.627 12.7442 15.6279C12.7423 15.6287 12.7402 15.6288 12.7383 15.6284V15.6284ZM12.6498 15.4801H12.6444C12.6285 15.4801 12.6276 15.488 12.6271 15.49C12.6231 15.5152 12.6824 15.5779 12.7259 15.6051C12.7216 15.5629 12.7044 15.523 12.6765 15.491C12.669 15.4846 12.6596 15.4808 12.6498 15.4801V15.4801Z" fill="#6495ED" />
	<path d="M13.3201 4.17725C13.3058 4.40064 13.2672 4.85433 13.4387 4.97987C13.4387 4.97987 13.4076 5.20869 13.0028 5.26207C12.558 5.3199 12.7611 5.06883 12.7611 5.06883C12.9969 4.97888 12.9667 4.79948 12.9025 4.63539L13.3201 4.17725Z" fill="#E4897B" />
	<path d="M12.4013 3.78222C12.3989 3.78222 12.3965 3.78169 12.3943 3.78067C12.392 3.77964 12.3901 3.77815 12.3885 3.77629C12.3744 3.75952 12.3565 3.74631 12.3363 3.73773C12.3161 3.72914 12.2942 3.72542 12.2723 3.72686C12.27 3.72728 12.2677 3.72723 12.2654 3.7267C12.2631 3.72618 12.2609 3.72519 12.259 3.72381C12.2571 3.72242 12.2555 3.72066 12.2543 3.71863C12.2531 3.71661 12.2524 3.71437 12.2521 3.71204C12.2515 3.70739 12.2528 3.70271 12.2557 3.69901C12.2585 3.6953 12.2628 3.69288 12.2674 3.69227C12.2953 3.68991 12.3234 3.69434 12.3492 3.70518C12.375 3.71603 12.3978 3.73296 12.4157 3.75454C12.4178 3.75712 12.4192 3.76025 12.4196 3.76357C12.4201 3.76689 12.4196 3.77027 12.4182 3.77331C12.4168 3.77636 12.4145 3.77895 12.4117 3.78079C12.4089 3.78263 12.4057 3.78363 12.4023 3.7837L12.4013 3.78222Z" fill="#263238" />
	<path d="M12.3227 4.00122C12.3052 4.07211 12.2781 4.14028 12.2422 4.20385C12.2587 4.21273 12.2769 4.21787 12.2956 4.21889C12.3144 4.21992 12.3331 4.21681 12.3504 4.20978L12.3227 4.00122Z" fill="#DE5753" />
	<path d="M12.3437 3.94684C12.3477 3.97649 12.3353 4.0022 12.316 4.00516C12.2968 4.00813 12.2775 3.98539 12.274 3.95574C12.2706 3.92608 12.2824 3.90038 12.3017 3.89791C12.321 3.89544 12.3403 3.91521 12.3437 3.94684V3.94684Z" fill="#263238" />
	<path d="M12.3119 3.89833L12.2383 3.88696C12.2383 3.88696 12.2818 3.93787 12.3119 3.89833Z" fill="#263238" />
	<path d="M13.1454 15.6204H12.7747L12.75 14.7629H13.1207L13.1454 15.6204Z" fill="#E4897B" />
	<path d="M14.8277 15.6204H14.457L14.3379 14.7629H14.7086L14.8277 15.6204Z" fill="#E4897B" />
	<path d="M14.4342 15.5791H14.8503C14.8574 15.579 14.8643 15.5816 14.8696 15.5862C14.875 15.5908 14.8785 15.5973 14.8795 15.6043L14.9289 15.934C14.9298 15.9423 14.9289 15.9507 14.9264 15.9586C14.9238 15.9666 14.9196 15.9739 14.914 15.9801C14.9084 15.9863 14.9015 15.9913 14.8939 15.9946C14.8862 15.998 14.8779 15.9997 14.8696 15.9997C14.7248 15.9972 14.6546 15.9888 14.4717 15.9888C14.359 15.9888 14.1945 16.0002 14.0393 16.0002C13.8841 16.0002 13.8757 15.8465 13.9404 15.8326C14.2306 15.7704 14.2765 15.6844 14.3739 15.6018C14.3909 15.5877 14.4121 15.5797 14.4342 15.5791Z" fill="#263238" />
	<path d="M12.7626 15.5791H13.1783C13.1854 15.579 13.1924 15.5815 13.1978 15.5862C13.2033 15.5908 13.2069 15.5972 13.2079 15.6043L13.2574 15.934C13.2583 15.9423 13.2574 15.9507 13.2548 15.9586C13.2523 15.9666 13.248 15.9739 13.2424 15.9801C13.2368 15.9863 13.23 15.9913 13.2223 15.9946C13.2147 15.998 13.2064 15.9997 13.198 15.9997C13.0532 15.9972 12.9831 15.9888 12.8002 15.9888C12.6875 15.9888 12.4542 16.0002 12.2991 16.0002C12.1439 16.0002 12.1355 15.8465 12.2002 15.8326C12.4903 15.7704 12.6045 15.6844 12.7023 15.6018C12.7193 15.5877 12.7406 15.5797 12.7626 15.5791V15.5791Z" fill="#263238" />
	<path d="M12.75 14.7629L12.7629 15.2053H13.1335L13.1207 14.7629H12.75Z" fill="#CE6F64" />
	<path d="M14.7086 14.7629H14.3379L14.3997 15.2053H14.7698L14.7086 14.7629Z" fill="#CE6F64" />
	<path d="M13.3269 3.71436C13.3521 4.08108 13.3704 4.23577 13.2113 4.4468C12.9716 4.7636 12.5159 4.71467 12.3814 4.36279C12.2604 4.04599 12.2396 3.49987 12.5767 3.30811C12.6508 3.26561 12.7346 3.24277 12.8201 3.24174C12.9055 3.24071 12.9898 3.26153 13.065 3.30222C13.1401 3.34292 13.2036 3.40214 13.2495 3.47427C13.2953 3.5464 13.322 3.62904 13.3269 3.71436V3.71436Z" fill="#E4897B" />
	<path d="M13.5411 4.055C13.7467 4.16966 13.8994 3.88696 13.8994 3.88696C13.8994 3.88696 13.5307 3.92699 13.5639 3.70756C13.6073 3.41646 13.3988 3.06259 12.8759 3.10806C12.8467 3.11053 12.8191 3.11399 12.7919 3.11844C12.7371 3.09249 12.6752 3.08579 12.6162 3.09943C12.5572 3.11306 12.5045 3.14623 12.4667 3.19356C12.3184 3.20592 12.1182 3.38285 12.2542 3.61662C12.2637 3.58976 12.2785 3.56506 12.2977 3.54397C12.309 3.68087 12.4286 3.89833 12.5779 3.91266C12.61 4.09997 12.4855 4.31694 12.5285 4.51265C12.5922 4.79485 13.0681 4.85861 13.0681 4.85861C13.0517 4.82336 13.0456 4.7842 13.0505 4.74563C13.0554 4.70707 13.0711 4.67067 13.0958 4.64065C13.419 4.78892 13.6321 4.64411 13.6321 4.64411C13.4116 4.56207 13.4784 4.41578 13.4784 4.41578C13.5545 4.44957 13.6407 4.45254 13.719 4.42406C13.7972 4.39558 13.8614 4.33787 13.898 4.26306C13.8247 4.26654 13.7521 4.24874 13.6888 4.21182C13.6254 4.1749 13.5742 4.12043 13.5411 4.055V4.055Z" fill="#263238" />
	<path d="M12.7064 3.969C12.7072 4.00419 12.7011 4.03921 12.6884 4.07204C12.6757 4.10486 12.6566 4.13485 12.6322 4.16026C12.567 4.22797 12.4869 4.18053 12.4652 4.09404C12.4459 4.01595 12.4568 3.88696 12.5418 3.85137C12.5605 3.84402 12.5807 3.84146 12.6007 3.84393C12.6206 3.8464 12.6397 3.85381 12.656 3.8655C12.6724 3.87719 12.6855 3.89278 12.6943 3.91085C12.7031 3.92893 12.7073 3.94892 12.7064 3.969V3.969Z" fill="#E4897B" />
	<path d="M13.0156 7.38551C13.0156 7.38551 13.1095 9.825 13.3329 11.2573C13.5128 12.4147 14.312 15.1191 14.312 15.1191H14.8171C14.8171 15.1191 14.4004 12.5072 14.309 11.363C14.0777 8.46737 14.6782 7.84563 14.1113 7.24268L13.0156 7.38551Z" fill="#263238" />
	<path d="M13.436 8.15719C13.436 8.15719 13.2077 8.11765 13.0742 8.55257C13.1236 9.37644 13.2082 10.4697 13.3312 11.2575C13.3584 11.4329 13.3999 11.6444 13.4508 11.8762C13.3544 10.4845 13.436 8.15719 13.436 8.15719Z" fill="#161F33" />
	<path d="M12.6195 7.43701C12.6195 7.43701 12.2034 10.136 12.2276 11.2653C12.2528 12.4401 12.6833 15.1202 12.6833 15.1202H13.1839C13.1839 15.1202 13.1048 12.5097 13.1488 11.3562C13.1982 10.0984 13.7117 7.29517 13.7117 7.29517L12.6195 7.43701Z" fill="#263238" />
	<path d="M14.8881 15.1431H14.2165L14.1641 14.9177L14.8832 14.9227L14.8881 15.1431V15.1431Z" fill="#6495ED" />
	<path opacity="0.2" d="M14.8881 15.1431H14.2165L14.1641 14.9177L14.8832 14.9227L14.8881 15.1431V15.1431Z" fill="black" />
	<path d="M14.0854 4.98006C14.2786 4.99884 14.5722 5.54792 14.5722 5.54792L14.0844 5.92205C14.0844 5.92205 13.6806 5.56769 13.7286 5.36852C13.7785 5.16144 13.9001 4.96276 14.0854 4.98006V4.98006Z" fill="#6495ED" />
	<path opacity="0.1" d="M14.0854 4.98006C14.2786 4.99884 14.5722 5.54792 14.5722 5.54792L14.0844 5.92205C14.0844 5.92205 13.6806 5.56769 13.7286 5.36852C13.7785 5.16144 13.9001 4.96276 14.0854 4.98006V4.98006Z" fill="black" />
	<path d="M13.9398 5.21646C13.8906 5.20319 13.8396 5.19752 13.7886 5.19966C13.7627 5.25369 13.7426 5.31036 13.7288 5.36868C13.6794 5.56637 14.0846 5.92222 14.0846 5.92222L14.1207 5.89454L13.9398 5.21646Z" fill="#6495ED" />
	<path opacity="0.3" d="M13.9398 5.21646C13.8906 5.20319 13.8396 5.19752 13.7886 5.19966C13.7627 5.25369 13.7426 5.31036 13.7288 5.36868C13.6794 5.56637 14.0846 5.92222 14.0846 5.92222L14.1207 5.89454L13.9398 5.21646Z" fill="black" />
	<path d="M12.4548 5.74373C12.3139 6.10006 12.1657 6.46233 12.0476 6.81966C12.0396 6.84239 12.0332 6.86414 12.0263 6.88638L12.0095 6.94123C12.0049 6.95739 12.0049 6.9745 12.0095 6.99066C12.0374 7.05245 12.0817 7.10543 12.1375 7.14387C12.2853 7.24989 12.4463 7.33612 12.6164 7.40037L12.5719 7.58224C12.3626 7.55465 12.1602 7.48863 11.9749 7.38752C11.8608 7.32659 11.768 7.2325 11.7085 7.11767C11.6744 7.04428 11.6625 6.96249 11.6744 6.88242C11.6755 6.87262 11.6772 6.86289 11.6794 6.85326L11.6843 6.83251L11.6927 6.79494C11.6986 6.76974 11.7046 6.74552 11.711 6.72081C11.7604 6.52312 11.8237 6.33531 11.8904 6.14899C11.9571 5.96267 12.0268 5.77882 12.1054 5.59546L12.4548 5.74373Z" fill="#E4897B" />
	<path d="M12.1547 5.24366C12.1547 5.24366 11.9877 5.32817 12.6203 7.43703L14.1118 7.24231C14.0071 6.63836 13.9577 6.26424 14.0847 4.98024C13.8708 4.96492 13.6561 4.96492 13.4422 4.98024C13.2145 4.99348 12.988 5.02321 12.7646 5.0692C12.4784 5.13295 12.1547 5.24366 12.1547 5.24366V5.24366Z" fill="#6495ED" />
	<path opacity="0.1" d="M12.1547 5.24366C12.1547 5.24366 11.9877 5.32817 12.6203 7.43703L14.1118 7.24231C14.0071 6.63836 13.9577 6.26424 14.0847 4.98024C13.8708 4.96492 13.6561 4.96492 13.4422 4.98024C13.2145 4.99348 12.988 5.02321 12.7646 5.0692C12.4784 5.13295 12.1547 5.24366 12.1547 5.24366V5.24366Z" fill="black" />
	<path d="M14.1231 7.15182L14.2086 7.27587C14.215 7.28575 14.2042 7.29761 14.1873 7.30008L12.6231 7.50469C12.6098 7.50469 12.5974 7.50123 12.5954 7.49283L12.5648 7.36087C12.5623 7.35198 12.5732 7.34259 12.588 7.34061L14.0984 7.14292C14.1029 7.14219 14.1076 7.14263 14.1119 7.14418C14.1162 7.14574 14.1201 7.14837 14.1231 7.15182V7.15182Z" fill="#6495ED" />
	<path opacity="0.2" d="M14.1231 7.15182L14.2086 7.27587C14.215 7.28575 14.2042 7.29761 14.1873 7.30008L12.6231 7.50469C12.6098 7.50469 12.5974 7.50123 12.5954 7.49283L12.5648 7.36087C12.5623 7.35198 12.5732 7.34259 12.588 7.34061L14.0984 7.14292C14.1029 7.14219 14.1076 7.14263 14.1119 7.14418C14.1162 7.14574 14.1201 7.14837 14.1231 7.15182V7.15182Z" fill="black" />
	<path d="M13.9414 7.3472L13.9819 7.34176C13.9898 7.34176 13.9952 7.33583 13.9943 7.33089L13.9527 7.15989C13.9512 7.15697 13.9486 7.15468 13.9456 7.15342C13.9425 7.15216 13.9391 7.152 13.9359 7.15297L13.8954 7.15791C13.887 7.15791 13.8816 7.16384 13.8831 7.16928L13.9246 7.33978C13.9256 7.34522 13.9335 7.34819 13.9414 7.3472V7.3472Z" fill="#263238" />
	<path d="M12.9609 7.47344L13.0014 7.468C13.0093 7.468 13.0153 7.46207 13.0138 7.45713L12.9723 7.28613C12.9706 7.28324 12.9681 7.28096 12.9651 7.27962C12.9621 7.27829 12.9587 7.27797 12.9555 7.27871L12.9149 7.28415C12.907 7.28415 12.9011 7.29008 12.9026 7.29502L12.9441 7.46603C12.9451 7.47344 12.953 7.4764 12.9609 7.47344Z" fill="#263238" />
	<path d="M12.2246 5.95919C12.2656 6.14996 12.3235 6.39163 12.408 6.69756L12.4263 5.92212L12.2246 5.95919Z" fill="#6495ED" />
	<path opacity="0.3" d="M12.2246 5.95919C12.2656 6.14996 12.3235 6.39163 12.408 6.69756L12.4263 5.92212L12.2246 5.95919Z" fill="black" />
	<path d="M12.1546 5.24352C11.9692 5.31815 11.8086 5.95224 11.8086 5.95224L12.4461 6.26261C12.4461 6.26261 12.754 5.48717 12.6162 5.33594C12.4783 5.18471 12.3681 5.15802 12.1546 5.24352Z" fill="#6495ED" />
	<path opacity="0.1" d="M12.1546 5.24352C11.9692 5.31815 11.8086 5.95224 11.8086 5.95224L12.4461 6.26261C12.4461 6.26261 12.754 5.48717 12.6162 5.33594C12.4783 5.18471 12.3681 5.15802 12.1546 5.24352Z" fill="black" />
	<path d="M13.2709 15.1431H12.5993L12.5469 14.9177L13.2946 14.9227L13.2709 15.1431Z" fill="#6495ED" />
	<path opacity="0.2" d="M13.2709 15.1431H12.5993L12.5469 14.9177L13.2946 14.9227L13.2709 15.1431Z" fill="black" />
	<path d="M12.6264 7.33925L12.5725 7.31701C12.5593 7.31162 12.5448 7.30983 12.5307 7.31183C12.5165 7.31382 12.5032 7.31952 12.4919 7.32835C12.4807 7.33719 12.472 7.34884 12.4667 7.36212C12.4614 7.3754 12.4597 7.38985 12.4618 7.40399L12.5009 7.66148C12.5027 7.67437 12.5074 7.68668 12.5147 7.69752C12.5219 7.70837 12.5314 7.71748 12.5426 7.72419C12.5537 7.73091 12.5662 7.73506 12.5792 7.73635C12.5921 7.73764 12.6052 7.73604 12.6175 7.73166C12.6371 7.72454 12.6554 7.71437 12.6719 7.70151C12.6897 7.68669 12.7039 7.66788 12.7131 7.64659C12.7224 7.6253 12.7266 7.60213 12.7252 7.57895L12.7198 7.47219C12.7189 7.44335 12.7095 7.4154 12.6929 7.39179C12.6763 7.36817 12.6532 7.34991 12.6264 7.33925V7.33925Z" fill="#E4897B" />
</svg>
