<svg viewBox="0 0 16 16" fill="none" xmlns="http://www.w3.org/2000/svg">
	<path d="M10.1571 3.59823H5.84581C5.74757 3.59836 5.65338 3.63839 5.58391 3.70956C5.51443 3.78073 5.47535 3.87723 5.47523 3.97788V13.7942L5.42582 13.8096L4.36819 14.1414C4.31807 14.1571 4.26393 14.1517 4.21766 14.1265C4.17138 14.1013 4.13676 14.0583 4.12139 14.007L0.975421 3.47953C0.960111 3.42818 0.965329 3.3727 0.989928 3.32529C1.01453 3.27788 1.05649 3.24242 1.10661 3.22669L2.73642 2.71544L7.46129 1.23382L9.09109 0.722569C9.11589 0.714749 9.14196 0.712016 9.16779 0.714527C9.19363 0.717038 9.21872 0.724744 9.24165 0.737204C9.26457 0.749663 9.28487 0.766631 9.30139 0.787137C9.31791 0.807644 9.33031 0.831285 9.3379 0.856709L10.142 3.54761L10.1571 3.59823Z" fill="#E6E6E7" />
	<path d="M11.0981 3.54801L10.1289 0.304852C10.1128 0.250815 10.0864 0.200563 10.0513 0.156967C10.0162 0.11337 9.97311 0.0772851 9.9244 0.0507723C9.87569 0.0242595 9.82236 0.00783884 9.76746 0.00244921C9.71255 -0.00294041 9.65715 0.00280663 9.60441 0.0193613L7.313 0.737898L2.58838 2.21977L0.296972 2.93856C0.190526 2.97204 0.101396 3.04743 0.0491482 3.14817C-0.00309992 3.24891 -0.0141982 3.36677 0.01829 3.47588L3.33077 14.5597C3.35716 14.6477 3.41041 14.7248 3.48271 14.7796C3.55501 14.8344 3.64255 14.8641 3.73248 14.8641C3.77411 14.8642 3.8155 14.8578 3.85526 14.8452L5.42602 14.3526L5.47543 14.3369V14.284L5.42602 14.2995L3.84069 14.7968C3.74673 14.8262 3.64525 14.8161 3.5585 14.7689C3.47175 14.7217 3.40683 14.6412 3.37796 14.545L0.0657342 3.46095C0.0514321 3.41329 0.0464474 3.3632 0.0510655 3.31357C0.0556835 3.26393 0.0698131 3.21572 0.0926462 3.17168C0.115479 3.12765 0.146567 3.08866 0.184129 3.05695C0.221691 3.02525 0.264989 3.00144 0.311544 2.9869L2.60295 2.26811L7.32759 0.786492L9.619 0.067703C9.65431 0.0566629 9.69102 0.0510338 9.72794 0.0509986C9.80717 0.0511809 9.88427 0.0773498 9.94793 0.125672C10.0116 0.173995 10.0585 0.241932 10.0817 0.319532L11.0465 3.54801L11.0618 3.59863H11.1132L11.0981 3.54801Z" fill="#3F3D56" />
	<path d="M3.03094 3.23519C2.98332 3.23516 2.93697 3.21949 2.89868 3.19049C2.86039 3.16149 2.83218 3.12068 2.81819 3.07406L2.49998 2.00924C2.49143 1.98064 2.48846 1.95059 2.49125 1.92081C2.49403 1.89103 2.50252 1.86211 2.51622 1.83569C2.52992 1.80927 2.54856 1.78588 2.57109 1.76685C2.59361 1.74781 2.61958 1.73351 2.6475 1.72476L6.99411 0.36149C7.0505 0.343863 7.11141 0.349875 7.16347 0.378206C7.21554 0.406538 7.25451 0.454874 7.27182 0.512606L7.59003 1.57743C7.60723 1.6352 7.60135 1.69759 7.5737 1.75093C7.54605 1.80426 7.49887 1.84418 7.44252 1.86193L3.0959 3.2252C3.07485 3.23181 3.05296 3.23518 3.03094 3.23519V3.23519Z" fill="#435EC8" />
	<path d="M4.69723 1.13787C4.97012 1.13787 5.19133 0.911239 5.19133 0.631678C5.19133 0.352117 4.97012 0.125488 4.69723 0.125488C4.42434 0.125488 4.20312 0.352117 4.20312 0.631678C4.20312 0.911239 4.42434 1.13787 4.69723 1.13787Z" fill="#435EC8" />
	<path d="M4.69765 0.952105C4.87045 0.952105 5.01053 0.808597 5.01053 0.63157C5.01053 0.454544 4.87045 0.311035 4.69765 0.311035C4.52485 0.311035 4.38477 0.454544 4.38477 0.63157C4.38477 0.808597 4.52485 0.952105 4.69765 0.952105Z" fill="white" />
	<path d="M14.8885 14.7346H6.53812C6.48245 14.7345 6.42907 14.7118 6.3897 14.6715C6.35033 14.6311 6.32819 14.5765 6.32812 14.5194V4.26909C6.32819 4.21205 6.35033 4.15737 6.3897 4.11704C6.42907 4.0767 6.48244 4.05402 6.53812 4.05396H14.8885C14.9442 4.05402 14.9975 4.07671 15.0369 4.11704C15.0763 4.15737 15.0984 4.21205 15.0985 4.26909V14.5194C15.0984 14.5765 15.0763 14.6311 15.0369 14.6715C14.9975 14.7118 14.9442 14.7345 14.8885 14.7346V14.7346Z" fill="#E6E6E6" />
	<path d="M11.0462 3.54761H5.84577C5.73443 3.54777 5.6277 3.59315 5.54897 3.67381C5.47024 3.75446 5.42594 3.86381 5.42578 3.97787V14.2991L5.47519 14.2836V3.97787C5.47531 3.87722 5.51439 3.78073 5.58386 3.70956C5.65333 3.63839 5.74752 3.59835 5.84577 3.59823H11.0615L11.0462 3.54761ZM15.5796 3.54761H5.84577C5.73443 3.54777 5.6277 3.59315 5.54897 3.67381C5.47024 3.75446 5.42594 3.86381 5.42578 3.97787V15.5696C5.42594 15.6837 5.47024 15.793 5.54897 15.8737C5.6277 15.9543 5.73443 15.9997 5.84577 15.9999H15.5796C15.691 15.9997 15.7977 15.9543 15.8764 15.8737C15.9552 15.793 15.9995 15.6837 15.9996 15.5696V3.97787C15.9995 3.86381 15.9552 3.75446 15.8764 3.67381C15.7977 3.59315 15.691 3.54777 15.5796 3.54761V3.54761ZM15.9502 15.5696C15.9501 15.6703 15.911 15.7668 15.8415 15.8379C15.7721 15.9091 15.6779 15.9491 15.5796 15.9493H5.84577C5.74752 15.9491 5.65333 15.9091 5.58386 15.8379C5.51439 15.7668 5.47531 15.6703 5.47519 15.5696V3.97787C5.47531 3.87722 5.51439 3.78073 5.58386 3.70956C5.65333 3.63839 5.74752 3.59835 5.84577 3.59823H15.5796C15.6779 3.59835 15.7721 3.63839 15.8415 3.70956C15.911 3.78073 15.9501 3.87722 15.9502 3.97787V15.5696Z" fill="#3F3D56" />
	<path d="M12.9869 4.66123H8.4411C8.38215 4.66116 8.32563 4.63714 8.28395 4.59444C8.24226 4.55173 8.21882 4.49384 8.21875 4.43344V3.31983C8.21882 3.25943 8.24226 3.20154 8.28395 3.15883C8.32563 3.11613 8.38215 3.09211 8.4411 3.09204H12.9869C13.0458 3.09211 13.1023 3.11613 13.144 3.15883C13.1857 3.20154 13.2091 3.25943 13.2092 3.31983V4.43344C13.2091 4.49384 13.1857 4.55173 13.144 4.59444C13.1023 4.63714 13.0458 4.66116 12.9869 4.66123V4.66123Z" fill="#435EC8" />
	<path d="M10.7129 3.16814C10.9857 3.16814 11.207 2.94151 11.207 2.66195C11.207 2.38239 10.9857 2.15576 10.7129 2.15576C10.44 2.15576 10.2188 2.38239 10.2188 2.66195C10.2188 2.94151 10.44 3.16814 10.7129 3.16814Z" fill="#435EC8" />
	<path d="M10.7131 2.97015C10.8793 2.97015 11.014 2.83211 11.014 2.66183C11.014 2.49155 10.8793 2.35352 10.7131 2.35352C10.5469 2.35352 10.4121 2.49155 10.4121 2.66183C10.4121 2.83211 10.5469 2.97015 10.7131 2.97015Z" fill="white" />
</svg>
