<svg width="18" height="18" viewBox="0 0 16 16"  xmlns="http://www.w3.org/2000/svg">
<path d="M14 8.00002C14 4.70003 11.325 2 8.00002 2C4.67501 2 2 4.70006 2 8.00002C2 11.3251 4.67501 14 8.00002 14C11.325 14 14 11.325 14 8.00002ZM4.49986 5.00001H5.99996V3.49992H7.00001V5.00001H8.5001V6.00006H7.00001V7.50015H5.99996V6.00006H4.49986V5.00001ZM8.00002 13.2501C6.55003 13.2501 5.25 12.6751 4.29987 11.7001L11.7249 4.27503C12.6498 5.25003 13.2499 6.55007 13.2499 7.99992C13.2499 10.9 10.8999 13.2502 7.99967 13.2502L8.00002 13.2501Z"/>
<path d="M7.5 9.5H11.5001V10.5001H7.5V9.5Z" />
<path d="M7.5 0H8.50005V1.50009H7.5V0Z" />
<path d="M7.5 14.5H8.50005V16.0001H7.5V14.5Z"/>
<path d="M2.69643 1.99121L3.75704 3.05182L3.04986 3.75899L1.98926 2.69838L2.69643 1.99121Z"/>
<path d="M12.9498 12.2402L14.0105 13.3008L13.3033 14.008L12.2427 12.9474L12.9498 12.2402Z"/>
<path d="M0 7.5H1.50009V8.50005H0V7.5Z"/>
<path d="M14.5 7.5H16.0001V8.50005H14.5V7.5Z" />
<path d="M3.05279 12.2432L3.75997 12.9503L2.69936 14.0109L1.99219 13.3038L3.05279 12.2432Z"/>
<path d="M13.3008 1.98926L14.008 2.69643L12.9474 3.75704L12.2402 3.04986L13.3008 1.98926Z"/>
</svg>
