<svg width="17" height="17" viewBox="0 0 16 16"  xmlns="http://www.w3.org/2000/svg">
<path d="M7.82671 9.95299C7.87995 9.98177 7.93898 9.99773 7.99932 9.99971C8.06019 10.001 8.12013 9.9848 8.17206 9.95299L15.8094 5.28582L15.8092 5.28595C15.9068 5.22339 15.9658 5.1153 15.9658 4.99915C15.9658 4.88313 15.9068 4.77491 15.8092 4.71248L8.17193 0.0453048L8.17206 0.0454367C8.06479 -0.0151456 7.93385 -0.0151456 7.8267 0.0454367L0.189409 4.71261V4.71248C0.091864 4.77491 0.0328369 4.88313 0.0328369 4.99915C0.0328369 5.1153 0.091864 5.22339 0.189409 5.28595L7.82671 9.95299Z"/>
<path d="M14.4481 6.89941L8.51774 10.5198C8.36182 10.6159 8.18251 10.6669 7.99962 10.6669C7.81674 10.6669 7.63743 10.6159 7.48164 10.5198L1.55133 6.89941L0.223141 7.73277V7.7329C0.125464 7.79361 0.06604 7.90079 0.06604 8.01627C0.06604 8.13163 0.125461 8.2388 0.223141 8.29964L7.86043 12.9668V12.9667C7.96718 13.0286 8.0989 13.0286 8.20566 12.9667L15.8429 8.29951V8.29964C15.9406 8.2388 16 8.13162 16 8.01627C16 7.90078 15.9406 7.79361 15.8429 7.7329L14.4481 6.89941Z"/>
<path d="M14.4742 9.8999L8.49748 13.5402V13.5404C8.34025 13.6322 8.16146 13.6807 7.9795 13.6807C7.79742 13.6807 7.61876 13.6322 7.46152 13.5404L1.48476 9.90003L0.156572 10.7135V10.7133C0.0590271 10.7758 0 10.8838 0 11C0 11.1161 0.0590271 11.2242 0.156572 11.2867L7.79386 15.9538H7.79373C7.90061 16.0157 8.0322 16.0157 8.1391 15.9538L15.7764 11.2867C15.8739 11.2242 15.933 11.1161 15.933 11C15.933 10.8838 15.8739 10.7758 15.7764 10.7133L14.4742 9.8999Z"/>
</svg>
