<svg width="16" height="16" viewBox="0 0 16 16" xmlns="http://www.w3.org/2000/svg">
<path d="M2.41848 0V4.2927H13.5814V0H2.41848ZM0.377814 4.68287C0.168345 4.68287 0 4.85943 0 5.07927V11.701C0 11.9207 0.168345 12.0974 0.377967 12.0974H2.04653V9.36579H13.9535V12.0974H15.622C15.8315 12.0974 16 11.9209 16 11.701V5.07927C16 4.85959 15.8317 4.68287 15.622 4.68287H0.377814ZM11.7206 6.24384C12.0289 6.24384 12.2788 6.50585 12.2788 6.82918C12.2788 7.15251 12.0289 7.41452 11.7206 7.41452C11.4123 7.41452 11.1625 7.15251 11.1625 6.82918C11.1625 6.50585 11.4123 6.24384 11.7206 6.24384ZM13.5811 6.24384C13.8894 6.24384 14.1393 6.50585 14.1393 6.82918C14.1393 7.15251 13.8894 7.41452 13.5811 7.41452C13.2728 7.41452 13.023 7.15251 13.023 6.82918C13.023 6.50585 13.2728 6.24384 13.5811 6.24384ZM2.41825 9.75604V16H13.5811V9.75604H2.41825ZM3.90664 10.9267H12.0929C12.2984 10.9267 12.465 11.1015 12.465 11.317C12.465 11.5325 12.2984 11.7073 12.0929 11.7073H3.90664C3.70116 11.7073 3.53451 11.5325 3.53451 11.317C3.53451 11.1015 3.70116 10.9267 3.90664 10.9267ZM3.90664 12.4877H12.0929C12.2984 12.4877 12.465 12.6625 12.465 12.878C12.465 13.0935 12.2984 13.2682 12.0929 13.2682H3.90664C3.70116 13.2682 3.53451 13.0935 3.53451 12.878C3.53451 12.6625 3.70116 12.4877 3.90664 12.4877ZM3.90664 14.0487H12.0929C12.2984 14.0487 12.465 14.2234 12.465 14.4389C12.465 14.6544 12.2984 14.8292 12.0929 14.8292H3.90664C3.70116 14.8292 3.53451 14.6544 3.53451 14.4389C3.53451 14.2234 3.70116 14.0487 3.90664 14.0487Z"/>
</svg>
