<svg width="16" height="16" viewBox="0 0 16 16" xmlns="http://www.w3.org/2000/svg">
<path d="M5.76745 0L4.83719 2.35293H1.30236C0.580823 2.35293 0 3.08749 0 4.00001V14.3529C0 15.2654 0.580823 16 1.30236 16H14.6976C15.4192 16 16 15.2654 16 14.3529V4.00001C16 3.08749 15.4192 2.35293 14.6976 2.35293H11.1628L10.2325 0H5.76745ZM7.99992 4.47046C10.0505 4.47046 11.7208 6.58297 11.7208 9.17616C11.7208 11.7696 10.0504 13.8819 7.99992 13.8819C5.9493 13.8819 4.27908 11.7694 4.27908 9.17616C4.27908 6.58277 5.94946 4.47046 7.99992 4.47046V4.47046ZM7.99992 5.4115C6.3515 5.4115 5.02321 7.09138 5.02321 9.17612C5.02321 11.2609 6.3515 12.9407 7.99992 12.9407C9.64834 12.9407 10.9766 11.2609 10.9766 9.17612C10.9766 7.09138 9.64834 5.4115 7.99992 5.4115Z"/>
</svg>
