<svg width="17" height="17" viewBox="0 0 16 16" xmlns="http://www.w3.org/2000/svg">
<path d="M11.3777 4.31734L4.67271 4.36812L8.02511 7.66973L11.3777 4.31734ZM16 0V16H0V0H16ZM15.5428 0.457199H8.5332L15.5428 7.4668V0.457199ZM7.92389 0.457199H0.762141L4.21612 3.91118H11.3779L7.92389 0.457199ZM0.457128 0.761898V15.2383L7.66995 8.02544L0.457128 0.761898ZM0.761827 15.5429H15.2382L8.02537 8.33009L0.761827 15.5429V15.5429ZM15.5428 15.2382V8.53327L12.1904 11.8857L15.5428 15.2382ZM11.8859 11.5813L15.4921 8.02572L11.8859 4.41948L8.33034 8.02572L11.8859 11.5813Z"/>
</svg>
