<svg viewBox="0 0 16 16" fill="none" xmlns="http://www.w3.org/2000/svg">
	<path d="M4.60734 13.4559H10.3673C11.5193 13.4559 12.4473 12.5279 12.4473 11.3759V7.85589C12.4473 7.58389 12.2393 7.37589 11.9673 7.37589C11.6953 7.37589 11.4873 7.58389 11.4873 7.85589V11.3759C11.4873 11.9999 10.9913 12.4959 10.3673 12.4959H4.60734C3.98334 12.4959 3.48734 11.9999 3.48734 11.3759V5.61589C3.48734 4.99189 3.98334 4.49589 4.60734 4.49589H8.12734C8.39934 4.49589 8.60734 4.28789 8.60734 4.01589C8.60734 3.74389 8.39934 3.53589 8.12734 3.53589H4.60734C3.45534 3.53589 2.52734 4.46389 2.52734 5.61589V11.3759C2.52734 12.5279 3.45534 13.4559 4.60734 13.4559Z" />
	<path d="M13.4713 5.95208V3.02408C13.4713 2.99208 13.4713 2.96008 13.4553 2.92808C13.4553 2.91208 13.4553 2.89608 13.4393 2.89608C13.4393 2.88008 13.4233 2.86408 13.4233 2.84808C13.4233 2.83208 13.4073 2.81608 13.3913 2.80008C13.3913 2.78408 13.3753 2.76808 13.3753 2.76808C13.3433 2.72008 13.2953 2.67208 13.2473 2.64008L13.2153 2.62408C13.1833 2.57608 13.1513 2.56008 13.1193 2.56008L13.0713 2.54408C13.0393 2.54408 13.0073 2.52808 12.9753 2.52808H10.0473C9.7753 2.52808 9.5673 2.73608 9.5673 3.00808C9.5673 3.28008 9.7753 3.48808 10.0473 3.48808H11.8233L7.4233 7.90408C7.2313 8.09608 7.2313 8.40008 7.4233 8.57608C7.6153 8.76808 7.9193 8.76808 8.0953 8.57608L12.5113 4.17608V5.95208C12.5113 6.22408 12.7193 6.43208 12.9913 6.43208C13.2473 6.43208 13.4553 6.20808 13.4713 5.95208Z" />
</svg>
