<svg viewBox="0 0 17 16" fill="none" xmlns="http://www.w3.org/2000/svg">
	<path d="M8.79094 11.2C9.84037 11.2 10.7325 11.8736 11.0586 12.8119L11.0977 12.8053L11.191 12.7999H15.9908C16.4327 12.7999 16.7909 13.1581 16.7909 13.5999C16.7909 14.0102 16.4821 14.3483 16.0842 14.3945L15.9909 14.3999H11.191C11.1457 14.3999 11.1014 14.3962 11.0582 14.389C10.7325 15.3264 9.84039 16 8.79096 16C7.74152 16 6.8495 15.3264 6.5234 14.3879L6.48434 14.3945L6.39104 14.4H1.59119C1.14934 14.4 0.791154 14.0418 0.791154 13.5999C0.791154 13.1896 1.09997 12.8515 1.49787 12.8053L1.59118 12.7999H6.39103C6.43629 12.7999 6.48063 12.8037 6.52379 12.811C6.8495 11.8736 7.74151 11.2 8.79094 11.2V11.2ZM8.79094 12.7999C8.34923 12.7999 7.99104 13.158 7.99104 13.5999C7.99104 14.0417 8.34923 14.3999 8.79094 14.3999C9.23278 14.3999 9.59097 14.0417 9.59097 13.5999C9.59097 13.158 9.23278 12.7999 8.79094 12.7999ZM3.19106 5.59991C4.24039 5.59991 5.13252 6.27352 5.45861 7.21184L5.49768 7.20524L5.59098 7.19996H15.9911C16.4329 7.19996 16.7911 7.55815 16.7911 7.99985C16.7911 8.41017 16.4823 8.74826 16.0844 8.79448L15.9911 8.79989H5.59099C5.54572 8.79989 5.50138 8.7962 5.45823 8.78894C5.13252 9.72634 4.24037 10.3999 3.19108 10.3999C1.86555 10.3999 0.791016 9.32541 0.791016 7.99989C0.791016 6.6745 1.86555 5.59996 3.19108 5.59996L3.19106 5.59991ZM3.19106 7.19994C2.74922 7.19994 2.39103 7.55813 2.39103 7.99984C2.39103 8.44168 2.74922 8.79987 3.19106 8.79987C3.63277 8.79987 3.99095 8.44168 3.99095 7.99984C3.99095 7.55813 3.63277 7.19994 3.19106 7.19994ZM11.9911 0C13.0405 0 13.9325 0.673607 14.2586 1.61192L14.2977 1.60532L14.391 1.60004H15.991C16.4329 1.60004 16.791 1.95823 16.791 2.40007C16.791 2.81026 16.4822 3.14835 16.0843 3.1947L15.991 3.19998H14.391C14.3457 3.19998 14.3014 3.19628 14.2582 3.18903C13.9325 4.12643 13.0405 4.80003 11.9911 4.80003C10.9416 4.80003 10.0495 4.12643 9.72339 3.18811L9.68433 3.19471L9.59102 3.19999H1.59105C1.14921 3.19999 0.791019 2.8418 0.791019 2.40009C0.791019 1.98977 1.09983 1.65169 1.49774 1.60537L1.59104 1.60009H9.59101C9.63628 1.60009 9.68062 1.60378 9.72391 1.61104C10.0495 0.673641 10.9416 3.35088e-05 11.9911 3.35088e-05L11.9911 0ZM11.9911 1.60003C11.5492 1.60003 11.191 1.95822 11.191 2.40006C11.191 2.84177 11.5492 3.19996 11.9911 3.19996C12.4329 3.19996 12.7911 2.84177 12.7911 2.40006C12.7911 1.95822 12.4329 1.60003 11.9911 1.60003Z" />
</svg>
