<svg viewBox="0 0 13 8" fill="none" xmlns="http://www.w3.org/2000/svg">
	<path d="M5.58217 7.25941C5.64971 7.32976 5.72991 7.38557 5.8182 7.42365C5.90648 7.46173 6.00111 7.48132 6.09668 7.48132C6.19225 7.48132 6.28688 7.46173 6.37516 7.42365C6.46345 7.38557 6.54365 7.32976 6.61119 7.25941L11.8836 1.77372C12.02 1.63174 12.0967 1.43918 12.0967 1.23839C12.0967 1.0376 12.02 0.845041 11.8836 0.703063C11.7471 0.561085 11.562 0.481323 11.3691 0.481323C11.1761 0.481323 10.991 0.561085 10.8545 0.703063L6.09668 5.65343L1.33882 0.703063C1.27125 0.632763 1.19104 0.576998 1.10276 0.538952C1.01448 0.500905 0.919861 0.481323 0.824308 0.481323C0.728754 0.481323 0.634136 0.500905 0.545857 0.538952C0.457577 0.576998 0.377364 0.632763 0.309797 0.703063C0.242231 0.773363 0.188634 0.856822 0.152067 0.948673C0.1155 1.04053 0.0966797 1.13897 0.0966797 1.23839C0.0966797 1.33781 0.1155 1.43626 0.152067 1.52811C0.188634 1.61996 0.242231 1.70342 0.309797 1.77372L5.58217 7.25941Z" />
</svg>
