<svg viewBox="0 0 19 18" fill="none" xmlns="http://www.w3.org/2000/svg">
	<path d="M14.0131 10.6074C13.1606 10.6074 12.3431 10.9461 11.7402 11.5488C11.1375 12.1517 10.7988 12.9692 10.7988 13.8217C10.7988 14.6742 11.1375 15.4919 11.7402 16.0946C12.3431 16.6975 13.1606 17.036 14.0131 17.036C14.8656 17.036 15.6833 16.6975 16.286 16.0946C16.8889 15.4919 17.2274 14.6742 17.2274 13.8217C17.2265 12.9696 16.8875 12.1525 16.285 11.5498C15.6824 10.9473 14.8654 10.6082 14.0131 10.6074V10.6074ZM14.0131 14.786C13.7574 14.786 13.5122 14.6844 13.3313 14.5036C13.1505 14.3228 13.0488 14.0774 13.0488 13.8217C13.0493 13.763 13.0553 13.7043 13.0665 13.6466L12.1811 13.1358L12.5024 12.5791L13.3895 13.0912V13.0911C13.4788 13.015 13.5813 12.956 13.6917 12.9166V11.2504H14.3347V12.9166C14.6226 13.0181 14.8454 13.2502 14.9348 13.5422C15.0242 13.8342 14.9698 14.1514 14.7879 14.3967C14.6061 14.6421 14.3185 14.7867 14.0131 14.786L14.0131 14.786Z" />
	<path d="M14.3343 13.8214C14.3343 13.9989 14.1903 14.1429 14.0128 14.1429C13.8353 14.1429 13.6914 13.9989 13.6914 13.8214C13.6914 13.6439 13.8353 13.5 14.0128 13.5C14.1903 13.5 14.3343 13.6439 14.3343 13.8214Z" />
	<path d="M13.2366 3.85721L9.83398 0.45459V2.89292C9.83398 3.14863 9.93562 3.39399 10.1165 3.57487C10.2972 3.75558 10.5426 3.85721 10.7983 3.85721H13.2366Z" />
	<path d="M14.0126 9.64258C12.9044 9.64258 11.8415 10.0829 11.0579 10.8665C10.2743 11.6501 9.83398 12.713 9.83398 13.8212C9.83398 14.9294 10.2743 15.9922 11.0579 16.776C11.8415 17.5596 12.9044 17.9998 14.0126 17.9998C15.1208 17.9998 16.1837 17.5596 16.9674 16.776C17.751 15.9922 18.1912 14.9293 18.1912 13.8212C18.19 12.7133 17.7493 11.6513 16.9659 10.8679C16.1827 10.0845 15.1205 9.64397 14.0126 9.64262V9.64258ZM14.0126 17.6783C12.9896 17.6783 12.0085 17.2719 11.2851 16.5485C10.5618 15.8252 10.1554 14.8441 10.1554 13.8211C10.1554 12.798 10.5618 11.8169 11.2851 11.0936C12.0085 10.3703 12.9896 9.96385 14.0126 9.96385C15.0356 9.96385 16.0167 10.3702 16.7401 11.0936C17.4634 11.8169 17.8698 12.798 17.8698 13.8211C17.8688 14.8437 17.4621 15.8241 16.7389 16.5473C16.0157 17.2705 15.0353 17.6773 14.0126 17.6783V17.6783Z" />
	<path d="M13.6915 9.01645V4.50014H10.7986C10.3725 4.49963 9.96394 4.33012 9.66278 4.02875C9.36143 3.72756 9.19191 3.31896 9.19139 2.89292V0H1.15569C0.899984 0 0.654804 0.101638 0.473926 0.28252C0.293048 0.463402 0.191406 0.708591 0.191406 0.964287V15.1074C0.191406 15.3631 0.293044 15.6083 0.473926 15.7892C0.654809 15.9701 0.899997 16.0715 1.15569 16.0715H9.75218C8.98744 14.6293 9.00608 12.8975 9.80206 11.4718C10.598 10.0465 12.0626 9.12191 13.6917 9.0164L13.6915 9.01645ZM12.4058 5.78571V6.42864H4.69159V5.78571H12.4058ZM2.76292 1.9285H4.6915V2.57143H2.76292V1.9285ZM1.47723 1.9285H2.12016V2.57143H1.47723V1.9285ZM1.47723 3.21419L4.6915 3.21436V3.85729L1.47723 3.85712V3.21419ZM1.47723 5.78571H4.04874V6.42864H1.47723V5.78571ZM1.47723 7.39293H12.4059V8.03586L1.47723 8.03569V7.39293ZM7.90569 9.00016V9.64309L6.62 9.64292V8.99999L7.90569 9.00016ZM5.97711 12.8572H1.47731V12.2144H5.97711V12.8572ZM5.97711 11.25L1.47731 11.2501V10.6072H5.97711V11.25ZM5.97711 9.64274L1.47731 9.64291V8.99998H5.97711V9.64274ZM8.54862 12.857L6.62004 12.8572V12.2144H8.54862V12.857ZM9.19156 11.2498L6.62004 11.2501V10.6072H9.19156V11.2498ZM10.4773 9.64257L8.54867 9.64291V8.99997H10.4773V9.64257Z" />
</svg>
