<svg width="17" height="16" viewBox="0 0 17 16" fill="none" xmlns="http://www.w3.org/2000/svg">
<path fill-rule="evenodd" clip-rule="evenodd" d="M1.70166 0.800055C1.70166 0.358229 2.05988 0 2.50171 0H3.06314C3.81016 0 4.4577 0.51691 4.62335 1.24541L4.88561 2.40004H15.3016C15.5479 2.40004 15.7805 2.51343 15.9323 2.70759C16.0838 2.90175 16.1375 3.15497 16.0778 3.39396L14.4778 9.79391C14.3888 10.1501 14.0688 10.4 13.7016 10.4H6.50181C6.50181 10.8418 6.86003 11.1999 7.30186 11.1999H14.5017C14.9435 11.1999 15.3016 11.5581 15.3016 11.9999C15.3016 12.4417 14.9435 12.8 14.5017 12.8H7.30186C5.97634 12.8 4.90182 11.7254 4.90182 10.3999V9.68964L3.47114 3.39429C3.46845 3.38352 3.46591 3.37259 3.46369 3.36166L3.06334 1.6H2.50192C2.06009 1.6 1.70186 1.24177 1.70186 0.800103L1.70166 0.800055Z" fill="black"/>
<path d="M5.70142 14.7996C5.70142 14.137 6.2386 13.5996 6.90138 13.5996C7.56416 13.5996 8.10134 14.137 8.10134 14.7996C8.10134 15.4623 7.56416 15.9997 6.90138 15.9997C6.2386 15.9997 5.70142 15.4623 5.70142 14.7996Z" fill="black"/>
<path d="M12.1013 14.7996C12.1013 14.137 12.6387 13.5996 13.3013 13.5996C13.9641 13.5996 14.5014 14.137 14.5014 14.7996C14.5014 15.4623 13.9641 15.9997 13.3013 15.9997C12.6387 15.9997 12.1013 15.4623 12.1013 14.7996Z" fill="black"/>
<path d="M1.70151 5.59995C2.14333 5.59995 2.50156 5.24172 2.50156 4.79989C2.50156 4.35807 2.14334 4 1.70151 4H0.901617C0.459791 4 0.101562 4.35807 0.101562 4.79989C0.101562 5.24172 0.459787 5.59995 0.901617 5.59995H1.70151Z" fill="black"/>
<path d="M3.30174 7.20044C3.30174 7.64227 2.94367 8.00034 2.50185 8.00034H0.901861C0.460035 8.00034 0.101807 7.64227 0.101807 7.20044C0.101807 6.75862 0.460031 6.40039 0.901861 6.40039H2.50185C2.94367 6.40039 3.30174 6.75861 3.30174 7.20044Z" fill="black"/>
<path d="M3.30174 8.7998H0.901861C0.460035 8.7998 0.101807 9.15787 0.101807 9.5997C0.101807 10.0415 0.460031 10.3998 0.901861 10.3998H3.30174C3.74357 10.3998 4.10179 10.0415 4.10179 9.5997C4.10179 9.15787 3.74357 8.7998 3.30174 8.7998Z" fill="black"/>
</svg>
