<svg viewBox="0 0 16 16" fill="none" xmlns="http://www.w3.org/2000/svg">
	<path d="M7.36978 2.10096H6.94961C3.1177 2.10096 0 5.21872 0 9.0507C0 12.8825 3.1177 16 6.94961 16C10.7817 16 13.8992 12.8824 13.8992 9.0507V8.63053H7.36966L7.36978 2.10096ZM13.0451 9.47076C12.8281 12.644 10.1772 15.1595 6.95017 15.1595C3.58142 15.1595 0.841099 12.4189 0.841099 9.05026C0.841099 5.82281 3.35707 3.17172 6.53057 2.95527L6.5304 9.47076H13.0451ZM9.06034 0.000693067L8.63966 0V7.37024H16V6.95007C16 3.12345 12.887 0.00609027 9.06015 0.000767517L9.06034 0.000693067ZM9.47981 6.52994V0.855882C12.5093 1.06727 14.9386 3.49992 15.1453 6.52994H9.47981Z" />
</svg>
