<svg viewBox="0 0 14 14" fill="none" xmlns="http://www.w3.org/2000/svg">
	<path d="M2.18743 13.9999H11.8126C13.0188 13.9999 14 13.0186 14 11.8123V2.18726C14 0.981091 13.0187 0 11.8124 0H2.18728C0.981102 0 0 0.981127 0 2.18741V11.8124C0 13.0188 0.981138 14 2.18743 14V13.9999ZM11.8126 13.1248H6.74373L10.5004 9.36859L13.1133 11.9814C13.0298 12.6253 12.4792 13.1247 11.8128 13.1247L11.8126 13.1248ZM13.1251 8.13104L12.4313 7.43719L13.1251 6.74333V8.13104ZM11.8126 0.874667C12.5363 0.874667 13.1251 1.46332 13.1251 2.18722V2.88108L10.5 5.50615L5.86872 0.874519L11.8126 0.874667ZM4.6315 0.874667L10.1911 6.43418C10.362 6.60509 10.6388 6.60509 10.8097 6.43418L13.1254 4.11859V5.50619L11.5035 7.12808C11.3326 7.29884 11.3326 7.57583 11.5035 7.74674L13.1254 9.36862V10.7562L10.8097 8.44049C10.6388 8.26958 10.362 8.26958 10.1911 8.44049L5.50655 13.125H4.11878L9.49691 7.74688C9.66782 7.57612 9.66782 7.29913 9.49691 7.12822L3.24373 0.875111L4.6315 0.874667ZM5.90638 10.0995L3.24373 7.43689L5.90638 4.77427L8.56902 7.43689L5.90638 10.0995ZM0.875231 2.18685C0.875231 1.52041 1.37469 0.969857 2.01874 0.886455L5.28779 4.15561L0.875231 8.56812V2.18685ZM0.875231 9.80573L2.62529 8.0557L5.28779 10.7183L2.88152 13.1246H2.18765C1.46389 13.1246 0.875083 12.5359 0.875083 11.812L0.875231 9.80573Z" />
</svg>
