<svg viewBox="0 0 24 26" fill="none" xmlns="http://www.w3.org/2000/svg">
	<path d="M11.7803 5.36719C10.0381 5.36719 8.62012 6.77832 8.62012 8.5127V10.3907C7.66101 10.4938 6.90918 11.2991 6.90918 12.2852V17C6.90918 18.0557 7.76758 18.915 8.82324 18.915H14.7227C15.7783 18.915 16.6367 18.0557 16.6367 17V12.2852C16.6367 11.2991 15.8849 10.4938 14.9258 10.3907V8.5127C14.9258 6.77832 13.5146 5.36719 11.7803 5.36719ZM11.7803 6.36719C12.9629 6.36719 13.9258 7.33008 13.9258 8.5127V10.3701H9.62012V8.5127C9.62012 7.33008 10.5889 6.36719 11.7803 6.36719ZM15.6367 12.2852V17C15.6367 17.5049 15.2266 17.915 14.7227 17.915H8.82324C8.31934 17.915 7.90918 17.5049 7.90918 17V12.2852C7.90918 11.7803 8.31934 11.3701 8.82324 11.3701C9.98912 11.3701 14.8253 11.37 14.7227 11.3701C15.2266 11.3701 15.6367 11.7803 15.6367 12.2852Z" />
	<path d="M0.158203 12.9055C0.158203 14.9758 0.713867 17.0168 1.76465 18.8078C1.90549 19.0469 2.21058 19.125 2.44922 18.9865C2.6875 18.8459 2.76758 18.5402 2.62793 18.3019C1.66602 16.6642 1.1582 14.798 1.1582 12.9055C1.1582 7.04706 5.91992 2.28143 11.7734 2.28143C13.2646 2.28143 14.7242 2.60413 16.0651 3.20313L15.0254 3.50116C14.7598 3.57733 14.6064 3.8537 14.6826 4.11932C14.7599 4.39103 15.0453 4.53821 15.3008 4.4621L17.8086 3.74335C18.0732 3.66815 18.2266 3.39276 18.1523 3.12811L17.4785 0.714051C17.4043 0.448426 17.1289 0.291199 16.8623 0.367371C16.5967 0.44159 16.4414 0.716981 16.5156 0.983582L16.9475 2.53156C15.3509 1.72736 13.5854 1.28143 11.7734 1.28143C5.36914 1.28143 0.158203 6.49628 0.158203 12.9055Z" />
	<path d="M11.7736 23.5198C10.2484 23.5198 8.7499 23.1734 7.37039 22.5398L8.63009 22.0423C8.88693 21.9407 9.01291 21.6507 8.91134 21.3938C8.81076 21.137 8.52072 21.0091 8.2629 21.1126C8.16182 21.1515 5.93512 21.9972 5.83499 22.0719L5.83322 22.0725C5.56969 22.1763 5.45095 22.4729 5.55294 22.7249L6.48849 25.0364C6.59112 25.2885 6.87862 25.4164 7.13986 25.3128C7.39572 25.2093 7.51974 24.9173 7.41623 24.6614L6.91671 23.4279C8.43722 24.1335 10.0906 24.5198 11.7736 24.5198C18.1779 24.5198 23.3879 19.3098 23.3879 12.9055C23.3879 10.8176 22.8322 8.77566 21.7795 7.00124C21.6389 6.76296 21.3313 6.68483 21.0949 6.82644C20.8576 6.96706 20.7785 7.2737 20.9201 7.51101C21.8801 9.13112 22.3879 10.9964 22.3879 12.9055C22.3879 18.7581 17.6262 23.5198 11.7736 23.5198Z" />
	<path d="M11.7783 12.3184C10.8799 12.3184 10.1494 13.0488 10.1494 13.9473C10.1494 14.6655 10.6255 15.269 11.2783 15.4802V16.4668C11.2783 16.7432 11.502 16.9668 11.7783 16.9668C12.0547 16.9668 12.2783 16.7432 12.2783 16.4668V15.4792C12.9252 15.267 13.3965 14.6642 13.3965 13.9473C13.3965 13.0488 12.6709 12.3184 11.7783 12.3184ZM11.7783 14.5664C11.4316 14.5664 11.1494 14.2891 11.1494 13.9473C11.1494 13.6064 11.4375 13.3184 11.7783 13.3184C12.1191 13.3184 12.3965 13.6006 12.3965 13.9473C12.3965 14.2891 12.1191 14.5664 11.7783 14.5664Z" fill="#8C8C8C" fill-opacity="0.95" />
</svg>
