<svg  viewBox="0 0 16 16" fill="none" xmlns="http://www.w3.org/2000/svg">
<path fill-rule="evenodd" clip-rule="evenodd" d="M6.15361 15.0366C6.15361 15.5687 6.98252 16 7.99975 16C9.01953 16 9.8459 15.5698 9.8459 15.0366V8.84632C9.8459 8.49422 10.3697 8.12021 11.0144 8.01149L11.0809 8.0004C13.9696 7.37274 16 5.88966 16 4.16C16 1.86263 12.4184 0 7.99974 0C3.58157 0 0 1.86263 0 4.16C0 5.89283 2.03756 7.37829 4.93496 8.00385L4.98775 8.01256C5.6319 8.12078 6.15372 8.49531 6.15372 8.84637L6.15361 15.0366ZM13.4926 2.82807C12.0784 1.25072 8.47236 0.5682 5.43851 1.30376C4.97659 1.41567 4.77659 1.70127 4.99233 1.94172C5.20755 2.18191 5.75678 2.28591 6.2187 2.17373C8.32824 1.6622 10.8358 2.13677 11.8196 3.23376C12.0354 3.47395 12.5846 3.57795 13.0465 3.46603C13.5084 3.35385 13.7084 3.06827 13.4927 2.82808L13.4926 2.82807Z" />
</svg>
