<svg width="100%" viewBox="0 0 24 30" xmlns="http://www.w3.org/2000/svg">
	<path fill-rule="evenodd" clip-rule="evenodd" d="M6.15361 30.0732C6.15361 31.1374 6.98252 32 7.99975 32C9.01953 32 9.8459 31.1395 9.8459 30.0732V17.6926C9.8459 16.9884 10.3697 16.2404 11.0144 16.023L11.0809 16.0008C13.9696 14.7455 16 11.7793 16 8.32001C16 3.72526 12.4184 0 7.99974 0C3.58157 0 0 3.72526 0 8.32001C0 11.7857 2.03756 14.7566 4.93496 16.0077L4.98775 16.0251C5.6319 16.2416 6.15372 16.9906 6.15372 17.6927L6.15361 30.0732ZM13.4926 5.65614C12.0784 2.50144 8.47236 1.1364 5.43851 2.60753C4.97659 2.83135 4.77659 3.40253 4.99233 3.88344C5.20755 4.36382 5.75678 4.57181 6.2187 4.34745C8.32824 3.32441 10.8358 4.27355 11.8196 6.46752C12.0354 6.9479 12.5846 7.1559 13.0465 6.93206C13.5084 6.70771 13.7084 6.13654 13.4927 5.65616L13.4926 5.65614Z" />
</svg>
