<svg height='300px' width='300px'  fill="#e6e6e7" xmlns="http://www.w3.org/2000/svg" xmlns:xlink="http://www.w3.org/1999/xlink" xmlns:serif="http://www.serif.com/" viewBox="0 0 100 101" version="1.1" xml:space="preserve" style="" x="0px" y="0px" fill-rule="evenodd" clip-rule="evenodd" stroke-linejoin="round" stroke-miterlimit="2"><path d="M79.131,63.173c0,-2.154 -1.746,-3.9 -3.9,-3.9l-50.462,-0c-2.154,-0 -3.9,1.746 -3.9,3.9l0,29.896c0,2.154 1.746,3.9 3.9,3.9l50.462,-0c2.154,0 3.9,-1.746 3.9,-3.9l0,-29.896Zm-46.928,24.774l35.594,0c1.082,0 1.96,-0.878 1.96,-1.96c0,-1.082 -0.878,-1.96 -1.96,-1.96l-35.594,0c-1.082,0 -1.96,0.878 -1.96,1.96c0,1.082 0.878,1.96 1.96,1.96Zm0,-8.143l35.594,0c1.082,0 1.96,-0.879 1.96,-1.96c0,-1.082 -0.878,-1.96 -1.96,-1.96l-35.594,0c-1.082,0 -1.96,0.878 -1.96,1.96c0,1.081 0.878,1.96 1.96,1.96Zm-14.834,-4.999l-8.54,0c-2.076,0 -4.068,-0.825 -5.536,-2.293c-1.468,-1.468 -2.293,-3.46 -2.293,-5.536l-0,-34.645c-0,-2.077 0.825,-4.068 2.293,-5.537c1.468,-1.468 3.46,-2.293 5.536,-2.293l82.342,0c2.076,0 4.068,0.825 5.536,2.293c1.468,1.469 2.293,3.46 2.293,5.537l0,34.645c0,2.076 -0.825,4.068 -2.293,5.536c-1.468,1.468 -3.46,2.293 -5.536,2.293l-8.54,0l0,-11.632c0,-4.087 -3.313,-7.4 -7.4,-7.4c0,-0 -50.462,-0 -50.462,-0c-4.087,-0 -7.4,3.313 -7.4,7.4l0,11.632Zm14.834,-3.192l35.594,0c1.082,0 1.96,-0.878 1.96,-1.96c0,-1.082 -0.878,-1.96 -1.96,-1.96l-35.594,0c-1.082,0 -1.96,0.878 -1.96,1.96c0,1.082 0.878,1.96 1.96,1.96Zm36.077,-37.848c-3.251,0 -5.891,2.64 -5.891,5.891c0,3.251 2.64,5.891 5.891,5.891c3.252,0 5.891,-2.64 5.891,-5.891c0,-3.251 -2.639,-5.891 -5.891,-5.891Zm15.424,0c-3.251,0 -5.891,2.64 -5.891,5.891c0,3.251 2.64,5.891 5.891,5.891c3.252,0 5.891,-2.64 5.891,-5.891c0,-3.251 -2.639,-5.891 -5.891,-5.891Zm0,3.92c-1.087,0 -1.971,0.883 -1.971,1.971c0,1.088 0.884,1.971 1.971,1.971c1.088,-0 1.971,-0.883 1.971,-1.971c0,-1.088 -0.883,-1.971 -1.971,-1.971Zm-15.424,-0c-1.087,0 -1.971,0.883 -1.971,1.971c0,1.088 0.884,1.971 1.971,1.971c1.088,-0 1.971,-0.883 1.971,-1.971c0,-1.088 -0.883,-1.971 -1.971,-1.971Zm-47.431,-16.684l0,-13.05c0,-2.165 1.755,-3.92 3.92,-3.92l50.462,-0c2.165,-0 3.92,1.755 3.92,3.92l0,13.05l-58.302,-0Z"></path></svg>