<svg viewBox="0 0 20 26" fill="none" xmlns="http://www.w3.org/2000/svg">
	<path d="M20 3.24998V4.55005C20 4.90891 19.72 5.19984 19.375 5.19984H0.625019C0.279739 5.19984 0 4.90889 0 4.55005V3.24998C0 2.89089 0.279751 2.59995 0.625019 2.59995H6.24983V1.29988C6.24983 0.581894 6.80957 0 7.49987 0H12.4999C13.1903 0 13.7498 0.5819 13.7498 1.29988V2.59995H19.3748C19.7199 2.59995 19.9998 2.8909 19.9998 3.24998H20ZM2.33748 23.5818C2.42959 24.9462 3.52224 26.0033 4.83762 26H15.1871C16.5023 26.0033 17.5952 24.9463 17.6873 23.5818L18.7497 7.8001H1.24963L2.33748 23.5818Z" />
</svg>
