<svg viewBox="0 0 12 16" fill="none" xmlns="http://www.w3.org/2000/svg">
	<path d="M7 4.50008C7 5.32835 6.32847 6 5.5 6C4.67169 6 4 5.32835 4 4.50008C4 3.67165 4.67169 3 5.5 3C6.32847 3 7 3.67165 7 4.50008Z" />
	<path d="M9.63381 5.30653C9.87685 5.07249 10.1539 4.80883 10.1539 4.44444C10.1539 4.08004 9.87685 3.81625 9.63381 3.58219C9.50458 3.45769 9.35688 3.3156 9.32308 3.21471C9.28615 3.09916 9.32308 2.8858 9.35688 2.69914C9.4153 2.3761 9.48308 2.00876 9.27688 1.72428C9.06461 1.42793 8.6861 1.37763 8.35683 1.3332C8.17532 1.30944 7.96914 1.27982 7.88297 1.21764C7.79373 1.15253 7.7045 0.962784 7.62455 0.796938C7.47989 0.491784 7.31681 0.148068 6.96918 0.0354492C6.62459 -0.0771694 6.29536 0.100558 6.00604 0.260687C5.84006 0.34955 5.6523 0.450291 5.53841 0.450291C5.42451 0.450291 5.23689 0.34955 5.07077 0.260687C4.7816 0.100704 4.44919 -0.0771694 4.10763 0.0354492C3.75998 0.148068 3.59688 0.49178 3.45225 0.796938C3.37231 0.962935 3.28308 1.15254 3.19384 1.21764C3.10765 1.27982 2.90147 1.30944 2.71997 1.3332C2.39075 1.37763 2.0122 1.42807 1.79991 1.72428C1.59372 2.00876 1.66148 2.37608 1.71996 2.69914C1.75377 2.88582 1.79077 3.09917 1.75377 3.21471C1.71996 3.31546 1.57225 3.45769 1.44297 3.58219C1.20009 3.81623 0.923096 4.07989 0.923096 4.44444C0.923096 4.80883 1.20009 5.07262 1.44312 5.30668C1.57241 5.43118 1.72012 5.57342 1.75392 5.67416C1.79077 5.78971 1.75392 6.00307 1.72012 6.18973C1.66164 6.51263 1.59388 6.88012 1.80006 7.1646C2.01233 7.46095 2.39088 7.51125 2.72012 7.55568C2.90163 7.57944 3.10782 7.60906 3.194 7.67123C3.28323 7.73634 3.37246 7.92608 3.45241 8.09193C3.59707 8.39709 3.76016 8.74081 4.10778 8.85341C4.18163 8.88012 4.25549 8.88889 4.32934 8.88889C4.5908 8.88889 4.84314 8.75251 5.07091 8.62822C5.23689 8.53916 5.42465 8.43842 5.53839 8.43842C5.65229 8.43842 5.83989 8.53916 6.00602 8.62806C6.29519 8.78799 6.6244 8.96593 6.96916 8.85325C7.31681 8.74066 7.47992 8.39694 7.62453 8.09178C7.70449 7.92576 7.79371 7.73619 7.88295 7.67109C7.96913 7.60891 8.17532 7.57915 8.35682 7.55554C8.68602 7.51111 9.06461 7.46066 9.27688 7.16445C9.48308 6.87997 9.4153 6.51265 9.3568 6.18958C9.32299 6.00291 9.28599 5.78956 9.32299 5.67402C9.3568 5.57327 9.50458 5.43104 9.63381 5.30654V5.30653ZM5.53833 6.51849C4.35057 6.51849 3.38455 5.58808 3.38455 4.44444C3.38455 3.30064 4.35073 2.37038 5.53833 2.37038C6.72609 2.37038 7.69212 3.30079 7.69212 4.44444C7.69227 5.58808 6.72609 6.51849 5.53833 6.51849Z" />
	<path d="M5.53841 12.6539L7.82811 14.1696C7.88051 14.2029 7.94205 14.2212 8.00053 14.2212C8.05597 14.2212 8.11126 14.2061 8.16061 14.1788C8.2622 14.1181 8.3207 14.0029 8.30531 13.8877L7.77604 8.88867C7.6222 9.0645 7.42511 9.21608 7.16664 9.30395C7.03122 9.3464 6.88973 9.37073 6.74506 9.37073C6.31416 9.37073 5.9602 9.17057 5.69867 9.02206C5.65847 9.00088 5.59388 8.96442 5.53844 8.9371C5.483 8.96741 5.41538 9.00371 5.36923 9.02804C5.1138 9.17057 4.75679 9.37057 4.32894 9.37057C4.17191 9.37057 4.02736 9.34623 3.89196 9.29482C3.63652 9.21285 3.44873 9.06135 3.29796 8.89166L2.77173 13.8877C2.75634 14.0029 2.81483 14.1181 2.91642 14.1787C3.02105 14.2393 3.15037 14.2363 3.24876 14.1696L5.53841 12.6539Z" />
</svg>
