<svg viewBox="0 0 26 26" fill="none" xmlns="http://www.w3.org/2000/svg">
	<path d="M19.7148 2.9622H17.1107V2.44137C17.1107 2.30323 17.0558 2.17076 16.9581 2.07308C16.8605 1.97541 16.728 1.92053 16.5898 1.92053H9.81901C9.68088 1.92053 9.5484 1.97541 9.45072 2.07308C9.35305 2.17076 9.29818 2.30323 9.29818 2.44137V2.9622H6.17318C5.62064 2.9622 5.09074 3.18169 4.70004 3.57239C4.30934 3.96309 4.08984 4.493 4.08984 5.04553V21.7122C4.08984 22.2647 4.30934 22.7946 4.70004 23.1853C5.09074 23.576 5.62064 23.7955 6.17318 23.7955H19.7148C20.2674 23.7955 20.7973 23.576 21.188 23.1853C21.5787 22.7946 21.7982 22.2647 21.7982 21.7122V5.04553C21.7982 4.493 21.5787 3.96309 21.188 3.57239C20.7973 3.18169 20.2674 2.9622 19.7148 2.9622ZM10.3398 2.9622H16.069V4.5247H10.3398V2.9622ZM20.7565 21.7122C20.7565 21.9885 20.6468 22.2534 20.4514 22.4488C20.2561 22.6441 19.9911 22.7539 19.7148 22.7539H6.17318C5.89691 22.7539 5.63196 22.6441 5.43661 22.4488C5.24126 22.2534 5.13151 21.9885 5.13151 21.7122V5.04553C5.13151 4.76927 5.24126 4.50431 5.43661 4.30896C5.63196 4.11361 5.89691 4.00387 6.17318 4.00387H9.29818V5.04553C9.29818 5.18367 9.35305 5.31614 9.45072 5.41382C9.5484 5.51149 9.68088 5.56637 9.81901 5.56637H16.5898C16.728 5.56637 16.8605 5.51149 16.9581 5.41382C17.0558 5.31614 17.1107 5.18367 17.1107 5.04553V4.00387H19.7148C19.9911 4.00387 20.2561 4.11361 20.4514 4.30896C20.6468 4.50431 20.7565 4.76927 20.7565 5.04553V21.7122Z" />
	<path d="M18.1523 8.17053H7.73568C7.59754 8.17053 7.46507 8.22541 7.36739 8.32308C7.26972 8.42076 7.21484 8.55323 7.21484 8.69137C7.21484 8.8295 7.26972 8.96198 7.36739 9.05965C7.46507 9.15733 7.59754 9.2122 7.73568 9.2122H18.1523C18.2905 9.2122 18.423 9.15733 18.5206 9.05965C18.6183 8.96198 18.6732 8.8295 18.6732 8.69137C18.6732 8.55323 18.6183 8.42076 18.5206 8.32308C18.423 8.22541 18.2905 8.17053 18.1523 8.17053Z" />
	<path d="M18.1523 11.2955H7.73568C7.59754 11.2955 7.46507 11.3504 7.36739 11.4481C7.26972 11.5458 7.21484 11.6782 7.21484 11.8164C7.21484 11.9545 7.26972 12.087 7.36739 12.1847C7.46507 12.2823 7.59754 12.3372 7.73568 12.3372H18.1523C18.2905 12.3372 18.423 12.2823 18.5206 12.1847C18.6183 12.087 18.6732 11.9545 18.6732 11.8164C18.6732 11.6782 18.6183 11.5458 18.5206 11.4481C18.423 11.3504 18.2905 11.2955 18.1523 11.2955Z" />
	<path d="M18.1523 14.4205H7.73568C7.59754 14.4205 7.46507 14.4754 7.36739 14.5731C7.26972 14.6708 7.21484 14.8032 7.21484 14.9414C7.21484 15.0795 7.26972 15.212 7.36739 15.3097C7.46507 15.4073 7.59754 15.4622 7.73568 15.4622H18.1523C18.2905 15.4622 18.423 15.4073 18.5206 15.3097C18.6183 15.212 18.6732 15.0795 18.6732 14.9414C18.6732 14.8032 18.6183 14.6708 18.5206 14.5731C18.423 14.4754 18.2905 14.4205 18.1523 14.4205Z" />
	<path d="M12.944 17.5455H7.73568C7.59754 17.5455 7.46507 17.6004 7.36739 17.6981C7.26972 17.7958 7.21484 17.9282 7.21484 18.0664C7.21484 18.2045 7.26972 18.337 7.36739 18.4347C7.46507 18.5323 7.59754 18.5872 7.73568 18.5872H12.944C13.0821 18.5872 13.2146 18.5323 13.3123 18.4347C13.41 18.337 13.4648 18.2045 13.4648 18.0664C13.4648 17.9282 13.41 17.7958 13.3123 17.6981C13.2146 17.6004 13.0821 17.5455 12.944 17.5455V17.5455Z" />
</svg>
