<svg viewBox="0 0 16 16" fill="none" xmlns="http://www.w3.org/2000/svg">
	<path d="M13.1202 5.03076L11.2354 6.91396V15.1999H13.1202V5.03076Z" />
	<path d="M9.07545 9.07403C8.81757 9.33458 8.47323 9.49166 8.10742 9.51563V15.1999H9.99222V8.15723L9.07545 9.07403Z" />
	<path d="M4.97949 8.09473V15.1999H6.86429V9.11396L4.97949 8.09473Z" />
	<path d="M1.85156 15.2H3.73636V9.0293L1.85156 10.7157V15.2Z" />
	<path d="M14.6398 0.799805H11.9675C11.819 0.799805 11.6765 0.858805 11.5715 0.963826C11.4665 1.06885 11.4075 1.21128 11.4075 1.3598C11.4075 1.50833 11.4665 1.65076 11.5715 1.75579C11.6765 1.8608 11.819 1.9198 11.9675 1.9198H13.2884L7.89922 7.30917L4.90639 5.68871C4.80497 5.63379 4.68906 5.61154 4.57451 5.62499C4.45995 5.63844 4.35232 5.68696 4.26639 5.76388L0.986392 8.69825C0.931586 8.7473 0.886977 8.80665 0.855109 8.87293C0.823241 8.9392 0.804743 9.01111 0.800666 9.08453C0.796589 9.15797 0.807014 9.23148 0.831349 9.3009C0.855684 9.37028 0.893451 9.43422 0.942491 9.48902C0.991531 9.54382 1.05089 9.58844 1.11717 9.62031C1.18345 9.65219 1.25536 9.67068 1.32879 9.67474C1.40222 9.67884 1.47574 9.66841 1.54514 9.64407C1.61454 9.61973 1.67847 9.58197 1.73327 9.53293L4.71968 6.86121L7.73328 8.49293C7.83934 8.55044 7.96115 8.5721 8.08057 8.55468C8.19995 8.53727 8.31051 8.48176 8.39577 8.39637L14.0798 2.7123V4.03213C14.0798 4.18065 14.1388 4.32311 14.2439 4.42813C14.3489 4.53314 14.4913 4.59213 14.6398 4.59213C14.7884 4.59213 14.9308 4.53314 15.0358 4.42813C15.1408 4.32311 15.1998 4.18065 15.1998 4.03213V1.3598C15.1998 1.21129 15.1408 1.06885 15.0358 0.963836C14.9308 0.858814 14.7884 0.799814 14.6398 0.799805Z" />
</svg>
