<svg width="16" height="16" viewBox="0 0 16 16" fill="none" xmlns="http://www.w3.org/2000/svg">
<path fill-rule="evenodd" clip-rule="evenodd" d="M4.00017 13.0001H13.4931C14.8801 13.0001 16 11.8811 16 10.501V8.9999C16 8.44395 15.552 7.99983 15 7.99983C14.4441 7.99983 14 8.44788 14 8.9999V9.99997C14 10.5559 13.5539 11 13.0039 11H4.00004V7.99987L0.000211357 11.9999L4.00004 16V12.9998L4.00017 13.0001ZM11.9998 2.99987H2.50691C1.1199 2.99987 0 4.11886 0 5.49903V7.0001C0 7.55605 0.44802 8.00017 1.00001 8.00017C1.55593 8.00017 2.00002 7.55212 2.00002 7.0001V6.00003C2.00002 5.44408 2.44606 4.99996 2.99606 4.99996H12V8.00013L15.9998 4.00006L12 0V3.00016L11.9998 2.99987Z" fill="black"/>
</svg>
