<svg viewBox="0 0 25 16" fill="none" xmlns="http://www.w3.org/2000/svg">
	<path d="M24.9742 2.15554C24.9742 0.966418 23.9722 0 22.7388 0L10.6884 0.000204356C9.45524 0.000204356 8.45301 0.966413 8.45301 2.15574V10.9264C8.45301 12.1155 9.45502 13.0819 10.6884 13.0819H12.9495V15.5595C12.9495 15.956 13.4376 16.1542 13.7203 15.8568L16.5979 13.1064C16.5979 13.1064 16.5979 13.0817 16.6235 13.0817H22.7646C23.9978 13.0817 25 12.1155 25 10.9262V2.15553L24.9742 2.15554ZM16.1102 2.99807H17.2921C17.4206 2.99807 17.549 3.09719 17.549 3.24576L17.4206 7.90363C17.4206 8.02747 17.3178 8.10186 17.215 8.10186H16.2386C16.1102 8.10186 16.0331 8.00275 16.0331 7.90363L15.9046 3.24576C15.879 3.09698 15.9818 2.99807 16.1102 2.99807H16.1102ZM17.549 9.73678C17.549 9.93501 17.395 10.0836 17.1894 10.0836H16.2387C16.0331 10.0836 15.879 9.93501 15.879 9.73678V9.14212C15.879 8.94389 16.0331 8.79533 16.2387 8.79533H17.1894C17.395 8.79533 17.549 8.94389 17.549 9.14212V9.73678ZM0 2.60153C0 2.05651 0.46243 1.61063 1.02763 1.61063L5.54981 1.61042C6.11503 1.61042 6.57744 2.05632 6.57744 2.60132C6.57744 3.14634 6.11501 3.59222 5.54981 3.59222L1.02784 3.59243C0.462625 3.59243 0 3.14652 0 2.60153V2.60153ZM6.55227 6.5407C6.55227 7.08572 6.08984 7.5316 5.52464 7.5316H2.18443C1.61921 7.5316 1.15681 7.08569 1.15681 6.5407C1.15681 5.99568 1.61924 5.5498 2.18443 5.5498H5.52464C6.11552 5.5498 6.55227 5.9957 6.55227 6.5407ZM6.55227 10.4801C6.55227 11.0251 6.08984 11.471 5.52464 11.471L3.49478 11.4712C2.92956 11.4712 2.46715 11.0253 2.46715 10.4803C2.46715 9.93528 2.92958 9.48938 3.49478 9.48938L5.55009 9.48918C6.11552 9.48918 6.55232 9.93508 6.55232 10.4801H6.55227Z" />
</svg>
