<svg viewBox="0 0 24 16" fill="none" xmlns="http://www.w3.org/2000/svg">
	<path d="M23.4691 6.90123L16.067 0.446071C15.385 -0.14869 14.2481 -0.14869 13.5661 0.446071C12.8841 1.04083 12.8841 2.03232 13.5661 2.62708L17.9366 6.46063H1.76847C0.783255 6.46063 0 7.14355 0 8.00287C0 8.86205 0.783095 9.54511 1.76847 9.54511H17.9366L13.5661 13.3563C12.8841 13.9511 12.8841 14.9426 13.5661 15.5373C13.9197 15.8457 14.3746 16 14.8293 16C15.284 16 15.7389 15.8457 16.0925 15.5373L23.4695 9.10405C23.7979 8.81766 24 8.42114 24 8.00245C24 7.58395 23.8231 7.18742 23.4695 6.90104L23.4691 6.90123Z" />
</svg>
