<svg viewBox="0 0 32 32" fill="none" xmlns="http://www.w3.org/2000/svg">
	<path d="M25.0215 23.5668L21.5957 20.1459C22.8545 18.5182 23.4456 16.472 23.2484 14.4238C23.0515 12.3756 22.081 10.4795 20.5348 9.12165C18.9886 7.76395 16.9831 7.04651 14.9267 7.11566C12.8702 7.18497 10.9174 8.03536 9.46588 9.49399C8.0146 10.9526 7.17366 12.9097 7.11464 14.9668C7.0558 17.0236 7.78302 19.0256 9.14839 20.565C10.5139 22.1043 12.4147 23.0654 14.4637 23.2522C16.5129 23.4392 18.5563 22.838 20.1778 21.571L23.5987 24.9969H23.5985C23.8545 25.244 24.2218 25.338 24.5649 25.2439C24.9082 25.1498 25.1763 24.8817 25.2704 24.5386C25.3644 24.1954 25.2705 23.828 25.0234 23.5722L25.0215 23.5668ZM9.19473 15.2106C9.19473 13.6071 9.83154 12.0694 10.9653 10.9357C12.0991 9.80212 13.6369 9.16514 15.2402 9.16514C16.8436 9.16514 18.3813 9.80195 19.5151 10.9357C20.6489 12.0696 21.2859 13.6073 21.2859 15.2106C21.2859 16.814 20.6489 18.3517 19.5151 19.4855C18.3813 20.6193 16.8436 21.2563 15.2402 21.2563C13.6372 21.2546 12.1004 20.6171 10.967 19.4837C9.83354 18.3502 9.19609 16.8135 9.1946 15.2105L9.19473 15.2106Z" fill="#333333" fill-opacity="1" />
</svg>
