<svg width="100%" viewBox="0 0 32 32" fill="none" xmlns="http://www.w3.org/2000/svg">
	<path d="M31.4993 28.983L25.4741 22.9579C27.688 20.0911 28.7276 16.4872 28.3809 12.8797C28.0345 9.27219 26.3277 5.93267 23.6084 3.54116C20.889 1.14988 17.3618 -0.113738 13.7452 0.00805186C10.1284 0.130134 6.69388 1.6279 4.14102 4.19696C1.58861 6.76594 0.109627 10.213 0.00582383 13.836C-0.0976646 17.4587 1.18133 20.9847 3.58264 23.6961C5.98425 26.4071 9.3272 28.0999 12.9309 28.4289C16.5349 28.7583 20.1287 27.6993 22.9804 25.4679L28.9968 31.5018H28.9965C29.4467 31.9371 30.0928 32.1025 30.6962 31.9368C31.2999 31.7711 31.7714 31.2989 31.9369 30.6946C32.1024 30.0901 31.9372 29.4431 31.5025 28.9925L31.4993 28.983ZM3.66414 14.2655C3.66414 11.4412 4.78412 8.73287 6.77815 6.73626C8.77218 4.73965 11.4767 3.61776 14.2966 3.61776C17.1165 3.61776 19.8209 4.73935 21.815 6.73626C23.8091 8.73324 24.9293 11.4416 24.9293 14.2655C24.9293 17.0895 23.809 19.7979 21.815 21.7948C19.8209 23.7917 17.1164 24.9136 14.2966 24.9136C11.4772 24.9106 8.7745 23.7878 6.78115 21.7915C4.78764 19.7952 3.66654 17.0886 3.66392 14.2653L3.66414 14.2655Z" />
</svg>
