<svg viewBox="0 0 13 16" fill="none" xmlns="http://www.w3.org/2000/svg">
	<path d="M11.1119 2.5916H12.3514L10.3232 0.563477V1.80293C10.3232 2.01948 10.4114 2.21539 10.5552 2.35981C10.6996 2.5035 10.8952 2.5916 11.1119 2.5916V2.5916Z" />
	<path d="M12.9149 3.26757H11.112C10.3042 3.26627 9.64858 2.61066 9.64729 1.80285V0H0.294922V16H12.915L12.9149 3.26757ZM9.87256 6.08437C9.87256 6.27099 9.72107 6.42248 9.53444 6.42248H3.67529C3.48867 6.42248 3.33718 6.27099 3.33718 6.08437C3.33718 5.89774 3.48867 5.74625 3.67529 5.74625H9.53444C9.72125 5.74644 9.87256 5.89774 9.87256 6.08437ZM2.21041 3.83098C2.21041 3.64435 2.3619 3.49286 2.54853 3.49286H4.35138C4.53801 3.49286 4.6895 3.64435 4.6895 3.83098C4.6895 4.0176 4.53801 4.16909 4.35138 4.16909H2.54853C2.3619 4.16891 2.21041 4.01742 2.21041 3.83098ZM3.67513 7.99986H9.53428C9.7209 7.99986 9.87239 8.15135 9.87239 8.33797C9.87239 8.5246 9.7209 8.67609 9.53428 8.67609H3.67513C3.4885 8.67609 3.33701 8.5246 3.33701 8.33797C3.3372 8.15135 3.48869 7.99986 3.67513 7.99986ZM9.80836 11.647C9.69888 11.7979 9.48717 11.8318 9.33605 11.7223L8.13157 10.8492L7.19605 12.297C7.10367 12.4402 6.91909 12.492 6.76592 12.418L5.23392 11.6819L3.89616 12.8366C3.75489 12.9586 3.54132 12.943 3.41936 12.8017C3.2974 12.6604 3.31304 12.4469 3.45431 12.3249L4.95976 11.0254C5.06162 10.9373 5.20586 10.9181 5.32706 10.9765L6.78973 11.6793L7.75742 10.1821C7.80797 10.1042 7.8879 10.0505 7.97898 10.0334C8.07025 10.0163 8.1643 10.0376 8.2394 10.0919L9.73276 11.1743C9.88425 11.2841 9.91808 11.4959 9.80841 11.647L9.80836 11.647Z" />
</svg>
