<svg viewBox="0 0 9 16" fill="none" xmlns="http://www.w3.org/2000/svg">
	<path d="M9 3.3012H7.354V5.11229H7.93076V6.76304L4.74016 10.2628V2.39307H5.93822L4.49252 0L3.0471 2.39307H4.24502V11.979L1.16093 8.58795V7.0842C1.44643 6.99577 1.67509 6.76063 1.77427 6.45342C1.87332 6.14635 1.83046 5.8054 1.65929 5.53926C1.48812 5.2731 1.21005 5.11476 0.913311 5.11476C0.616699 5.11476 0.338499 5.2731 0.167333 5.53926C-0.00383955 5.80541 -0.0465656 6.14637 0.0524778 6.45342C0.151521 6.76063 0.380319 6.99578 0.665825 7.0842V8.81374L4.24502 12.746V13.8148C3.92397 13.9039 3.66305 14.1605 3.54688 14.5011C3.43071 14.8419 3.47383 15.2235 3.66251 15.5225C3.85119 15.8216 4.16139 16 4.49249 16C4.82372 16 5.1338 15.8216 5.32246 15.5225C5.51112 15.2235 5.55439 14.8419 5.43823 14.5011C5.32193 14.1605 5.06114 13.9039 4.74008 13.8148V11.0301L8.42565 6.98354V5.11259H8.99993L9 3.3012ZM4.49256 0.97877L5.01234 1.84902H3.97277L4.49256 0.97877ZM0.495231 6.12675C0.494185 5.94056 0.595452 5.77217 0.751729 5.70011C0.908006 5.62819 1.08831 5.66681 1.20839 5.79802C1.32861 5.92923 1.3648 6.12719 1.30025 6.29918C1.2357 6.47131 1.08295 6.58357 0.913498 6.58357C0.683526 6.58357 0.496538 6.37943 0.495234 6.12676L0.495231 6.12675ZM5.00769 14.8807C5.00835 15.0308 4.95451 15.1751 4.85834 15.2818C4.76204 15.3883 4.63111 15.4486 4.49444 15.449C4.35776 15.4494 4.22644 15.3903 4.12963 15.2843C4.0328 15.1784 3.97819 15.0344 3.97792 14.8842C3.97779 14.7341 4.03189 14.5899 4.12845 14.4837C4.22501 14.3775 4.35607 14.3178 4.49276 14.3178C4.62891 14.3178 4.75945 14.3769 4.85599 14.4824C4.95242 14.588 5.00704 14.7311 5.0077 14.8807L5.00769 14.8807ZM8.50493 4.56854H7.849V3.84514H8.50493V4.56854Z" />
</svg>
