<svg viewBox="0 0 14 14" fill="none" xmlns="http://www.w3.org/2000/svg">
	<path d="M13.8133 1.4631C13.6939 1.34355 13.532 1.27637 13.3631 1.27637C13.1943 1.27637 13.0323 1.34355 12.9129 1.4631L6.99962 7.3764L4.90442 5.2812C4.74367 5.12045 4.50917 5.0576 4.2895 5.11651C4.06971 5.1753 3.89808 5.34694 3.8393 5.56672C3.78038 5.78639 3.84323 6.02089 4.00398 6.18163L6.54939 8.72705C6.6688 8.84659 6.83073 8.91377 6.9996 8.91377C7.16847 8.91377 7.33054 8.84659 7.4498 8.72705L13.8132 2.3636V2.36373C13.9328 2.24432 13.9998 2.08239 13.9998 1.91352C13.9998 1.74464 13.9328 1.58258 13.8132 1.46332L13.8133 1.4631Z" />
	<path d="M13.8593 5.60165C13.8138 5.37883 13.6529 5.19722 13.4372 5.12517C13.2216 5.05326 12.9838 5.10168 12.8137 5.25245C12.6435 5.40323 12.5666 5.63339 12.6121 5.85621C12.8743 7.13653 12.6907 8.46804 12.0918 9.62967C11.4928 10.7912 10.5147 11.7131 9.31966 12.2422C8.12451 12.7711 6.78446 12.8756 5.52202 12.5379C4.25954 12.2003 3.15031 11.4411 2.37889 10.3862C1.60731 9.33129 1.21982 8.04426 1.28058 6.73868C1.34135 5.4331 1.84679 4.18773 2.71301 3.20911C3.57933 2.23045 4.75416 1.57765 6.0426 1.35876C7.33105 1.13988 8.65574 1.36834 9.79658 2.00619C9.99551 2.1176 10.2387 2.11432 10.4347 1.99779C10.6306 1.88127 10.7495 1.66895 10.7465 1.44103C10.7435 1.21296 10.6191 1.00392 10.4201 0.892528C9.07932 0.141666 7.52869 -0.147129 6.00741 0.0706851C4.48604 0.288513 3.07881 1.00103 2.00284 2.09807C0.926701 3.1952 0.241445 4.61593 0.0528896 6.14127C-0.135676 7.66644 0.183061 9.21133 0.959621 10.5375C1.73618 11.8637 2.92768 12.8973 4.35012 13.4791C5.77257 14.0608 7.34682 14.1583 8.83003 13.7565C10.3133 13.3546 11.6233 12.4758 12.5575 11.2557C13.4917 10.0355 13.9985 8.54179 13.9997 7.0049C13.9995 6.53383 13.9525 6.06377 13.8597 5.60173L13.8593 5.60165Z" />
</svg>
