<svg width="12" height="16" viewBox="0 0 12 16" fill="none" xmlns="http://www.w3.org/2000/svg">
	<path d="M10.6616 0.119027C10.5199 0.0565452 10.3719 0.0269033 10.2259 0.026523C9.80548 0.0254284 9.40334 0.26879 9.22338 0.678806L4.29955 11.8764L1.97668 8.80338C1.76271 8.52039 1.43768 8.37078 1.10796 8.36992C0.877732 8.36932 0.645517 8.44118 0.447998 8.59055C-0.0329851 8.95411 -0.127939 9.63872 0.235618 10.1192L3.67987 14.6759C3.88711 14.9499 4.20897 15.108 4.54744 15.1089C4.59065 15.109 4.63387 15.1066 4.67754 15.1018C5.06205 15.0567 5.3942 14.8115 5.54947 14.4571L11.2215 1.55718C11.4638 1.00553 11.2136 0.361449 10.6615 0.118957L10.6616 0.119027Z" />
</svg>
