<svg viewBox="0 0 25 29" fill="none" xmlns="http://www.w3.org/2000/svg">
	<path d="M12.5003 0C8.48999 0 5.20845 3.26238 5.20845 7.25021V12.4287H1.04176C0.468789 12.4287 0 12.8948 0 13.4645V27.9642C0 28.5339 0.468775 29 1.04176 29H23.9582C24.5312 29 25 28.5339 25 27.9642V13.4645C25 12.8948 24.5312 12.4287 23.9582 12.4287H7.2919V7.25021C7.2919 4.35027 9.58355 2.07177 12.5001 2.07177C15.4166 2.07177 17.7082 4.35034 17.7082 7.25021C17.7082 7.81991 18.177 8.28602 18.75 8.28602C19.323 8.28602 19.7918 7.81993 19.7918 7.25021C19.7918 3.2628 16.5106 0 12.4999 0H12.5003Z" />
</svg>
