<svg viewBox="0 0 12 18" fill="none" xmlns="http://www.w3.org/2000/svg">
	<path d="M10.0002 6.68332V4.09996C10.0002 1.89999 8.20022 0 6.00014 0C3.81681 0 2.03355 1.76664 2.00012 3.93349C2.00012 4.31678 2.26681 4.65012 2.65009 4.66677C3.03338 4.68342 3.35012 4.36681 3.35012 4.00018C3.35012 2.48345 4.61678 1.26683 6.15013 1.33352C7.58343 1.4002 8.68346 2.63347 8.68346 4.05023V6.68349H1.6667C0.750031 6.68349 0 7.43352 0 8.35019V14.3333C0 15.25 0.750031 16 1.6667 16H10.3333C11.25 16 12 15.25 12 14.3333V8.34983C12 7.43317 11.25 6.68314 10.3333 6.68314L10.0002 6.68332Z" />
</svg>
