<svg viewBox="0 0 20 20" fill="none" xmlns="http://www.w3.org/2000/svg">
	<path fill-rule="evenodd" clip-rule="evenodd" d="M17.7606 0C17.4658 0.00571163 17.1856 0.128073 16.9812 0.340291C16.7769 0.552503 16.6653 0.837213 16.6711 1.13135V2.57928C14.8627 0.95802 12.5027 0.015117 10.0021 0.015117C4.49242 0.015117 0.00407936 4.50873 0.00407936 10.0116C-0.0225367 10.3214 0.0819461 10.628 0.292454 10.8569C0.502743 11.0861 0.799694 11.2163 1.11094 11.2163C1.42219 11.2163 1.71916 11.0861 1.92942 10.8569C2.13993 10.628 2.24441 10.3213 2.2178 10.0116C2.2178 5.70802 5.69327 2.23712 10.0023 2.23712C12.0618 2.23712 13.9946 3.05849 15.4279 4.45659H13.3315C13.0326 4.45 12.7437 4.56402 12.53 4.77294C12.3161 4.98185 12.1958 5.26767 12.1958 5.56641C12.1958 5.86496 12.3161 6.15102 12.53 6.35967C12.7438 6.56858 13.0326 6.6826 13.3315 6.67601H17.7783C18.0731 6.67711 18.3562 6.56133 18.5654 6.35395C18.7746 6.14679 18.8927 5.86494 18.8938 5.57054V1.1316C18.8997 0.82975 18.7823 0.538669 18.5687 0.325129C18.3549 0.111595 18.0632 -0.00571439 17.761 0.000218826L17.7606 0ZM18.876 8.86271C18.5797 8.86622 18.2973 8.98749 18.091 9.19992C17.8849 9.41235 17.772 9.69838 17.778 9.9943C17.778 14.2979 14.3111 17.7603 10.002 17.7603C7.94132 17.7603 6.00737 16.9394 4.57431 15.5409H6.66199V15.5407C7.05925 15.5407 7.42658 15.3291 7.62519 14.9853C7.82382 14.6417 7.82382 14.2181 7.62519 13.8746C7.42656 13.5308 7.05921 13.319 6.66199 13.319H2.22596C1.93099 13.3179 1.64764 13.4341 1.43828 13.6419C1.2291 13.8495 1.11119 14.132 1.11053 14.4266V18.8656C1.10393 19.1641 1.2181 19.4528 1.42728 19.6661C1.63625 19.8796 1.92265 20 2.22178 20C2.52071 20 2.80713 19.8796 3.01605 19.6661C3.22523 19.4528 3.3394 19.1641 3.3328 18.8656V17.4242C5.14247 19.0404 7.50489 19.9796 10.0017 19.9796C15.5114 19.9796 19.9998 15.4967 19.9998 9.99438V9.9946C20.0057 9.69407 19.8896 9.40431 19.6777 9.191C19.4657 8.97768 19.1765 8.8595 18.8755 8.86301L18.876 8.86271Z" />
</svg>
