<svg viewBox="0 0 16 16" fill="none" xmlns="http://www.w3.org/2000/svg">
	<path d="M6.52162 6.5819C8.87202 6.23374 12.9299 9.8811 13.9283 6.47662C14.6368 4.06158 10.2135 0.87662 8.05602 2.42382C6.74978 3.36014 7.00802 3.28302 5.10562 3.14478C3.17634 3.00462 2.36322 3.0955 2.04802 4.98702C1.88514 5.9659 2.0317 7.88334 3.44898 8.40398C5.22242 9.05614 5.08578 6.7947 6.52162 6.5819Z" fill="#407BFF" />
	<path opacity="0.9" d="M6.52162 6.5819C8.87202 6.23374 12.9299 9.8811 13.9283 6.47662C14.6368 4.06158 10.2135 0.87662 8.05602 2.42382C6.74978 3.36014 7.00802 3.28302 5.10562 3.14478C3.17634 3.00462 2.36322 3.0955 2.04802 4.98702C1.88514 5.9659 2.0317 7.88334 3.44898 8.40398C5.22242 9.05614 5.08578 6.7947 6.52162 6.5819Z" fill="white" />
	<path d="M7.99989 13.682C11.4265 13.682 14.2044 13.5198 14.2044 13.3198C14.2044 13.1197 11.4265 12.9575 7.99989 12.9575C4.57325 12.9575 1.79541 13.1197 1.79541 13.3198C1.79541 13.5198 4.57325 13.682 7.99989 13.682Z" fill="#F5F5F5" />
	<path d="M8.1391 4.25063L8.1167 4.23303C8.2175 4.10503 8.32342 3.98471 8.43158 3.87207L8.45174 3.89191C8.34422 4.00359 8.23894 4.12455 8.1391 4.25063Z" fill="#407BFF" />
	<path d="M8.01971 4.35572L7.9165 4.48584L7.93857 4.50334L8.04177 4.37322L8.01971 4.35572Z" fill="#407BFF" />
	<path d="M10.24 5.73511C10.9353 4.61735 11.03 3.51591 10.5238 3.15943C10.0176 2.80295 9.01244 3.26311 8.1942 4.29447L5.85596 7.24391L8.2534 8.93223L10.24 5.73511Z" fill="#407BFF" />
	<path opacity="0.1" d="M9.96629 5.54271L7.93109 8.70655L7.68213 8.23071L9.70357 5.34431C10.2751 4.52799 10.5954 3.78207 10.5967 3.36671C10.5966 3.35868 10.5994 3.35089 10.6046 3.34472C10.6097 3.33855 10.6169 3.33441 10.6248 3.33303C10.6327 3.33164 10.6408 3.33311 10.6478 3.33717C10.6547 3.34123 10.6599 3.34762 10.6626 3.35519C10.8066 3.76959 10.557 4.62463 9.96629 5.54271Z" fill="white" />
	<path d="M8.25184 8.93167C8.5755 8.472 8.30112 7.72143 7.63901 7.25523C6.97689 6.78902 6.17776 6.78372 5.8541 7.24338C5.53044 7.70305 5.80482 8.45362 6.46693 8.91983C7.12905 9.38603 7.92818 9.39134 8.25184 8.93167Z" fill="#407BFF" />
	<path opacity="0.5" d="M8.25184 8.93167C8.5755 8.472 8.30112 7.72143 7.63901 7.25523C6.97689 6.78902 6.17776 6.78372 5.8541 7.24338C5.53044 7.70305 5.80482 8.45362 6.46693 8.91983C7.12905 9.38603 7.92818 9.39134 8.25184 8.93167Z" fill="white" />
	<path opacity="0.1" d="M8.00287 6.73396C7.47679 6.3634 6.87999 6.25748 6.49887 6.4306L5.90527 7.17876C6.25727 6.7858 7.00959 6.81268 7.63871 7.25556C8.26783 7.69844 8.54719 8.39892 8.29503 8.86196L8.79327 8.06196C8.83615 7.6418 8.53471 7.10836 8.00287 6.73396Z" fill="black" />
	<path opacity="0.2" d="M8.84558 4.32178C8.69966 4.55282 8.58958 4.98514 9.02318 5.2901C9.45678 5.59506 9.8267 5.34642 9.9947 5.1301L8.84558 4.32178Z" fill="black" />
	<path d="M10.0972 4.86422C10.0476 5.27702 9.57047 5.57814 9.06967 5.2255C8.56887 4.87286 8.69143 4.32214 9.06327 4.1375C9.29239 4.02294 9.58423 4.0735 9.78391 4.21238C9.98359 4.35126 10.1279 4.60822 10.0972 4.86422Z" fill="white" />
	<path d="M9.13791 5.12777C8.94303 4.99081 8.84319 4.81161 8.85727 4.62409C8.86366 4.54316 8.89089 4.46526 8.93631 4.39797C8.98174 4.33068 9.0438 4.27629 9.11647 4.24009C9.29055 4.15305 9.53695 4.18025 9.71583 4.30601C9.89471 4.43177 10.0038 4.65513 9.97983 4.84841C9.97031 4.92881 9.94017 5.00537 9.89235 5.07069C9.84452 5.13601 9.78063 5.18786 9.70687 5.22121C9.53599 5.29865 9.33279 5.26505 9.13791 5.12777Z" fill="#407BFF" />
	<path opacity="0.3" d="M9.13791 5.12777C8.94303 4.99081 8.84319 4.81161 8.85727 4.62409C8.86366 4.54316 8.89089 4.46526 8.93631 4.39797C8.98174 4.33068 9.0438 4.27629 9.11647 4.24009C9.29055 4.15305 9.53695 4.18025 9.71583 4.30601C9.89471 4.43177 10.0038 4.65513 9.97983 4.84841C9.97031 4.92881 9.94017 5.00537 9.89235 5.07069C9.84452 5.13601 9.78063 5.18786 9.70687 5.22121C9.53599 5.29865 9.33279 5.26505 9.13791 5.12777Z" fill="black" />
	<path d="M9.13764 5.1277C8.94276 4.99074 8.8394 4.81666 8.84708 4.6381C8.8504 4.56218 8.87463 4.48866 8.9171 4.42564C8.95956 4.36263 9.0186 4.31257 9.08772 4.28098C9.25508 4.20354 9.49668 4.23746 9.67556 4.36354C9.85444 4.48962 9.96772 4.70562 9.95108 4.8893C9.94462 4.96513 9.91728 5.03768 9.87209 5.09891C9.8269 5.16015 9.76563 5.20766 9.69508 5.23618C9.53092 5.3037 9.33252 5.26498 9.13764 5.1277Z" fill="#407BFF" />
	<path opacity="0.2" d="M9.13764 5.1277C8.94276 4.99074 8.8394 4.81666 8.84708 4.6381C8.8504 4.56218 8.87463 4.48866 8.9171 4.42564C8.95956 4.36263 9.0186 4.31257 9.08772 4.28098C9.25508 4.20354 9.49668 4.23746 9.67556 4.36354C9.85444 4.48962 9.96772 4.70562 9.95108 4.8893C9.94462 4.96513 9.91728 5.03768 9.87209 5.09891C9.8269 5.16015 9.76563 5.20766 9.69508 5.23618C9.53092 5.3037 9.33252 5.26498 9.13764 5.1277Z" fill="white" />
	<path opacity="0.3" d="M9.81124 4.4902L8.91044 4.88764C8.86576 4.81235 8.84356 4.72586 8.84644 4.63836C8.84815 4.59715 8.85624 4.55645 8.87044 4.51772L9.45188 4.26172C9.593 4.29748 9.71881 4.37784 9.8106 4.49084L9.81124 4.4902Z" fill="white" />
	<path opacity="0.3" d="M9.9406 4.74646L9.11404 5.11062C9.06434 5.07416 9.01902 5.03207 8.979 4.98518L9.8782 4.58838C9.9063 4.63789 9.92731 4.6911 9.9406 4.74646V4.74646Z" fill="white" />
	<path opacity="0.1" d="M10.8417 4.03368C10.8142 3.81288 10.6446 3.55752 10.3765 3.36872C10.1083 3.17992 9.81103 3.10632 9.59375 3.15464C9.96335 3.00392 10.2945 2.99816 10.5237 3.15944C10.7528 3.32072 10.859 3.63496 10.8417 4.03368Z" fill="black" />
	<path opacity="0.5" d="M7.63864 8.03157C7.73947 7.88836 7.6578 7.65721 7.45622 7.51527C7.25463 7.37333 7.00948 7.37436 6.90865 7.51756C6.80781 7.66077 6.88949 7.89192 7.09107 8.03386C7.29266 8.17579 7.53781 8.17477 7.63864 8.03157Z" fill="#407BFF" />
	<path opacity="0.5" d="M6.68792 7.89687C6.58712 8.03991 6.342 8.04119 6.1404 7.89911C5.9388 7.75703 5.85688 7.52599 5.95768 7.38295C6.05848 7.23991 6.30392 7.23863 6.50552 7.38071C6.70712 7.52279 6.78744 7.75383 6.68792 7.89687Z" fill="#407BFF" />
	<path opacity="0.5" d="M8.0866 8.88319C7.9858 9.02655 7.74068 9.02751 7.53908 8.88543C7.33748 8.74335 7.25588 8.51231 7.35668 8.36927C7.45748 8.22623 7.7026 8.22495 7.9042 8.36703C8.1058 8.50911 8.1874 8.74015 8.0866 8.88319Z" fill="#407BFF" />
	<path opacity="0.5" d="M7.13591 8.74826C7.03511 8.8913 6.78999 8.89226 6.58839 8.7505C6.38679 8.60874 6.30519 8.37738 6.40599 8.23402C6.50679 8.09066 6.75191 8.09002 6.95351 8.23178C7.15511 8.37354 7.23543 8.6049 7.13591 8.74826Z" fill="#407BFF" />
	<path opacity="0.5" d="M7.63897 8.03212C7.62831 8.04723 7.61585 8.06099 7.60185 8.07308C7.65785 7.93036 7.57337 7.73228 7.39321 7.60556C7.21305 7.47884 6.99833 7.46604 6.88281 7.56652C6.8896 7.54949 6.8983 7.53328 6.90873 7.5182C7.00953 7.37516 7.25497 7.37388 7.45657 7.51596C7.65817 7.65804 7.73945 7.88876 7.63897 8.03212Z" fill="#407BFF" />
	<path opacity="0.5" d="M6.68797 7.89699C6.67735 7.91203 6.66499 7.92578 6.65117 7.93795C6.70717 7.79491 6.62301 7.59715 6.44253 7.47011C6.26205 7.34307 6.04765 7.33059 5.93213 7.43139C5.93885 7.41432 5.94755 7.3981 5.95805 7.38307C6.05885 7.23971 6.30397 7.23875 6.50557 7.38083C6.70717 7.52291 6.78749 7.75363 6.68797 7.89699Z" fill="#407BFF" />
	<path opacity="0.5" d="M8.08641 8.88315C8.07578 8.89809 8.06343 8.91173 8.04961 8.92379C8.10561 8.78075 8.02113 8.58299 7.84097 8.45627C7.66081 8.32955 7.44609 8.31643 7.33057 8.41755C7.33721 8.40035 7.34592 8.38402 7.35649 8.36891C7.45729 8.22555 7.70241 8.22459 7.90401 8.36667C8.10561 8.50875 8.18753 8.73979 8.08641 8.88315Z" fill="#407BFF" />
	<path opacity="0.5" d="M7.13572 8.74826C7.12527 8.76335 7.1129 8.77701 7.09892 8.7889C7.15492 8.64618 7.07044 8.4481 6.89028 8.32138C6.71012 8.19466 6.4954 8.18186 6.37988 8.28266C6.38647 8.26543 6.39518 8.24909 6.4058 8.23402C6.5066 8.09066 6.75172 8.09002 6.95332 8.23178C7.15492 8.37354 7.23524 8.6049 7.13572 8.74826Z" fill="#407BFF" />
	<path d="M7.44247 5.38366C7.44247 5.38366 7.01047 5.9443 6.63415 6.42686C6.58071 6.49414 6.51069 6.54636 6.43097 6.57839C6.35125 6.61043 6.26456 6.62117 6.17943 6.60958C5.85079 6.56894 5.31543 6.80158 5.31543 6.80158C5.31543 6.80158 6.32823 5.1379 7.44247 5.38366Z" fill="#407BFF" />
	<path opacity="0.3" d="M7.44247 5.38366C7.44247 5.38366 7.01047 5.9443 6.63415 6.42686C6.58071 6.49414 6.51069 6.54636 6.43097 6.57839C6.35125 6.61043 6.26456 6.62117 6.17943 6.60958C5.85079 6.56894 5.31543 6.80158 5.31543 6.80158C5.31543 6.80158 6.32823 5.1379 7.44247 5.38366Z" fill="black" />
	<path d="M9.46829 6.81055C9.46829 6.81055 9.08781 7.40607 8.75853 7.92287C8.71323 7.99585 8.68769 8.07937 8.68444 8.16521C8.68118 8.25105 8.70032 8.33626 8.73997 8.41247C8.88909 8.70847 8.85005 9.29215 8.85005 9.29215C8.85005 9.29215 10.0753 7.77631 9.46829 6.81055Z" fill="#407BFF" />
	<path opacity="0.3" d="M9.46829 6.81055C9.46829 6.81055 9.08781 7.40607 8.75853 7.92287C8.71323 7.99585 8.68769 8.07937 8.68444 8.16521C8.68118 8.25105 8.70032 8.33626 8.73997 8.41247C8.88909 8.70847 8.85005 9.29215 8.85005 9.29215C8.85005 9.29215 10.0753 7.77631 9.46829 6.81055Z" fill="black" />
	<path d="M10.8641 11.0918C11.2638 10.1139 9.5358 9.83676 8.85196 10.0822C8.16812 10.3276 7.47084 10.51 7.44396 9.85564C7.41708 9.20124 7.9438 8.79548 7.6926 8.64444C7.5534 8.5606 7.51372 8.70844 7.44492 8.92412C7.23436 9.58492 6.04172 9.74236 6.59052 10.6988C7.13932 11.6553 6.84652 11.4476 5.92332 11.8313C5.00012 12.215 5.47532 13.32 6.36844 13.32H11.747C14.2123 13.32 11.8782 8.60124 10.8641 11.0918Z" fill="#407BFF" />
	<path opacity="0.6" d="M10.8641 11.0918C11.2638 10.1139 9.5358 9.83676 8.85196 10.0822C8.16812 10.3276 7.47084 10.51 7.44396 9.85564C7.41708 9.20124 7.9438 8.79548 7.6926 8.64444C7.5534 8.5606 7.51372 8.70844 7.44492 8.92412C7.23436 9.58492 6.04172 9.74236 6.59052 10.6988C7.13932 11.6553 6.84652 11.4476 5.92332 11.8313C5.00012 12.215 5.47532 13.32 6.36844 13.32H11.747C14.2123 13.32 11.8782 8.60124 10.8641 11.0918Z" fill="white" />
	<path d="M6.3214 7.68286C6.24972 7.4339 5.86188 7.74686 5.4798 8.12606C5.09772 8.50526 4.90924 9.37086 4.53964 9.82206C4.17004 10.2733 3.1118 10.6809 3.52556 11.36C4.1358 12.3606 2.73324 13.3206 4.39436 13.3206H7.8014C8.42444 13.3206 9.09996 12.5587 8.12972 12.0406C7.15948 11.5225 5.70604 12.7305 5.31372 11.5782C5.11916 11.0064 5.82572 11.2688 5.49836 10.3325C5.171 9.39614 5.19276 9.1411 5.35948 8.72382C5.76524 7.70686 6.4318 8.0611 6.3214 7.68286Z" fill="#407BFF" />
	<path opacity="0.6" d="M6.3214 7.68286C6.24972 7.4339 5.86188 7.74686 5.4798 8.12606C5.09772 8.50526 4.90924 9.37086 4.53964 9.82206C4.17004 10.2733 3.1118 10.6809 3.52556 11.36C4.1358 12.3606 2.73324 13.3206 4.39436 13.3206H7.8014C8.42444 13.3206 9.09996 12.5587 8.12972 12.0406C7.15948 11.5225 5.70604 12.7305 5.31372 11.5782C5.11916 11.0064 5.82572 11.2688 5.49836 10.3325C5.171 9.39614 5.19276 9.1411 5.35948 8.72382C5.76524 7.70686 6.4318 8.0611 6.3214 7.68286Z" fill="white" />
	<path d="M7.02749 7.79788C7.11197 7.64364 7.40189 7.73612 7.39549 7.93804C7.38909 8.13996 6.63837 8.4046 6.77789 9.10188C6.91741 9.79916 8.25758 9.84908 8.57213 10.5476C8.88669 11.2462 7.66813 11.3441 8.03165 11.7809C8.39517 12.2177 9.51709 11.2145 10.3165 11.4724C11.1158 11.7304 11.9145 13.3198 10.4483 13.3198H5.93021C4.94781 13.3198 4.23037 11.2913 5.17437 10.4568C6.11837 9.6222 5.35677 9.89324 5.70909 9.35852C6.06141 8.8238 6.70333 8.38924 7.02749 7.79788Z" fill="#407BFF" />
	<path opacity="0.8" d="M7.02749 7.79788C7.11197 7.64364 7.40189 7.73612 7.39549 7.93804C7.38909 8.13996 6.63837 8.4046 6.77789 9.10188C6.91741 9.79916 8.25758 9.84908 8.57213 10.5476C8.88669 11.2462 7.66813 11.3441 8.03165 11.7809C8.39517 12.2177 9.51709 11.2145 10.3165 11.4724C11.1158 11.7304 11.9145 13.3198 10.4483 13.3198H5.93021C4.94781 13.3198 4.23037 11.2913 5.17437 10.4568C6.11837 9.6222 5.35677 9.89324 5.70909 9.35852C6.06141 8.8238 6.70333 8.38924 7.02749 7.79788Z" fill="white" />
</svg>
