<svg viewBox="0 0 18 16" fill="none" xmlns="http://www.w3.org/2000/svg">
	<path d="M17.143 2.73624C16.8381 1.71498 15.9767 1.04827 14.9359 0.902007C14.9245 0.900393 14.9136 0.902525 14.9022 0.90179C14.8875 0.897286 14.8724 0.893823 14.8572 0.891427C13.4258 0.706436 11.8633 1.03775 10.6197 1.81586C9.42765 2.56172 8.05794 2.98257 6.65181 2.97321C6.60814 2.97293 6.5643 2.97387 6.52029 2.97606C5.43816 3.03005 4.48316 3.81776 4.19062 4.85384C4.15222 4.98977 4.21912 5.11123 4.32671 5.18827C4.51574 5.32366 4.64487 5.41856 4.87746 5.46783C5.29247 5.55575 5.70889 5.63659 6.12674 5.71036V4.04596C6.12692 3.88839 6.1896 3.73733 6.30102 3.62591C6.41244 3.51449 6.5635 3.45181 6.72107 3.45163H14.8849C15.0425 3.45181 15.1935 3.51449 15.3049 3.62591C15.4164 3.73733 15.479 3.88839 15.4792 4.04596V6.11874C15.5912 6.08373 15.7005 6.0407 15.8063 5.99C16.2001 5.79548 16.5366 5.50187 16.7826 5.138C17.2553 4.4522 17.3801 3.53052 17.143 2.73624Z" fill="#F2F2F2" />
	<path d="M13.7058 12.4763H6.4889C6.32236 12.4761 6.1627 12.4099 6.04494 12.2921C5.92718 12.1744 5.86093 12.0147 5.86074 11.8482V9.04779C4.98173 8.7787 4.05593 8.69755 3.14351 8.80962C3.12829 8.81202 3.11325 8.81548 3.09852 8.81999C3.08712 8.82072 3.07625 8.81859 3.0648 8.8202C2.02398 8.96646 1.16263 9.63317 0.857744 10.6544C0.620603 11.4487 0.745438 12.3704 1.21808 13.0562C1.46413 13.4201 1.80059 13.7137 2.19441 13.9082C2.73574 14.169 3.30551 14.1886 3.89634 14.207C5.67028 14.2623 7.44593 14.1952 9.21063 14.0061C10.0791 13.913 10.9439 13.7912 11.8052 13.6409C12.246 13.5638 12.6853 13.4788 13.1232 13.386C13.3558 13.3368 13.485 13.2419 13.674 13.1065C13.7816 13.0294 13.8485 12.908 13.8101 12.772C13.7816 12.6714 13.7467 12.5726 13.7058 12.4763V12.4763Z" fill="#F2F2F2" />
	<path d="M14.3449 11.6456H7.26221C7.1255 11.6454 6.99444 11.5911 6.89778 11.4944C6.80112 11.3977 6.74674 11.2667 6.74658 11.13V4.54785C6.74674 4.41115 6.80112 4.28009 6.89778 4.18343C6.99444 4.08676 7.1255 4.03239 7.26221 4.03223H14.3449C14.4816 4.03238 14.6127 4.08676 14.7094 4.18343C14.806 4.28009 14.8604 4.41115 14.8606 4.54785V11.13C14.8604 11.2667 14.806 11.3977 14.7094 11.4944C14.6127 11.5911 14.4816 11.6454 14.3449 11.6456V11.6456Z" fill="#E6E6E6" />
	<path d="M12.8535 11.2979H7.60938C7.47267 11.2977 7.34161 11.2433 7.24495 11.1467C7.14829 11.05 7.09391 10.9189 7.09375 10.7822V4.896C7.09391 4.75929 7.14829 4.62823 7.24495 4.53157C7.34161 4.43491 7.47267 4.38053 7.60938 4.38037H13.9964C14.1331 4.38053 14.2642 4.43491 14.3608 4.53157C14.4575 4.62823 14.5119 4.75929 14.512 4.896V9.63933C14.5116 10.079 14.3367 10.5006 14.0257 10.8115C13.7148 11.1225 13.2932 11.2974 12.8535 11.2979V11.2979Z" fill="white" />
	<path d="M10.8029 10.1507C12.0793 10.1507 13.1141 9.11597 13.1141 7.83952C13.1141 6.56308 12.0793 5.52832 10.8029 5.52832C9.52646 5.52832 8.4917 6.56308 8.4917 7.83952C8.4917 9.11597 9.52646 10.1507 10.8029 10.1507Z" fill="#6C63FF" />
	<path d="M11.7771 7.72297L11.0058 6.78508C10.9849 6.75964 10.9587 6.73905 10.929 6.72473C10.8994 6.71042 10.867 6.70273 10.834 6.70218C10.8011 6.70163 10.7684 6.70825 10.7383 6.72158C10.7082 6.7349 10.6813 6.75461 10.6595 6.77935L9.83476 7.71723C9.79503 7.76252 9.7749 7.82173 9.7788 7.88186C9.78269 7.94198 9.81029 7.99809 9.85553 8.03788C9.90078 8.07767 9.95996 8.09787 10.0201 8.09404C10.0802 8.09022 10.1364 8.06269 10.1762 8.01749L10.6029 7.53224V8.74903C10.6029 8.80932 10.6269 8.86715 10.6695 8.90978C10.7121 8.95241 10.77 8.97636 10.8303 8.97636C10.8906 8.97636 10.9484 8.95241 10.991 8.90978C11.0336 8.86715 11.0576 8.80932 11.0576 8.74903V7.56384L11.4259 8.01176C11.4642 8.05833 11.5195 8.08778 11.5795 8.09363C11.6395 8.09948 11.6993 8.08125 11.7459 8.04295C11.7925 8.00466 11.8219 7.94943 11.8278 7.88942C11.8336 7.82941 11.8154 7.76954 11.7771 7.72297L11.7771 7.72297Z" fill="white" />
	<path d="M10.4637 16.0001C10.3577 16.0001 10.2541 15.9687 10.1659 15.9098C10.0778 15.8509 10.0091 15.7672 9.96853 15.6693C9.92797 15.5713 9.91735 15.4636 9.93803 15.3596C9.95871 15.2557 10.0098 15.1602 10.0847 15.0852C10.1597 15.0102 10.2552 14.9592 10.3591 14.9385C10.4631 14.9178 10.5709 14.9285 10.6688 14.969C10.7667 15.0096 10.8504 15.0783 10.9093 15.1664C10.9682 15.2546 10.9996 15.3582 10.9996 15.4642C10.9995 15.6063 10.943 15.7425 10.8425 15.843C10.742 15.9435 10.6058 16 10.4637 16.0001V16.0001ZM10.4637 15.004C10.3727 15.004 10.2837 15.031 10.208 15.0816C10.1324 15.1321 10.0734 15.204 10.0385 15.2881C10.0037 15.3722 9.9946 15.4647 10.0124 15.554C10.0301 15.6432 10.0739 15.7252 10.1383 15.7896C10.2027 15.8539 10.2846 15.8978 10.3739 15.9155C10.4632 15.9333 10.5557 15.9242 10.6398 15.8893C10.7239 15.8545 10.7957 15.7955 10.8463 15.7198C10.8969 15.6442 10.9239 15.5552 10.9239 15.4642C10.9237 15.3422 10.8752 15.2252 10.7889 15.1389C10.7027 15.0527 10.5857 15.0041 10.4637 15.004V15.004Z" fill="#F2F2F2" />
	<path d="M10.6733 15.4387L10.5071 15.2366C10.5026 15.2311 10.4969 15.2267 10.4905 15.2236C10.4841 15.2205 10.4771 15.2189 10.47 15.2188C10.4629 15.2186 10.4559 15.2201 10.4494 15.2229C10.4429 15.2258 10.4371 15.2301 10.4324 15.2354L10.2547 15.4375C10.2462 15.4473 10.2419 15.46 10.2428 15.4729C10.2437 15.4858 10.2496 15.4979 10.2593 15.5064C10.269 15.515 10.2817 15.5193 10.2947 15.5186C10.3076 15.5178 10.3197 15.5119 10.3283 15.5022L10.4202 15.3976V15.6599C10.4202 15.6729 10.4254 15.6853 10.4346 15.6945C10.4438 15.7037 10.4562 15.7088 10.4692 15.7088C10.4822 15.7088 10.4947 15.7037 10.5039 15.6945C10.5131 15.6853 10.5182 15.6729 10.5182 15.6599V15.4044L10.5976 15.501C10.6059 15.511 10.6178 15.5174 10.6307 15.5186C10.6436 15.5199 10.6565 15.516 10.6666 15.5077C10.6766 15.4994 10.6829 15.4875 10.6842 15.4746C10.6855 15.4617 10.6815 15.4488 10.6733 15.4387H10.6733Z" fill="#F2F2F2" />
	<path d="M16.5638 8.08118C16.4578 8.08118 16.3542 8.04975 16.266 7.99086C16.1779 7.93197 16.1092 7.84826 16.0686 7.75033C16.0281 7.6524 16.0175 7.54464 16.0381 7.44067C16.0588 7.33671 16.1099 7.24121 16.1848 7.16625C16.2598 7.0913 16.3553 7.04026 16.4592 7.01958C16.5632 6.9989 16.671 7.00951 16.7689 7.05007C16.8668 7.09064 16.9505 7.15933 17.0094 7.24747C17.0683 7.33561 17.0997 7.43923 17.0997 7.54523C17.0996 7.68732 17.0431 7.82355 16.9426 7.92403C16.8421 8.0245 16.7059 8.08102 16.5638 8.08118V8.08118ZM16.5638 7.08506C16.4728 7.08506 16.3838 7.11204 16.3081 7.16261C16.2325 7.21317 16.1735 7.28504 16.1386 7.36913C16.1038 7.45322 16.0947 7.54574 16.1125 7.63501C16.1302 7.72427 16.174 7.80627 16.2384 7.87062C16.3027 7.93498 16.3847 7.97881 16.474 7.99657C16.5633 8.01432 16.6558 8.00521 16.7399 7.97038C16.824 7.93555 16.8958 7.87657 16.9464 7.80089C16.997 7.72522 17.024 7.63624 17.024 7.54523C17.0238 7.42323 16.9753 7.30626 16.889 7.21999C16.8028 7.13372 16.6858 7.08519 16.5638 7.08505V7.08506Z" fill="#F2F2F2" />
	<path d="M16.7734 7.51979L16.6072 7.31768C16.6027 7.31219 16.597 7.30776 16.5906 7.30467C16.5842 7.30159 16.5772 7.29993 16.5701 7.29981C16.563 7.29969 16.556 7.30112 16.5495 7.30399C16.543 7.30686 16.5372 7.31111 16.5325 7.31644L16.3548 7.51856C16.3463 7.52833 16.342 7.54106 16.3429 7.55398C16.3437 7.5669 16.3497 7.57895 16.3594 7.5875C16.3691 7.59605 16.3818 7.6004 16.3948 7.59961C16.4077 7.59881 16.4198 7.59294 16.4284 7.58327L16.5203 7.47869V7.74092C16.5203 7.75391 16.5255 7.76637 16.5347 7.77556C16.5439 7.78474 16.5563 7.78991 16.5693 7.78991C16.5823 7.78991 16.5948 7.78474 16.604 7.77556C16.6132 7.76637 16.6183 7.75391 16.6183 7.74092V7.4855L16.6977 7.58203C16.7059 7.59207 16.7178 7.59841 16.7308 7.59967C16.7437 7.60093 16.7566 7.59701 16.7667 7.58875C16.7767 7.5805 16.783 7.5686 16.7843 7.55567C16.7856 7.54273 16.7816 7.52983 16.7734 7.5198L16.7734 7.51979Z" fill="#F2F2F2" />
	<path d="M4.47736 7.62659C4.37136 7.62659 4.26774 7.59516 4.1796 7.53627C4.09146 7.47738 4.02277 7.39367 3.9822 7.29574C3.94164 7.19781 3.93102 7.09005 3.9517 6.98608C3.97238 6.88212 4.02343 6.78662 4.09838 6.71166C4.17334 6.63671 4.26884 6.58567 4.3728 6.56499C4.47676 6.54431 4.58453 6.55492 4.68246 6.59548C4.78039 6.63605 4.8641 6.70474 4.92299 6.79288C4.98188 6.88102 5.01331 6.98464 5.01331 7.09064C5.01315 7.23273 4.95663 7.36896 4.85616 7.46944C4.75568 7.56991 4.61945 7.62643 4.47736 7.62659V7.62659ZM4.47736 6.63047C4.38635 6.63047 4.29737 6.65745 4.2217 6.70802C4.14602 6.75858 4.08704 6.83045 4.05221 6.91454C4.01738 6.99863 4.00827 7.09115 4.02603 7.18042C4.04378 7.26968 4.08761 7.35168 4.15197 7.41603C4.21632 7.48039 4.29832 7.52422 4.38758 7.54198C4.47685 7.55973 4.56938 7.55062 4.65346 7.51579C4.73755 7.48096 4.80942 7.42198 4.85998 7.3463C4.91055 7.27063 4.93753 7.18165 4.93753 7.09064C4.9374 6.96864 4.88887 6.85167 4.8026 6.7654C4.71633 6.67913 4.59936 6.6306 4.47736 6.63046V6.63047Z" fill="#F2F2F2" />
	<path d="M4.68695 7.06569L4.52074 6.86358C4.51623 6.85809 4.51059 6.85366 4.50419 6.85057C4.4978 6.84749 4.49081 6.84583 4.48371 6.84571C4.47662 6.84559 4.46958 6.84702 4.46308 6.84989C4.45659 6.85276 4.4508 6.85701 4.44611 6.86234L4.26837 7.06446C4.25988 7.07423 4.25559 7.08696 4.25646 7.09988C4.25732 7.1128 4.26327 7.12485 4.27299 7.13339C4.28271 7.14194 4.29542 7.1463 4.30834 7.14551C4.32126 7.14471 4.33335 7.13884 4.34195 7.12916L4.43391 7.02459V7.28681C4.43391 7.29981 4.43907 7.31227 4.44826 7.32145C4.45745 7.33064 4.46991 7.3358 4.4829 7.3358C4.49589 7.3358 4.50835 7.33064 4.51754 7.32145C4.52673 7.31227 4.53189 7.29981 4.53189 7.28681V7.0314L4.61127 7.12793C4.61952 7.13796 4.63142 7.14431 4.64435 7.14557C4.65729 7.14683 4.67019 7.1429 4.68023 7.13465C4.69026 7.1264 4.69661 7.1145 4.69787 7.10157C4.69913 7.08863 4.6952 7.07573 4.68695 7.06569L4.68695 7.06569Z" fill="#F2F2F2" />
	<path d="M8.7591 1.07191C8.6531 1.07191 8.54948 1.04047 8.46134 0.981582C8.3732 0.922691 8.30451 0.838986 8.26394 0.741054C8.22338 0.643121 8.21276 0.535359 8.23344 0.431394C8.25412 0.32743 8.30517 0.231932 8.38012 0.156977C8.45508 0.082023 8.55057 0.0309785 8.65454 0.0102986C8.7585 -0.0103813 8.86627 0.00023185 8.9642 0.0407969C9.06213 0.0813619 9.14583 0.150057 9.20473 0.238194C9.26362 0.326331 9.29505 0.429952 9.29505 0.535953C9.29489 0.678047 9.23837 0.814275 9.1379 0.914751C9.03742 1.01523 8.90119 1.07175 8.7591 1.07191ZM8.7591 0.075778C8.66808 0.0757779 8.57911 0.102767 8.50344 0.153332C8.42776 0.203897 8.36878 0.275766 8.33395 0.359852C8.29912 0.443938 8.29001 0.536465 8.30776 0.62573C8.32552 0.714995 8.36935 0.796991 8.4337 0.861348C8.49806 0.925705 8.58006 0.969532 8.66932 0.987288C8.75859 1.00504 8.85111 0.995931 8.9352 0.961101C9.01929 0.926272 9.09116 0.867289 9.14172 0.791613C9.19228 0.715938 9.21927 0.626968 9.21927 0.535953C9.21914 0.413949 9.17061 0.29698 9.08434 0.210709C8.99807 0.124439 8.8811 0.0759128 8.7591 0.0757774V0.075778Z" fill="#F2F2F2" />
	<path d="M8.9682 0.510517L8.80199 0.308399C8.79748 0.302917 8.79184 0.298479 8.78544 0.295394C8.77905 0.29231 8.77206 0.290652 8.76496 0.290534C8.75787 0.290417 8.75083 0.291843 8.74433 0.294714C8.73784 0.297585 8.73205 0.301833 8.72736 0.307163L8.54962 0.509281C8.54113 0.51905 8.53684 0.531785 8.53771 0.544702C8.53857 0.55762 8.54452 0.569669 8.55424 0.578219C8.56396 0.586768 8.57667 0.591122 8.58959 0.590329C8.60251 0.589537 8.6146 0.583661 8.6232 0.573988L8.71516 0.469416V0.731638C8.71516 0.744631 8.72032 0.757091 8.72951 0.766279C8.7387 0.775466 8.75116 0.780628 8.76415 0.780628C8.77714 0.780628 8.7896 0.775466 8.79879 0.766279C8.80798 0.757091 8.81314 0.744631 8.81314 0.731638V0.476226L8.89252 0.572753C8.90077 0.582789 8.91267 0.589135 8.9256 0.590396C8.93854 0.591656 8.95144 0.587728 8.96148 0.579475C8.97151 0.571223 8.97786 0.559321 8.97912 0.546389C8.98038 0.533457 8.97645 0.520554 8.9682 0.510519L8.9682 0.510517Z" fill="#F2F2F2" />
	<path d="M3.03744 11.6046C2.93143 11.6046 2.82781 11.5732 2.73967 11.5143C2.65153 11.4554 2.58283 11.3717 2.54226 11.2738C2.5017 11.1759 2.49108 11.0681 2.51176 10.9641C2.53244 10.8602 2.58349 10.7647 2.65844 10.6897C2.7334 10.6147 2.8289 10.5637 2.93287 10.543C3.03684 10.5223 3.1446 10.5329 3.24254 10.5735C3.34047 10.6141 3.42418 10.6828 3.48307 10.7709C3.54196 10.8591 3.57339 10.9627 3.57339 11.0687C3.57323 11.2108 3.51671 11.347 3.41623 11.4475C3.31576 11.548 3.17953 11.6045 3.03744 11.6046ZM3.03744 10.6085C2.94642 10.6085 2.85745 10.6355 2.78177 10.686C2.70609 10.7366 2.64711 10.8085 2.61228 10.8926C2.57744 10.9767 2.56833 11.0692 2.58608 11.1584C2.60384 11.2477 2.64766 11.3297 2.71202 11.3941C2.77638 11.4584 2.85837 11.5023 2.94764 11.52C3.03691 11.5378 3.12944 11.5287 3.21352 11.4938C3.29761 11.459 3.36949 11.4 3.42005 11.3244C3.47062 11.2487 3.49761 11.1597 3.49761 11.0687C3.49748 10.9467 3.44895 10.8297 3.36268 10.7434C3.27641 10.6572 3.15944 10.6086 3.03744 10.6085V10.6085Z" fill="white" />
	<path d="M3.2475 11.0437L3.08129 10.8416C3.07678 10.8361 3.07113 10.8317 3.06474 10.8286C3.05835 10.8255 3.05136 10.8239 3.04426 10.8237C3.03716 10.8236 3.03012 10.825 3.02363 10.8279C3.01714 10.8308 3.01135 10.835 3.00666 10.8404L2.82892 11.0425C2.82042 11.0523 2.81614 11.065 2.817 11.0779C2.81787 11.0908 2.82381 11.1029 2.83353 11.1114C2.84326 11.12 2.85597 11.1243 2.86889 11.1235C2.88181 11.1227 2.89389 11.1169 2.9025 11.1072L2.99446 11.0026V11.2648C2.99446 11.2778 2.99962 11.2903 3.00881 11.2995C3.01799 11.3087 3.03045 11.3138 3.04345 11.3138C3.05644 11.3138 3.0689 11.3087 3.07809 11.2995C3.08728 11.2903 3.09244 11.2778 3.09244 11.2648V11.0094L3.17182 11.106C3.18007 11.116 3.19197 11.1223 3.2049 11.1236C3.21783 11.1249 3.23074 11.1209 3.24077 11.1127C3.25081 11.1044 3.25715 11.0925 3.25841 11.0796C3.25968 11.0667 3.25575 11.0538 3.24749 11.0437L3.2475 11.0437Z" fill="white" />
	<path d="M14.6312 2.62564C14.5252 2.62564 14.4216 2.59421 14.3334 2.53531C14.2453 2.47642 14.1766 2.39272 14.136 2.29478C14.0954 2.19685 14.0848 2.08908 14.1055 1.98511C14.1262 1.88115 14.1772 1.78565 14.2522 1.71069C14.3272 1.63573 14.4227 1.58469 14.5266 1.56401C14.6306 1.54333 14.7384 1.55394 14.8363 1.59451C14.9342 1.63508 15.0179 1.70377 15.0768 1.79191C15.1357 1.88005 15.1671 1.98368 15.1671 2.08968C15.167 2.23178 15.1105 2.368 15.01 2.46848C14.9095 2.56896 14.7733 2.62547 14.6312 2.62564V2.62564ZM14.6312 1.62949C14.5402 1.62949 14.4512 1.65647 14.3755 1.70704C14.2998 1.7576 14.2409 1.82947 14.206 1.91356C14.1712 1.99765 14.1621 2.09017 14.1798 2.17944C14.1976 2.26871 14.2414 2.35071 14.3058 2.41507C14.3701 2.47943 14.4521 2.52326 14.5414 2.54101C14.6307 2.55877 14.7232 2.54966 14.8073 2.51483C14.8914 2.48 14.9632 2.42102 15.0138 2.34535C15.0644 2.26967 15.0914 2.1807 15.0914 2.08968C15.0912 1.96768 15.0427 1.8507 14.9564 1.76443C14.8702 1.67816 14.7532 1.62963 14.6312 1.62949V1.62949Z" fill="white" />
	<path d="M14.8412 2.06423L14.675 1.86211C14.6705 1.85663 14.6649 1.85219 14.6585 1.84911C14.6521 1.84602 14.6451 1.84436 14.638 1.84424C14.6309 1.84413 14.6239 1.84555 14.6174 1.84842C14.6109 1.8513 14.6051 1.85554 14.6004 1.86087L14.4227 2.06299C14.4142 2.07276 14.4099 2.0855 14.4108 2.09841C14.4116 2.11133 14.4176 2.12338 14.4273 2.13193C14.437 2.14048 14.4497 2.14483 14.4626 2.14404C14.4756 2.14325 14.4876 2.13737 14.4962 2.1277L14.5882 2.02313V2.28535C14.5882 2.29834 14.5934 2.3108 14.6026 2.31999C14.6117 2.32918 14.6242 2.33434 14.6372 2.33434C14.6502 2.33434 14.6627 2.32918 14.6718 2.31999C14.681 2.3108 14.6862 2.29834 14.6862 2.28535V2.02994L14.7656 2.12646C14.7738 2.1365 14.7857 2.14285 14.7987 2.14411C14.8116 2.14537 14.8245 2.14144 14.8345 2.13319C14.8446 2.12493 14.8509 2.11303 14.8522 2.1001C14.8534 2.08717 14.8495 2.07427 14.8412 2.06423L14.8412 2.06423Z" fill="white" />
</svg>
