<svg viewBox="0 0 22 16" fill="none" xmlns="http://www.w3.org/2000/svg">
	<path fill-rule="evenodd" clip-rule="evenodd" d="M16.2585 15.7611C19.5567 14.8923 22 11.7474 22 7.9996C22 3.58153 18.6041 0 14.4131 0C11.2565 0 8.54994 2.03218 7.40714 4.92413C8.88424 5.50845 10.0725 6.71603 10.6833 8.24331L10.161 8.61062C9.41093 6.6066 7.55791 5.18918 5.39115 5.18918C2.55927 5.18918 0.264648 7.60909 0.264648 10.5944C0.264648 13.5078 2.44968 15.8819 5.186 15.9957V16H14.6184V10.3785L13.1831 11.8919L12.1906 10.8454L15.4386 7.42054L18.6866 10.8454L17.6942 11.8919L16.2589 10.3785L16.2585 15.7611Z" />
</svg>
