<svg viewBox="0 0 19 16" fill="none" xmlns="http://www.w3.org/2000/svg">
	<path d="M15.7368 16.0002H1.20466C0.770402 16.0002 0.402954 15.6708 0.402954 15.2426V7.99592C0.402954 7.58413 0.75373 7.23828 1.20466 7.23828C1.65558 7.23828 2.00634 7.56771 2.00634 7.99592V14.5015H14.9513L14.9514 7.99592C14.9514 7.58413 15.3022 7.23828 15.7531 7.23828C16.2041 7.23828 16.5548 7.56771 16.5548 7.99592V15.2426C16.5215 15.6544 16.1707 16.0002 15.7364 16.0002H15.7368Z" />
	<path d="M12.1455 3.26904L9.0554 0.22231C8.75481 -0.0741034 8.2537 -0.0741034 7.93626 0.22231L4.81278 3.26904C4.66247 3.41725 4.57898 3.6149 4.57898 3.82901C4.57898 4.04312 4.66247 4.22431 4.81278 4.37253C4.96309 4.52074 5.16356 4.60306 5.36402 4.60306C5.58116 4.60306 5.78163 4.52074 5.93196 4.37253L7.63569 2.7091V10.532C7.63569 10.9933 8.0031 11.3556 8.47091 11.3556C8.93865 11.3556 9.30608 10.9933 9.30608 10.532L9.30592 2.67641L11.0265 4.37271C11.3271 4.66912 11.8282 4.66912 12.1456 4.37271C12.2959 4.2245 12.3794 4.02684 12.3794 3.82919C12.3794 3.61509 12.2959 3.41757 12.1455 3.26921V3.26904Z" />
</svg>
