<svg viewBox="0 0 21 16" fill="none" xmlns="http://www.w3.org/2000/svg">
	<path d="M13.2431 11.3865V14H0V11.3867C0 9.89348 2.08102 8.58665 4.919 8.21341C5.01357 7.9335 5.10813 7.7467 5.10813 7.4668C5.10813 7.18689 5.01356 7.00009 4.919 6.72018C3.97297 6.06688 3.31079 4.94684 3.31079 3.54687C3.31079 1.67983 4.82422 0 6.62154 0C8.41886 0 9.93229 1.68007 9.93229 3.64001C9.93229 4.94665 9.27016 6.15997 8.32409 6.81331C8.22952 6.99992 8.13495 7.28002 8.13495 7.55993C8.13495 7.83984 8.22952 8.11995 8.32409 8.30655C11.1622 8.67995 13.2431 9.89329 13.2431 11.3865V11.3865ZM16.2702 8.67993C16.1756 8.49332 16.081 8.21321 16.081 7.93331C16.081 7.7467 16.1756 7.4666 16.2702 7.28001C17.1215 6.71999 17.7836 5.59994 17.7836 4.38662C17.7836 2.51996 16.3647 0.933213 14.7565 0.933213C13.1483 0.933213 11.7294 2.42645 11.7294 4.38662C11.7294 5.59994 12.297 6.71999 13.2428 7.28001C13.3374 7.46662 13.432 7.65341 13.432 7.93331C13.432 8.21322 13.3374 8.40002 13.2428 8.67993C13.0537 8.67993 12.8644 8.77323 12.6752 8.77323C13.7159 9.51985 14.378 10.4533 14.378 11.3865L14.3782 14H21V11.5733C20.8107 10.1731 18.9188 9.05315 16.2702 8.67991L16.2702 8.67993Z" />
</svg>
