<?xml version="1.0" encoding="UTF-8"?>
<svg width="752pt" height="752pt" version="1.1" viewBox="0 0 752 752" xmlns="http://www.w3.org/2000/svg">
 <g fill="#8c8c8c">
  <path d="m441.55 311.5c-0.1875 26.992-17.051 52.379-42.719 61.566-26.426 9.4727-55.977 1.5156-73.973-20.176-17.523-21.215-19.227-52.285-5.0195-75.582 14.02-23.016 41.961-35.707 68.574-30.309 30.688 6.1562 52.852 33.148 53.137 64.5 0.09375 12.219 19.039 12.219 18.941 0-0.28516-35.613-22.637-67.344-56.07-79.656-32.867-12.125-71.699-1.3242-93.77 25.859-22.352 27.562-25.762 67.059-7.1992 97.652 18.469 30.402 54.461 45.844 89.316 39.117 39.211-7.5781 67.438-43.477 67.723-82.875 0.09375-12.316-18.848-12.316-18.941-0.097656z"/>
  <path d="m240.94 515.14c0-30.023 16.195-58.25 42.148-73.406 13.07-7.6719 27.848-11.555 42.906-11.648h14.02 64.879c18.375 0 36.465-0.75781 53.895 6.5352 31.352 13.07 52.188 44.707 52.188 78.52 0 12.219 18.941 12.219 18.941 0 0-35.426-18.562-68.766-48.305-87.801-14.68-9.375-31.73-14.68-49.062-15.914-6.3477-0.47266-12.691-0.1875-19.039-0.1875h-68.102-19.227c-16.102 0.09375-31.73 3.6953-46.125 10.703-35.234 17.051-58.156 54.273-58.156 93.297 0.09375 12.121 19.039 12.121 19.039-0.097656z"/>
 </g>
</svg>
