<svg viewBox="0 0 13 16" fill="none" xmlns="http://www.w3.org/2000/svg">
	<path d="M0.27334 12.1586H9.01267C9.08516 12.1586 9.1546 12.1311 9.20583 12.082C9.25707 12.0329 9.28582 11.9663 9.28582 11.8971V0.907691C9.28582 0.838282 9.25707 0.771729 9.20583 0.722654C9.1546 0.673576 9.08509 0.645996 9.01267 0.645996H2.73109V2.47763C2.73109 2.68572 2.64486 2.88541 2.49118 3.03262C2.3375 3.17985 2.12907 3.26246 1.91188 3.26246H0V11.8969C0 11.9662 0.0287896 12.0327 0.0800165 12.0818C0.131244 12.1309 0.200718 12.1585 0.273163 12.1585L0.27334 12.1586Z" />
	<path d="M1.91169 2.73937C1.984 2.73937 2.05348 2.71179 2.1047 2.66271C2.15593 2.61364 2.18472 2.54708 2.18472 2.4778V1.01611L0.385986 2.73935L1.91169 2.73937Z" />
	<path d="M3.00439 13.7287H10.6514C10.7238 13.7287 10.7933 13.7012 10.8445 13.6521C10.8957 13.603 10.9245 13.5364 10.9245 13.467V2.478C10.9245 2.4086 10.8957 2.34204 10.8445 2.29296C10.7932 2.24388 10.7238 2.21631 10.6514 2.21631H9.832V11.8973C9.832 12.1053 9.74575 12.305 9.59204 12.4522C9.43841 12.5994 9.22995 12.6821 9.01262 12.6821H1.63867V13.4671C1.63867 13.5365 1.66746 13.603 1.71869 13.6521C1.76992 13.7012 1.83939 13.7287 1.91184 13.7287H3.00439Z" />
	<path d="M11.4709 3.78616V13.4671C11.4709 13.6753 11.3845 13.875 11.231 14.0222C11.0773 14.1693 10.8689 14.2521 10.6515 14.2521H3.27759V15.037C3.27759 15.1064 3.30638 15.173 3.35747 15.2221C3.4087 15.2711 3.47817 15.2986 3.55062 15.2986H12.2903C12.3628 15.2986 12.4322 15.2711 12.4835 15.2221C12.5347 15.173 12.5633 15.1064 12.5633 15.037V4.0477C12.5633 3.97829 12.5347 3.91173 12.4835 3.86266C12.4322 3.81358 12.3627 3.78613 12.2903 3.78613L11.4709 3.78616Z" />
</svg>
