<svg width="16" height="16" viewBox="0 0 16 16" fill="none" xmlns="http://www.w3.org/2000/svg">
<path d="M13.7149 10.0211C12.9471 8.30957 11.4074 7.01472 9.54798 6.47913C10.4251 5.81043 10.9858 4.78882 10.9858 3.64479C10.9858 1.63529 9.25055 0 7.11814 0C4.98574 0 3.25043 1.63529 3.25043 3.64479C3.25043 4.78882 3.81131 5.81039 4.6883 6.47913C3.50816 6.81971 2.441 7.46882 1.62041 8.36092C0.575784 9.49604 0 10.9486 0 12.451V13.4318C0 14.3416 0.786776 15.083 1.75223 15.083H10.4403C11.0294 15.6487 11.85 16 12.7553 16C14.5452 16 16 14.6289 16 12.9423C16.0002 11.5696 15.0384 10.4078 13.7153 10.0212L13.7149 10.0211ZM12.7551 15.2692C11.3924 15.2692 10.2839 14.2245 10.2839 12.9404C10.2839 11.6563 11.3925 10.6117 12.7551 10.6117C14.1178 10.6117 15.2263 11.6564 15.2263 12.9404C15.2263 14.2264 14.1177 15.2692 12.7551 15.2692Z" fill="none"/>
<path d="M13.1427 12.5768V11.3494C13.1427 11.149 12.9696 10.9858 12.7569 10.9858C12.5442 10.9858 12.3711 11.149 12.3711 11.3494V12.5768H11.0686C10.856 12.5768 10.6829 12.7399 10.6829 12.9403C10.6829 13.1408 10.856 13.3039 11.0686 13.3039H12.3711V14.5313C12.3711 14.7317 12.5442 14.8948 12.7569 14.8948C12.9696 14.8948 13.1427 14.7317 13.1427 14.5313V13.3039H14.4451C14.6578 13.3039 14.8309 13.1407 14.8309 12.9403C14.8309 12.7399 14.6578 12.5768 14.4451 12.5768H13.1427Z" fill="none"/>
</svg>
