<svg width="16" height="16" viewBox="0 0 16 16" fill="none" xmlns="http://www.w3.org/2000/svg">
<path d="M15.0905 4.30748C15.0439 4.21766 14.9636 4.15 14.8673 4.11953C14.7709 4.08907 14.6663 4.09822 14.5767 4.14485C14.4871 4.19162 14.4196 4.27201 14.3895 4.36856C14.3592 4.46511 14.3685 4.56968 14.4152 4.65936C15.1297 6.02411 15.3885 7.5822 15.1538 9.10513C14.9192 10.6279 14.2034 12.0354 13.1112 13.1214C10.2908 15.9434 5.70174 15.9441 2.88079 13.1214H2.88093C2.77202 13.0122 2.60824 12.9796 2.46588 13.0386C2.32367 13.0976 2.23091 13.2365 2.23091 13.3907V15.318C2.23091 15.5284 2.40142 15.6989 2.61165 15.6989C2.82203 15.6989 2.99238 15.5284 2.99238 15.318V14.244C4.52982 15.4748 6.46639 16.0957 8.43231 15.988C10.3982 15.8803 12.2558 15.0516 13.6494 13.6602C16.1301 11.1775 16.7092 7.41872 15.0904 4.30766L15.0905 4.30748Z" />
<path d="M2.88104 2.88267C3.77888 1.98396 4.89723 1.33772 6.12381 1.00871C7.35051 0.679724 8.64196 0.679724 9.86861 1.00871C11.0953 1.3377 12.2135 1.98396 13.1114 2.88267C13.2203 2.99181 13.3841 3.02442 13.5264 2.96549C13.6686 2.90641 13.7614 2.76738 13.7614 2.61333V0.686019C13.7614 0.475609 13.5909 0.304973 13.3807 0.304973C13.1704 0.304973 12.9999 0.47562 12.9999 0.686019V1.75951C11.5686 0.610915 9.78617 -0.0103067 7.9515 0.000129376C6.11682 0.0105655 4.34171 0.652111 2.92356 1.817C1.50547 2.98178 0.530618 4.59922 0.162578 6.39826C-0.205462 8.19696 0.0556717 10.0677 0.902208 11.6969C0.999251 11.8835 1.22907 11.956 1.41558 11.8588C1.60195 11.7617 1.67441 11.5317 1.57736 11.345C0.862908 9.98025 0.603937 8.42231 0.838467 6.89922C1.07315 5.37643 1.78892 3.96895 2.88111 2.88298L2.88104 2.88267Z" />
<path d="M7.99606 2.13419C7.19741 2.13504 6.43177 2.45302 5.86707 3.01818C5.30237 3.58334 4.98467 4.34957 4.9838 5.1489V6.65781H4.52388C4.18073 6.65824 3.85172 6.79484 3.60903 7.03772C3.36635 7.2806 3.22972 7.60987 3.22943 7.95346V11.6603C3.22972 12.0039 3.36635 12.3331 3.60903 12.576C3.85171 12.8189 4.18072 12.9555 4.52388 12.9559H11.4683C11.8116 12.9555 12.1406 12.8189 12.3833 12.576C12.626 12.3331 12.7625 12.0039 12.7628 11.6603V7.95346C12.7625 7.60988 12.626 7.28061 12.3833 7.03772C12.1406 6.79484 11.8116 6.65825 11.4683 6.65781H11.0085V5.1489C11.0075 4.3496 10.6898 3.58334 10.1251 3.01807C9.56028 2.45291 8.79467 2.1351 7.99602 2.13422L7.99606 2.13419ZM5.74516 5.14886C5.74516 4.344 6.17423 3.60033 6.87068 3.19797C7.56714 2.79547 8.42509 2.79547 9.12158 3.19797C9.81804 3.60033 10.2471 4.344 10.2471 5.14886V6.65777H5.74531L5.74516 5.14886ZM12.0014 7.95342L12.0015 11.6602C12.0012 11.8017 11.9451 11.9373 11.8452 12.0373C11.7453 12.1373 11.6098 12.1936 11.4684 12.1938H4.52397C4.38262 12.1936 4.24728 12.1373 4.14723 12.0373C4.04732 11.9373 3.99116 11.8017 3.99101 11.6602V7.95342C3.99116 7.81196 4.04733 7.67636 4.14723 7.57637C4.24727 7.47638 4.38262 7.42003 4.52397 7.41989H11.4684C11.6098 7.42003 11.7452 7.47639 11.8452 7.57637C11.9451 7.67635 12.0012 7.81195 12.0015 7.95342H12.0014Z" />
<path d="M11.1942 9.80674C11.1942 10.2275 10.8534 10.5688 10.4329 10.5688C10.0123 10.5688 9.6714 10.2275 9.6714 9.80674C9.6714 9.38592 10.0123 9.04465 10.4329 9.04465C10.8533 9.04465 11.1942 9.38594 11.1942 9.80674Z" />
<path d="M8.75747 9.80674C8.75747 10.2275 8.4166 10.5688 7.99611 10.5688C7.57549 10.5688 7.23463 10.2275 7.23463 9.80674C7.23463 9.38592 7.5755 9.04465 7.99611 9.04465C8.41658 9.04465 8.75747 9.38594 8.75747 9.80674Z" />
<path d="M6.32069 9.80674C6.32069 10.2275 5.97968 10.5688 5.55922 10.5688C5.1386 10.5688 4.79774 10.2275 4.79774 9.80674C4.79774 9.38592 5.13861 9.04465 5.55922 9.04465C5.97969 9.04465 6.32069 9.38594 6.32069 9.80674Z" />
</svg>
