<svg width="16" height="17" viewBox="0 0 17 17" fill="none" xmlns="http://www.w3.org/2000/svg">
<path d="M13.0348 0.621515C12.2484 0.619173 11.4939 0.931438 10.9392 1.4887L5.56637 6.86405C4.64279 7.78169 4.12511 9.03076 4.12893 10.3323V12.4925H6.28904H6.28883C7.58982 12.4954 8.83779 11.9778 9.75462 11.055L15.1327 5.68201C15.6885 5.12581 16.0003 4.37165 16.0001 3.58533C15.9997 2.79923 15.6872 2.04528 15.131 1.48952C14.575 0.933753 13.8209 0.62146 13.0348 0.62146L13.0348 0.621515ZM14.036 4.58536L8.66303 9.96088C8.03491 10.5927 7.17982 10.9466 6.28882 10.9441H5.67726V10.3323C5.67534 9.44233 6.02933 8.58834 6.66046 7.96081L12.036 2.58529C12.3972 2.24664 12.9093 2.12105 13.3863 2.25451C13.8634 2.38776 14.2361 2.76048 14.3693 3.23749C14.5028 3.71451 14.3772 4.22663 14.0385 4.58785L14.036 4.58536Z" fill="none"/>
<path d="M2.83868 16.6214H12.129C12.8819 16.6214 13.6039 16.3223 14.1363 15.79C14.6686 15.2576 14.9677 14.5355 14.9677 13.7827V9.65367H13.4194V13.7827C13.4194 14.1247 13.2834 14.453 13.0415 14.695C12.7995 14.937 12.4713 15.073 12.129 15.073H2.8387C2.49643 15.073 2.16818 14.937 1.9264 14.695C1.68438 14.453 1.54836 14.1247 1.54836 13.7827V4.49237C1.54836 4.1503 1.68438 3.82206 1.9264 3.58006C2.16821 3.33804 2.49644 3.20224 2.8387 3.20224H6.96771V1.65369H2.8387C2.08584 1.65369 1.36382 1.95275 0.831438 2.48512C0.299052 3.01749 0 3.73969 0 4.49239V13.7827C0 14.5356 0.299068 15.2576 0.831438 15.79C1.3638 16.3223 2.08584 16.6214 2.8387 16.6214L2.83868 16.6214Z" fill="none"/>
</svg>
