<svg width="20" height="20" viewBox="0 0 20 20" fill="none" xmlns="http://www.w3.org/2000/svg">
<path d="M0.0969981 0.0516505C0.0363913 0.0996171 0 0.172802 0 0.253572V2.65489L4.24971 4.85414V1.1324L0.307799 0.00866295C0.235157 -0.011456 0.157612 0.00370611 0.0970052 0.0516693L0.0969981 0.0516505Z" fill="none"/>
<path d="M0 10.235L4.24971 7.70994V5.41973L0 3.21802V10.235Z" fill="none"/>
<path d="M4.24972 11.8082V8.29083L0.249756 10.6668L4.24972 11.8082Z" fill="none"/>
<path d="M4.73462 5.42234V7.65686L8.75644 8.61645V6.50293L6.34922 4.63696L4.73462 5.42234Z" fill="none"/>
<path d="M8.75624 5.87428V3.46539L6.84595 4.39453L8.75624 5.87428Z" fill="none"/>
<path d="M4.73445 4.86438L6.26893 4.11693L8.75619 2.90496V0.0568237L4.73438 1.08946L4.73445 4.86438Z" fill="none"/>
<path d="M4.73462 11.813L8.75644 10.7804V9.134L4.73462 8.17456V11.813Z" fill="none"/>
<path d="M13.7284 1.51614C13.7284 1.40257 13.6532 1.30402 13.549 1.27369L9.24121 0.0592651V6.00545L13.7285 4.13437L13.7284 1.51614Z" fill="none"/>
<path d="M13.4156 8.10916C13.5198 8.10916 13.624 8.11426 13.7282 8.1268V4.67755L9.24097 6.55109V10.7805L10.3561 11.0809C10.3634 10.9749 10.373 10.8663 10.39 10.7628C10.6422 9.22517 11.9148 8.10912 13.4154 8.10912L13.4156 8.10916Z" fill="none"/>
<path d="M13.9152 8.66452C13.7576 8.63172 13.5904 8.61407 13.4158 8.61407C12.1528 8.61407 11.0812 9.5534 10.8679 10.8463C10.8437 10.9953 10.8315 11.1492 10.8315 11.3058C10.8315 12.0506 11.1297 12.7678 11.6533 13.2779C12.1382 13.7425 12.7635 14 13.4157 14C14.8413 13.9999 16.0001 12.7904 16.0001 11.3057C16.0001 10.0179 15.1225 8.90948 13.9152 8.66453L13.9152 8.66452ZM14.4631 12.4016C14.4146 12.452 14.354 12.4748 14.2909 12.4748C14.2279 12.4748 14.1673 12.452 14.1187 12.4016L13.2557 11.5002L13.0496 11.8511C13.006 11.9269 12.9284 11.9723 12.8436 11.9723H12.8194C12.7273 11.9622 12.6474 11.8991 12.6159 11.8082L12.0873 10.3059C12.0559 10.215 12.0752 10.114 12.1407 10.0458C12.2037 9.97508 12.3007 9.94985 12.3904 9.98018L13.8813 10.4751C13.9734 10.5055 14.0389 10.5887 14.0486 10.6848C14.0606 10.7831 14.0146 10.879 13.9347 10.9321L13.5978 11.1442L14.4632 12.0456C14.5577 12.144 14.5577 12.303 14.463 12.4016L14.4631 12.4016Z" fill="none"/>
</svg>
