<svg width="16" height="16" viewBox="0 0 16 16" fill="none" xmlns="http://www.w3.org/2000/svg">
<path d="M12.1608 0C12.8572 0 13.5252 0.232535 14.0176 0.646543C14.5099 1.06054 14.7867 1.62209 14.7867 2.20751C14.7867 2.79294 14.51 3.35448 14.0176 3.76848C13.5252 4.18235 12.8572 4.41502 12.1608 4.41502C11.4644 4.41502 10.7965 4.18236 10.304 3.76848C9.81152 3.35448 9.53491 2.79294 9.53491 2.20751C9.53491 1.62209 9.81152 1.06054 10.304 0.646543C10.7965 0.232542 11.4644 0 12.1608 0V0ZM1.40762 3.31002C1.40762 4.0393 1.75236 4.73875 2.36571 5.25451C2.97923 5.77027 3.81125 6.05995 4.67891 6.05995C5.54642 6.05995 6.37844 5.77027 6.99195 5.25451C7.60547 4.73875 7.95004 4.0393 7.95004 3.31002C7.95004 2.5806 7.60546 1.88115 6.99195 1.36539C6.37844 0.84976 5.54642 0.559952 4.67891 0.559952C3.81125 0.559952 2.97923 0.849763 2.36571 1.36539C1.75236 1.88115 1.40762 2.5806 1.40762 3.31002ZM8.88989 8.93758C7.67656 7.10265 4.98816 7.17259 4.68779 7.17259C4.38743 7.17259 1.71402 7.10264 0.488918 8.93758C-0.99805 11.2075 1.38106 16 1.38106 16H7.99767C7.99767 16 10.3768 11.2076 8.88981 8.93758H8.88989ZM14.8852 12.4151C14.8852 12.4151 16.8062 8.58014 15.6048 6.76521C14.6354 5.29766 12.4853 5.35269 12.2444 5.35269C12.0035 5.35269 9.86526 5.29766 8.88394 6.76521C8.7932 6.90497 8.72036 7.05251 8.66699 7.20519C9.18361 7.54581 9.61266 7.97103 9.92789 8.45524C10.6535 9.55271 10.6714 11.0303 10.4246 12.4179H14.8855L14.8852 12.4151Z" fill="none"/>
</svg>
