<svg width="16" height="16" viewBox="0 0 16 16" fill="none" xmlns="http://www.w3.org/2000/svg">
<path d="M2.23672e-05 8.61608V14.1541C2.23672e-05 15.1725 0.67246 16 1.49999 16H14.5C15.3276 16 16 15.1725 16 14.1541V8.61608C16 8.2745 15.775 8.00068 15.4999 8.00068C15.2249 8.00068 14.9999 8.2745 14.9999 8.61608V14.1541C14.9999 14.4926 14.7749 14.7695 14.4998 14.7695H1.49978C1.22469 14.7695 0.999715 14.4926 0.999715 14.1541L0.999921 8.61608C0.999921 8.2745 0.774945 8.00068 0.499857 8.00068C0.22498 8.00068 -1.87054e-07 8.2745 -1.87054e-07 8.61608H2.23672e-05ZM10.1478 4.12738L8.50019 2.10281V11.6929C8.50019 12.0345 8.27522 12.3083 8.00013 12.3083C7.72505 12.3083 7.50007 12.0345 7.50007 11.6929L7.50028 2.10281L5.85265 4.13044C5.75532 4.24717 5.62768 4.30884 5.50024 4.30884C5.3728 4.30884 5.24516 4.24742 5.14782 4.12739C4.95275 3.88732 4.95275 3.49677 5.14782 3.25673L7.6479 0.180049C7.84297 -0.0600163 8.16033 -0.0600163 8.35539 0.180049L10.8555 3.25673C11.0505 3.49679 11.0505 3.88734 10.8555 4.12739C10.6602 4.3672 10.3428 4.37025 10.1478 4.12739L10.1478 4.12738Z" fill="black"/>
</svg>
